<svg id="feller-1407" xmlns="http://www.w3.org/2000/svg" x="0px" y="0px" width="28px" height="28px" xml:space="preserve"><path d="M16.064,14.193c-0.255,0-0.503-0.132-0.639-0.368c-0.204-0.353-0.083-0.804,0.269-1.007l9.905-5.724l-9.904-5.719  c-0.353-0.204-0.474-0.654-0.271-1.007c0.204-0.353,0.656-0.474,1.007-0.27l11.01,6.357c0.229,0.131,0.369,0.375,0.369,0.638  s-0.141,0.506-0.368,0.638l-11.01,6.361C16.316,14.161,16.189,14.193,16.064,14.193L16.064,14.193z M11.748,14.193c-0.125,0-0.252-0.032-0.368-0.1L0.368,7.733C0.14,7.601,0,7.358,0,7.095s0.14-0.507,0.368-0.638L11.38,0.099  c0.352-0.204,0.804-0.083,1.007,0.27c0.204,0.353,0.083,0.803-0.27,1.007L2.21,7.095l9.907,5.724  c0.353,0.203,0.473,0.654,0.27,1.007C12.25,14.062,12.002,14.193,11.748,14.193L11.748,14.193z" style="fill: rgb(255, 255, 255)"></path></svg>