<svg id="feller-1411" xmlns="http://www.w3.org/2000/svg" x="0px" y="0px" width="18px" height="28px" xml:space="preserve"><path d="M17.777,10.191l-3.275-9.69C14.4,0.201,14.12,0,13.803,0H4.012C3.696,0,3.415,0.201,3.313,0.501l-3.274,9.69  c-0.076,0.225-0.039,0.473,0.1,0.666c0.138,0.193,0.361,0.307,0.599,0.307h7.434v14.901H5.407c-0.407,0-0.737,0.33-0.737,0.737  S5,27.54,5.407,27.54h7.004c0.407,0,0.737-0.33,0.737-0.737s-0.33-0.737-0.737-0.737H9.645V11.164h7.434  c0.237,0,0.46-0.114,0.599-0.307S17.853,10.416,17.777,10.191z M1.764,9.69l2.776-8.217h8.733l2.777,8.217H1.764z" style="fill: rgb(255, 255, 255)"></path></svg>