<svg id="feller-1412" xmlns="http://www.w3.org/2000/svg" x="0px" y="0px" width="18px" height="28px" xml:space="preserve"><path d="M17.777,10.191l-3.274-9.69C14.401,0.201,14.121,0,13.804,0H4.012C3.696,0,3.415,0.201,3.314,0.501l-3.275,9.69  c-0.076,0.225-0.039,0.473,0.1,0.666c0.138,0.193,0.361,0.307,0.599,0.307h7.479v11.017h-2.75c-0.407,0-0.737,0.33-0.737,0.737  s0.33,0.737,0.737,0.737h7.006c0.407,0,0.737-0.33,0.737-0.737s-0.33-0.737-0.737-0.737H9.69V11.164h3.536v3.278  c0,0.407,0.33,0.737,0.737,0.737s0.737-0.33,0.737-0.737v-3.278h2.378c0.237,0,0.46-0.114,0.599-0.307S17.853,10.416,17.777,10.191z   M1.764,9.69l2.777-8.217h8.734l2.776,8.217H1.764z" style="fill: rgb(255, 255, 255)"></path></svg>