<svg id="feller-1415" xmlns="http://www.w3.org/2000/svg" x="0px" y="0px" width="22px" height="28px" xml:space="preserve"><path d="M10.619,23.325C4.763,23.325,0,18.561,0,12.705C0,8.737,2.184,5.13,5.701,3.292C6.06,3.104,6.506,3.242,6.695,3.604  c0.188,0.36,0.049,0.806-0.312,0.995c-3.028,1.583-4.91,4.689-4.91,8.107c0,5.043,4.103,9.146,9.145,9.146  c5.042,0,9.145-4.103,9.145-9.146c0-3.411-1.878-6.518-4.902-8.108c-0.36-0.189-0.499-0.635-0.31-0.995  c0.188-0.36,0.633-0.5,0.995-0.31c3.511,1.846,5.691,5.452,5.691,9.413C21.238,18.561,16.474,23.325,10.619,23.325L10.619,23.325z M10.619,7.735c-0.407,0-0.737-0.33-0.737-0.737V0.737C9.882,0.33,10.211,0,10.619,0s0.737,0.33,0.737,0.737v6.261  C11.355,7.405,11.026,7.735,10.619,7.735L10.619,7.735z" style="fill: rgb(255, 255, 255)"></path></svg>