<svg id="feller-1420" xmlns="http://www.w3.org/2000/svg" x="0px" y="0px" width="19px" height="28px" xml:space="preserve"><path d="M18.96,0.737c0-0.225-0.103-0.437-0.278-0.577c-0.175-0.14-0.403-0.192-0.624-0.142L0.572,4.042C0.237,4.12,0,4.417,0,4.761  V15.95c0,0.407,0.33,0.737,0.737,0.737s0.737-0.33,0.737-0.737V5.348l16.012-3.685v22.353L0.903,20.196  c-0.398-0.099-0.792,0.155-0.884,0.553c-0.091,0.396,0.156,0.792,0.553,0.883l17.486,4.027c0.055,0.013,0.11,0.02,0.165,0.02  c0.165,0,0.327-0.056,0.459-0.16c0.176-0.141,0.278-0.353,0.278-0.577V0.737z M10.724,18.563c-1.466,0-2.608-0.682-3.034-1.941c-0.017-0.068-1.022,0-1.022,0.902c0,0.988,1.38,2.47,4.057,2.47  c2.692,0,4.277-1.243,4.277-3.372c0-1.891-1.277-3.065-3.408-3.27l3.033-2.759c0.358-0.323,0.478-0.511,0.478-1.005V9.521  c0-0.494-0.29-0.767-0.817-0.767H7.843c-0.58,0-0.835,0.256-0.835,0.715v0.103c0,0.442,0.255,0.681,0.835,0.681h5.011L9.428,13.37  c-0.188,0.17-0.29,0.271-0.29,0.578v0.103c0,0.375,0.222,0.63,0.835,0.63h0.784c1.654,0,2.523,0.664,2.523,1.941  C13.281,17.814,12.292,18.563,10.724,18.563z" style="fill: rgb(255, 255, 255)"></path></svg>