<svg id="feller-1423" xmlns="http://www.w3.org/2000/svg" x="0px" y="0px" width="18px" height="28px" xml:space="preserve"><path d="M17.777,19.63l-3.274-9.69c-0.102-0.3-0.382-0.501-0.698-0.501H9.644V1.474h2.767c0.407,0,0.737-0.33,0.737-0.737  S12.818,0,12.411,0H5.407C5,0,4.67,0.33,4.67,0.737S5,1.474,5.407,1.474H8.17v7.965H4.012c-0.316,0-0.597,0.201-0.698,0.501  l-3.274,9.69c-0.076,0.226-0.039,0.473,0.1,0.666c0.138,0.193,0.361,0.308,0.599,0.308h16.342c0.237,0,0.46-0.114,0.599-0.308  S17.854,19.856,17.777,19.63z M1.764,19.129l2.776-8.217h8.735l2.776,8.217H1.764z M8.903,22.854c-0.407,0-0.737,0.33-0.737,0.737v3.502c0,0.407,0.33,0.737,0.737,0.737S9.64,27.5,9.64,27.093v-3.502  C9.64,23.184,9.311,22.854,8.903,22.854z M4.325,22.224c-0.352-0.201-0.804-0.082-1.007,0.271l-1.752,3.034c-0.204,0.353-0.083,0.803,0.27,1.007  c0.116,0.066,0.243,0.099,0.368,0.099c0.254,0,0.502-0.133,0.639-0.369l1.752-3.034C4.798,22.878,4.677,22.428,4.325,22.224z M14.553,22.483c-0.203-0.353-0.653-0.473-1.007-0.269c-0.353,0.203-0.473,0.654-0.269,1.007l1.754,3.032  c0.137,0.236,0.384,0.368,0.639,0.368c0.125,0,0.252-0.032,0.368-0.1c0.353-0.203,0.473-0.654,0.269-1.007L14.553,22.483z" style="fill: rgb(255, 255, 255)"></path></svg>