<svg id="feller-1424" xmlns="http://www.w3.org/2000/svg" x="0px" y="0px" width="18px" height="28px" xml:space="preserve"><path d="M17.678,7.534c-0.139-0.193-0.361-0.307-0.599-0.307H0.737c-0.237,0-0.46,0.114-0.599,0.307C0,7.727-0.037,7.975,0.039,8.2  l3.274,9.69c0.101,0.299,0.382,0.501,0.698,0.501H8.17v7.965H5.407c-0.407,0-0.737,0.33-0.737,0.737S5,27.831,5.407,27.831h7.004  c0.407,0,0.737-0.33,0.737-0.737s-0.33-0.737-0.737-0.737H9.644v-7.965h4.161c0.316,0,0.597-0.202,0.698-0.501l3.274-9.69  C17.854,7.975,17.816,7.727,17.678,7.534z M13.275,16.917H4.541L1.764,8.701h14.288L13.275,16.917z M8.903,4.976c0.407,0,0.737-0.33,0.737-0.737V0.737C9.64,0.33,9.311,0,8.903,0S8.167,0.33,8.167,0.737v3.502  C8.167,4.646,8.496,4.976,8.903,4.976z M3.318,5.335c0.137,0.236,0.384,0.369,0.639,0.369c0.125,0,0.252-0.032,0.368-0.099c0.353-0.204,0.473-0.654,0.27-1.007  L2.842,1.564c-0.204-0.353-0.655-0.472-1.007-0.27c-0.353,0.204-0.473,0.654-0.27,1.007L3.318,5.335z M13.546,5.616c0.116,0.067,0.243,0.099,0.368,0.099c0.255,0,0.502-0.132,0.639-0.368l1.754-3.032  c0.204-0.353,0.084-0.803-0.269-1.007c-0.354-0.204-0.804-0.083-1.007,0.269l-1.754,3.032C13.073,4.961,13.193,5.412,13.546,5.616z" style="fill: rgb(255, 255, 255)"></path></svg>