<svg id="feller-1427" xmlns="http://www.w3.org/2000/svg" x="0px" y="0px" width="19px" height="28px" xml:space="preserve"><path d="M10.314,28.069H8.833c-0.407,0-0.737-0.33-0.737-0.737s0.33-0.737,0.737-0.737h1.481c1.023,0,1.023-0.173,1.023-0.412  c0-0.14-0.042-0.179-0.067-0.202c-0.179-0.163-0.674-0.217-0.955-0.19l-1.77,0.003c-2.261,0-2.735-1.099-2.735-2.02  c0-0.52,0.185-0.974,0.536-1.313c0.681-0.659,1.745-0.649,1.866-0.638l3.612-0.001c0.005,0,0.009,0,0.014,0  c-0.001-0.005-0.001-0.01-0.001-0.015c-0.01-0.141-0.02-0.298-0.02-0.472l0.008-0.743c0.101-1.381,0.53-2.457,1.28-3.247  c2-2.112,3.344-5.388,1.112-8.244c-1.208-1.546-2.907-2.403-4.783-2.414C7.516,6.682,5.623,7.559,4.478,8.99  c-2.064,2.577-1.208,5.595-0.184,6.892c0.226,0.286,0.433,0.514,0.624,0.725c0.83,0.917,1.362,1.592,1.831,3.815  c0.084,0.398-0.171,0.789-0.569,0.873c-0.395,0.091-0.789-0.17-0.873-0.568c-0.411-1.947-0.813-2.393-1.481-3.131  c-0.21-0.232-0.438-0.484-0.688-0.8c-1.305-1.653-2.408-5.484,0.189-8.727C4.737,6.305,7.062,5.214,9.4,5.214  c0.015,0,0.029,0,0.043,0c2.336,0.014,4.445,1.072,5.937,2.98c2.81,3.597,1.106,7.725-1.205,10.166  c-0.517,0.544-0.804,1.295-0.877,2.294l-0.006,0.692c-0.001,0.13,0.008,0.253,0.016,0.363c0.024,0.366,0.055,0.822-0.288,1.188  c-0.33,0.353-0.813,0.398-1.195,0.398H8.188c-0.261-0.007-0.653,0.063-0.818,0.226c-0.042,0.041-0.085,0.103-0.085,0.251  c0,0.217,0,0.545,1.261,0.545h1.702c0.063-0.008,1.271-0.104,2.013,0.57c0.36,0.328,0.552,0.775,0.552,1.294  C12.812,27.435,11.971,28.069,10.314,28.069L10.314,28.069z M2.969,6.536c-0.186,0-0.372-0.07-0.515-0.21L0.222,4.143C-0.069,3.859-0.075,3.392,0.21,3.101  c0.284-0.292,0.751-0.296,1.042-0.012l2.232,2.183c0.291,0.284,0.296,0.751,0.012,1.042C3.352,6.462,3.161,6.536,2.969,6.536  L2.969,6.536z M7.026,4.47c-0.322,0-0.618-0.213-0.709-0.539L5.479,0.937C5.37,0.545,5.598,0.138,5.99,0.028  c0.39-0.11,0.798,0.119,0.909,0.511l0.838,2.994c0.109,0.392-0.119,0.799-0.511,0.909C7.159,4.461,7.092,4.47,7.026,4.47L7.026,4.47  z M15.648,6.536c-0.191,0-0.383-0.074-0.527-0.222c-0.284-0.291-0.279-0.758,0.012-1.042l2.232-2.183  c0.292-0.285,0.759-0.28,1.043,0.012c0.284,0.291,0.279,0.758-0.012,1.042l-2.232,2.183C16.02,6.466,15.833,6.536,15.648,6.536  L15.648,6.536z M11.589,4.47c-0.065,0-0.133-0.009-0.199-0.028c-0.392-0.109-0.62-0.516-0.511-0.908l0.839-2.994  c0.11-0.392,0.515-0.625,0.909-0.511c0.392,0.109,0.62,0.516,0.511,0.908l-0.839,2.994C12.208,4.257,11.912,4.47,11.589,4.47  L11.589,4.47z" style="fill: rgb(255, 255, 255)"></path></svg>