<svg id="feller-1431" xmlns="http://www.w3.org/2000/svg" x="0px" y="0px" width="26px" height="28px" xml:space="preserve"><path d="M8.87,27.834c-0.381,0-0.856-0.047-1.287-0.224c-1-0.412-1.567-1.639-1.407-2.46c0.161-0.852,1.261-1.055,2.155-1.074h2.335  c0.468,0,0.62-0.047,0.665-0.086c-0.002,0,0.009-0.037,0.009-0.108c-0.062-0.126-0.394-0.198-0.663-0.174l-2.561,0.003  c-2.035,0-2.338-1.108-2.338-1.769c0-0.461,0.165-0.863,0.478-1.164c0.579-0.559,1.435-0.56,1.602-0.549l3.431-0.001  c-0.003-0.081-0.006-0.169-0.004-0.262c0.002-0.093,0-0.2-0.003-0.325c-0.021-0.903-0.059-2.587,1.095-3.838  c1.624-1.766,2.717-4.5,0.912-6.878c-0.973-1.283-2.336-1.994-3.838-2.002c-0.009,0-0.019,0-0.028,0  c-1.524,0-3.035,0.728-3.949,1.905c-1.669,2.151-0.978,4.662-0.15,5.738c0.185,0.242,0.354,0.435,0.51,0.612  c0.737,0.843,1.21,1.475,1.622,3.763c0.072,0.401-0.194,0.784-0.595,0.856c-0.399,0.069-0.784-0.194-0.856-0.595  c-0.36-2.002-0.707-2.397-1.28-3.054c-0.174-0.199-0.363-0.415-0.57-0.686c-1.139-1.481-2.039-4.713,0.155-7.54  c1.195-1.539,3.15-2.492,5.15-2.475c1.971,0.011,3.748,0.93,5.003,2.585c2.357,3.105,0.934,6.664-1.001,8.769  c-0.751,0.814-0.723,2.061-0.706,2.806c0.003,0.152,0.006,0.285,0.003,0.391c-0.002,0.106,0.005,0.209,0.011,0.299  c0.019,0.3,0.044,0.71-0.271,1.045c-0.3,0.319-0.723,0.36-1.058,0.36h-3.61c-0.188-0.002-0.457,0.044-0.553,0.137  c-0.009,0.009-0.026,0.025-0.026,0.103c0,0.117,0,0.294,0.865,0.294h2.494c0.117-0.013,1.083-0.074,1.711,0.496  c0.321,0.292,0.491,0.689,0.491,1.149c0,0.762-0.373,1.669-2.148,1.669H8.347c-0.225,0.005-0.498,0.041-0.687,0.084  c0.073,0.22,0.248,0.515,0.485,0.612c0.394,0.164,0.999,0.111,1.199,0.078c0.404-0.065,0.781,0.202,0.85,0.603  c0.069,0.4-0.198,0.78-0.599,0.85C9.538,27.788,9.25,27.834,8.87,27.834L8.87,27.834z M11.673,4.51c-0.061,0-0.124-0.008-0.186-0.024c-0.394-0.102-0.63-0.504-0.528-0.898l0.787-3.035  c0.102-0.394,0.504-0.63,0.898-0.528c0.394,0.102,0.63,0.504,0.528,0.898l-0.787,3.035C12.3,4.29,12.001,4.51,11.673,4.51  L11.673,4.51z M2.975,6.914c-0.187,0-0.373-0.07-0.517-0.211l-2.237-2.2C-0.07,4.217-0.074,3.75,0.212,3.46  c0.285-0.292,0.751-0.294,1.042-0.009l2.237,2.2C3.782,5.937,3.786,6.403,3.5,6.693C3.356,6.84,3.165,6.914,2.975,6.914L2.975,6.914  z M7.101,4.518c-0.323,0-0.62-0.214-0.71-0.541L5.554,0.955C5.446,0.562,5.676,0.156,6.068,0.047  C6.46-0.061,6.867,0.169,6.975,0.561l0.837,3.022C7.92,3.976,7.69,4.382,7.298,4.491C7.232,4.509,7.166,4.518,7.101,4.518  L7.101,4.518z M15.73,6.914c-0.187,0-0.373-0.07-0.517-0.211c-0.29-0.285-0.294-0.752-0.009-1.042l2.2-2.238  c0.285-0.292,0.751-0.294,1.042-0.009c0.29,0.285,0.294,0.752,0.009,1.042l-2.2,2.238C16.111,6.84,15.921,6.914,15.73,6.914  L15.73,6.914z M25.423,17.365h-7.102c-0.407,0-0.737-0.33-0.737-0.737s0.33-0.737,0.737-0.737h7.102c0.407,0,0.737,0.33,0.737,0.737  S25.83,17.365,25.423,17.365L25.423,17.365z" style="fill: rgb(255, 255, 255)"></path></svg>