<svg id="feller-1437" xmlns="http://www.w3.org/2000/svg" x="0px" y="0px" width="15px" height="28px" xml:space="preserve"><path d="M13.699,15.869H0.737c-0.25,0-0.483-0.127-0.619-0.338c-0.136-0.21-0.156-0.475-0.053-0.703L6.564,0.434  C6.684,0.169,6.947,0,7.236,0c0,0,0,0,0,0c0.29,0,0.553,0.17,0.672,0.435l6.462,14.395c0.103,0.228,0.083,0.492-0.053,0.702  S13.949,15.869,13.699,15.869L13.699,15.869z M1.879,14.395h10.682L7.234,2.532L1.879,14.395L1.879,14.395z" style="fill: rgb(255, 255, 255)"></path></svg>