<svg id="feller-1441" xmlns="http://www.w3.org/2000/svg" x="0px" y="0px" width="28px" height="28px" xml:space="preserve"><path d="M11.585,14.234c-0.129,0-0.257-0.034-0.373-0.102L0.364,7.777C0.139,7.645,0,7.403,0,7.143c0-0.261,0.137-0.503,0.362-0.636  l10.849-6.404c0.227-0.134,0.509-0.136,0.74-0.005c0.23,0.131,0.372,0.375,0.372,0.64v12.76c0,0.264-0.141,0.508-0.37,0.64  C11.838,14.201,11.712,14.234,11.585,14.234L11.585,14.234z M2.191,7.139l8.658,5.072V2.028L2.191,7.139L2.191,7.139z M16.241,14.234c-0.126,0-0.253-0.033-0.366-0.098c-0.229-0.132-0.371-0.376-0.371-0.64V0.737  c0-0.265,0.143-0.509,0.372-0.64c0.23-0.13,0.512-0.127,0.74,0.005l10.847,6.404c0.225,0.133,0.362,0.375,0.362,0.636  c-0.001,0.261-0.14,0.502-0.364,0.634l-10.847,6.355C16.499,14.2,16.37,14.234,16.241,14.234L16.241,14.234z M16.978,2.028V12.21  l8.655-5.072L16.978,2.028L16.978,2.028z" style="fill: rgb(255, 255, 255)"></path></svg>