<svg id="feller-1442" xmlns="http://www.w3.org/2000/svg" x="0px" y="0px" width="28px" height="28px" xml:space="preserve"><path d="M0.737,14.234c-0.126,0-0.253-0.033-0.367-0.098C0.141,14.004,0,13.76,0,13.497V0.737c0-0.265,0.142-0.509,0.372-0.64  c0.23-0.13,0.513-0.129,0.74,0.005l10.85,6.404c0.225,0.133,0.363,0.375,0.362,0.636c0,0.261-0.139,0.502-0.364,0.634l-10.85,6.355  C0.994,14.2,0.866,14.234,0.737,14.234L0.737,14.234z M1.474,2.028V12.21l8.659-5.072L1.474,2.028L1.474,2.028z M27.062,14.234c-0.129,0-0.258-0.034-0.372-0.102L15.841,7.777c-0.226-0.132-0.364-0.374-0.365-0.634  c0-0.261,0.138-0.503,0.362-0.636l10.849-6.404c0.229-0.133,0.511-0.136,0.74-0.005c0.229,0.131,0.372,0.375,0.372,0.64v12.76  c0,0.264-0.142,0.508-0.371,0.64C27.315,14.201,27.188,14.234,27.062,14.234L27.062,14.234z M17.667,7.139l8.657,5.072V2.028  L17.667,7.139L17.667,7.139z" style="fill: rgb(255, 255, 255)"></path></svg>