<svg id="feller-1445" xmlns="http://www.w3.org/2000/svg" x="0px" y="0px" width="15px" height="28px" xml:space="preserve"><path d="M0.127,10.794l6.601,9.71c0.137,0.201,0.365,0.322,0.609,0.322h0c0.244,0,0.473-0.121,0.61-0.323l6.579-9.71  c0.229-0.337,0.141-0.795-0.196-1.024c-0.127-0.085-0.271-0.127-0.413-0.127c-0.236,0-0.469,0.114-0.611,0.324l-5.241,7.737V0.737  C8.065,0.33,7.735,0,7.328,0S6.591,0.33,6.591,0.737v16.943L1.346,9.965C1.118,9.63,0.66,9.541,0.323,9.771  C-0.014,9.999-0.101,10.458,0.127,10.794z" style="fill: rgb(255, 255, 255)"></path></svg>