<svg id="feller-1448" xmlns="http://www.w3.org/2000/svg" x="0px" y="0px" width="28px" height="28px" xml:space="preserve"><path d="M12.308,5.006H3.141l5.383-3.659C8.86,1.119,8.948,0.66,8.719,0.324C8.49-0.013,8.031-0.101,7.695,0.128L0.323,5.139  C0.121,5.276,0,5.505,0,5.749c0,0.244,0.121,0.473,0.323,0.609l7.373,4.998c0.127,0.086,0.271,0.127,0.413,0.127  c0.236,0,0.468-0.113,0.61-0.324c0.229-0.337,0.141-0.795-0.196-1.023L3.129,6.479h9.179c0.407,0,0.737-0.33,0.737-0.737  S12.715,5.006,12.308,5.006z M27.472,5.139L20.1,0.128c-0.338-0.23-0.795-0.142-1.023,0.195c-0.229,0.336-0.142,0.795,0.195,1.023l5.383,3.659h-9.168  c-0.407,0-0.737,0.33-0.737,0.737s0.33,0.737,0.737,0.737h9.179l-5.393,3.656c-0.337,0.229-0.426,0.687-0.197,1.023  c0.143,0.211,0.375,0.324,0.611,0.324c0.142,0,0.286-0.041,0.412-0.127l7.372-4.998c0.202-0.137,0.324-0.365,0.324-0.609  S27.674,5.276,27.472,5.139z" style="fill: rgb(255, 255, 255)"></path></svg>