<svg id="feller-1449" xmlns="http://www.w3.org/2000/svg" x="0px" y="0px" width="28px" height="28px" xml:space="preserve"><path d="M5.351,0.128C5.014-0.102,4.555-0.014,4.327,0.323C4.098,0.66,4.185,1.118,4.521,1.347l5.378,3.657H0.737  C0.33,5.004,0,5.333,0,5.741s0.33,0.737,0.737,0.737h9.184l-5.398,3.657c-0.337,0.229-0.425,0.687-0.197,1.023  c0.143,0.211,0.375,0.324,0.611,0.324c0.143,0,0.286-0.041,0.413-0.127l7.372-4.994c0.202-0.137,0.323-0.365,0.323-0.61  c0-0.244-0.121-0.473-0.322-0.61L5.351,0.128z M27.058,5.004h-9.162l5.377-3.657c0.337-0.229,0.424-0.687,0.195-1.024c-0.229-0.336-0.687-0.424-1.023-0.195l-7.372,5.013  c-0.202,0.137-0.323,0.366-0.323,0.61c0.001,0.245,0.122,0.473,0.324,0.61l7.372,4.994c0.126,0.086,0.271,0.127,0.412,0.127  c0.236,0,0.469-0.113,0.611-0.324c0.229-0.337,0.14-0.795-0.197-1.023l-5.398-3.657h9.185c0.407,0,0.737-0.33,0.737-0.737  S27.465,5.004,27.058,5.004z" style="fill: rgb(255, 255, 255)"></path></svg>