<svg id="feller-1450" xmlns="http://www.w3.org/2000/svg" x="0px" y="0px" width="11px" height="28px" xml:space="preserve"><path d="M10.135,19.273l-3.656,5.393v-9.179c0-0.407-0.33-0.737-0.737-0.737s-0.737,0.33-0.737,0.737v9.168l-3.659-5.383  c-0.229-0.337-0.688-0.424-1.023-0.195c-0.337,0.229-0.424,0.688-0.195,1.023l5.011,7.372c0.137,0.202,0.365,0.323,0.609,0.323h0  c0.244,0,0.473-0.121,0.609-0.324l4.998-7.372c0.229-0.337,0.14-0.795-0.197-1.023C10.822,18.846,10.362,18.936,10.135,19.273z M0.736,8.847c0.236,0,0.467-0.113,0.61-0.323l3.659-5.383v9.168c0,0.407,0.33,0.737,0.737,0.737s0.737-0.33,0.737-0.737  v-9.18l3.656,5.394c0.228,0.336,0.688,0.425,1.023,0.196c0.337-0.228,0.426-0.687,0.197-1.023L6.357,0.323  C6.221,0.121,5.992,0,5.748,0h0C5.503,0,5.275,0.121,5.138,0.323L0.127,7.696c-0.229,0.336-0.142,0.795,0.195,1.023  C0.449,8.806,0.594,8.847,0.736,8.847z" style="fill: rgb(255, 255, 255)"></path></svg>