<svg id="feller-1452" xmlns="http://www.w3.org/2000/svg" x="0px" y="0px" width="21px" height="28px" xml:space="preserve"><path d="M20.877,10.221l-2.893-9.694c-0.116-0.389-0.525-0.613-0.917-0.495c-0.39,0.116-0.611,0.527-0.495,0.917l2.295,7.692  c-1.942-2.691-5.041-4.315-8.438-4.315C4.679,4.325,0,9.003,0,14.754c0,3.639,1.942,7.067,5.069,8.948  c0.119,0.071,0.25,0.105,0.379,0.105c0.25,0,0.494-0.128,0.632-0.357c0.21-0.349,0.097-0.802-0.251-1.012  c-2.727-1.64-4.355-4.513-4.355-7.685c0-4.938,4.018-8.955,8.957-8.955c3.106,0,5.917,1.585,7.553,4.173l-7.151,0.924  c-0.404,0.052-0.689,0.422-0.637,0.825c0.048,0.372,0.365,0.643,0.73,0.643c0.032,0,0.063-0.002,0.095-0.006l9.246-1.195  c0.214-0.028,0.405-0.148,0.523-0.33C20.907,10.652,20.939,10.428,20.877,10.221z" style="fill: rgb(255, 255, 255)"></path></svg>