<svg id="feller-1455" xmlns="http://www.w3.org/2000/svg" x="0px" y="0px" width="20px" height="28px" xml:space="preserve"><path d="M18.608,0.209c-0.539-0.312-1.229-0.275-1.894,0.106c0,0-9,5.134-9.297,5.323c-0.288,0.004-4.79,0.007-4.79,0.007  C1.179,5.646,0,6.823,0,8.271v6.457c0,1.449,1.179,2.629,2.627,2.629l4.793,0.003l9.294,5.336c0.365,0.209,0.739,0.314,1.091,0.314  c0.287,0,0.561-0.07,0.803-0.211c0.54-0.313,0.85-0.932,0.85-1.696V1.907C19.458,1.141,19.148,0.522,18.608,0.209z M2.627,15.882  c-0.636,0-1.154-0.518-1.154-1.154V8.271c0-0.635,0.518-1.152,1.154-1.152l4,0.012v8.754L2.627,15.882z M17.984,21.103  c0,0.258-0.07,0.396-0.115,0.422c-0.044,0.023-0.198,0.02-0.422-0.108c0,0-9.245-5.369-9.346-5.411V6.988  c0.092-0.041,9.346-5.393,9.346-5.393c0.224-0.128,0.377-0.135,0.422-0.11c0.045,0.026,0.115,0.164,0.115,0.422V21.103z" style="fill: rgb(255, 255, 255)"></path></svg>