<svg id="feller-1458" xmlns="http://www.w3.org/2000/svg" x="0px" y="0px" width="26px" height="28px" xml:space="preserve"><path d="M13.159,4.78c-0.407,0-0.737-0.33-0.737-0.737V0.737C12.422,0.33,12.752,0,13.159,0s0.737,0.33,0.737,0.737v3.307  C13.896,4.451,13.566,4.78,13.159,4.78z M13.146,27.578c-0.407,0-0.737-0.33-0.737-0.737V23.53c0-0.407,0.33-0.737,0.737-0.737s0.737,0.33,0.737,0.737v3.311  C13.882,27.248,13.553,27.578,13.146,27.578z M5.476,25.081c-0.15,0-0.302-0.046-0.433-0.141c-0.33-0.239-0.402-0.7-0.163-1.03l1.944-2.676  c0.239-0.33,0.701-0.401,1.029-0.163c0.33,0.239,0.402,0.7,0.163,1.03l-1.944,2.676C5.928,24.975,5.703,25.081,5.476,25.081z M18.884,6.646c-0.15,0-0.302-0.045-0.433-0.141c-0.329-0.239-0.402-0.7-0.162-1.029l1.944-2.675  c0.238-0.33,0.7-0.403,1.029-0.163c0.329,0.239,0.402,0.7,0.162,1.029l-1.944,2.675C19.337,6.542,19.113,6.646,18.884,6.646z M0.737,18.551c-0.311,0-0.6-0.198-0.701-0.51c-0.125-0.388,0.086-0.803,0.474-0.929l3.146-1.021  c0.389-0.125,0.803,0.087,0.929,0.474c0.125,0.388-0.086,0.803-0.474,0.929l-3.146,1.021C0.889,18.54,0.813,18.551,0.737,18.551z M22.421,11.52c-0.311,0-0.6-0.198-0.701-0.509c-0.126-0.387,0.086-0.803,0.474-0.929l3.146-1.022  c0.386-0.129,0.802,0.086,0.929,0.473c0.126,0.387-0.086,0.803-0.474,0.929l-3.146,1.022C22.574,11.508,22.497,11.52,22.421,11.52z M3.887,11.509c-0.076,0-0.152-0.012-0.228-0.037l-3.146-1.024C0.125,10.322-0.086,9.906,0.04,9.52  c0.126-0.387,0.543-0.598,0.929-0.473l3.146,1.024C4.502,10.197,4.713,10.613,4.587,11C4.486,11.312,4.197,11.509,3.887,11.509z M25.564,18.564c-0.075,0-0.152-0.012-0.228-0.036l-3.147-1.022c-0.388-0.126-0.6-0.542-0.474-0.929s0.544-0.6,0.929-0.474  l3.147,1.022c0.388,0.126,0.6,0.542,0.474,0.929C26.164,18.366,25.875,18.564,25.564,18.564z M7.432,6.637c-0.228,0-0.452-0.105-0.597-0.304L4.89,3.659C4.65,3.33,4.723,2.869,5.052,2.629  c0.329-0.239,0.79-0.167,1.03,0.163l1.946,2.675c0.239,0.329,0.167,0.79-0.163,1.03C7.734,6.591,7.583,6.637,7.432,6.637z M20.821,25.086c-0.229,0-0.453-0.105-0.598-0.304l-1.943-2.675c-0.239-0.33-0.166-0.791,0.163-1.03  c0.331-0.239,0.791-0.165,1.03,0.163l1.943,2.675c0.239,0.33,0.166,0.791-0.163,1.03C21.123,25.041,20.97,25.086,20.821,25.086z M13.088,20.664c-3.858,0-6.997-3.138-6.997-6.995s3.139-6.996,6.997-6.996c3.857,0,6.996,3.138,6.996,6.996  S16.945,20.664,13.088,20.664z M13.088,8.146c-3.045,0-5.523,2.477-5.523,5.522c0,3.044,2.478,5.521,5.523,5.521  c3.044,0,5.521-2.477,5.521-5.521C18.609,10.624,16.132,8.146,13.088,8.146z" style="fill: rgb(255, 255, 255)"></path></svg>