<svg id="feller-1461" xmlns="http://www.w3.org/2000/svg" x="0px" y="0px" width="24px" height="28px" xml:space="preserve"><path d="M23.299,1.203c0-0.371-0.158-0.712-0.434-0.938s-0.642-0.312-1.005-0.24L7.843,2.842C7.189,2.974,6.696,3.577,6.696,4.244  v12.521c-0.49-0.246-1.074-0.385-1.723-0.385c-0.73,0-1.496,0.173-2.214,0.501c-2.16,0.987-3.271,3.036-2.53,4.666  c0.47,1.025,1.581,1.638,2.972,1.638c0.73,0,1.496-0.173,2.213-0.5c1.777-0.814,2.824-2.343,2.734-3.766  c0.006-0.037,0.022-0.07,0.022-0.108l-0.006-8.158l11.619-2.479c0.398-0.085,0.652-0.476,0.567-0.875  c-0.084-0.398-0.476-0.653-0.874-0.567L8.146,9.146L8.134,4.288l13.691-2.752v12.853c-0.487-0.242-1.064-0.378-1.707-0.378  c-0.73,0-1.496,0.173-2.214,0.501c-2.162,0.989-3.272,3.038-2.528,4.665c0.469,1.025,1.58,1.638,2.971,1.638  c0.73,0,1.495-0.173,2.212-0.5c0.987-0.452,1.798-1.155,2.282-1.981c0.315-0.536,0.453-1.1,0.45-1.64  c0.001-0.016,0.009-0.028,0.009-0.043V1.203z M4.801,21.344c-1.33,0.608-2.862,0.394-3.23-0.409  c-0.386-0.848,0.439-2.091,1.801-2.714c0.526-0.24,1.08-0.367,1.601-0.367c0.797,0,1.407,0.291,1.629,0.777  C6.989,19.478,6.163,20.72,4.801,21.344z M19.945,18.973c-1.326,0.608-2.86,0.395-3.229-0.41c-0.387-0.846,0.438-2.088,1.801-2.711  c0.527-0.241,1.081-0.368,1.602-0.368c0.797,0,1.405,0.291,1.628,0.779c0.049,0.107,0.068,0.217,0.079,0.326v0.061  c0,0.015,0.008,0.026,0.009,0.041c0.004,0.358-0.147,0.695-0.265,0.896C21.241,18.146,20.649,18.652,19.945,18.973z" style="fill: rgb(255, 255, 255)"></path></svg>