<svg id="feller-1464" xmlns="http://www.w3.org/2000/svg" x="0px" y="0px" width="25px" height="28px" xml:space="preserve"><path d="M3.136,18.173l18.923,0.003c1.726,0,3.129-1.405,3.129-3.133c0-1.727-1.403-3.131-3.129-3.131H0.737  C0.33,11.912,0,12.242,0,12.649s0.33,0.737,0.737,0.737h21.322c0.912,0,1.654,0.743,1.654,1.657s-0.742,1.658-1.654,1.658  L3.136,16.699c-1.729,0-3.134,1.404-3.134,3.131s1.406,3.131,3.134,3.131h21.312c0.407,0,0.737-0.33,0.737-0.737  s-0.33-0.737-0.737-0.737H3.136c-0.916,0-1.661-0.743-1.661-1.656S2.221,18.173,3.136,18.173z M1.347,5.396l1.549-2.286v6.161c0,0.407,0.33,0.737,0.737,0.737S4.37,9.679,4.37,9.272V3.169l1.515,2.228  C6.027,5.607,6.258,5.72,6.494,5.72c0.143,0,0.287-0.042,0.414-0.128c0.336-0.229,0.424-0.687,0.195-1.024L4.22,0.328  C4.083,0.126,3.855,0.006,3.611,0.006h0c-0.244,0-0.473,0.121-0.609,0.323l-2.874,4.24c-0.229,0.337-0.141,0.795,0.196,1.023  C0.661,5.821,1.119,5.733,1.347,5.396z M10.341,5.406l1.552-2.287v6.166c0,0.407,0.33,0.737,0.737,0.737s0.737-0.33,0.737-0.737V3.18l1.514,2.226  c0.143,0.209,0.374,0.323,0.61,0.323c0.143,0,0.287-0.042,0.413-0.128c0.337-0.229,0.424-0.688,0.195-1.024l-2.883-4.238  c-0.137-0.202-0.365-0.322-0.609-0.322h0c-0.244,0-0.472,0.121-0.609,0.323L9.121,4.578C8.893,4.915,8.98,5.373,9.317,5.602  C9.654,5.83,10.112,5.743,10.341,5.406z M18.71,5.712c0.236,0,0.469-0.113,0.611-0.324l1.55-2.286v6.162c0,0.407,0.33,0.737,0.737,0.737s0.737-0.33,0.737-0.737  v-6.1l1.513,2.224c0.229,0.336,0.688,0.425,1.023,0.195c0.337-0.229,0.424-0.688,0.195-1.024l-2.883-4.238  C22.057,0.121,21.83,0,21.585,0c0,0,0,0-0.001,0c-0.244,0-0.472,0.121-0.609,0.323l-2.874,4.238  c-0.229,0.337-0.141,0.795,0.196,1.023C18.424,5.671,18.569,5.712,18.71,5.712z" style="fill: rgb(255, 255, 255)"></path></svg>