<svg id="feller-1466" xmlns="http://www.w3.org/2000/svg" x="0px" y="0px" width="27px" height="28px" xml:space="preserve"><path d="M27.07,12.138l-2.701-6.179c-0.118-0.268-0.383-0.441-0.676-0.441c0,0,0,0-0.001,0c-0.293,0-0.558,0.174-0.675,0.443  l-2.689,6.179c-0.162,0.373,0.009,0.808,0.382,0.97c0.096,0.042,0.195,0.062,0.294,0.062c0.284,0,0.555-0.166,0.676-0.443  l2.016-4.629l2.023,4.63c0.163,0.374,0.6,0.543,0.971,0.381C27.062,12.945,27.232,12.511,27.07,12.138z M15.834,0H1.208C0.542,0,0,0.542,0,1.21v17.035c0,0.667,0.542,1.21,1.208,1.21h14.626c0.666,0,1.209-0.543,1.209-1.21V1.21  C17.043,0.542,16.5,0,15.834,0z M15.569,7.523H1.474v-2.29h14.095V7.523z M1.474,8.997h14.095v2.317H1.474V8.997z M15.569,1.474  V3.76H1.474V1.474H15.569z M1.474,17.98v-5.192h14.095v5.192H1.474z" style="fill: rgb(255, 255, 255)"></path></svg>