<svg id="feller-1467" xmlns="http://www.w3.org/2000/svg" x="0px" y="0px" width="27px" height="28px" xml:space="preserve"><path d="M26.689,5.579c-0.37-0.162-0.808,0.006-0.971,0.38l-2.023,4.631L21.679,5.96c-0.163-0.374-0.598-0.543-0.97-0.382  c-0.373,0.163-0.544,0.597-0.382,0.97l2.689,6.179c0.117,0.269,0.382,0.442,0.675,0.443c0.001,0,0.001,0,0.001,0  c0.293,0,0.558-0.174,0.676-0.442l2.701-6.179C27.232,6.176,27.062,5.742,26.689,5.579z M15.834,0H1.208C0.542,0,0,0.542,0,1.21v17.036c0,0.667,0.542,1.21,1.208,1.21h14.626c0.666,0,1.209-0.543,1.209-1.21V1.21  C17.043,0.542,16.5,0,15.834,0z M15.569,7.523H1.474v-2.29h14.095V7.523z M1.474,8.997h14.095v2.316H1.474V8.997z M15.569,1.474  V3.76H1.474V1.474H15.569z M1.474,17.981v-5.193h14.095v5.193H1.474z" style="fill: rgb(255, 255, 255)"></path></svg>