<svg id="feller-1470" xmlns="http://www.w3.org/2000/svg" x="0px" y="0px" width="27px" height="28px" xml:space="preserve"><path d="M26.69,5.578c-0.371-0.163-0.808,0.006-0.97,0.38l-2.024,4.63L21.68,5.959c-0.163-0.374-0.599-0.543-0.97-0.382  c-0.373,0.163-0.544,0.597-0.382,0.97l2.689,6.178c0.117,0.269,0.382,0.442,0.675,0.443c0.001,0,0.001,0,0.001,0  c0.293,0,0.558-0.174,0.675-0.442l2.701-6.177C27.233,6.176,27.063,5.741,26.69,5.578z M17.043,1.208C17.043,0.542,16.5,0,15.834,0H1.208C0.542,0,0,0.542,0,1.208v17.036c0,0.667,0.542,1.21,1.208,1.21h14.626  c0.666,0,1.209-0.543,1.209-1.21V1.208z M15.569,10.107c-0.031,0.748-0.552,1.346-1.194,1.346c-0.661,0-1.199-0.634-1.199-1.414  V1.474h2.393V10.107z M5.393,1.474h2.393v8.552c0,0.781-0.537,1.417-1.197,1.417c-0.659,0-1.196-0.636-1.196-1.417V1.474z   M9.276,1.474h2.394v8.553c0,0.781-0.538,1.416-1.198,1.416c-0.659,0-1.196-0.635-1.196-1.416V1.474z M3.886,1.474v8.545  c0,0.78-0.538,1.414-1.199,1.414c-0.66,0-1.197-0.634-1.197-1.414L1.474,1.474H3.886z M1.474,17.98v-5.402  c0.366,0.204,0.774,0.33,1.213,0.33c0.771,0,1.46-0.359,1.948-0.925c0.488,0.571,1.18,0.935,1.953,0.935  c0.767,0,1.455-0.356,1.942-0.92c0.487,0.563,1.174,0.92,1.941,0.92c0.77,0,1.459-0.359,1.947-0.925  c0.489,0.571,1.181,0.935,1.956,0.935c0.432,0,0.833-0.121,1.194-0.318v5.371H1.474z" style="fill: rgb(255, 255, 255)"></path></svg>