<svg id="feller-1471" xmlns="http://www.w3.org/2000/svg" x="0px" y="0px" width="23px" height="28px" xml:space="preserve"><path d="M22.273,3.116l-0.787-2.163c-0.272-0.745-1.104-1.134-1.849-0.871L0.582,6.84C0.539,6.856,0.507,6.886,0.468,6.909  C0.314,6.97,0.176,7.074,0.09,7.231c-0.195,0.357-0.064,0.805,0.293,1l19.563,10.692c0.112,0.062,0.233,0.091,0.353,0.091  c0.261,0,0.514-0.139,0.647-0.384c0.195-0.357,0.064-0.805-0.293-1l-3.729-2.038V6.505l4.469-1.544  c0.367-0.126,0.66-0.388,0.827-0.737C22.386,3.875,22.406,3.482,22.273,3.116z M15.449,14.786l-8.712-4.762l8.712-3.01V14.786z   M4.988,9.069L2.515,7.717l17.586-6.259l0.812,2.11L4.988,9.069z" style="fill: rgb(255, 255, 255)"></path></svg>