<svg id="feller-1474" xmlns="http://www.w3.org/2000/svg" x="0px" y="0px" width="18px" height="28px" xml:space="preserve"><path d="M16.756,0H1.19C0.534,0,0,0.534,0,1.19v22.449c0,0.656,0.534,1.19,1.19,1.19h15.566c0.656,0,1.19-0.534,1.19-1.19V1.19  C17.947,0.534,17.413,0,16.756,0z M16.472,23.355H1.474V1.474h14.999V23.355z M9.798,13.687h2.275v2.356c0,0.531,0.433,0.964,0.964,0.964c0.529,0,0.961-0.433,0.961-0.964v-5.545  c0-0.518-0.423-0.924-0.963-0.924c-0.539,0-0.962,0.406-0.962,0.924v1.262H9.798c-0.53,0-0.961,0.432-0.961,0.963  C8.837,13.255,9.268,13.687,9.798,13.687z" style="fill: rgb(255, 255, 255)"></path></svg>