<svg id="feller-1478" xmlns="http://www.w3.org/2000/svg" x="0px" y="0px" width="26px" height="28px" xml:space="preserve"><path d="M23.964,0H2.01C0.902,0,0,0.9,0,2.007v14.659c0,1.107,0.902,2.009,2.01,2.009h8.475v3.228l-7.555,0.003  c-0.407,0-0.737,0.331-0.736,0.737c0,0.407,0.33,0.737,0.737,0.737h0l9.027-0.005l0.004-6.175H2.01  c-0.296,0-0.537-0.239-0.537-0.534V2.007c0-0.289,0.246-0.534,0.537-0.534h21.954c0.295,0,0.535,0.24,0.535,0.534v14.659  c0,0.295-0.24,0.534-0.535,0.534h-9.991l-0.004,6.178l9.095,0.002c0.407,0,0.737-0.33,0.737-0.737s-0.33-0.737-0.737-0.737  l-7.62-0.002v-3.229h8.521c1.108,0,2.01-0.901,2.01-2.009V2.007C25.974,0.9,25.073,0,23.964,0z" style="fill: rgb(255, 255, 255)"></path></svg>