<svg id="feller-1479" xmlns="http://www.w3.org/2000/svg" x="0px" y="0px" width="27px" height="28px" xml:space="preserve"><path d="M26.536,20.859h-6.207c-0.53,0-0.962-0.432-0.962-0.961v-5.536h-5.501c-0.53,0-0.961-0.432-0.961-0.962V7.886h-5.52  c-0.53,0-0.96-0.431-0.96-0.96V1.474H0.737C0.33,1.474,0,1.144,0,0.737S0.33,0,0.737,0h6.2c0.53,0,0.961,0.431,0.961,0.96v5.452  h5.519c0.53,0,0.961,0.431,0.961,0.961v5.514h5.502c0.53,0,0.962,0.433,0.962,0.964v5.533h5.694c0.407,0,0.737,0.33,0.737,0.737  S26.943,20.859,26.536,20.859z" style="fill: rgb(255, 255, 255)"></path></svg>