<svg id="feller-1481" xmlns="http://www.w3.org/2000/svg" x="0px" y="0px" width="26px" height="28px" xml:space="preserve"><path d="M9.408,11.587l3.017,6.924c0.117,0.27,0.382,0.442,0.675,0.443h0c0.293,0,0.558-0.174,0.675-0.442l3.027-6.924  c0.163-0.373-0.007-0.808-0.38-0.971c-0.371-0.163-0.808,0.007-0.97,0.38l-2.352,5.377l-2.342-5.376  c-0.164-0.374-0.598-0.544-0.97-0.381C9.416,10.78,9.245,11.214,9.408,11.587z M25.024,0H1.209C0.542,0,0,0.542,0,1.21v3.123C0,5,0.542,5.543,1.209,5.543h1.036v18.09c0,0.667,0.542,1.21,1.21,1.21  h19.358c0.667,0,1.21-0.543,1.21-1.21V5.543h1.001c0.667,0,1.21-0.542,1.21-1.21V1.21C26.234,0.542,25.691,0,25.024,0z   M22.549,23.369H3.719V5.543h18.83V23.369z M24.76,4.069H1.474V1.474H24.76V4.069z" style="fill: rgb(255, 255, 255)"></path></svg>