<svg id="feller-1482" xmlns="http://www.w3.org/2000/svg" x="0px" y="0px" width="21px" height="28px" xml:space="preserve"><path d="M3.169,17.053c-0.262,0-0.515-0.14-0.648-0.386c-0.194-0.358-0.061-0.806,0.296-0.999c1.261-0.685,2.042-2.034,2.038-3.524  c-0.002-0.673-0.269-1.479-0.771-2.33l-1.001-1.42C2.264,7.158,1.848,6.005,1.833,4.95C1.804,2.917,2.86,1.057,4.587,0.094  c0.355-0.198,0.805-0.07,1.002,0.285c0.198,0.355,0.071,0.804-0.285,1.002C4.052,2.08,3.286,3.439,3.306,4.929  C3.317,5.687,3.661,6.597,4.3,7.563l1.022,1.453c0.675,1.141,1.003,2.175,1.006,3.124c0.006,2.033-1.07,3.881-2.808,4.824  C3.409,17.023,3.288,17.053,3.169,17.053z M9.71,17.043c-0.264,0-0.52-0.143-0.652-0.394c-0.19-0.359-0.052-0.806,0.308-0.995c1.269-0.67,2.063-2.013,2.075-3.503  c0.004-0.672-0.253-1.481-0.745-2.338L9.709,8.382C8.903,7.137,8.499,5.98,8.497,4.925C8.49,2.894,9.565,1.044,11.304,0.1  c0.359-0.196,0.805-0.061,1,0.295c0.194,0.358,0.063,0.805-0.296,1C10.746,2.08,9.965,3.431,9.97,4.92  c0.002,0.757,0.336,1.671,0.965,2.644l1.007,1.464c0.663,1.149,0.979,2.187,0.973,3.133c-0.016,2.034-1.112,3.872-2.861,4.795  C9.944,17.016,9.826,17.043,9.71,17.043z M16.392,17.053c-0.262,0-0.516-0.14-0.648-0.386c-0.194-0.357-0.062-0.806,0.296-0.999c1.262-0.685,2.042-2.035,2.037-3.524  c-0.003-0.672-0.27-1.478-0.771-2.33l-1.001-1.42c-0.819-1.236-1.236-2.39-1.251-3.444c-0.028-2.031,1.027-3.892,2.755-4.855  c0.358-0.199,0.805-0.07,1.003,0.285c0.198,0.355,0.071,0.804-0.284,1.002c-1.255,0.699-2.021,2.059-1.999,3.548  c0.01,0.757,0.354,1.667,0.993,2.633l1.021,1.453c0.676,1.142,1.004,2.176,1.008,3.123c0.006,2.032-1.069,3.881-2.809,4.824  C16.631,17.023,16.51,17.053,16.392,17.053z M20.667,21.768H0.737C0.33,21.768,0,21.438,0,21.03s0.33-0.737,0.737-0.737h19.93c0.407,0,0.737,0.33,0.737,0.737  S21.074,21.768,20.667,21.768z" style="fill: rgb(255, 255, 255)"></path></svg>