<svg id="feller-1484" xmlns="http://www.w3.org/2000/svg" x="0px" y="0px" width="19px" height="28px" xml:space="preserve"><path d="M17.068,12.12l0.009-0.018c0.997-2.12,1.188-4.468,0.538-6.611c-0.658-2.17-2.097-3.871-4.05-4.789  c-1.951-0.918-4.167-0.936-6.241-0.047C5.287,1.527,3.616,3.176,2.617,5.3L1.763,7.116C1.59,7.485,1.749,7.924,2.117,8.097  c0.369,0.173,0.807,0.015,0.98-0.354l0.854-1.816C4.796,4.131,6.2,2.739,7.904,2.009c1.683-0.72,3.468-0.71,5.033,0.026  c1.571,0.739,2.732,2.118,3.268,3.883c0.544,1.793,0.38,3.767-0.462,5.555l-0.298,0.631H2.154C0.966,12.105,0,13.071,0,14.259V25.23  c0,1.188,0.966,2.154,2.154,2.154h14.771c1.188,0,2.155-0.967,2.155-2.154V14.259C19.081,13.12,18.189,12.194,17.068,12.12z   M17.606,25.23c0,0.375-0.306,0.68-0.681,0.68H2.154c-0.375,0-0.68-0.305-0.68-0.68V14.259c0-0.375,0.305-0.68,0.68-0.68h14.771  c0.375,0,0.681,0.305,0.681,0.68V25.23z M9.506,15.722c-1.526,0-2.768,1.243-2.768,2.771c0,1.276,0.864,2.345,2.031,2.672v2.257c0,0.407,0.33,0.737,0.737,0.737  s0.737-0.33,0.737-0.737v-2.257c1.167-0.327,2.032-1.395,2.032-2.672C12.275,16.965,11.033,15.722,9.506,15.722z M9.506,19.804  c-0.714,0-1.294-0.588-1.294-1.311c0-0.715,0.581-1.297,1.294-1.297s1.294,0.582,1.294,1.297C10.8,19.216,10.22,19.804,9.506,19.804  z" style="fill: rgb(255, 255, 255)"></path></svg>