<svg id="feller-1485" xmlns="http://www.w3.org/2000/svg" x="0px" y="0px" width="23px" height="28px" xml:space="preserve"><path d="M21.982,12.134c-1.027-1.012-2.688-1.009-3.715,0.019c-0.01,0.01-0.816,0.852-1.515,1.529  c0.01-1.609-0.003-8.529-0.003-8.851c0-1.446-1.177-2.622-2.622-2.622c-0.435,0-0.85,0.107-1.217,0.295  C12.848,1.113,11.688,0,10.272,0C9.529,0,8.856,0.312,8.379,0.812C7.897,0.312,7.22,0,6.47,0C5.025,0,3.85,1.177,3.85,2.625v0.094  C3.475,2.526,3.051,2.416,2.607,2.416C1.162,2.416,0,3.591,0,5.038l0.004,13.7c0,3.175,2.583,5.759,5.76,5.759  c0.407,0,0.737-0.33,0.737-0.737s-0.33-0.737-0.737-0.737c-2.363,0-4.286-1.922-4.286-4.285l-0.004-13.7  c0-0.632,0.5-1.147,1.133-1.147c0.657,0,1.234,0.536,1.234,1.147l0.002,6.98c0,0.407,0.33,0.737,0.737,0.737s0.737-0.33,0.737-0.737  l0.006-9.392c0-0.634,0.515-1.151,1.147-1.151c0.633,0,1.167,0.527,1.167,1.151l-0.001,8.398c0,0.407,0.344,0.737,0.751,0.737  s0.737-0.33,0.737-0.737l0.002-8.398c0-0.634,0.515-1.151,1.146-1.151c0.633,0,1.167,0.527,1.167,1.151l0.006,9.394  c0,0.407,0.33,0.737,0.737,0.737s0.723-0.33,0.723-0.737l0.011-7.187c0-0.622,0.555-1.148,1.212-1.148  c0.633,0,1.147,0.515,1.147,1.149c0.005,2.408,0.013,8.74,0.001,9.108c-0.021,0.554,0.164,1.238,0.745,1.503  c0.208,0.094,0.759,0.25,1.38-0.335c0.699-0.653,1.88-1.884,1.92-1.925c0.444-0.444,1.173-0.445,1.622-0.004  c0.448,0.448,0.449,1.178,0.006,1.621l-5.985,5.92c-0.289,0.287-0.292,0.753-0.006,1.043c0.287,0.289,0.754,0.291,1.043,0.006  l5.988-5.924C23.009,14.826,23.008,13.162,21.982,12.134z" style="fill: rgb(255, 255, 255)"></path></svg>