<svg id="feller-1487" xmlns="http://www.w3.org/2000/svg" x="0px" y="0px" width="28px" height="28px" xml:space="preserve"><path d="M10.734,9.992c0,1.439,0.921,2.656,2.202,3.122h-1.19c-1.709,0-3.099,1.39-3.099,3.098v6.246  c0,0.407,0.33,0.737,0.737,0.737s0.737-0.33,0.737-0.737v-6.246c0-0.896,0.729-1.624,1.625-1.624h4.68  c0.896,0,1.624,0.729,1.624,1.624v6.139c0,0.407,0.33,0.737,0.737,0.737s0.737-0.33,0.737-0.737v-6.139  c0-1.708-1.391-3.098-3.099-3.098h-1.226c1.282-0.465,2.205-1.683,2.205-3.122c0-1.84-1.497-3.337-3.338-3.337  C12.229,6.655,10.734,8.152,10.734,9.992z M15.93,9.992c0,1.025-0.836,1.859-1.863,1.859c-1.025,0-1.859-0.834-1.859-1.859  c0-1.027,0.834-1.864,1.859-1.864C15.094,8.128,15.93,8.965,15.93,9.992z M27.395,11.78L15.336,0.451c-0.639-0.596-1.738-0.603-2.387-0.01L8.934,4.125V1.991c0-0.922-0.75-1.672-1.688-1.672  L6.568,0.326C5.643,0.333,4.891,1.091,4.891,2.018v4.618c0,0.323-0.224,0.866-0.452,1.096l-4.014,4.041  c-0.562,0.564-0.433,1.081-0.352,1.277c0.081,0.195,0.356,0.65,1.151,0.65h2.946c0.112,0,0.207,0.096,0.207,0.209v11.214  c0,0.927,0.754,1.681,1.681,1.681h16.119c0.928,0,1.684-0.754,1.684-1.681V13.909c0-0.115,0.094-0.209,0.209-0.209h2.563  c0.805,0,1.073-0.459,1.15-0.657C27.862,12.845,27.979,12.327,27.395,11.78z M24.07,12.226c-0.928,0-1.684,0.755-1.684,1.683v11.214  c0,0.112-0.096,0.206-0.209,0.206H6.059c-0.112,0-0.208-0.094-0.208-0.206V13.909c0-0.928-0.753-1.683-1.68-1.683l-2.117-0.002  L5.485,8.77c0.501-0.505,0.879-1.423,0.879-2.134V2.018c0-0.117,0.098-0.217,0.216-0.218l0.681-0.007  c0.109,0,0.199,0.089,0.199,0.199v2.871c0,0.301,0.067,0.559,0.199,0.767c0.189,0.298,0.498,0.47,0.845,0.47  c0.211,0,0.537-0.067,0.888-0.389l4.552-4.182c0.096-0.087,0.293-0.085,0.384-0.001l11.384,10.699H24.07z" style="fill: rgb(255, 255, 255)"></path></svg>