<svg id="feller-1494" xmlns="http://www.w3.org/2000/svg" x="0px" y="0px" width="19px" height="28px" xml:space="preserve"><path d="M9.691,11.736c0.385-0.598,0.58-1.281,0.58-2.031c0-0.629-0.108-1.159-0.324-1.578C9.731,7.711,9.427,7.362,9.044,7.09  C8.632,6.798,8.117,6.543,7.512,6.334c-0.628-0.221-1.346-0.426-2.137-0.61C4.723,5.559,4.246,5.431,3.954,5.343  C3.63,5.245,3.315,5.112,3.018,4.948C2.679,4.762,2.403,4.53,2.199,4.258c-0.23-0.306-0.346-0.667-0.346-1.073  c0-0.649,0.31-1.199,0.918-1.634c0.553-0.396,1.272-0.596,2.135-0.596c0.948,0,1.639,0.189,2.11,0.58  c0.425,0.352,0.79,0.84,1.084,1.45c0.158,0.296,0.318,0.531,0.446,0.656C8.583,3.676,8.679,3.736,8.92,3.736  c0.208,0,0.357-0.069,0.498-0.229c0.154-0.174,0.228-0.36,0.228-0.566c0-0.291-0.079-0.6-0.235-0.918  c-0.16-0.325-0.427-0.648-0.792-0.96C8.249,0.747,7.773,0.49,7.204,0.298C6.624,0.1,5.917,0,5.101,0C4.077,0,3.18,0.152,2.437,0.452  C1.724,0.74,1.179,1.15,0.818,1.668C0.456,2.181,0.273,2.78,0.273,3.449c0,0.703,0.169,1.29,0.504,1.746  c0.351,0.48,0.834,0.865,1.436,1.144c0.654,0.303,1.488,0.575,2.478,0.807c0.783,0.18,1.42,0.352,1.892,0.512  c0.539,0.184,0.99,0.459,1.34,0.816c0.393,0.403,0.592,0.92,0.592,1.542c0,0.778-0.345,1.433-1.028,1.94  c-0.633,0.471-1.448,0.709-2.425,0.709c-0.712,0-1.307-0.12-1.767-0.358c-0.463-0.238-0.832-0.552-1.095-0.933  c-0.237-0.342-0.454-0.763-0.648-1.252c-0.12-0.305-0.257-0.529-0.405-0.666C1.039,9.356,0.911,9.309,0.746,9.309  c-0.227,0-0.398,0.067-0.536,0.21C0.066,9.666,0,9.83,0,10.036c0,0.495,0.176,1.024,0.524,1.573c0.358,0.563,0.829,1.02,1.399,1.357  c0.829,0.48,1.912,0.724,3.217,0.724c1.091,0,2.042-0.181,2.828-0.536C8.724,12.81,9.303,12.333,9.691,11.736 M18.402,0.345c-0.104-0.135-0.219-0.189-0.395-0.189c-0.145,0-0.217,0.018-0.245,0.027  c-0.056,0.066-0.222,0.271-0.644,0.856c-0.384,0.535-0.833,1.031-1.341,1.471c-0.51,0.441-1.188,0.863-2.017,1.253  c-0.48,0.225-0.829,0.414-1.005,0.547c-0.027,0.019-0.093,0.07-0.093,0.29c0,0.14,0.051,0.258,0.161,0.372  c0.107,0.111,0.208,0.159,0.33,0.159c0.157,0,0.841-0.129,3.005-1.788l0.889-0.684v10.002c0,0.376,0.073,0.649,0.217,0.812  c0.136,0.148,0.311,0.218,0.547,0.218c0.255,0,0.786,0,0.786-1.41V1.107C18.599,0.765,18.534,0.509,18.402,0.345" style="fill: rgb(255, 255, 255)"></path></svg>