<svg id="feller-1496" xmlns="http://www.w3.org/2000/svg" x="0px" y="0px" width="22px" height="28px" xml:space="preserve"><path d="M9.69,11.736c0.386-0.598,0.581-1.281,0.581-2.033c0-0.629-0.108-1.16-0.323-1.576C9.73,7.709,9.427,7.362,9.044,7.09  C8.628,6.795,8.112,6.542,7.513,6.333c-0.63-0.22-1.349-0.424-2.137-0.607C4.659,5.543,4.222,5.425,3.953,5.344  C3.635,5.246,3.32,5.112,3.019,4.948c-0.341-0.188-0.616-0.42-0.819-0.69C1.97,3.952,1.854,3.592,1.854,3.186  c0-0.65,0.31-1.2,0.918-1.635c0.554-0.396,1.271-0.598,2.134-0.598c0.948,0,1.639,0.19,2.112,0.58  C7.442,1.887,7.807,2.376,8.1,2.985C8.266,3.293,8.421,3.521,8.544,3.64c0.066,0.062,0.2,0.096,0.375,0.096  c0.208,0,0.357-0.068,0.5-0.229c0.153-0.173,0.228-0.357,0.228-0.564c0-0.293-0.079-0.601-0.236-0.916  c-0.162-0.33-0.428-0.653-0.791-0.963C8.247,0.748,7.771,0.49,7.204,0.299C6.624,0.101,5.917,0,5.101,0  c-1.023,0-1.92,0.152-2.664,0.454C1.728,0.74,1.183,1.148,0.816,1.667C0.456,2.181,0.273,2.78,0.273,3.448  c0,0.702,0.169,1.291,0.503,1.749c0.348,0.476,0.832,0.858,1.438,1.139C2.868,6.643,3.701,6.915,4.69,7.145  c0.773,0.178,1.41,0.352,1.893,0.514c0.541,0.185,0.991,0.458,1.339,0.814c0.394,0.402,0.594,0.922,0.594,1.543  c0,0.779-0.347,1.432-1.028,1.941c-0.629,0.471-1.445,0.711-2.426,0.711c-0.709,0-1.304-0.121-1.768-0.359  c-0.464-0.242-0.832-0.557-1.093-0.934c-0.231-0.334-0.45-0.754-0.65-1.248C1.43,9.818,1.294,9.594,1.146,9.457  C1.039,9.355,0.912,9.309,0.745,9.309c-0.224,0-0.398,0.068-0.535,0.209C0.066,9.664,0,9.828,0,10.035  c0,0.496,0.176,1.025,0.523,1.572c0.357,0.563,0.829,1.02,1.4,1.357c0.826,0.479,1.908,0.723,3.216,0.723  c1.097,0,2.048-0.18,2.828-0.535C8.725,12.809,9.304,12.332,9.69,11.736z M21.679,8.439c-0.152-0.371-0.387-0.717-0.698-1.031c-0.316-0.322-0.716-0.613-1.187-0.867L19.26,6.256l0.465-0.39  c0.486-0.406,0.867-0.829,1.131-1.259c0.24-0.398,0.362-0.891,0.362-1.461c0-0.437-0.086-0.846-0.255-1.218  C20.79,1.553,20.534,1.221,20.2,0.94c-0.346-0.291-0.756-0.517-1.219-0.669c-0.456-0.149-1.014-0.229-1.613-0.229  c-0.657,0-1.302,0.099-1.813,0.277c-0.53,0.185-0.98,0.433-1.337,0.737c-0.357,0.305-0.628,0.626-0.807,0.954  c-0.171,0.317-0.258,0.611-0.258,0.872c0,0.239,0.066,0.418,0.2,0.546c0.139,0.136,0.308,0.207,0.49,0.207  c0.159,0,0.293-0.052,0.355-0.082c0.072-0.032,0.121-0.069,0.159-0.133c0.103-0.235,0.224-0.509,0.361-0.801  c0.144-0.312,0.305-0.577,0.479-0.789c0.19-0.233,0.448-0.42,0.766-0.555c0.304-0.134,0.688-0.201,1.144-0.201  c0.699,0,1.269,0.226,1.692,0.67c0.419,0.436,0.632,0.966,0.632,1.576c0,0.783-0.27,1.399-0.8,1.832  c-0.507,0.41-1.115,0.618-1.808,0.618h-0.4c-0.248,0-0.586,0.033-0.788,0.196c-0.137,0.116-0.198,0.251-0.198,0.437  c0,0.201,0.052,0.346,0.158,0.441c0.117,0.109,0.299,0.164,0.555,0.164c0.063,0,0.222-0.012,0.487-0.037  c0.278-0.027,0.495-0.041,0.646-0.041c0.855,0,1.54,0.26,2.034,0.775c0.49,0.508,0.739,1.207,0.739,2.074  c0,0.59-0.145,1.119-0.428,1.574c-0.28,0.451-0.646,0.797-1.086,1.029c-0.428,0.229-0.885,0.344-1.357,0.344  c-0.823,0-1.479-0.268-1.945-0.795c-0.425-0.484-0.807-1.186-1.165-2.141C14.053,9.725,14,9.664,13.908,9.605  c-0.102-0.064-0.202-0.096-0.306-0.096c-0.259,0-0.466,0.076-0.631,0.232c-0.163,0.156-0.238,0.352-0.238,0.615  c0,0.232,0.091,0.551,0.271,0.943c0.187,0.406,0.467,0.807,0.833,1.191c0.365,0.379,0.837,0.701,1.4,0.955  c0.553,0.248,1.23,0.381,1.961,0.381c0.677,0,1.36-0.119,1.926-0.336c0.586-0.227,1.094-0.539,1.509-0.932  c0.421-0.395,0.742-0.846,0.955-1.34c0.215-0.498,0.323-1.021,0.323-1.557C21.911,9.225,21.833,8.813,21.679,8.439z" style="fill: rgb(255, 255, 255)"></path></svg>