<svg id="feller-1497" xmlns="http://www.w3.org/2000/svg" x="0px" y="0px" width="23px" height="28px" xml:space="preserve"><path d="M9.69,11.855c0.386-0.596,0.581-1.279,0.581-2.031c0-0.631-0.108-1.162-0.323-1.576C9.733,7.83,9.429,7.48,9.043,7.207  C8.625,6.91,8.11,6.656,7.514,6.451C6.886,6.23,6.166,6.025,5.376,5.842C4.557,5.633,4.151,5.519,3.955,5.46  c-0.319-0.098-0.634-0.23-0.937-0.396c-0.341-0.188-0.616-0.42-0.819-0.69C1.97,4.068,1.854,3.707,1.854,3.301  c0-0.652,0.31-1.203,0.92-1.636c0.552-0.397,1.269-0.599,2.132-0.599c0.948,0,1.64,0.19,2.112,0.581  C7.441,2.001,7.805,2.489,8.1,3.1C8.31,3.49,8.458,3.673,8.544,3.756C8.61,3.817,8.74,3.85,8.919,3.85  c0.209,0,0.359-0.067,0.5-0.228c0.153-0.174,0.228-0.359,0.228-0.565c0-0.292-0.079-0.602-0.236-0.919  C9.248,1.811,8.981,1.486,8.619,1.176C8.249,0.861,7.773,0.604,7.204,0.41c-0.58-0.198-1.287-0.299-2.104-0.299  c-1.021,0-1.917,0.152-2.664,0.454C1.728,0.852,1.183,1.261,0.816,1.78c-0.36,0.515-0.543,1.115-0.543,1.784  c0,0.702,0.169,1.29,0.502,1.747c0.352,0.48,0.835,0.864,1.439,1.143C2.864,6.759,3.697,7.031,4.69,7.263  c0.752,0.17,1.389,0.344,1.893,0.512c0.539,0.184,0.989,0.459,1.339,0.816c0.394,0.402,0.594,0.922,0.594,1.545  c0,0.779-0.347,1.434-1.028,1.941c-0.63,0.471-1.446,0.709-2.426,0.709c-0.716,0-1.311-0.121-1.768-0.357  c-0.463-0.24-0.831-0.555-1.095-0.934c-0.23-0.332-0.448-0.754-0.648-1.252C1.43,9.935,1.294,9.71,1.147,9.578  c-0.11-0.104-0.238-0.15-0.402-0.15c-0.228,0-0.398,0.066-0.537,0.211C0.067,9.783,0,9.951,0,10.156  c0,0.494,0.176,1.023,0.523,1.574c0.357,0.563,0.829,1.02,1.4,1.357c0.827,0.48,1.909,0.723,3.216,0.723  c1.101,0,2.052-0.18,2.827-0.537C8.723,12.933,9.303,12.457,9.69,11.855z M22.634,9.429c-0.252-0.113-0.605-0.172-1.049-0.172h-0.802V1.318C20.783,0.156,20.226,0,19.681,0  c-0.206,0-0.377,0.066-0.525,0.205c-0.194,0.184-0.459,0.499-0.788,0.939l-5.535,7.404c-0.09,0.117-0.176,0.24-0.272,0.385  c-0.08,0.127-0.132,0.229-0.165,0.322c-0.029,0.08-0.045,0.166-0.045,0.246c0,0.371,0.11,0.652,0.338,0.859  c0.235,0.211,0.616,0.318,1.134,0.318h5.286v2.201c0,0.389,0.08,0.674,0.238,0.852c0.137,0.152,0.364,0.244,0.607,0.244  c0.24,0,0.464-0.088,0.596-0.234c0.158-0.172,0.234-0.453,0.234-0.861v-2.201h0.978c0.413,0,0.715-0.063,0.895-0.188  c0.052-0.035,0.208-0.141,0.208-0.512C22.863,9.675,22.79,9.501,22.634,9.429z M19.107,2.043v7.214h-5.343L19.107,2.043z" style="fill: rgb(255, 255, 255)"></path></svg>