<svg id="feller-1498" xmlns="http://www.w3.org/2000/svg" x="0px" y="0px" width="23px" height="28px" xml:space="preserve"><path d="M8.375,0.161c-0.882,0-0.936,0.081-1.243,0.964L5,7.368C4.897,7.671,4.837,7.848,4.778,8.027  c-0.107-0.332-0.22-0.666-0.332-0.993L2.454,1.085C2.15,0.189,1.977,0.161,1.104,0.161c-0.33,0-1.104,0-1.104,1.211v7.726  c0,0.322,0,1.077,0.756,1.077c0.757,0,0.757-0.765,0.757-1.091V2.595l2.185,6.469c0.304,0.888,0.458,1.111,1.042,1.111  c0.58,0,0.7-0.348,0.963-1.11l2.211-6.359v6.566c0,0.815,0.528,0.903,0.756,0.903c0.481,0,0.757-0.349,0.757-0.957V1.372  C9.426,0.532,9.384,0.161,8.375,0.161z M12.128,0c-0.218,0-0.409,0.082-0.563,0.238c-0.22,0.202-0.22,0.487-0.22,0.96v7.779c0,0.47,0,0.754,0.215,0.97  c0.141,0.141,0.358,0.228,0.568,0.228c0.284,0,0.478-0.151,0.563-0.237c0.22-0.202,0.22-0.487,0.22-0.96V1.198  c0-0.473,0-0.758-0.21-0.95C12.563,0.095,12.343,0,12.128,0z M22.489,0.229C22.341,0.081,22.145,0,21.935,0c-0.309,0-0.562,0.196-0.646,0.382c-0.11,0.205-0.111,0.364-0.097,0.79  l0.037,6.332l-4.482-6.691C16.378,0.255,16.21,0,15.746,0c-0.343,0-0.54,0.16-0.604,0.224c-0.301,0.27-0.301,0.494-0.301,1.161  v7.619c0,0.464,0,0.743,0.216,0.943c0.144,0.143,0.351,0.228,0.555,0.228c0.316,0,0.578-0.201,0.663-0.39  c0.093-0.202,0.093-0.349,0.093-0.782l-0.049-6.237l4.404,6.574c0.396,0.591,0.562,0.835,1.051,0.835  c0.229,0,0.434-0.073,0.612-0.22c0.317-0.271,0.317-0.548,0.317-1.218V1.171C22.704,0.707,22.704,0.427,22.489,0.229z" style="fill: rgb(255, 255, 255)"></path></svg>