<svg id="feller-1603" xmlns="http://www.w3.org/2000/svg" x="0px" y="0px" width="11px" height="28px" xml:space="preserve"><path d="M10.284,9.429c-0.252-0.113-0.605-0.172-1.049-0.172H8.434V1.318C8.434,0.156,7.876,0,7.331,0  C7.125,0,6.954,0.066,6.806,0.205C6.611,0.389,6.347,0.704,6.018,1.145L0.482,8.548c-0.09,0.117-0.176,0.24-0.272,0.385  C0.13,9.06,0.078,9.161,0.045,9.255C0.016,9.335,0,9.421,0,9.501c0,0.371,0.11,0.652,0.338,0.859  c0.235,0.211,0.616,0.318,1.134,0.318h5.286v2.201c0,0.389,0.08,0.674,0.238,0.852c0.137,0.152,0.364,0.244,0.607,0.244  c0.24,0,0.464-0.088,0.596-0.234c0.158-0.172,0.234-0.453,0.234-0.861v-2.201h0.978c0.413,0,0.715-0.063,0.895-0.188  c0.052-0.035,0.208-0.141,0.208-0.512C10.514,9.675,10.44,9.501,10.284,9.429z M6.758,2.043v7.214H1.415L6.758,2.043z" style="fill: rgb(255, 255, 255)"></path></svg>