<svg id="feller-1606" xmlns="http://www.w3.org/2000/svg" x="0px" y="0px" width="10px" height="28px" xml:space="preserve"><path d="M0.737,0C0.33,0,0,0.33,0,0.737v26.379c0,0.407,0.33,0.737,0.737,0.737s0.737-0.33,0.737-0.737V0.737  C1.474,0.33,1.144,0,0.737,0z M9.055,13.19H5.553c-0.407,0-0.737,0.33-0.737,0.737s0.33,0.737,0.737,0.737h3.502c0.407,0,0.737-0.33,0.737-0.737  S9.462,13.19,9.055,13.19z M8.229,19.987l-3.034-1.752c-0.351-0.201-0.803-0.082-1.007,0.271s-0.083,0.803,0.27,1.007l3.034,1.752  c0.116,0.066,0.243,0.099,0.368,0.099c0.254,0,0.502-0.133,0.639-0.369C8.702,20.642,8.581,20.191,8.229,19.987z M4.815,9.652c0.125,0,0.252-0.032,0.369-0.1l3.031-1.754c0.352-0.204,0.473-0.654,0.269-1.007  C8.28,6.439,7.829,6.319,7.477,6.523L4.446,8.277C4.094,8.48,3.973,8.931,4.177,9.284C4.313,9.52,4.561,9.652,4.815,9.652z" style="fill: rgb(255, 255, 255)"></path></svg>