<svg id="feller-1608" xmlns="http://www.w3.org/2000/svg" x="0px" y="0px" width="22px" height="28px" xml:space="preserve"><path d="M14.591,5.533L9.615,5.527c0,0,0,0-0.001,0c-0.407,0-0.736,0.329-0.737,0.736C8.876,6.67,9.206,7,9.613,7.001l2.575,0.003  L7.387,10.26c-0.337,0.229-0.425,0.687-0.196,1.024c0.143,0.21,0.375,0.323,0.61,0.323c0.143,0,0.287-0.041,0.413-0.127l4.802-3.256  l-0.954,2.388c-0.15,0.378,0.033,0.807,0.411,0.958c0.09,0.036,0.183,0.053,0.273,0.053c0.292,0,0.569-0.176,0.685-0.464  l1.844-4.616c0.091-0.227,0.063-0.484-0.074-0.687C15.064,5.655,14.835,5.533,14.591,5.533z M20.155,16.633c1.025,0,1.86-0.833,1.86-1.856V1.858C22.015,0.833,21.18,0,20.155,0H1.875C0.852,0,0.019,0.833,0.019,1.858  v12.918c0,1.023,0.833,1.856,1.857,1.856H8.42v3.043H0.737C0.33,19.676,0,20.006,0,20.413s0.33,0.737,0.737,0.737h8.418  c0.407,0,0.737-0.33,0.737-0.737h0.002v-3.78h2.193v3.78h0.001c0,0.407,0.33,0.737,0.737,0.737h8.419  c0.407,0,0.737-0.33,0.737-0.737s-0.33-0.737-0.737-0.737h-7.683v-3.043H20.155z M1.492,14.776V1.858  c0-0.212,0.172-0.384,0.383-0.384h18.279c0.213,0,0.386,0.172,0.386,0.384v12.918c0,0.207-0.177,0.382-0.386,0.382H1.875  C1.668,15.158,1.492,14.983,1.492,14.776z" style="fill: rgb(255, 255, 255)"></path></svg>