<svg id="feller-1610" xmlns="http://www.w3.org/2000/svg" x="0px" y="0px" width="28px" height="28px" xml:space="preserve"><path d="M12.925,15.307c-1.601,0.699-3.113,1.36-4.841,1.36c-0.038,0-0.071,0.017-0.107,0.021c-0.021-0.001-0.039-0.012-0.06-0.012  c-3.553,0-6.443-2.891-6.443-6.444c0-2.665,1.26-4.999,3.457-6.405c2.746-1.757,6.545-1.812,10.174-0.156  c-0.847,1.828-1.745,3.764-1.788,3.855c-0.831,1.781-0.671,4.089,0.407,5.88c0.138,0.23,0.382,0.357,0.632,0.357  c0.129,0,0.261-0.034,0.379-0.105c0.349-0.21,0.462-0.663,0.252-1.012c-0.82-1.361-0.954-3.169-0.337-4.49  c0.04-0.084,1.868-4.027,2.785-6.004l2.583,3.38c0.093,0.121,0.222,0.211,0.367,0.256c0.151,0.046,0.814,0.35,0.943,0.426  c0.126,0.077,0.272,0.115,0.421,0.106l4.144-0.214l-3.016,6.445c-0.172,0.369-0.013,0.808,0.355,0.98  c0.368,0.169,0.807,0.015,0.98-0.355l3.535-7.558c0.109-0.235,0.088-0.509-0.057-0.724c-0.146-0.215-0.393-0.347-0.649-0.324  L21.874,4.84c-0.231-0.115-0.566-0.268-0.813-0.368l-3.196-4.183c-0.156-0.205-0.412-0.313-0.666-0.285  c-0.257,0.028-0.48,0.188-0.589,0.422c0,0-0.383,0.826-0.885,1.908C11.635,0.465,7.307,0.557,4.136,2.587  C1.507,4.269,0,7.056,0,10.233c0,4.366,3.551,7.919,7.917,7.919c0.038,0,0.071-0.017,0.107-0.021  c0.021,0.001,0.039,0.012,0.06,0.012c2.037,0,3.763-0.755,5.432-1.484c3.445-1.507,6.7-2.929,13.116,1.337  c0.341,0.227,0.797,0.133,1.021-0.205c0.226-0.339,0.134-0.797-0.205-1.021C20.361,12.055,16.411,13.782,12.925,15.307z M17.912,12.818c0.097,0.044,0.199,0.064,0.3,0.064c0.281,0,0.551-0.163,0.673-0.438l0.433-0.969l2.102-0.766  c0.383-0.14,0.58-0.563,0.44-0.945s-0.564-0.58-0.944-0.44L19.22,9.943l-0.615-1.692c-0.139-0.383-0.565-0.577-0.944-0.441  c-0.383,0.139-0.58,0.562-0.44,0.945l0.762,2.096l-0.443,0.994C17.373,12.216,17.54,12.652,17.912,12.818z" style="fill: rgb(255, 255, 255)"></path></svg>