<svg id="feller-1611" xmlns="http://www.w3.org/2000/svg" x="0px" y="0px" width="25px" height="28px" xml:space="preserve"><path d="M23.812,8.916h-5.65l5.474-6.674c0.416-0.496,0.673-0.85,0.673-1.328V0.77c0-0.416-0.288-0.77-1.057-0.77h-6.259  c-0.48,0-0.736,0.225-0.736,0.674V0.77c0,0.463,0.256,0.672,0.736,0.672h5.33l-5.426,6.611c-0.528,0.656-0.688,0.896-0.688,1.375  v0.145c0,0.416,0.303,0.785,1.072,0.785h6.53c0.479,0,0.736-0.225,0.736-0.672V9.588C24.548,9.125,24.291,8.916,23.812,8.916z M13.701,14.704H9.41l4.256-5.189c0.34-0.403,0.579-0.724,0.579-1.169V8.229c0-0.18-0.071-0.767-0.999-0.767H8.162  c-0.47,0-0.739,0.251-0.739,0.688v0.078c0,0.442,0.263,0.687,0.739,0.687h4.029l-4.217,5.138c-0.438,0.543-0.591,0.773-0.591,1.209  v0.117c0,0.375,0.267,0.777,1.013,0.777h5.305c0.47,0,0.739-0.25,0.739-0.688v-0.078C14.44,14.948,14.178,14.704,13.701,14.704z M5.031,20.635H2.103l3.036-3.703c0.275-0.33,0.486-0.613,0.486-1.012v-0.09c0-0.369-0.248-0.764-0.943-0.764H0.773  c-0.459,0-0.743,0.27-0.743,0.764c0,0.439,0.278,0.703,0.743,0.703h2.729L0.493,20.2C0.16,20.612,0,20.831,0,21.237v0.092  C0,21.684,0.25,22.1,0.953,22.1h4.078c0.459,0,0.744-0.27,0.744-0.762C5.775,20.897,5.496,20.635,5.031,20.635z" style="fill: rgb(255, 255, 255)"></path></svg>