<svg id="feller-1612" xmlns="http://www.w3.org/2000/svg" x="0px" y="0px" width="28px" height="28px" xml:space="preserve"><path d="M27.536,11.889L15.419,0.432c-0.601-0.565-1.638-0.577-2.249-0.024l-4.185,3.78V1.954c0-0.874-0.71-1.584-1.588-1.584  L6.529,0.372c-0.876,0-1.588,0.712-1.588,1.588v4.814c0,0.276-0.191,0.74-0.385,0.936l-4.153,4.176  c-0.535,0.54-0.409,1.04-0.33,1.229s0.345,0.63,1.105,0.63h3.135c0.06,0,0.113,0.053,0.113,0.112v11.416  c0,0.876,0.712,1.589,1.588,1.589h16.32c0.875,0,1.587-0.713,1.587-1.589V13.858c0-0.06,0.054-0.112,0.114-0.112h2.762  c0.768,0,1.027-0.445,1.104-0.637C27.977,12.917,28.093,12.415,27.536,11.889z M24.035,12.272c-0.876,0-1.589,0.711-1.589,1.586  v11.416c0,0.061-0.053,0.114-0.112,0.114H6.014c-0.062,0-0.115-0.052-0.115-0.114V13.858c0-0.875-0.711-1.586-1.586-1.586  l-2.213-0.001l3.501-3.521c0.464-0.467,0.814-1.315,0.814-1.975V1.96c0-0.061,0.054-0.115,0.116-0.115l0.871-0.002  c0.059,0,0.109,0.051,0.109,0.111v3.043c0,0.288,0.065,0.535,0.194,0.735c0.186,0.29,0.486,0.456,0.825,0.456  c0.202,0,0.513-0.063,0.843-0.363L14.159,1.5c0.059-0.053,0.193-0.049,0.248,0.003l11.385,10.769H24.035z M11.326,8.054c-1.615,0-2.928,1.313-2.928,2.928c0,1.329,0.894,2.441,2.108,2.799H9.698c-1.188,0-2.154,0.965-2.154,2.153  v7.143c0,0.407,0.33,0.737,0.737,0.737s0.737-0.33,0.737-0.737v-7.143c0-0.374,0.305-0.679,0.68-0.679h3.834v7.831  c0,0.407,0.33,0.737,0.737,0.737s0.737-0.33,0.737-0.737v-7.831h3.717c0.375,0,0.68,0.305,0.68,0.679v7.154  c0,0.407,0.33,0.737,0.737,0.737s0.737-0.33,0.737-0.737v-7.154c0-1.188-0.967-2.153-2.154-2.153H17.99  c1.216-0.357,2.11-1.47,2.11-2.799c0-1.615-1.314-2.928-2.931-2.928c-1.591,0-2.884,1.278-2.921,2.861  C14.211,9.332,12.918,8.054,11.326,8.054z M9.872,10.982c0-0.802,0.653-1.455,1.455-1.455c0.802,0,1.456,0.653,1.456,1.455  c0,0.803-0.653,1.457-1.456,1.457C10.524,12.439,9.872,11.786,9.872,10.982z M17.17,9.528c0.803,0,1.456,0.653,1.456,1.455  c0,0.803-0.653,1.457-1.456,1.457c-0.802,0-1.454-0.653-1.454-1.457C15.716,10.181,16.368,9.528,17.17,9.528z M16.351,13.781h-4.205  c1.193-0.351,2.072-1.432,2.103-2.731C14.279,12.349,15.157,13.43,16.351,13.781z" style="fill: rgb(255, 255, 255)"></path></svg>