<svg id="feller-1614" xmlns="http://www.w3.org/2000/svg" x="0px" y="0px" width="12px" height="28px" xml:space="preserve"><path d="M9.037,17.473V3.299C9.037,1.48,7.556,0,5.737,0C3.92,0,2.442,1.48,2.442,3.299v14.182C0.905,18.562,0,20.282,0,22.159  c0,3.169,2.577,5.747,5.744,5.747c3.168,0,5.745-2.578,5.745-5.747C11.489,20.275,10.58,18.552,9.037,17.473z M5.744,26.431  c-2.354,0-4.27-1.916-4.27-4.272c0-1.497,0.78-2.86,2.086-3.648c0.221-0.133,0.356-0.372,0.356-0.631V3.299  c0-1.006,0.817-1.826,1.821-1.826c1.007,0,1.825,0.819,1.825,1.826v14.574c0,0.259,0.137,0.499,0.358,0.633  c1.312,0.784,2.094,2.149,2.094,3.652C10.014,24.515,8.098,26.431,5.744,26.431z M6.489,19.364l-0.003-7.487c0-0.407-0.33-0.736-0.737-0.736h0c-0.407,0-0.737,0.33-0.736,0.737l0.003,7.497  c-1.274,0.336-2.221,1.475-2.221,2.839c0,1.627,1.323,2.95,2.95,2.95c0.407,0,0.737-0.33,0.737-0.737s-0.33-0.737-0.737-0.737  c-0.814,0-1.476-0.662-1.476-1.476c0-0.799,0.692-1.474,1.51-1.474c0.809,0,1.442,0.647,1.442,1.474c0,0.407,0.33,0.737,0.737,0.737  s0.737-0.33,0.737-0.737C8.695,20.836,7.752,19.687,6.489,19.364z" style="fill: rgb(255, 255, 255)"></path></svg>