<svg id="feller-1616" xmlns="http://www.w3.org/2000/svg" x="0px" y="0px" width="13px" height="28px" xml:space="preserve"><path d="M7.78,1.474h4.362c0.407,0,0.737-0.33,0.737-0.737S12.55,0,12.143,0H6.179c0,0-0.001,0-0.001,0H0.737C0.33,0,0,0.33,0,0.737  s0.33,0.737,0.737,0.737h4.337l-4.99,12.033c-0.156,0.376,0.022,0.807,0.398,0.963c0.376,0.155,0.807-0.021,0.963-0.398L6.427,2.059  l5.007,12.014c0.118,0.283,0.393,0.454,0.681,0.454c0.095,0,0.19-0.019,0.283-0.057c0.376-0.157,0.554-0.589,0.397-0.964L7.78,1.474  z" style="fill: rgb(255, 255, 255)"></path></svg>