<svg id="feller-1617" xmlns="http://www.w3.org/2000/svg" x="0px" y="0px" width="13px" height="28px" xml:space="preserve"><path d="M12.143,13.053H7.805l4.99-12.033c0.156-0.376-0.022-0.807-0.398-0.963c-0.372-0.156-0.808,0.022-0.963,0.398L6.452,12.468  L1.444,0.454C1.288,0.079,0.858-0.1,0.48,0.057C0.105,0.213-0.073,0.645,0.084,1.021l5.015,12.032H0.737  C0.33,13.053,0,13.383,0,13.79s0.33,0.737,0.737,0.737H6.7c0,0,0.001,0,0.001,0h5.441c0.407,0,0.737-0.33,0.737-0.737  S12.55,13.053,12.143,13.053z" style="fill: rgb(255, 255, 255)"></path></svg>