<svg id="feller-1619" xmlns="http://www.w3.org/2000/svg" x="0px" y="0px" width="15px" height="28px" xml:space="preserve"><path d="M13.79,0c-0.407,0-0.737,0.33-0.737,0.737v4.338L1.02,0.084C0.642-0.073,0.213,0.107,0.057,0.483S0.079,1.29,0.455,1.446  l12.014,4.982L0.454,11.435c-0.375,0.157-0.553,0.589-0.396,0.964c0.118,0.283,0.392,0.454,0.681,0.454  c0.094,0,0.19-0.019,0.283-0.057l12.032-5.015v4.361c0,0.407,0.33,0.737,0.737,0.737s0.737-0.33,0.737-0.737V0.737  C14.527,0.33,14.197,0,13.79,0z" style="fill: rgb(255, 255, 255)"></path></svg>