<svg id="feller-1622" xmlns="http://www.w3.org/2000/svg" x="0px" y="0px" width="16px" height="28px" xml:space="preserve"><path d="M15.538,0.121c-0.206-0.136-0.469-0.159-0.697-0.061L1.474,5.833V0.737C1.474,0.33,1.145,0,0.737,0S0,0.33,0,0.737v6.215  c0,0.001,0,0.002,0,0.003l0,0.493V13.7c0,0.407,0.33,0.737,0.737,0.737s0.737-0.33,0.737-0.737V8.571l13.365,5.805  c0.095,0.041,0.194,0.062,0.294,0.062c0.142,0,0.282-0.041,0.404-0.121c0.208-0.136,0.333-0.368,0.333-0.616V0.737  C15.87,0.489,15.745,0.257,15.538,0.121z M14.396,12.576L2.022,7.202l12.373-5.344V12.576z" style="fill: rgb(255, 255, 255)"></path></svg>