<svg id="feller-1626" xmlns="http://www.w3.org/2000/svg" x="0px" y="0px" width="23px" height="28px" xml:space="preserve"><path d="M22.224,11.329h-7.521h-0.978H0l0.009,8.768c0,1.601,1.301,2.902,2.9,2.902h8.893c1.599,0,2.9-1.302,2.9-2.902l0.002-7.294  h7.521c0.407,0,0.737-0.33,0.737-0.737S22.631,11.329,22.224,11.329z M13.227,20.097c0,0.787-0.64,1.428-1.425,1.428H2.909  c-0.786,0-1.426-0.641-1.426-1.429l-0.007-7.293h11.753L13.227,20.097z M2.904,5.902C3.15,6.319,3.281,6.705,3.282,7.016c0.002,0.699-0.361,1.331-0.948,1.649C1.976,8.859,1.843,9.306,2.037,9.664  C2.17,9.91,2.424,10.05,2.686,10.05c0.119,0,0.239-0.029,0.351-0.089c1.064-0.576,1.724-1.707,1.72-2.95  C4.754,6.43,4.558,5.804,4.142,5.104L3.584,4.311c-0.316-0.477-0.486-0.916-0.492-1.27c-0.01-0.699,0.346-1.335,0.929-1.66  c0.356-0.198,0.483-0.647,0.286-1.002C4.11,0.022,3.659-0.104,3.305,0.093C2.247,0.682,1.601,1.82,1.619,3.062  c0.009,0.647,0.257,1.341,0.748,2.08L2.904,5.902z M7.026,5.899c0.241,0.419,0.368,0.806,0.365,1.119C7.386,7.717,7.016,8.344,6.426,8.654c-0.36,0.189-0.499,0.635-0.31,0.995  C6.249,9.9,6.504,10.043,6.77,10.043c0.116,0,0.233-0.027,0.342-0.085C8.184,9.396,8.856,8.272,8.864,7.03  C8.87,6.448,8.681,5.821,8.271,5.114L7.723,4.317C7.411,3.833,7.246,3.391,7.244,3.04C7.242,2.34,7.605,1.708,8.192,1.391  C8.55,1.197,8.683,0.75,8.489,0.392C8.296,0.034,7.85-0.099,7.49,0.095c-1.064,0.576-1.724,1.707-1.72,2.949  c0.002,0.643,0.242,1.34,0.726,2.09L7.026,5.899z M11.293,5.901c0.246,0.418,0.375,0.804,0.377,1.118c0.004,0.697-0.358,1.328-0.946,1.646  c-0.358,0.194-0.491,0.641-0.297,0.999c0.133,0.247,0.387,0.386,0.648,0.386c0.119,0,0.239-0.029,0.351-0.089  c1.066-0.578,1.725-1.709,1.718-2.95c-0.003-0.581-0.197-1.205-0.612-1.907l-0.558-0.792c-0.317-0.479-0.487-0.918-0.492-1.271  c-0.01-0.699,0.346-1.334,0.93-1.66c0.355-0.198,0.483-0.647,0.285-1.003c-0.198-0.354-0.646-0.483-1.002-0.285  c-1.059,0.59-1.705,1.728-1.686,2.968c0.008,0.644,0.256,1.338,0.748,2.081L11.293,5.901z" style="fill: rgb(255, 255, 255)"></path></svg>