<svg id="feller-1627" xmlns="http://www.w3.org/2000/svg" x="0px" y="0px" width="28px" height="28px" xml:space="preserve"><path d="M27.343,0.484C27.239,0.203,26.974,0,26.656,0c-1.98,0-3.532,2.685-3.532,6.112c0,3.012,1.199,5.449,2.834,5.996v8.378  c0,0.407,0.33,0.737,0.737,0.737s0.737-0.33,0.737-0.737V0.819C27.433,0.696,27.396,0.586,27.343,0.484z M24.599,6.112  c0-2.021,0.63-3.646,1.359-4.311v8.621C25.229,9.758,24.599,8.133,24.599,6.112z M14.45,3.971c-4.641,0-8.417,3.775-8.417,8.417c0,4.641,3.776,8.417,8.417,8.417s8.417-3.776,8.417-8.417  C22.866,7.746,19.091,3.971,14.45,3.971z M14.45,19.33c-3.829,0-6.943-3.114-6.943-6.942s3.115-6.943,6.943-6.943  c3.828,0,6.942,3.115,6.942,6.943S18.277,19.33,14.45,19.33z M6.835,5.379V0.752c0-0.407-0.33-0.737-0.737-0.737s-0.737,0.33-0.737,0.737v4.627c0,1.072-0.872,1.945-1.943,1.945  c-1.072,0-1.945-0.873-1.945-1.945V0.752c0-0.407-0.33-0.737-0.737-0.737S0,0.345,0,0.752v4.627c0,1.623,1.139,2.979,2.658,3.327  v11.708c0,0.407,0.33,0.737,0.737,0.737s0.737-0.33,0.737-0.737V8.72C5.674,8.391,6.835,7.02,6.835,5.379z M3.396,6.284c0.407,0,0.737-0.33,0.737-0.737V0.743c0-0.407-0.33-0.737-0.737-0.737s-0.737,0.33-0.737,0.737v4.805  C2.659,5.955,2.988,6.284,3.396,6.284z" style="fill: rgb(255, 255, 255)"></path></svg>