<svg id="feller-1629" xmlns="http://www.w3.org/2000/svg" x="0px" y="0px" width="28px" height="28px" xml:space="preserve"><path d="M27.251,14.718c-0.407,0-0.737,0.33-0.737,0.737v0.782c-1.221-0.742-3.575-1.922-7.049-2.594V9.767  c0-1.58-1.37-2.914-2.992-2.914h-1.129c1.26-0.556,2.144-1.81,2.144-3.27C17.487,1.607,15.878,0,13.901,0  c-1.973,0-3.578,1.607-3.578,3.583c0,1.46,0.882,2.714,2.139,3.27h-1.181c-1.608,0-2.916,1.307-2.916,2.914v3.871  c-3.509,0.688-5.223,1.842-5.32,1.911c-0.333,0.231-0.415,0.688-0.185,1.022s0.689,0.416,1.024,0.188  c0.03-0.021,3.103-2.071,9.591-2.15c8.117-0.057,12.547,3.037,13.039,3.401v2.851H1.474v-5.413c0-0.407-0.33-0.737-0.737-0.737  S0,15.041,0,15.448v10.047c0,0.407,0.33,0.737,0.737,0.737s0.737-0.33,0.737-0.737v-3.159h25.04v3.159  c0,0.407,0.33,0.737,0.737,0.737s0.737-0.33,0.737-0.737V15.456C27.988,15.048,27.658,14.718,27.251,14.718z M11.796,3.583  c0-1.163,0.944-2.11,2.104-2.11c1.165,0,2.112,0.947,2.112,2.11c0,1.16-0.947,2.104-2.112,2.104  C12.741,5.687,11.796,4.743,11.796,3.583z M13.457,13.135c-1.342,0.016-2.545,0.113-3.619,0.257V9.767  c0-0.794,0.647-1.44,1.442-1.44h5.192c0.809,0,1.518,0.673,1.518,1.44v3.637C16.624,13.217,15.115,13.111,13.457,13.135z" style="fill: rgb(255, 255, 255)"></path></svg>