<svg id="feller-1630" xmlns="http://www.w3.org/2000/svg" x="0px" y="0px" width="26px" height="28px" xml:space="preserve"><path d="M26.083,10.524c0.001-0.016,0.009-0.03,0.008-0.046C25.717,1.136,14.559,0.015,14.447,0.005  c-0.278-0.028-0.558,0.067-0.763,0.254c-0.205,0.188-0.323,0.456-0.323,0.737v8.771H6.736C6.329,9.768,6,10.098,6,10.505  s0.33,0.737,0.737,0.737h17.757c-0.219,1.133-0.79,3.241-2.175,4.809c-0.732-0.626-1.67-1.019-2.707-1.019  c-1.889,0-3.471,1.265-3.991,2.986h-2.189c-0.521-1.722-2.103-2.986-3.992-2.986c-0.993,0-1.894,0.361-2.612,0.941  c-1.908-2.227-2.239-5.5-2.243-5.535c-0.004-0.047-0.027-0.086-0.04-0.129C4.194,7.486,2.012,6.345,0.861,6.145  C0.458,6.075,0.084,6.341,0.012,6.74s0.193,0.781,0.591,0.856C0.649,7.604,1.205,7.721,1.784,8.14l0.958,1.16  c0.19,0.383,0.338,0.833,0.38,1.403c0.001,0.02,0.012,0.036,0.015,0.056c0.1,0.797,0.622,4.029,2.712,6.339  c-0.371,0.625-0.599,1.345-0.599,2.123c0,2.31,1.878,4.188,4.188,4.188c2.217,0,4.018-1.735,4.162-3.916h1.85  c0.144,2.181,1.945,3.916,4.161,3.916c2.31,0,4.188-1.879,4.188-4.188c0-0.736-0.208-1.42-0.543-2.021  c2.433-2.596,2.815-6.455,2.831-6.626C26.09,10.556,26.083,10.541,26.083,10.524z M9.439,21.935c-1.497,0-2.714-1.217-2.714-2.714  s1.218-2.714,2.714-2.714c1.497,0,2.715,1.217,2.715,2.714S10.937,21.935,9.439,21.935z M14.834,1.544  c1.979,0.318,8.92,1.897,9.701,8.224h-9.701V1.544z M19.612,21.935c-1.497,0-2.714-1.217-2.714-2.714s1.217-2.714,2.714-2.714  s2.714,1.217,2.714,2.714S21.109,21.935,19.612,21.935z" style="fill: rgb(255, 255, 255)"></path></svg>