<svg id="feller-1632" xmlns="http://www.w3.org/2000/svg" x="0px" y="0px" width="28px" height="28px" xml:space="preserve"><path d="M27.222,17.292h-4.624v-1.998h3.765c0.87,0,1.579-0.709,1.579-1.579V5.143c0-0.871-0.709-1.579-1.579-1.579H14.651  c-0.871,0-1.58,0.708-1.58,1.579v8.572c0,0.87,0.708,1.579,1.58,1.579h3.728v1.998H11.89l0.007-6.774  c0-1.678-1.455-3.096-3.177-3.096H7.134c1.518-0.505,2.622-1.92,2.622-3.603C9.756,1.713,8.042,0,5.935,0  C3.833,0,2.122,1.713,2.122,3.819c0,1.683,1.102,3.098,2.617,3.603H3.098C1.39,7.421,0,8.81,0,10.517v7.488  c0,0.407,0.33,0.737,0.737,0.737s0.737-0.33,0.737-0.737v-7.488c0-0.895,0.729-1.622,1.625-1.622h5.621  c0.907,0,1.704,0.758,1.704,1.621l-0.008,7.488c0,0.31,0.191,0.573,0.462,0.683c0.098,0.047,0.203,0.079,0.319,0.079h7.918  c0.407,0,0.737-0.33,0.737-0.737c0-0.003-0.002-0.005-0.002-0.008h0.004v-2.7h1.27v2.7h0.006c0,0.003-0.002,0.005-0.002,0.008  c0,0.407,0.33,0.737,0.737,0.737h5.357c0.407,0,0.737-0.33,0.737-0.737S27.629,17.292,27.222,17.292z M14.545,13.714V5.143  c0-0.056,0.05-0.105,0.106-0.105h11.711c0.056,0,0.104,0.049,0.104,0.105v8.572c0,0.056-0.049,0.104-0.104,0.104H14.651  C14.595,13.819,14.545,13.77,14.545,13.714z M3.596,3.819c0-1.293,1.049-2.345,2.339-2.345c1.294,0,2.347,1.052,2.347,2.345  c0,1.29-1.053,2.34-2.347,2.34C4.645,6.159,3.596,5.109,3.596,3.819z" style="fill: rgb(255, 255, 255)"></path></svg>