<svg id="feller-1637" xmlns="http://www.w3.org/2000/svg" x="0px" y="0px" width="24px" height="28px" xml:space="preserve"><path d="M23.641,16.085l-8.982-7.014c-0.321-0.25-0.785-0.192-1.034,0.129c-0.251,0.321-0.193,0.784,0.128,1.034l8.789,6.843  c0.047,0.075,0.11,0.206,0.11,0.33c0,0.283-0.23,0.513-0.514,0.513H1.988c-0.283,0-0.514-0.229-0.514-0.513  c0-0.125,0.066-0.258,0.109-0.328c1.055-0.82,10.426-8.102,11.076-8.684c1.377-1.234,1.769-2.092,1.745-3.815V3.493  C14.39,1.501,12.886,0,10.904,0C8.976,0,7.408,1.569,7.408,3.497c0,0.407,0.33,0.737,0.737,0.737s0.737-0.33,0.737-0.737  c0-1.116,0.907-2.023,2.022-2.023c1.166,0,2.018,0.853,2.024,2.023v1.094c0.019,1.316-0.18,1.746-1.253,2.707  c-0.527,0.472-8.176,6.426-11.079,8.681l-0.111,0.106C0.436,16.145,0,16.682,0,17.408c0,1.096,0.892,1.987,1.988,1.987h20.15  c1.096,0,1.988-0.892,1.988-1.987C24.126,16.682,23.691,16.145,23.641,16.085z" style="fill: rgb(255, 255, 255)"></path></svg>