<svg id="feller-1642" xmlns="http://www.w3.org/2000/svg" x="0px" y="0px" width="12px" height="28px" xml:space="preserve"><path d="M8.478,7.601v-6.58C8.478,0.458,8.02,0,7.457,0H4.388c-0.563,0-1.02,0.458-1.02,1.021v6.608  c-0.549,0.44-3.367,2.82-3.367,5.227L0,27.038c0,0.563,0.458,1.021,1.021,1.021l9.871,0.002c0.563,0,1.021-0.458,1.021-1.021  l0.007-14.184C11.92,10.421,9.047,8.047,8.478,7.601z M7.003,1.474v1.355H4.842V1.474H7.003z M4.338,8.741  C4.64,8.503,4.842,8.086,4.842,7.703V4.302h2.162v3.378c0,0.388,0.207,0.807,0.515,1.041c0.814,0.625,2.928,2.586,2.928,4.134  l-0.001,1.234h-8.97v-1.234C1.475,11.328,3.542,9.368,4.338,8.741z M1.474,26.583l0.001-11.02h8.97l-0.003,5.267H3.407  c-0.407,0-0.737,0.33-0.737,0.737S3,22.305,3.407,22.305h7.035l-0.002,4.28L1.474,26.583z" style="fill: rgb(255, 255, 255)"></path></svg>