<svg id="feller-1646" xmlns="http://www.w3.org/2000/svg" x="0px" y="0px" width="28px" height="28px" xml:space="preserve"><path d="M21.744,1.678c-2.111-2.111-5.448-2.221-7.722-0.383C11.75-0.543,8.413-0.432,6.301,1.679  C4.203,3.776,4.052,7.096,5.87,9.388c-1.818,2.271-1.676,5.609,0.428,7.718c1.106,1.106,2.591,1.696,4.102,1.696  c0.38,0,0.761-0.046,1.14-0.121l-0.001,8.587c0,0.407,0.33,0.737,0.737,0.737s0.737-0.33,0.737-0.737l0.001-9.488  c0-0.254-0.136-0.467-0.331-0.6c-0.199-0.17-0.477-0.237-0.739-0.138c-1.591,0.608-3.398,0.226-4.603-0.979  c-1.683-1.687-1.683-4.429-0.07-6.051l0.625-0.639L7.391,8.87L7.299,8.789C5.658,7.101,5.672,4.392,7.343,2.721  c1.684-1.683,4.424-1.683,6.108,0c0.157,0.157,0.366,0.221,0.571,0.207c0.205,0.014,0.414-0.049,0.571-0.207  c1.684-1.684,4.425-1.683,6.108-0.001c1.671,1.671,1.686,4.383,0.042,6.07l-0.528,0.641l0.488,0.521  c1.684,1.684,1.683,4.425,0,6.111c-1.205,1.204-3.011,1.589-4.603,0.979c-0.247-0.093-0.507-0.035-0.703,0.114  c-0.216,0.129-0.367,0.354-0.367,0.623l0.001,9.488c0,0.407,0.33,0.737,0.737,0.737s0.737-0.33,0.737-0.737l-0.001-8.587  c0.378,0.075,0.759,0.121,1.139,0.121c1.512,0,2.996-0.591,4.103-1.697c2.103-2.107,2.246-5.442,0.431-7.714  C23.994,7.119,23.85,3.784,21.744,1.678z M0.737,23.973C0.33,23.973,0,24.303,0,24.71v2.547c0,0.407,0.33,0.737,0.737,0.737s0.737-0.33,0.737-0.737V24.71  C1.474,24.303,1.144,23.973,0.737,23.973z M3.602,23.973c-0.407,0-0.737,0.33-0.737,0.737v2.547c0,0.407,0.33,0.737,0.737,0.737s0.737-0.33,0.737-0.737V24.71  C4.338,24.303,4.009,23.973,3.602,23.973z M6.453,23.973c-0.407,0-0.737,0.33-0.737,0.737v2.547c0,0.407,0.33,0.737,0.737,0.737s0.737-0.33,0.737-0.737V24.71  C7.189,24.303,6.86,23.973,6.453,23.973z M9.311,23.973c-0.407,0-0.737,0.33-0.737,0.737v2.547c0,0.407,0.33,0.737,0.737,0.737s0.737-0.33,0.737-0.737V24.71  C10.048,24.303,9.718,23.973,9.311,23.973z M27.292,23.973c-0.407,0-0.737,0.33-0.737,0.737v2.547c0,0.407,0.33,0.737,0.737,0.737s0.737-0.33,0.737-0.737V24.71  C28.029,24.303,27.699,23.973,27.292,23.973z M24.427,23.973c-0.407,0-0.737,0.33-0.737,0.737v2.547c0,0.407,0.33,0.737,0.737,0.737s0.737-0.33,0.737-0.737V24.71  C25.164,24.303,24.834,23.973,24.427,23.973z M21.576,23.973c-0.407,0-0.737,0.33-0.737,0.737v2.547c0,0.407,0.33,0.737,0.737,0.737s0.737-0.33,0.737-0.737V24.71  C22.313,24.303,21.983,23.973,21.576,23.973z M18.718,23.973c-0.407,0-0.737,0.33-0.737,0.737v2.547c0,0.407,0.33,0.737,0.737,0.737s0.737-0.33,0.737-0.737V24.71  C19.455,24.303,19.125,23.973,18.718,23.973z" style="fill: rgb(255, 255, 255)"></path></svg>