<svg id="feller-1647" xmlns="http://www.w3.org/2000/svg" x="0px" y="0px" width="18px" height="28px" xml:space="preserve"><path d="M13.331,1.243C12.529,0.441,11.463,0,10.332,0C9.418,0,8.549,0.287,7.826,0.818C7.104,0.287,6.234,0,5.321,0  C4.189,0,3.124,0.441,2.323,1.242c-0.802,0.801-1.243,1.867-1.243,3c0,0.906,0.282,1.768,0.821,2.5  C1.368,7.466,1.08,8.336,1.08,9.251c0,1.132,0.441,2.197,1.243,2.999c0.801,0.802,1.867,1.242,3,1.242  c0.625,0,1.226-0.144,1.773-0.396v3.77c-0.314-0.33-0.693-0.641-1.155-0.905c-2.498-1.438-5.337-0.297-5.458-0.248L0,15.912  l0.028,0.521c0.007,0.131,0.197,3.229,2.592,4.84c0.56,0.377,1.184,0.638,1.854,0.773c0.049,0.01,0.099,0.015,0.147,0.015  c0.343,0,0.65-0.241,0.721-0.591c0.081-0.399-0.177-0.788-0.576-0.869c-0.479-0.097-0.924-0.282-1.323-0.551  c-1.258-0.846-1.708-2.335-1.865-3.141c0.79-0.201,2.311-0.429,3.628,0.329c1.618,0.928,1.854,2.634,1.889,3.049V22.9  c0,0.407,0.33,0.737,0.737,0.737s0.737-0.33,0.737-0.737v-2.509c0-0.014,0.007-0.024,0.007-0.038c0-0.012-0.002-0.059-0.007-0.123  V13.1c0.547,0.251,1.143,0.393,1.763,0.393c1.134,0,2.199-0.44,3.001-1.242c1.495-1.498,1.636-3.845,0.422-5.503  c0.531-0.722,0.818-1.591,0.818-2.505C14.573,3.109,14.131,2.044,13.331,1.243z M12.288,7.295c1.079,1.079,1.079,2.834,0.002,3.913  c-1.032,1.032-2.829,1.049-3.879,0.036l-0.638-0.629l-0.495,0.594c-1.045,1.045-2.867,1.043-3.913-0.001  c-1.079-1.079-1.079-2.834-0.069-3.853l0.565-0.661L3.365,6.198C2.842,5.675,2.554,4.98,2.554,4.242  c0-0.739,0.288-1.435,0.811-1.957C4.393,1.256,6.15,1.213,7.248,2.255l0.607,0.503l0.52-0.474c1.046-1.045,2.868-1.046,3.913,0  c0.523,0.523,0.812,1.218,0.812,1.957c0,0.714-0.27,1.386-0.781,1.926l-0.502,0.607L12.288,7.295z M7.82,3.927c-1.554,0-2.819,1.265-2.819,2.819c0,1.556,1.265,2.821,2.819,2.821c1.556,0,2.822-1.265,2.822-2.821  C10.642,5.192,9.376,3.927,7.82,3.927z M7.82,8.093c-0.742,0-1.345-0.604-1.345-1.347c0-0.742,0.604-1.345,1.345-1.345  c0.743,0,1.348,0.604,1.348,1.345C9.168,7.489,8.563,8.093,7.82,8.093z M16.584,19.577c-0.407,0-0.737,0.33-0.737,0.737v2.572c0,0.407,0.33,0.737,0.737,0.737s0.737-0.33,0.737-0.737v-2.572  C17.322,19.907,16.992,19.577,16.584,19.577z M13.706,19.577c-0.407,0-0.737,0.33-0.737,0.737v2.572c0,0.407,0.33,0.737,0.737,0.737s0.737-0.33,0.737-0.737v-2.572  C14.443,19.907,14.113,19.577,13.706,19.577z M10.817,19.577c-0.407,0-0.737,0.33-0.737,0.737v2.572c0,0.407,0.33,0.737,0.737,0.737s0.737-0.33,0.737-0.737v-2.572  C11.554,19.907,11.224,19.577,10.817,19.577z" style="fill: rgb(255, 255, 255)"></path></svg>