<svg id="feller-1652" xmlns="http://www.w3.org/2000/svg" x="0px" y="0px" width="28px" height="28px" xml:space="preserve"><path d="M27.273,11.772L15.277,0.429c-0.595-0.562-1.629-0.574-2.236-0.024L8.909,4.137V1.942c0-0.869-0.706-1.576-1.579-1.576  L6.47,0.368C5.6,0.369,4.892,1.079,4.892,1.949v4.766c0,0.266-0.192,0.731-0.379,0.92L0.399,11.77  c-0.532,0.538-0.406,1.036-0.328,1.224c0.079,0.189,0.344,0.628,1.102,0.628h3.104c0.055,0,0.104,0.049,0.104,0.105V25.03  c0,0.87,0.708,1.579,1.58,1.579h16.157c0.87,0,1.578-0.709,1.578-1.579V13.728c0-0.056,0.05-0.105,0.106-0.105h2.733  c0.765,0,1.023-0.444,1.1-0.635C27.711,12.797,27.828,12.297,27.273,11.772z M23.802,12.149c-0.872,0-1.581,0.708-1.581,1.579V25.03  c0,0.056-0.048,0.104-0.104,0.104H5.96c-0.056,0-0.106-0.049-0.106-0.104V13.728c0-0.871-0.708-1.579-1.578-1.579l-2.174-0.001  l3.455-3.474c0.46-0.464,0.808-1.306,0.808-1.958V1.949c0-0.057,0.05-0.107,0.107-0.107l0.862-0.002  c0.054,0,0.101,0.048,0.101,0.103v3.013c0,0.286,0.065,0.532,0.193,0.732c0.185,0.289,0.485,0.454,0.822,0.454  c0.201,0,0.511-0.063,0.84-0.361l4.738-4.282c0.055-0.048,0.183-0.046,0.235,0.003l11.258,10.648H23.802z M10.316,10.484c-0.227,0.132-0.366,0.375-0.366,0.637v8.872c0,0.263,0.14,0.506,0.367,0.638c0.114,0.066,0.242,0.1,0.37,0.1  c0.126,0,0.253-0.033,0.366-0.098l7.768-4.449c0.229-0.132,0.371-0.376,0.371-0.641c-0.001-0.265-0.143-0.509-0.373-0.64  l-7.767-4.422C10.823,10.351,10.544,10.353,10.316,10.484z M11.424,12.389l5.544,3.157l-5.544,3.176V12.389z" style="fill: rgb(255, 255, 255)"></path></svg>