<svg id="feller-1653" xmlns="http://www.w3.org/2000/svg" x="0px" y="0px" width="21px" height="28px" xml:space="preserve"><path d="M16.947,17.507c2.131-0.352,3.767-2.193,3.767-4.423V9.326L13.962,9.32c-0.001,0-0.001,0-0.001,0  c-0.406,0-0.736,0.329-0.737,0.736c0,0.407,0.329,0.737,0.736,0.737l5.279,0.005v2.286c0,1.601-1.254,2.901-2.829,3.003h-2.453  c-0.407,0-0.737,0.33-0.737,0.737s0.33,0.737,0.737,0.737h1.274v3.451h-3.343l0.002-10.497c0-1.981-2.298-3.9-2.79-4.288V1.021  C9.101,0.458,8.643,0,8.08,0H5.7C5.137,0,4.679,0.458,4.679,1.021v5.234c-0.47,0.379-2.729,2.305-2.729,4.262L1.944,21.013H0.737  C0.33,21.013,0,21.343,0,21.75s0.33,0.737,0.737,0.737H5.8c0.337,2.052,2.11,3.627,4.256,3.627l6.205-0.002l1.429,1.491  c0.145,0.151,0.338,0.228,0.532,0.228c0.184,0,0.367-0.068,0.51-0.205c0.294-0.281,0.304-0.748,0.022-1.042l-1.864-1.946  l-6.834,0.002c-1.33,0-2.442-0.919-2.756-2.152h12.668c0.407,0,0.737-0.33,0.737-0.737s-0.33-0.737-0.737-0.737h-3.263v-3.457  C16.791,17.553,16.872,17.538,16.947,17.507z M3.424,10.834h6.992l-0.001,5.236H3.421L3.424,10.834z M5.648,7.367  C5.95,7.129,6.153,6.712,6.153,6.328V1.474h1.474v4.834c0,0.388,0.207,0.807,0.513,1.041C8.546,7.661,9.459,8.495,9.997,9.36H3.839  C4.31,8.59,5.084,7.811,5.648,7.367z M3.42,17.544h6.995l0,3.469H3.418L3.42,17.544z" style="fill: rgb(255, 255, 255)"></path></svg>