<svg id="feller-1661" xmlns="http://www.w3.org/2000/svg" x="0px" y="0px" width="17px" height="28px" xml:space="preserve"><path d="M16.464,3.458C14.29,1.228,11.384,0,8.28,0C5.238,0,2.375,1.182,0.217,3.328c-0.289,0.287-0.29,0.753-0.003,1.042  c0.287,0.288,0.754,0.29,1.042,0.003C3.136,2.503,5.63,1.474,8.28,1.474c2.703,0,5.235,1.07,7.129,3.014  c0.144,0.148,0.336,0.222,0.527,0.222c0.186,0,0.371-0.069,0.515-0.209C16.742,4.216,16.748,3.75,16.464,3.458z M8.319,3.664c-2.09,0-4.058,0.813-5.541,2.289C2.49,6.239,2.489,6.706,2.776,6.994c0.287,0.29,0.753,0.289,1.042,0.003  c1.205-1.199,2.803-1.859,4.5-1.859c1.711,0,3.322,0.673,4.533,1.895c0.145,0.146,0.334,0.219,0.523,0.219  c0.188,0,0.375-0.071,0.519-0.214c0.289-0.286,0.291-0.753,0.005-1.042C12.408,4.491,10.427,3.664,8.319,3.664z M8.317,7.245c-1.106,0-2.153,0.428-2.948,1.204C5.079,8.733,5.073,9.2,5.357,9.491C5.642,9.783,6.108,9.787,6.4,9.504  c1.049-1.025,2.839-1.007,3.866,0.025c0.144,0.145,0.333,0.218,0.522,0.218c0.188,0,0.376-0.071,0.52-0.215  c0.289-0.287,0.29-0.753,0.003-1.042C10.513,7.688,9.45,7.245,8.317,7.245z" style="fill: rgb(255, 255, 255)"></path></svg>