<svg id="feller-1665" xmlns="http://www.w3.org/2000/svg" x="0px" y="0px" width="24px" height="28px" xml:space="preserve"><path d="M11.088,13.585c0.365-0.18,0.515-0.623,0.335-0.987c-0.18-0.365-0.623-0.515-0.987-0.335  c-1.166,0.576-1.937,1.781-2.011,3.145c-0.041,0.708,0.169,1.492,0.632,2.348l0.528,0.911c0.244,0.509,0.359,0.978,0.334,1.356  c-0.054,0.833-0.517,1.555-1.208,1.885c-0.368,0.175-0.523,0.614-0.349,0.982c0.126,0.265,0.391,0.42,0.666,0.42  c0.106,0,0.214-0.023,0.316-0.072c1.173-0.559,1.957-1.754,2.045-3.119c0.042-0.639-0.118-1.342-0.502-2.139l-0.544-0.943  c-0.317-0.586-0.472-1.12-0.447-1.547C9.942,14.656,10.398,13.925,11.088,13.585z M15.676,8.348c0.365-0.18,0.515-0.622,0.335-0.987c-0.181-0.364-0.623-0.514-0.987-0.334  c-1.166,0.576-1.937,1.781-2.011,3.144c-0.041,0.708,0.169,1.491,0.632,2.346l0.527,0.912c0.244,0.51,0.359,0.979,0.335,1.358  c-0.054,0.833-0.517,1.554-1.208,1.882c-0.367,0.175-0.524,0.614-0.35,0.982c0.126,0.266,0.391,0.421,0.667,0.421  c0.105,0,0.213-0.023,0.315-0.071c1.174-0.558,1.958-1.752,2.046-3.118c0.042-0.639-0.118-1.342-0.502-2.139l-0.544-0.945  c-0.317-0.585-0.472-1.119-0.447-1.545C14.529,9.418,14.986,8.688,15.676,8.348z M18.938,18.009c-0.469,0.334-0.997,0.567-1.569,0.695c-0.397,0.089-0.647,0.483-0.56,0.88  c0.077,0.344,0.382,0.577,0.719,0.577c0.054,0,0.107-0.006,0.161-0.018c0.767-0.171,1.474-0.485,2.104-0.934  c1.9-1.353,2.802-3.7,2.297-5.979c-0.14-0.629-0.388-1.225-0.738-1.781c1.856-1.335,2.78-3.667,2.276-5.941  c-0.336-1.512-1.239-2.802-2.546-3.633c-1.306-0.831-2.856-1.104-4.369-0.767c-0.677,0.15-1.315,0.426-1.905,0.821  c-1.386-1.553-3.492-2.253-5.563-1.79C6.126,0.834,4.152,3.935,4.845,7.052c0,0.002,0.001,0.005,0.001,0.007  C4.743,7.075,4.641,7.095,4.541,7.117C3.029,7.452,1.739,8.355,0.908,9.661c-0.831,1.305-1.104,2.856-0.769,4.368  c0.012,0.052,0.041,0.093,0.062,0.14c0.002,0.01,0.002,0.019,0.005,0.028c0.246,1.043,0.898,2.102,1.953,3.16l1.278,1.211  c0.674,0.748,1.112,1.504,1.266,2.188c0.169,0.747,0.146,1.515-0.067,2.222c-0.21,0.695-0.59,1.305-1.098,1.763  c-0.059,0.054-0.099,0.118-0.136,0.184H1.396c-0.407,0-0.737,0.33-0.737,0.737s0.33,0.737,0.737,0.737h19.93  c0.407,0,0.737-0.33,0.737-0.737s-0.33-0.737-0.737-0.737H5.309c0.316-0.46,0.572-0.968,0.739-1.521  c0.287-0.95,0.319-1.979,0.093-2.973c-0.212-0.941-0.753-1.9-1.648-2.89l-1.303-1.238c-0.581-0.583-1.321-1.48-1.548-2.444  c-0.354-1.5,0.076-3.032,1.124-4C2.86,9.77,2.917,9.659,2.955,9.543c0.54-0.476,1.182-0.827,1.905-0.987  c0.288-0.064,0.596-0.095,0.943-0.095c0.012,0,0.025,0,0.035,0c0.245,0,0.474-0.122,0.611-0.325C6.587,7.932,6.613,7.672,6.52,7.444  C6.436,7.239,6.341,6.993,6.284,6.733c-0.517-2.325,0.955-4.637,3.28-5.154c1.733-0.386,3.5,0.319,4.502,1.793  c0.118,0.174,0.306,0.289,0.514,0.316c0.216,0.025,0.42-0.037,0.578-0.174c0.566-0.491,1.197-0.816,1.875-0.967  c1.127-0.25,2.283-0.048,3.258,0.572c0.974,0.62,1.647,1.582,1.897,2.708c0.422,1.902-0.5,3.859-2.241,4.759  c-0.199,0.103-0.341,0.291-0.385,0.511c-0.044,0.22,0.015,0.448,0.159,0.619c0.47,0.556,0.782,1.173,0.929,1.833  C21.027,15.25,20.355,17,18.938,18.009z" style="fill: rgb(255, 255, 255)"></path></svg>