<svg id="feller-1666" xmlns="http://www.w3.org/2000/svg" x="0px" y="0px" width="22px" height="28px" xml:space="preserve"><path d="M10.794,0C4.842,0,0,4.843,0,10.795C0,16.747,4.842,21.59,10.794,21.59c5.952,0,10.794-4.843,10.794-10.794  C21.589,4.843,16.746,0,10.794,0z M10.794,20.115c-5.139,0-9.321-4.181-9.321-9.32c0-5.14,4.182-9.322,9.321-9.322  s9.32,4.182,9.32,9.322C20.114,15.935,15.934,20.115,10.794,20.115z M10.889,8.91h-0.15c-0.488,0-0.746,0.273-0.746,0.792v5.834c0,0.514,0.251,0.773,0.746,0.773h0.15  c0.492,0,0.731-0.252,0.731-0.773V9.702C11.62,9.168,11.381,8.91,10.889,8.91z M10.829,5.269c-0.617,0-0.971,0.332-0.971,0.911c0,0.561,0.357,0.896,0.956,0.896c0.616,0,0.955-0.318,0.955-0.896  C11.77,5.601,11.428,5.269,10.829,5.269z" style="fill: rgb(255, 255, 255)"></path></svg>