<svg id="feller-1674" xmlns="http://www.w3.org/2000/svg" x="0px" y="0px" width="19px" height="28px" xml:space="preserve"><path d="M6.212,18.059H1.304C0.585,18.059,0,17.474,0,16.755V1.304C0,0.585,0.585,0,1.304,0h4.908c0.719,0,1.303,0.585,1.303,1.304  v15.451C7.516,17.474,6.931,18.059,6.212,18.059z M1.474,16.584h4.568V1.474H1.474V16.584z M17.431,18.059h-4.908c-0.719,0-1.304-0.585-1.304-1.304V1.304C11.219,0.585,11.804,0,12.522,0h4.908  c0.719,0,1.304,0.585,1.304,1.304v15.451C18.734,17.474,18.149,18.059,17.431,18.059z M12.693,16.584h4.566V1.474h-4.566V16.584z" style="fill: rgb(255, 255, 255)"></path></svg>