<svg id="feller-1679" xmlns="http://www.w3.org/2000/svg" x="0px" y="0px" width="28px" height="28px" xml:space="preserve"><path d="M7.968,21.556c0-0.037-0.044-3.865-3.876-3.865C1.567,17.691,0,19.416,0,22.183c0,2.842,1.542,4.537,4.124,4.537  c1.574,0,2.684-0.568,3.392-1.738c0.123-0.201,0.287-0.502,0.287-0.785c0-0.322-0.271-0.596-0.594-0.596  c-0.355,0-0.531,0.268-0.636,0.428l-0.028,0.043c-0.479,0.734-0.974,1.492-2.355,1.492c-0.764,0-2.539-0.297-2.62-3.033h5.079  C7.205,22.531,7.968,22.531,7.968,21.556z M4.041,18.845c0.839,0,1.546,0.389,1.938,1.064c0.341,0.586,0.385,1.061,0.418,1.531  H1.592c0.049-0.373,0.12-0.865,0.382-1.335C2.23,19.636,2.84,18.845,4.041,18.845z M16.795,23.255c-0.25,0-0.397,0.145-0.521,0.285c-0.049,0.074-0.213,0.371-0.333,0.588  c-0.044,0.078-0.079,0.143-0.098,0.176c-0.421,0.748-1.225,1.195-2.15,1.195c-1.61,0-2.572-1.252-2.572-3.35  c0-1.963,1.022-3.238,2.605-3.238c1.401,0,1.963,0.953,2.174,1.313l0.01,0.016c0.328,0.547,0.52,0.592,0.736,0.592  c0.382,0,0.692-0.301,0.692-0.668c0-0.328-0.191-0.654-0.305-0.818c-0.463-0.711-1.311-1.654-3.323-1.654  c-3.827,0-4.124,3.461-4.124,4.525c0,1.031,0.207,1.922,0.615,2.648c0.71,1.248,1.879,1.855,3.574,1.855  c2.756,0,3.729-2.195,3.729-2.756C17.505,23.527,17.137,23.255,16.795,23.255z M23.279,17.691c-2.589,0-4.073,1.707-4.073,4.674c0,2.646,1.599,4.355,4.073,4.355c1.153,0,2.14-0.369,2.852-1.068  c0.813-0.795,1.224-1.957,1.224-3.451C27.354,18.015,24.235,17.691,23.279,17.691z M25.787,22.201c0,2.064-0.931,3.299-2.49,3.299  c-1.557,0-2.524-1.266-2.524-3.299c0-2.025,0.968-3.289,2.524-3.289C24.833,18.912,25.787,20.175,25.787,22.201z M6.348,16.27c-0.407,0-0.737-0.33-0.737-0.737v-3.914l-2.473-0.045c-0.733,0-0.992-0.43-1.069-0.615  c-0.077-0.185-0.2-0.672,0.317-1.193l3.313-3.334c0.166-0.167,0.335-0.579,0.335-0.813V1.807c0-0.834,0.678-1.519,1.511-1.525  l0.678,0.006c0.399,0.002,0.772,0.15,1.061,0.436C9.573,1.009,9.731,1.39,9.731,1.796L9.729,3.15l2.995-2.74  c0.602-0.55,1.542-0.548,2.143,0.008l9.952,9.35c0.54,0.502,0.428,0.993,0.354,1.18c-0.074,0.188-0.326,0.625-1.07,0.625h-2.116  l-0.042,3.952c0,0.407-0.33,0.737-0.737,0.737s-0.737-0.33-0.737-0.737v-3.907c0-0.837,0.681-1.519,1.517-1.519h1.03l-9.156-8.604  c-0.029-0.027-0.108-0.028-0.142,0.001l-3.655,3.344c-0.535,0.49-1.02,0.355-1.203,0.274C8.679,5.036,8.254,4.771,8.254,4.047  l0.004-2.253L7.545,1.755L7.508,5.618c0,0.625-0.32,1.404-0.762,1.851l-2.614,2.631L5.57,10.1c0.835,0,1.515,0.681,1.515,1.519  v3.914C7.084,15.94,6.755,16.27,6.348,16.27z" style="fill: rgb(255, 255, 255)"></path></svg>