<svg id="feller-1690" xmlns="http://www.w3.org/2000/svg" x="0px" y="0px" width="23px" height="28px" xml:space="preserve"><path d="M10.337,12.237H8.774c1.486-0.678,2.527-2.168,2.527-3.905c0-2.375-1.931-4.306-4.305-4.306  c-2.372,0-4.301,1.932-4.301,4.306c0,1.736,1.04,3.227,2.524,3.905H3.578c-1.972,0-3.577,1.603-3.577,3.573L0,25.239  c0,0.407,0.33,0.737,0.737,0.737c0.407,0,0.737-0.33,0.737-0.737l0.001-9.43c0-1.157,0.943-2.099,2.103-2.099h6.759  c1.172,0,2.201,0.98,2.201,2.099v9.43c0,0.407,0.33,0.737,0.737,0.737s0.737-0.33,0.737-0.737v-9.43  C14.012,13.873,12.329,12.237,10.337,12.237z M4.169,8.332c0-1.562,1.269-2.833,2.827-2.833c1.561,0,2.832,1.271,2.832,2.833  c0,1.558-1.271,2.826-2.832,2.826C5.438,11.158,4.169,9.89,4.169,8.332z M22.11,10.148c0,0.4,0,1.568-1.057,1.568c-0.384,0-0.768-0.208-0.912-0.496c-0.16-0.32-0.16-0.624-0.16-0.976V3.345  c-1.393,1.056-2.209,1.521-2.657,1.521c-0.464,0-0.848-0.336-0.848-0.88c0-0.432,0.271-0.64,0.944-0.96  c0.72-0.352,2.032-1.072,2.753-2.193C20.557,0.24,20.702,0,21.181,0c0.929,0,0.929,1.024,0.929,1.392V10.148z" style="fill: rgb(255, 255, 255)"></path></svg>