<svg id="feller-1694" xmlns="http://www.w3.org/2000/svg" x="0px" y="0px" width="25px" height="28px" xml:space="preserve"><path d="M18.728,4.354c0.337-0.192,1.057-0.592,2.049-0.592c1.809,0,3.586,1.408,3.586,3.713c0,2.033-1.44,4.065-4.098,4.065  c-1.585,0-2.449-0.512-2.993-1.072c-0.576-0.592-0.944-1.376-0.944-1.809c0-0.272,0.271-0.833,0.896-0.833  c0.512,0,0.752,0.352,0.976,0.752c0.448,0.8,0.944,1.489,2.018,1.489c1.521,0,1.984-1.473,1.984-2.465  c0-1.665-1.024-2.305-2.001-2.305c-0.928,0-1.425,0.448-1.921,0.896c-0.191,0.16-0.496,0.256-0.704,0.256  c-0.496,0-0.977-0.432-0.977-0.896c0-0.128,0.032-0.288,0.08-0.544l0.656-3.746C17.543,0.08,18.056,0,18.936,0h3.729  c0.385,0,0.608,0,0.785,0.064c0.368,0.128,0.592,0.496,0.592,0.849c0,0.928-0.929,0.928-1.313,0.928h-3.569L18.728,4.354z M10.337,12.036H8.774c1.486-0.678,2.527-2.168,2.527-3.905c0-2.375-1.931-4.306-4.305-4.306  c-2.372,0-4.301,1.932-4.301,4.306c0,1.736,1.04,3.227,2.524,3.905H3.578c-1.972,0-3.577,1.603-3.577,3.573L0,25.038  c0,0.407,0.33,0.737,0.737,0.737c0.407,0,0.737-0.33,0.737-0.737l0.001-9.43c0-1.157,0.943-2.099,2.103-2.099h6.759  c1.172,0,2.201,0.98,2.201,2.099v9.43c0,0.407,0.33,0.737,0.737,0.737s0.737-0.33,0.737-0.737v-9.43  C14.012,13.672,12.329,12.036,10.337,12.036z M4.169,8.131c0-1.562,1.269-2.833,2.827-2.833c1.561,0,2.832,1.271,2.832,2.833  c0,1.558-1.271,2.826-2.832,2.826C5.438,10.957,4.169,9.689,4.169,8.131z" style="fill: rgb(255, 255, 255)"></path></svg>