<svg id="feller-1746" xmlns="http://www.w3.org/2000/svg" x="0px" y="0px" width="28px" height="28px" xml:space="preserve"><path d="M10.3,6C10.3,6,10.3,6,10.3,6C10.8,6,11,5.6,11,5.2l-0.3-2.7c0-0.4-0.4-0.7-0.8-0.6c-0.4,0-0.7,0.4-0.6,0.8l0.3,2.7   C9.6,5.8,9.9,6,10.3,6z M14.7,6.9C14.9,7,15,7,15.1,7c0.3,0,0.5-0.1,0.6-0.4l1.3-2.4c0.2-0.4,0.1-0.8-0.3-1c-0.4-0.2-0.8-0.1-1,0.3l-1.3,2.4   C14.3,6.3,14.4,6.7,14.7,6.9z M3.6,15.9L1.2,17c-0.4,0.2-0.5,0.6-0.4,1c0.1,0.3,0.4,0.4,0.7,0.4c0.1,0,0.2,0,0.3-0.1l2.5-1.1c0.4-0.2,0.5-0.6,0.4-1   C4.4,15.9,4,15.7,3.6,15.9z M18.4,10.6c0.1,0,0.2,0,0.3-0.1l2.5-1.1c0.4-0.2,0.5-0.6,0.4-1c-0.2-0.4-0.6-0.5-1-0.4l-2.5,1.1c-0.4,0.2-0.5,0.6-0.4,1   C17.9,10.5,18.2,10.6,18.4,10.6z M3.4,12.4c0.3,0,0.7-0.2,0.7-0.6c0.1-0.4-0.2-0.8-0.6-0.9l-2.7-0.5C0.5,10.3,0.1,10.6,0,11c-0.1,0.4,0.2,0.8,0.6,0.9   l2.7,0.5C3.3,12.4,3.3,12.4,3.4,12.4z M6.3,7.9c0.3-0.3,0.3-0.7,0-1l-1.8-2c-0.3-0.3-0.7-0.3-1,0c-0.3,0.3-0.3,0.7,0,1l1.8,2C5.4,8,5.6,8.1,5.8,8.1   C6,8.1,6.1,8,6.3,7.9z M23.6,17.3c-0.3,0-0.6,0-0.9,0.1c-0.6-2.7-3-4.7-5.8-4.8c0,0,0-0.1,0-0.1c-0.2-1.6-1-2.9-2.2-3.9c-1.2-1-2.8-1.4-4.3-1.2   c-3.2,0.4-5.5,3.3-5.1,6.5c0.2,1.7,1.1,3.1,2.4,4.1c-1.3,0.8-2.2,2.2-2.2,3.8c0,2.4,2,4.4,4.4,4.4h13.7c2.4,0,4.4-2,4.4-4.4   S26,17.3,23.6,17.3z M6.8,13.6c-0.3-2.4,1.4-4.6,3.8-4.9c1.2-0.1,2.3,0.2,3.2,0.9c0.9,0.7,1.5,1.8,1.6,2.9c0,0,0,0.1,0,0.1   c-2.3,0.5-4.2,2.3-4.7,4.7c-0.3-0.1-0.6-0.1-0.9-0.1c-0.1,0-0.1,0-0.2,0c0,0-0.1,0-0.1,0c-0.2-0.1-0.3-0.1-0.5-0.2   C7.8,16.4,6.9,15.1,6.8,13.6z M23.6,24.7H9.9c-1.6,0-2.9-1.3-2.9-2.9s1.3-2.9,2.9-2.9c0.4,0,0.8,0.1,1.2,0.3c0.2,0.1,0.5,0.1,0.7,0   c0.2-0.1,0.3-0.3,0.4-0.6c0.2-2.4,2.2-4.3,4.6-4.3c2.4,0,4.5,1.9,4.6,4.4c0,0.2,0.1,0.5,0.4,0.6c0.2,0.1,0.5,0.1,0.7,0   c0.4-0.2,0.8-0.3,1.2-0.3c1.6,0,2.9,1.3,2.9,2.9S25.2,24.7,23.6,24.7z" style="fill: rgb(255, 255, 255)"></path></svg>