<svg id="feller-1747" xmlns="http://www.w3.org/2000/svg" x="0px" y="0px" width="24px" height="28px" xml:space="preserve"><path d="M23.1,21.8H1.6l0-16.4c0-0.4-0.3-0.7-0.7-0.7h0C0.5,4.7,0.1,5,0.1,5.4l0,17.1c0,0.2,0.1,0.4,0.2,0.5   c0.1,0.1,0.3,0.2,0.5,0.2h22.3c0.4,0,0.7-0.3,0.7-0.7S23.5,21.8,23.1,21.8z M4.6,19.3c0.2,0,0.4-0.1,0.5-0.2L9.2,15l2.9,2.8c0.3,0.3,0.8,0.3,1,0l9.3-9.4c0.3-0.3,0.3-0.8,0-1c-0.3-0.3-0.8-0.3-1,0   l-8.7,8.9l-2.9-2.8c-0.3-0.3-0.8-0.3-1,0l-4.6,4.7c-0.3,0.3-0.3,0.8,0,1C4.2,19.3,4.4,19.3,4.6,19.3z" style="fill: rgb(255, 255, 255)"></path></svg>