<svg id="feller-1749" xmlns="http://www.w3.org/2000/svg" x="0px" y="0px" width="23px" height="28px" xml:space="preserve"><path d="M21.8,18.3l-2.8-2c-1.1-0.8-2.7-0.5-3.4,0.6c-0.2,0.3-0.5,0.5-0.9,0.6c-0.3,0.1-0.7,0-1-0.2l-5.1-5.1  c-0.4-0.6-0.2-1.4,0.4-1.8c1.1-0.8,1.4-2.3,0.6-3.4l-2-2.8C7.2,3.5,6.6,3.2,6,3c-0.7-0.1-1.3,0-1.9,0.4c-3.2,2.2-4,6.7-1.7,9.9  c0,0,0.1,0.1,0.1,0.1L8,18.7c0.3,0.3,0.8,0.3,1,0c0.3-0.3,0.3-0.8,0-1l-5.4-5.2C1.8,9.9,2.5,6.4,5,4.7c0.2-0.2,0.5-0.2,0.7-0.2  c0.3,0,0.5,0.2,0.6,0.4l2,2.8c0.3,0.5,0.2,1.1-0.2,1.4c-1.3,0.9-1.6,2.7-0.7,3.9c0,0,0.1,0.1,0.1,0.1l5.2,5.2c0,0,0.1,0.1,0.1,0.1  c0.6,0.4,1.4,0.6,2.1,0.5c0.7-0.1,1.4-0.5,1.8-1.2c0.3-0.5,0.9-0.6,1.4-0.2l2.8,2c0.4,0.3,0.6,0.9,0.2,1.4c-0.9,1.2-2.2,2.1-3.6,2.3  c-1.5,0.3-3-0.1-4.2-0.9l-0.2-0.2c-1.9-1.5-4.3-2.1-6.8-1.8c-2.4,0.3-4.6,1.6-6,3.5c-0.2,0.3-0.2,0.8,0.1,1C0.6,25,0.7,25,0.9,25  c0.2,0,0.4-0.1,0.6-0.3c1.2-1.6,3-2.7,5.1-2.9c2-0.3,4,0.3,5.7,1.5l0.3,0.2c1.6,1.1,3.4,1.5,5.3,1.2c1.9-0.3,3.5-1.4,4.6-2.9  C23.2,20.6,22.9,19.1,21.8,18.3z" style="fill: rgb(255, 255, 255)"></path></svg>