<svg id="feller-1755" xmlns="http://www.w3.org/2000/svg" x="0px" y="0px" width="28px" height="28px" xml:space="preserve"><path d="M27.5,12.4L15.4,1c-0.6-0.6-1.7-0.6-2.4,0L9,4.7V2.6c0-0.9-0.7-1.7-1.7-1.7l-0.7,0C5.7,0.9,5,1.7,5,2.6v4.6   c0,0.3-0.2,0.9-0.5,1.1l-4,4c-0.6,0.6-0.4,1.1-0.4,1.3c0.1,0.2,0.4,0.6,1.2,0.6h2.9c0.1,0,0.2,0.1,0.2,0.2v11.2   c0,0.9,0.8,1.7,1.7,1.7h16.1c0.9,0,1.7-0.8,1.7-1.7V14.5c0-0.1,0.1-0.2,0.2-0.2h2.6c0.8,0,1.1-0.5,1.2-0.7   C27.9,13.4,28.1,12.9,27.5,12.4z M24.1,12.8c-0.9,0-1.7,0.8-1.7,1.7v11.2c0,0.1-0.1,0.2-0.2,0.2H6.1c-0.1,0-0.2-0.1-0.2-0.2V14.5   c0-0.9-0.8-1.7-1.7-1.7l-2.1,0l3.4-3.5c0.5-0.5,0.9-1.4,0.9-2.1V2.6c0-0.1,0.1-0.2,0.2-0.2l0.7,0c0.1,0,0.2,0.1,0.2,0.2v2.9   c0,0.3,0.1,0.6,0.2,0.8c0.2,0.3,0.5,0.5,0.8,0.5c0.2,0,0.5-0.1,0.9-0.4L14,2.1c0.1-0.1,0.3-0.1,0.4,0l11.4,10.7H24.1z M7.2,16.1c0,3.8,3.1,7,7,7c3.8,0,7-3.1,7-7c0-3.8-3.1-7-7-7C10.4,9.1,7.2,12.3,7.2,16.1z M19.7,16.1c0,3-2.5,5.5-5.5,5.5   c-3,0-5.5-2.5-5.5-5.5c0-3,2.5-5.5,5.5-5.5C17.2,10.6,19.7,13.1,19.7,16.1z M10.5,12.8c-0.3,0.3-0.3,0.7,0,1l3.7,3.9l2.9-2.6c0.3-0.3,0.3-0.7,0.1-1c-0.3-0.3-0.7-0.3-1-0.1l-1.9,1.7l-2.8-2.9   C11.2,12.5,10.8,12.5,10.5,12.8z" style="fill: rgb(255, 255, 255)"></path></svg>