<svg id="feller-1788" xmlns="http://www.w3.org/2000/svg" x="0px" y="0px" width="28.3px" height="28.3px" xml:space="preserve"><path d="M27.5,12.6h-3.9V8.7c0-0.4-0.3-0.7-0.7-0.7c-0.4,0-0.7,0.3-0.7,0.7v3.9h-3.9c-0.4,0-0.7,0.3-0.7,0.7s0.3,0.7,0.7,0.7h3.9   V18c0,0.4,0.3,0.7,0.7,0.7c0.4,0,0.7-0.3,0.7-0.7v-3.9h3.9c0.4,0,0.7-0.3,0.7-0.7S27.9,12.6,27.5,12.6z M13.7,13.1c-0.1-0.3-0.4-0.5-0.7-0.5H9.2V6.9h2.6c0.4,0,0.7-0.3,0.7-0.7c0-0.4-0.3-0.7-0.7-0.7H5.1c-0.4,0-0.7,0.3-0.7,0.7   c0,0.4,0.3,0.7,0.7,0.7h2.6v5.7H3.8c-0.3,0-0.6,0.2-0.7,0.5L0,22.2c-0.1,0.2,0,0.5,0.1,0.7c0.1,0.2,0.4,0.3,0.6,0.3h15.4   c0.2,0,0.5-0.1,0.6-0.3c0.1-0.2,0.2-0.4,0.1-0.7L13.7,13.1z M1.8,21.7l2.6-7.6h8.2l2.6,7.6H1.8z" style="fill: rgb(255, 255, 255)"></path></svg>