<svg id="feller-1862" xmlns="http://www.w3.org/2000/svg" x="0px" y="0px" width="25.3px" height="28.3px" xml:space="preserve"><path d="M11.2,8.2L11.2,8.2c-0.6-0.5-1.4-0.5-2,0l-2.5,2.3v-1c0-0.4-0.1-0.7-0.4-1c-0.3-0.3-0.6-0.4-1-0.4l-0.5,0   c-0.8,0-1.4,0.6-1.4,1.4v3.3c0,0.2-0.1,0.5-0.3,0.6l-2.8,2.9C0,16.6-0.1,17,0.1,17.4c0.2,0.4,0.5,0.6,1,0.6l2-0.1v7.9   c0,0.8,0.6,1.4,1.4,1.4h11.4c0.8,0,1.4-0.6,1.4-1.4L17.2,18H19c0.7,0,1-0.5,1-0.6c0.1-0.1,0.2-0.6-0.3-1.1L11.2,8.2z M17.2,16.5   c-0.8,0-1.4,0.6-1.4,1.4l0.1,7.9L4.6,25.8v-7.9c0-0.8-0.6-1.4-1.4-1.4h-1l2.1-2.1c0.4-0.4,0.7-1.1,0.7-1.7L4.9,9.6l0.4,0v2   c0,0.5,0.2,0.9,0.6,1c0.4,0.2,0.8,0.1,1.1-0.3l3.2-2.9l7.6,7.2H17.2z M24.5,8.3c-0.5,0-0.7,0.5-0.8,0.7c-0.4,1.2-1.2,1.8-2.3,1.8c-0.8,0-2.6-0.3-2.6-3.3c0-3.2,2.1-3.4,2.7-3.4   c0.6,0,0.9,0.2,1.1,0.3c0.4,0.2,0.7,0.5,0.9,1c0.2,0.4,0.5,0.9,1,0.9c0.5,0,0.8-0.4,0.8-0.8c0-0.6-1-2.8-3.8-2.8   c-2.6,0-4.5,2-4.5,4.9c0,1.5,0.5,2.9,1.4,3.8c0.9,0.9,2.2,1.1,3.2,1.1c2.7,0,3.8-2.3,3.8-3.2C25.3,8.6,24.9,8.3,24.5,8.3z M14.8,6.3c1.1,0,2-0.9,2-2c0-1.1-0.9-2-2-2c-1.1,0-2,0.9-2,2C12.9,5.5,13.7,6.3,14.8,6.3z M14.8,3.6c0.4,0,0.7,0.3,0.7,0.7   c0,0.4-0.3,0.8-0.7,0.8s-0.7-0.3-0.7-0.8C14.1,4,14.4,3.6,14.8,3.6z" style="fill: rgb(255, 255, 255)"></path></svg>