<svg id="feller-1863" xmlns="http://www.w3.org/2000/svg" x="0px" y="0px" width="23px" height="28.3px" xml:space="preserve"><path d="M22.9,12.5c-1.4-5.3-6.1-9-11.5-9c-5.3,0-10,3.7-11.5,9C0,12.7,0,13,0.2,13.1c0.1,0.2,0.4,0.3,0.6,0.3h10.1v9.5  c0,0.7-0.5,1.2-1.2,1.2c-0.7,0-1.2-0.5-1.2-1.2c0-0.4-0.3-0.7-0.7-0.7c-0.4,0-0.7,0.3-0.7,0.7c0,1.5,1.2,2.7,2.7,2.7  c1.5,0,2.7-1.2,2.7-2.7V12.9c0-0.2-0.1-0.4-0.2-0.5C12,12.1,11.7,12,11.5,12H1.7c1.5-4.2,5.4-7,9.7-7c4.3,0,8.2,2.8,9.7,7h-7.2  c-0.4,0-0.7,0.3-0.7,0.7s0.3,0.7,0.7,0.7h8.2c0.2,0,0.4-0.1,0.6-0.3C23,13,23,12.7,22.9,12.5z" style="fill: rgb(255, 255, 255)"></path></svg>