<svg id="feller-1864" xmlns="http://www.w3.org/2000/svg" x="0px" y="0px" width="12.6px" height="28.3px" xml:space="preserve"><path d="M12.6,19.1L6.9,3.5C6.8,3.2,6.4,3,6,3.1C5.8,3.2,5.6,3.4,5.5,3.6c0,0.1-0.1,0.1-0.1,0.2L0,19.2c-0.1,0.2,0,0.5,0.1,0.7  c0.1,0.2,0.4,0.3,0.6,0.3h4.9v2.6c0,0.7-0.5,1.2-1.2,1.2c-0.7,0-1.2-0.5-1.2-1.2c0-0.4-0.3-0.7-0.7-0.7s-0.7,0.3-0.7,0.7  c0,1.5,1.2,2.7,2.7,2.7c1.5,0,2.7-1.2,2.7-2.7v-3.3c0-0.3-0.2-0.6-0.6-0.7c-0.1,0-0.2-0.1-0.3-0.1H1.8L6.2,5.9l4.6,12.7h-2  C8.4,18.7,8,19,8,19.4c0,0.4,0.3,0.7,0.7,0.7h3.1c0.2,0,0.5-0.1,0.6-0.3C12.6,19.6,12.6,19.4,12.6,19.1z" style="fill: rgb(255, 255, 255)"></path></svg>