<svg id="feller-1919" xmlns="http://www.w3.org/2000/svg" x="0px" y="0px" width="26.8px" height="28.3px" xml:space="preserve"><path d="M15,16.8l4.2-4.1c0.2-0.2,0.3-0.5,0.2-0.8c-0.1-0.3-0.3-0.5-0.6-0.5l-5.8-0.8l-2.6-5.2C10.2,5.1,10,4.9,9.7,4.9   c0,0,0,0,0,0C9.4,4.9,9.1,5.1,9,5.3l-2.6,5.2l-5.8,0.9c-0.3,0-0.5,0.2-0.6,0.5c-0.1,0.3,0,0.6,0.2,0.8l4.2,4.1l-1,5.8   c0,0.3,0.1,0.6,0.3,0.7c0.1,0.1,0.3,0.1,0.4,0.1c0.1,0,0.2,0,0.3-0.1l5.2-2.7l5.2,2.7c0.3,0.1,0.6,0.1,0.8-0.1   c0.2-0.2,0.3-0.5,0.3-0.7L15,16.8z M14.2,21.3L10,19.1c-0.2-0.1-0.5-0.1-0.7,0l-4.2,2.2L6,16.7c0-0.2,0-0.5-0.2-0.7l-3.4-3.3L7,12   c0.2,0,0.5-0.2,0.6-0.4l2.1-4.2l2.1,4.2c0.1,0.2,0.3,0.4,0.6,0.4l4.7,0.7L13.6,16c-0.2,0.2-0.3,0.4-0.2,0.7L14.2,21.3z M26,16h-7.1c-0.4,0-0.7,0.3-0.7,0.7s0.3,0.7,0.7,0.7H26c0.4,0,0.7-0.3,0.7-0.7S26.4,16,26,16z" style="fill: rgb(255, 255, 255)"></path></svg>