<svg id="feller-1924" xmlns="http://www.w3.org/2000/svg" x="0px" y="0px" width="21.3px" height="28.3px" xml:space="preserve"><path d="M10.6,11.8c-0.1,0-0.2,0-0.3,0L8.8,8.5c-0.2-0.4-0.6-0.5-1-0.4c-0.4,0.2-0.5,0.6-0.4,1L9,12.4c-0.5,0.4-0.8,1.1-0.8,1.8  c0,1.3,1.1,2.4,2.4,2.4c1.3,0,2.4-1.1,2.4-2.4C13.1,12.9,12,11.8,10.6,11.8z M10.6,15.2c-0.5,0-1-0.4-1-1s0.4-1,1-1c0.5,0,1,0.4,1,1  S11.2,15.2,10.6,15.2z M10.7,3.5C4.8,3.5,0,8.3,0,14.2c0,5.9,4.8,10.7,10.7,10.7c5.9,0,10.7-4.8,10.7-10.7C21.3,8.3,16.6,3.5,10.7,3.5z M17.6,20.2  l-1.5-1.5c-0.3-0.3-0.8-0.3-1,0c-0.3,0.3-0.3,0.8,0,1l1.5,1.5c-1.4,1.2-3.2,2-5.2,2.1l0-2.1c0-0.4-0.3-0.7-0.7-0.7  c-0.4,0-0.7,0.3-0.7,0.7l0,2.1c-1.9-0.2-3.7-0.9-5.1-2.1l1.5-1.5c0.3-0.3,0.3-0.8,0-1c-0.3-0.3-0.8-0.3-1,0l-1.5,1.5  c-1.2-1.4-2-3.2-2.2-5.2l2.1,0c0.4,0,0.7-0.3,0.7-0.7c0-0.4-0.3-0.7-0.7-0.7l-2.1,0c0.1-2,0.9-3.8,2.1-5.2l1.5,1.5  C5.3,9.9,5.5,10,5.7,10s0.4-0.1,0.5-0.2c0.3-0.3,0.3-0.8,0-1L4.7,7.2C6.1,6,7.9,5.2,9.9,5l0,2.1c0,0.4,0.3,0.7,0.7,0.7  c0.4,0,0.7-0.3,0.7-0.7l0-2.1c2,0.1,3.9,1,5.3,2.2l-1.5,1.5c-0.3,0.3-0.3,0.8,0,1c0.1,0.1,0.3,0.2,0.5,0.2s0.4-0.1,0.5-0.2l1.5-1.5  c1.2,1.4,2,3.2,2.1,5.2l-2.1,0c-0.4,0-0.7,0.3-0.7,0.7c0,0.4,0.3,0.7,0.7,0.7l2.1,0C19.7,17,18.8,18.8,17.6,20.2z" style="fill: rgb(255, 255, 255)"></path></svg>