<svg id="feller-1925" xmlns="http://www.w3.org/2000/svg" x="0px" y="0px" width="28.1px" height="28.3px" xml:space="preserve"><path d="M16.6,5.3L6.1,7.4C5.5,7.5,5,8,5,8.6v9.2c-0.8-0.3-1.9-0.3-2.9,0.2c-1.7,0.8-2.6,2.4-2,3.8c0.4,0.9,1.3,1.3,2.4,1.3   c0.6,0,1.2-0.1,1.7-0.4c1.4-0.6,2.2-1.9,2.2-3c0,0,0-0.1,0-0.1v-6l8.6-1.8c0.4-0.1,0.7-0.5,0.6-0.9c-0.1-0.4-0.5-0.7-0.9-0.6   l-8.3,1.8V8.8l9.9-2V16c-0.2-0.1-0.3-0.1-0.5-0.1c-0.7-0.1-1.6,0-2.4,0.3c-1.7,0.8-2.6,2.4-2,3.8c0.4,0.9,1.3,1.3,2.4,1.3   c0.6,0,1.2-0.1,1.7-0.4c0.8-0.4,1.4-0.9,1.8-1.6c0.3-0.4,0.4-0.9,0.4-1.3c0,0,0,0,0,0V6.3c0-0.3-0.1-0.6-0.4-0.8   C17.3,5.3,17,5.2,16.6,5.3z M3.7,21.4c-1,0.5-2,0.3-2.2-0.2c-0.2-0.5,0.2-1.3,1.3-1.8c0.4-0.2,0.8-0.3,1.1-0.3   c0.5,0,0.9,0.2,1.1,0.5C5.2,20,4.7,20.9,3.7,21.4z M16.3,18.6c-0.2,0.4-0.6,0.7-1.1,1c-1,0.5-2,0.3-2.2-0.2   c-0.2-0.5,0.2-1.3,1.3-1.8c0.4-0.2,0.8-0.3,1.1-0.3c0.1,0,0.2,0,0.3,0c0.2,0,0.6,0.1,0.7,0.4l0,0c0,0.1,0,0.1,0,0.2c0,0,0,0,0,0.1   C16.5,18.2,16.4,18.5,16.3,18.6z M27.6,11.8l-6.2-2.7c-0.4-0.2-0.8,0-1,0.4c-0.2,0.4,0,0.8,0.4,1l4.6,2l-4.6,2c-0.4,0.2-0.5,0.6-0.4,1   c0.1,0.3,0.4,0.4,0.7,0.4c0.1,0,0.2,0,0.3-0.1l6.2-2.7c0.3-0.1,0.4-0.4,0.4-0.7C28.1,12.2,27.9,12,27.6,11.8z" style="fill: rgb(255, 255, 255)"></path></svg>