<svg id="feller-1927" xmlns="http://www.w3.org/2000/svg" x="0px" y="0px" width="18.4px" height="28.3px" xml:space="preserve"><path d="M11.3,13.6H17c1,0,1.4-0.5,1.4-1V6c0-0.5-0.4-1-1.4-1h-5.8c-1,0-1.4,0.5-1.4,1v6.6C9.9,13,10.2,13.6,11.3,13.6z M11.3,6.5   h5.6v5.6h-5.6V6.5z M1.4,13.6h5.8c1,0,1.4-0.5,1.4-1V6c0-0.5-0.4-1-1.4-1H1.4C0.4,5,0,5.5,0,6v6.6C0,13,0.4,13.6,1.4,13.6z M1.5,6.5h5.6v5.6   H1.5V6.5z M7.2,14.8H1.4c-1,0-1.4,0.5-1.4,1v6.6c0,0.5,0.4,1,1.4,1h5.8c1,0,1.4-0.5,1.4-1v-6.6C8.6,15.3,8.2,14.8,7.2,14.8z    M7.1,21.9H1.5v-5.6h5.6V21.9z M17,14.8h-5.8c-1,0-1.4,0.5-1.4,1v6.6c0,0.5,0.4,1,1.4,1H17c1,0,1.4-0.5,1.4-1v-6.6C18.4,15.3,18.1,14.8,17,14.8z    M16.9,21.9h-5.6v-5.6h5.6V21.9z" style="fill: rgb(255, 255, 255)"></path></svg>