<svg id="feller-1929" xmlns="http://www.w3.org/2000/svg" x="0px" y="0px" width="27.2px" height="28.3px" xml:space="preserve"><path d="M21.9,22.3H5.2c-2.9,0-5.2-2.3-5.2-5.2c0-2.9,2.3-5.2,5.2-5.2c0.4,0,0.8,0,1.2,0.1c0.7-3.4,3.6-5.9,7.2-5.9  c3.5,0,6.5,2.5,7.2,5.9c0.4-0.1,0.8-0.1,1.2-0.1c2.9,0,5.2,2.3,5.2,5.2C27.2,19.9,24.8,22.3,21.9,22.3z M5.2,13.3  c-2.1,0-3.8,1.7-3.8,3.8c0,2.1,1.7,3.8,3.8,3.8h16.7c2.1,0,3.8-1.7,3.8-3.8c0-2.1-1.7-3.8-3.8-3.8c-0.5,0-1,0.1-1.5,0.3  c-0.2,0.1-0.5,0.1-0.7,0c-0.2-0.1-0.3-0.3-0.4-0.6c-0.2-3.1-2.7-5.5-5.8-5.5C10.5,7.5,8,9.9,7.8,13c0,0.2-0.1,0.5-0.4,0.6  s-0.5,0.1-0.7,0C6.2,13.4,5.7,13.3,5.2,13.3z" style="fill: rgb(255, 255, 255)"></path></svg>