<svg id="feller-1930" xmlns="http://www.w3.org/2000/svg" x="0px" y="0px" width="27.2px" height="28px" xml:space="preserve"><path d="M21.9,5.9c-0.4,0-0.8,0-1.2,0.1c-0.7-3.4-3.6-5.9-7.2-5.9C10,0.1,7.1,2.6,6.4,6C6,5.9,5.6,5.9,5.2,5.9   C2.3,5.9,0,8.2,0,11.1s2.3,5.2,5.2,5.2H6c0.4,0,0.7-0.3,0.7-0.7S6.4,14.9,6,14.9H5.2c-2.1,0-3.8-1.7-3.8-3.8c0-2.1,1.7-3.8,3.8-3.8   c0.5,0,1,0.1,1.5,0.3c0.2,0.1,0.5,0.1,0.7,0S7.7,7.3,7.8,7C8,4,10.5,1.6,13.6,1.6c3.1,0,5.6,2.4,5.8,5.5c0,0.2,0.1,0.5,0.4,0.6   c0.2,0.1,0.5,0.1,0.7,0c0.5-0.2,1-0.3,1.5-0.3c2.1,0,3.8,1.7,3.8,3.8c0,2.1-1.7,3.8-3.8,3.8h-1.3c-0.1,0-0.3,0-0.6,0l-0.2,0   c-0.4,0-0.7,0.3-0.7,0.8c0,0.4,0.3,0.7,0.7,0.7c0,0,0,0,0,0l0.2,0c0.3,0,0.5,0,0.6,0h1.3c2.9,0,5.2-2.3,5.2-5.2S24.8,5.9,21.9,5.9z    M16.6,17h-3.4l3.2-3.9c0.2-0.2,0.2-0.5,0.1-0.8c-0.1-0.3-0.4-0.4-0.7-0.4c0,0,0,0,0,0l-4.6,0c-0.4,0-0.7,0.3-0.7,0.7   c0,0.4,0.3,0.7,0.7,0.7h0l3,0l-3.2,3.9c-0.2,0.2-0.2,0.5-0.1,0.8c0.1,0.3,0.4,0.4,0.7,0.4h3.4l-2.9,3.6l0.8-1.8   c0.1-0.2,0.1-0.5-0.1-0.7s-0.4-0.3-0.6-0.3H9.2l2-4.6c0.2-0.4,0-0.8-0.4-1c-0.4-0.2-0.8,0-1,0.4l-2.5,5.6c-0.1,0.2-0.1,0.5,0.1,0.7   c0.1,0.2,0.4,0.3,0.6,0.3h3.2l-2.7,6.1c-0.2,0.3,0,0.7,0.3,0.9c0.1,0.1,0.3,0.1,0.4,0.1c0.2,0,0.4-0.1,0.6-0.3l7.5-9.4   c0.2-0.2,0.2-0.5,0.1-0.8C17.2,17.2,16.9,17,16.6,17z" style="fill: rgb(255, 255, 255)"></path></svg>