<svg id="feller-1945" xmlns="http://www.w3.org/2000/svg" x="0px" y="0px" width="19.8px" height="28.3px" xml:space="preserve"><path d="M18.1,3.8H1.7C0.8,3.8,0,4.6,0,5.5v16.3c0,1,0.8,1.7,1.7,1.7h6.4c0.4,0,0.7-0.3,0.7-0.7s-0.3-0.7-0.7-0.7H1.7   c-0.1,0-0.3-0.1-0.3-0.3V5.5c0-0.1,0.1-0.3,0.3-0.3h16.4c0.1,0,0.3,0.1,0.3,0.3v3.2c0,0.4,0.3,0.7,0.7,0.7c0.4,0,0.7-0.3,0.7-0.7   V5.5C19.8,4.6,19.1,3.8,18.1,3.8z M18.2,22.1h-4.4c0.2-0.4,0.6-0.8,1.2-1.4c0.4-0.3,0.7-0.6,1-0.8c1.9-1.6,3.2-2.6,3.2-4.4c0-2-1.4-3.2-3.7-3.2   c-2.2,0-3.6,1.6-3.6,3.1c0,0.4,0.3,0.7,0.7,0.7c0.5,0,0.7-0.3,0.9-1.1c0.2-0.9,1-1.4,2-1.4c1.2,0,2,0.8,2,1.9   c0,1.1-0.6,1.8-2.8,3.5c-2.1,1.7-3,2.8-3,3.7c0,0.3,0.1,0.8,1,0.8h5.5c0.7,0,1.2-0.1,1.2-0.8C19.4,22.1,18.8,22.1,18.2,22.1z" style="fill: rgb(255, 255, 255)"></path></svg>