<svg id="feller-1947" xmlns="http://www.w3.org/2000/svg" x="0px" y="0px" width="19.8px" height="28.3px" xml:space="preserve"><path d="M18.1,3.8H1.7C0.8,3.8,0,4.6,0,5.5v16.3c0,1,0.8,1.7,1.7,1.7h6.4c0.4,0,0.7-0.3,0.7-0.7s-0.3-0.7-0.7-0.7H1.7   c-0.1,0-0.3-0.1-0.3-0.3V5.5c0-0.1,0.1-0.3,0.3-0.3h16.4c0.1,0,0.3,0.1,0.3,0.3v3.2c0,0.4,0.3,0.7,0.7,0.7c0.4,0,0.7-0.3,0.7-0.7   V5.5C19.8,4.6,19.1,3.8,18.1,3.8z M18.5,19.3h-0.8v-6.2c0-0.8-0.2-1.1-0.8-1.1c-0.3,0-0.5,0.2-0.9,0.7L11.3,19c-0.2,0.3-0.4,0.5-0.4,0.8   c0,0.3,0.2,0.5,0.3,0.7c0.2,0.2,0.5,0.2,0.9,0.2h4v1.7c0,0.8,0.2,1.1,0.8,1.1c0.2,0,0.8-0.1,0.8-1v-1.8h0.8c0.5,0,0.9-0.3,0.9-0.7   S19.1,19.3,18.5,19.3z M16.2,19.3h-3.4l3.4-4.6V19.3z" style="fill: rgb(255, 255, 255)"></path></svg>