<svg id="feller-1957" xmlns="http://www.w3.org/2000/svg" x="0px" y="0px" width="27.8px" height="28px" xml:space="preserve"><path d="M27.4,12.4L15.3,1.1l0,0c-0.7-0.6-1.7-0.6-2.4,0l-4,3.7V2.6c0-0.4-0.2-0.9-0.5-1.2C8.1,1.1,7.7,0.9,7.2,0.9l-0.7,0   c-0.9,0-1.7,0.8-1.7,1.7v4.6c0,0.3-0.2,0.9-0.5,1.1l-4,4c-0.6,0.6-0.4,1.1-0.4,1.3c0.1,0.2,0.4,0.7,1.2,0.7h2.9   c0.1,0,0.2,0.1,0.2,0.2v11.2c0,0.9,0.8,1.7,1.7,1.7h16.1c0.9,0,1.7-0.8,1.7-1.7V14.5c0-0.1,0.1-0.2,0.2-0.2h2.6   c0.8,0,1.1-0.5,1.2-0.7C27.9,13.5,28,12.9,27.4,12.4z M24.1,12.8c-0.9,0-1.7,0.8-1.7,1.7v11.2c0,0.1-0.1,0.2-0.2,0.2H6.1   c-0.1,0-0.2-0.1-0.2-0.2V14.5c0-0.9-0.8-1.7-1.7-1.7l-2.1,0l3.4-3.5C6,8.9,6.4,8,6.4,7.2V2.6c0-0.1,0.1-0.2,0.2-0.2l0.7,0   c0,0,0,0,0,0c0.1,0,0.1,0,0.1,0.1c0,0,0.1,0.1,0.1,0.1v2.9c0,0.8,0.5,1.1,0.6,1.2c0.2,0.1,0.7,0.2,1.3-0.3l4.6-4.2   C14,2,14.2,2,14.3,2.1l11.4,10.7H24.1z M16.9,18.3l1.6,0.9l-8.7,0l1.6-0.9c0.3-0.2,0.4-0.6,0.3-0.9c-0.2-0.3-0.6-0.4-0.9-0.3l-3.9,2.2c-0.2,0.1-0.3,0.3-0.3,0.6   c0,0.2,0.1,0.5,0.4,0.6l3.9,2.2c0.1,0.1,0.2,0.1,0.3,0.1c0.2,0,0.5-0.1,0.6-0.4c0.2-0.3,0.1-0.7-0.3-0.9l-1.6-0.9l8.6,0l-1.6,0.9   c-0.3,0.2-0.4,0.6-0.3,0.9c0.1,0.2,0.4,0.4,0.6,0.4c0.1,0,0.2,0,0.3-0.1l3.9-2.2c0.2-0.1,0.3-0.3,0.3-0.6c0-0.2-0.1-0.5-0.3-0.6   l-3.9-2.2c-0.3-0.2-0.7-0.1-0.9,0.3C16.5,17.7,16.6,18.1,16.9,18.3z" style="fill: rgb(255, 255, 255)"></path></svg>