<svg id="feller-1973" xmlns="http://www.w3.org/2000/svg" x="0px" y="0px" width="28px" height="28px" xml:space="preserve"><path d="M13.3,5.5c-0.8-0.8-1.9-1.2-3-1.2c-0.9,0-1.8,0.3-2.5,0.8C6.2,3.8,3.8,4,2.3,5.5c-0.8,0.8-1.2,1.9-1.2,3   c0,0.9,0.3,1.8,0.8,2.5c-0.5,0.7-0.8,1.6-0.8,2.5c0,1.1,0.4,2.2,1.2,3c0.8,0.8,1.9,1.2,3,1.2c0.6,0,1.2-0.1,1.8-0.4v3.8   c-0.3-0.3-0.7-0.6-1.2-0.9c-2.5-1.4-5.3-0.3-5.5-0.2L0,20.1l0,0.5c0,0.1,0.2,3.2,2.6,4.8c0.6,0.4,1.2,0.6,1.9,0.8c0,0,0.1,0,0.1,0   c0.3,0,0.7-0.2,0.7-0.6c0.1-0.4-0.2-0.8-0.6-0.9c-0.5-0.1-0.9-0.3-1.3-0.6c-1.3-0.8-1.7-2.3-1.9-3.1c0.8-0.2,2.3-0.4,3.6,0.3   c1.6,0.9,1.9,2.6,1.9,3v2.6c0,0.4,0.3,0.7,0.7,0.7s0.7-0.3,0.7-0.7v-2.5c0,0,0,0,0,0c0,0,0-0.1,0-0.1v-7.1c1.6,0.7,3.5,0.4,4.8-0.9   c1.5-1.5,1.6-3.8,0.4-5.5c0.5-0.7,0.8-1.6,0.8-2.5C14.6,7.3,14.1,6.3,13.3,5.5z M12.3,11.5c1.1,1.1,1.1,2.8,0,3.9   c-1.1,1.1-2.8,1.1-3.9,0l-0.6-0.6l-0.5,0.6c-1.1,1.1-2.8,1.1-3.9,0c-1.1-1.1-1.1-2.8-0.1-3.9L3.9,11l-0.5-0.5l-0.1-0.1   C2.8,9.9,2.6,9.2,2.6,8.5c0-0.7,0.3-1.4,0.8-2c1.1-1.1,2.8-1.1,3.9,0L7.9,7l0.5-0.5c1-1,2.9-1,3.9,0c0.5,0.5,0.8,1.2,0.8,2   c0,0.7-0.3,1.4-0.8,1.9L11.8,11L12.3,11.5z M7.8,8.2C6.3,8.2,5,9.4,5,11c0,1.6,1.3,2.8,2.8,2.8c1.6,0,2.8-1.3,2.8-2.8C10.6,9.4,9.4,8.2,7.8,8.2z M7.8,12.3   c-0.7,0-1.3-0.6-1.3-1.3c0-0.7,0.6-1.3,1.3-1.3c0.7,0,1.3,0.6,1.3,1.3C9.2,11.7,8.6,12.3,7.8,12.3z M16.6,23.8c-0.4,0-0.7,0.3-0.7,0.7v2.6c0,0.4,0.3,0.7,0.7,0.7s0.7-0.3,0.7-0.7v-2.6C17.3,24.1,17,23.8,16.6,23.8z M13.7,23.8c-0.4,0-0.7,0.3-0.7,0.7v2.6c0,0.4,0.3,0.7,0.7,0.7s0.7-0.3,0.7-0.7v-2.6C14.4,24.1,14.1,23.8,13.7,23.8z M10.8,23.8c-0.4,0-0.7,0.3-0.7,0.7v2.6c0,0.4,0.3,0.7,0.7,0.7s0.7-0.3,0.7-0.7v-2.6C11.6,24.1,11.2,23.8,10.8,23.8z M19.8,0.2c-0.4-0.2-0.8,0-1,0.4l-2.6,5.6c-0.2,0.4,0,0.8,0.4,1c0.1,0,0.2,0.1,0.3,0.1c0.3,0,0.5-0.2,0.7-0.4l2.6-5.6   C20.3,0.8,20.2,0.4,19.8,0.2z M23.7,0.2c-0.4-0.2-0.8,0-1,0.4l-2.6,5.6c-0.2,0.4,0,0.8,0.4,1c0.1,0,0.2,0.1,0.3,0.1c0.3,0,0.5-0.2,0.7-0.4l2.6-5.6   C24.2,0.8,24.1,0.4,23.7,0.2z M27.6,0.2c-0.4-0.2-0.8,0-1,0.4l-2.6,5.6c-0.2,0.4,0,0.8,0.4,1c0.1,0,0.2,0.1,0.3,0.1c0.3,0,0.5-0.2,0.7-0.4L28,1.2   C28.1,0.8,28,0.4,27.6,0.2z" style="fill: rgb(255, 255, 255)"></path></svg>