<svg id="feller-1977" xmlns="http://www.w3.org/2000/svg" x="0px" y="0px" width="18.4px" height="28px" xml:space="preserve"><path d="M18.2,6l-3.6-3.3c-0.1-0.1-0.3-0.2-0.5-0.2l-13.4,0c0,0,0,0,0,0c-0.2,0-0.4,0.1-0.5,0.2C0.1,2.9,0,3.1,0,3.2   v21.5c0,0.4,0.3,0.7,0.7,0.7h16.9c0.4,0,0.7-0.3,0.7-0.7l0-18.2C18.4,6.4,18.4,6.2,18.2,6z M16.8,6.7h-2.5l0-2.3L16.8,6.7z    M16.9,24H1.5V4l11.3,0l0,3.5c0,0.4,0.3,0.7,0.7,0.7H17L16.9,24z M3.9,9.3l5.9,0h0c0.4,0,0.7-0.3,0.7-0.7c0-0.4-0.3-0.7-0.7-0.7l-5.9,0h0c-0.4,0-0.7,0.3-0.7,0.7   C3.2,9,3.5,9.3,3.9,9.3z M3.9,11C3.9,11,3.9,11,3.9,11c-0.4,0-0.7,0.3-0.7,0.7c0,0.4,0.3,0.7,0.7,0.7l9.4,0c0,0,0,0,0,0   c0.4,0,0.7-0.3,0.7-0.7c0-0.4-0.3-0.7-0.7-0.7L3.9,11z M13.2,14.1l-9.4,0c0,0,0,0,0,0c-0.4,0-0.7,0.3-0.7,0.7c0,0.4,0.3,0.7,0.7,0.7l9.4,0c0,0,0,0,0,0   c0.4,0,0.7-0.3,0.7-0.7C14,14.4,13.6,14.1,13.2,14.1z" style="fill: rgb(255, 255, 255)"></path></svg>