<svg id="feller-2068" xmlns="http://www.w3.org/2000/svg" x="0px" y="0px" width="20.1px" height="28px" xml:space="preserve"><path d="M12.4,5.7c0.1,0,0.1,0,0.2,0c0.3,0,0.6-0.2,0.7-0.6l0.9-3.3C14.2,1.5,14,1.1,13.6,1c-0.4-0.1-0.8,0.1-0.9,0.5l-0.9,3.3   C11.8,5.2,12,5.6,12.4,5.7z M3.2,8.4c0.2,0,0.4-0.1,0.5-0.2c0.3-0.3,0.3-0.8,0-1L1.3,4.7c-0.3-0.3-0.8-0.3-1,0c-0.3,0.3-0.3,0.8,0,1l2.4,2.4   C2.8,8.3,3,8.4,3.2,8.4z M6.9,5.2C7,5.6,7.3,5.8,7.6,5.8c0.1,0,0.1,0,0.2,0c0.4-0.1,0.6-0.5,0.5-0.9L7.4,1.6C7.3,1.2,6.9,1,6.5,1.1   C6.1,1.2,5.9,1.6,6,2L6.9,5.2z M19.9,4.7c-0.3-0.3-0.8-0.3-1,0l-2.4,2.4c-0.3,0.3-0.3,0.8,0,1c0.1,0.1,0.3,0.2,0.5,0.2c0.2,0,0.4-0.1,0.5-0.2l2.4-2.4   C20.1,5.4,20.1,5,19.9,4.7z M17.1,21.4H5.1v-9C5.1,10,7.3,8,10,8c2.7,0,4.9,2,4.9,4.5v6.8c0,0.4,0.3,0.7,0.7,0.7c0.4,0,0.7-0.3,0.7-0.7v-6.8   c0-3.3-2.9-5.9-6.4-5.9c-3.5,0-6.4,2.7-6.4,5.9v9H3c-0.6,0-1,0.5-1,1.2v3.1C2,26.5,2.4,27,3,27h14.1c0.6,0,1-0.5,1-1.2v-3.1   C18.1,22,17.7,21.4,17.1,21.4z M16.6,25.5H3.5l0-2.6h13.2V25.5z" style="fill: rgb(255, 255, 255)"></path></svg>