<svg id="feller-2151" xmlns="http://www.w3.org/2000/svg" x="0px" y="0px" width="23.5px" height="28px" xml:space="preserve"><path d="M22.8,13.3h-7.7c-0.4,0-0.7,0.3-0.7,0.7s0.3,0.7,0.7,0.7h7.7c0.4,0,0.7-0.3,0.7-0.7S23.2,13.3,22.8,13.3z   M9,17.5V3.3C9,1.5,7.6,0,5.7,0C3.9,0,2.4,1.5,2.4,3.3v14.2C0.9,18.6,0,20.3,0,22.2C0,25.4,2.6,28,5.7,28c3.2,0,5.7-2.6,5.7-5.7  C11.5,20.3,10.6,18.6,9,17.5z M5.7,26.5c-2.4,0-4.3-1.9-4.3-4.3c0-1.5,0.8-2.9,2.1-3.6c0.2-0.1,0.4-0.4,0.4-0.6V3.3  c0-1,0.8-1.8,1.8-1.8s1.8,0.8,1.8,1.8v14.6c0,0.3,0.1,0.5,0.4,0.6c1.3,0.8,2.1,2.1,2.1,3.7C10,24.6,8.1,26.5,5.7,26.5z M6.5,19.4  v-7.5c0-0.4-0.3-0.7-0.7-0.7l0,0c-0.4,0-0.7,0.3-0.7,0.7v7.5c-1.3,0.3-2.2,1.5-2.2,2.8c0,1.6,1.3,3,2.9,3c0.4,0,0.7-0.3,0.7-0.7  c0-0.4-0.3-0.7-0.7-0.7c-0.8,0-1.5-0.7-1.5-1.5s0.7-1.5,1.5-1.5s1.4,0.6,1.4,1.5C7.2,22.7,7.6,23,8,23c0.4,0,0.7-0.3,0.7-0.7  C8.7,20.9,7.8,19.7,6.5,19.4z" style="fill: rgb(255, 255, 255)"></path></svg>