<svg id="feller-1409" xmlns="http://www.w3.org/2000/svg" x="0px" y="0px" width="16px" height="28px" viewBox="0 -0.335 16 28" xml:space="preserve"><path d="M7.197,27.626c-0.458,0-1.025-0.057-1.538-0.268c-1.151-0.476-1.833-1.933-1.651-2.87c0.185-0.945,1.471-1.173,2.518-1.197  h2.918c1.026,0,1.026-0.177,1.026-0.423c0-0.146-0.044-0.187-0.07-0.211c-0.18-0.163-0.67-0.217-0.957-0.191L6.255,22.47  c-2.264,0-2.739-1.104-2.739-2.03c0-0.523,0.187-0.979,0.539-1.321c0.682-0.658,1.749-0.646,1.868-0.638l4.49-0.001  c0.003,0,0.005,0,0.008,0c-0.009-0.15-0.019-0.321-0.015-0.512c0.003-0.107-0.001-0.24-0.005-0.394  c-0.027-1.106-0.08-3.166,1.316-4.685c2.083-2.263,3.479-5.773,1.155-8.838C11.621,2.4,9.863,1.485,7.925,1.474  C5.978,1.501,3.988,2.403,2.804,3.928c-2.149,2.768-1.257,6.009-0.189,7.402c0.234,0.306,0.449,0.55,0.646,0.775  c0.902,1.029,1.481,1.802,1.986,4.615c0.072,0.4-0.195,0.783-0.595,0.855c-0.398,0.07-0.784-0.194-0.856-0.596  c-0.458-2.552-0.904-3.061-1.644-3.903c-0.217-0.247-0.451-0.515-0.708-0.851C0.057,10.417-1.037,6.471,1.64,3.024  C3.091,1.156,5.482,0,7.891,0c0.014,0,0.028,0,0.043,0c2.407,0.014,4.578,1.136,6.113,3.161c2.877,3.792,1.128,8.149-1.244,10.727  c-0.992,1.08-0.952,2.688-0.928,3.65c0.005,0.18,0.008,0.336,0.006,0.462c-0.004,0.148,0.005,0.28,0.012,0.397  c0.021,0.36,0.047,0.808-0.292,1.167c-0.326,0.346-0.806,0.391-1.188,0.391H5.897c-0.234,0.007-0.653,0.064-0.819,0.227  C5.034,20.223,4.99,20.288,4.99,20.44c0,0.222,0,0.556,1.265,0.556h3.121c0.064-0.007,1.27-0.105,2.014,0.57  c0.363,0.329,0.556,0.78,0.556,1.303c0,1.259-0.842,1.897-2.501,1.897H6.543c-0.381,0.01-0.844,0.082-1.081,0.162  c0.055,0.311,0.312,0.883,0.759,1.067c0.536,0.222,1.337,0.154,1.6,0.109c0.398-0.065,0.782,0.201,0.85,0.602  c0.069,0.4-0.198,0.781-0.598,0.851C8.003,27.57,7.656,27.626,7.197,27.626L7.197,27.626z" style="fill: #44739e"></path></svg>