<svg id="feller-1410" xmlns="http://www.w3.org/2000/svg" x="0px" y="0px" width="28px" height="28px" xml:space="preserve"><path d="M23.333,23.072l-3.398-10.055c-0.102-0.3-0.382-0.501-0.698-0.501h-4.341V6.769h2.555c0.407,0,0.737-0.33,0.737-0.737   s-0.33-0.737-0.737-0.737h-6.585c-0.407,0-0.737,0.33-0.737,0.737s0.33,0.737,0.737,0.737h2.557v5.747H9.079   c-0.316,0-0.597,0.201-0.698,0.501L4.981,23.072c-0.076,0.226-0.039,0.473,0.1,0.666c0.138,0.193,0.361,0.308,0.599,0.308h16.956   c0.237,0,0.46-0.114,0.599-0.308S23.409,23.298,23.333,23.072z M6.707,22.571l2.901-8.581h9.1l2.9,8.581H6.707z" style="fill: #44739e"></path></svg>