<svg id="feller-1413" xmlns="http://www.w3.org/2000/svg" x="0px" y="0px" width="22px" height="28px" viewBox="0 -3.62 22 28" xml:space="preserve"><path d="M22.253,10.556L18.855,0.501C18.753,0.201,18.473,0,18.157,0H7.999C7.683,0,7.402,0.201,7.301,0.501L3.902,10.556  c-0.076,0.225-0.039,0.473,0.1,0.666c0.138,0.193,0.361,0.308,0.599,0.308h7.741v4.457H1.474v-2.91c0-0.407-0.33-0.737-0.737-0.737  S0,12.668,0,13.076v7.268c0,0.407,0.33,0.737,0.737,0.737s0.737-0.33,0.737-0.737V17.46h11.605c0.407,0,0.737-0.33,0.737-0.737  v-5.194h3.771v3.113c0,0.407,0.33,0.737,0.737,0.737s0.737-0.33,0.737-0.737v-3.113h2.493c0.237,0,0.46-0.114,0.599-0.308  C22.292,11.028,22.33,10.78,22.253,10.556z M5.627,10.055l2.9-8.581h9.1l2.9,8.581H5.627z" style="fill: #44739e"></path></svg>