<svg id="feller-1422" xmlns="http://www.w3.org/2000/svg" x="0px" y="0px" width="28px" height="28px" xml:space="preserve"><path d="M0.737,1.474h26.378c0.407,0,0.737-0.33,0.737-0.737S27.522,0,27.115,0H0.737C0.33,0,0,0.33,0,0.737S0.33,1.474,0.737,1.474  z M27.115,3.44H0.737C0.33,3.44,0,3.77,0,4.177s0.33,0.737,0.737,0.737h12.45v5.558H9.548c-0.316,0-0.597,0.201-0.698,0.5  l-2.927,8.643c-0.076,0.225-0.039,0.473,0.099,0.666c0.139,0.192,0.362,0.308,0.599,0.308h14.6c0.237,0,0.46-0.114,0.599-0.308  s0.176-0.441,0.1-0.666l-2.925-8.643c-0.102-0.299-0.382-0.5-0.698-0.5H14.66V4.914h12.455c0.407,0,0.737-0.33,0.737-0.737  S27.522,3.44,27.115,3.44z M20.194,19.114H7.649l2.427-7.168h7.691L20.194,19.114z" style="fill: #44739e"></path></svg>