<svg id="feller-1425" xmlns="http://www.w3.org/2000/svg" x="0px" y="0px" width="20px" height="28px" xml:space="preserve"><path d="M0.737,0C0.33,0,0,0.33,0,0.737v23.555c0,0.407,0.33,0.737,0.737,0.737s0.737-0.33,0.737-0.737V0.737  C1.474,0.33,1.144,0,0.737,0z M20.101,15.759l-2.947-8.721c-0.102-0.3-0.382-0.501-0.698-0.501H7.643c-0.316,0-0.597,0.201-0.698,0.501l-2.947,8.721  c-0.076,0.226-0.039,0.473,0.1,0.666c0.138,0.193,0.361,0.308,0.599,0.308h6.616v7.537c0,0.407,0.33,0.737,0.737,0.737  s0.737-0.33,0.737-0.737v-7.537h6.616c0.237,0,0.46-0.114,0.599-0.308S20.177,15.985,20.101,15.759z M5.723,15.258l2.449-7.248  h7.754l2.449,7.248H5.723z M12.045,4.661c0.407,0,0.737-0.33,0.737-0.737V0.77c0-0.407-0.33-0.737-0.737-0.737s-0.737,0.33-0.737,0.737v3.154  C11.308,4.332,11.638,4.661,12.045,4.661z M6.955,4.946c0.136,0.236,0.384,0.369,0.639,0.369c0.125,0,0.252-0.032,0.368-0.099c0.353-0.204,0.473-0.654,0.27-1.007  L6.654,1.478c-0.204-0.353-0.655-0.474-1.007-0.27c-0.353,0.204-0.473,0.654-0.27,1.007L6.955,4.946z M16.186,5.225c0.116,0.067,0.243,0.1,0.368,0.1c0.255,0,0.502-0.132,0.639-0.368l1.578-2.728  c0.204-0.353,0.084-0.803-0.269-1.007c-0.354-0.205-0.804-0.083-1.007,0.269l-1.578,2.728C15.713,4.571,15.833,5.021,16.186,5.225z" style="fill: #44739e"></path></svg>