<svg id="feller-1426" xmlns="http://www.w3.org/2000/svg" x="0px" y="0px" width="20px" height="28px" viewBox="0 -1.664 20 28" xml:space="preserve"><path d="M0.737,0C0.33,0,0,0.33,0,0.737v23.554c0,0.407,0.33,0.737,0.737,0.737s0.737-0.33,0.737-0.737V0.737  C1.474,0.33,1.144,0,0.737,0z M20.101,17.52l-2.947-8.722c-0.102-0.3-0.382-0.501-0.698-0.501h-3.669V0.758c0-0.407-0.33-0.737-0.737-0.737  s-0.737,0.33-0.737,0.737v7.539H7.643c-0.316,0-0.597,0.201-0.698,0.501L3.998,17.52c-0.076,0.226-0.039,0.473,0.1,0.666  c0.138,0.193,0.361,0.308,0.599,0.308h14.707c0.237,0,0.46-0.114,0.599-0.308S20.177,17.745,20.101,17.52z M5.723,17.019  l2.449-7.248h7.754l2.449,7.248H5.723z M12.045,20.366c-0.407,0-0.737,0.33-0.737,0.737v3.154c0,0.407,0.33,0.737,0.737,0.737s0.737-0.33,0.737-0.737v-3.154  C12.783,20.696,12.453,20.366,12.045,20.366z M7.962,19.813c-0.352-0.201-0.803-0.084-1.007,0.271l-1.577,2.73c-0.204,0.352-0.083,0.803,0.27,1.007  c0.116,0.066,0.243,0.099,0.368,0.099c0.254,0,0.502-0.132,0.639-0.369l1.577-2.73C8.435,20.468,8.314,20.017,7.962,19.813z M17.193,20.072c-0.203-0.352-0.652-0.473-1.007-0.269c-0.353,0.204-0.473,0.654-0.269,1.007l1.578,2.727  c0.137,0.236,0.384,0.368,0.639,0.368c0.125,0,0.252-0.032,0.368-0.1c0.353-0.204,0.473-0.654,0.269-1.007L17.193,20.072z" style="fill: #44739e"></path></svg>