<svg id="feller-1428" xmlns="http://www.w3.org/2000/svg" x="0px" y="0px" width="26px" height="28px" viewBox="0 -1.204 26 28" xml:space="preserve"><path d="M7.473,0C7.459,0,7.446,0,7.432,0C5.164,0,2.911,1.089,1.545,2.849c-2.522,3.247-1.492,6.967-0.184,8.674  c0.242,0.316,0.463,0.569,0.667,0.801c0.686,0.782,1.1,1.254,1.526,3.629c0.072,0.4,0.454,0.666,0.856,0.596  c0.4-0.072,0.667-0.455,0.595-0.855c-0.475-2.645-1.019-3.373-1.869-4.341c-0.185-0.211-0.386-0.439-0.605-0.726  C1.541,9.333,0.713,6.323,2.709,3.753c1.093-1.408,2.9-2.279,4.723-2.279c0.011,0,0.022,0,0.033,0  c1.799,0.01,3.431,0.861,4.594,2.396c2.159,2.844,0.86,6.108-1.076,8.213c-1.321,1.434-1.272,3.376-1.247,4.42  c0.003,0.143,0.007,0.268,0.005,0.368c-0.003,0.157,0.003,0.301,0.011,0.43l-4.159,0.001c-0.118-0.012-1.132-0.02-1.784,0.611  c-0.34,0.328-0.519,0.767-0.519,1.27c0,0.727,0.339,1.946,2.612,1.946l2.988-0.003c0.262-0.025,0.704,0.023,0.86,0.168  c0.019,0.018,0.051,0.047,0.051,0.162c0,0.211,0,0.351-0.913,0.351l-2.735,0.001c-0.997,0.022-2.223,0.242-2.402,1.156  c-0.173,0.893,0.475,2.284,1.575,2.74c0.487,0.2,1.026,0.253,1.46,0.253c0.432,0,0.759-0.053,0.824-0.063  c0.4-0.069,0.668-0.449,0.6-0.85s-0.449-0.668-0.849-0.604c-0.244,0.04-0.984,0.102-1.473-0.099  c-0.366-0.152-0.613-0.632-0.677-0.924c0.226-0.068,0.629-0.129,0.959-0.137h2.718c1.583,0,2.386-0.614,2.386-1.825  c0-0.502-0.185-0.936-0.534-1.254c-0.711-0.646-1.858-0.556-1.917-0.548H5.901c-1.138,0-1.138-0.272-1.138-0.472  c0-0.142,0.044-0.186,0.068-0.208c0.146-0.144,0.515-0.203,0.736-0.199h4.227c0.367,0,0.829-0.044,1.147-0.382  c0.331-0.352,0.306-0.781,0.285-1.127c-0.006-0.108-0.015-0.229-0.012-0.365c0.002-0.118-0.001-0.266-0.005-0.436  c-0.022-0.894-0.06-2.39,0.857-3.385c2.233-2.429,3.877-6.532,1.166-10.103C11.787,1.071,9.741,0.013,7.473,0z M25.732,12.248h-3.916V8.329c0-0.407-0.33-0.737-0.737-0.737s-0.737,0.33-0.737,0.737v3.918h-3.917  c-0.407,0-0.737,0.33-0.737,0.737s0.33,0.737,0.737,0.737h3.917v3.915c0,0.407,0.33,0.737,0.737,0.737s0.737-0.33,0.737-0.737  v-3.915h3.916c0.407,0,0.737-0.33,0.737-0.737S26.14,12.248,25.732,12.248z" style="fill: #44739e"></path></svg>