<svg id="feller-1429" xmlns="http://www.w3.org/2000/svg" x="0px" y="0px" width="26px" height="28px" xml:space="preserve"><path d="M6.788,25.958c-0.434,0-0.974-0.053-1.462-0.254C4.229,25.25,3.58,23.86,3.752,22.965c0.177-0.915,1.404-1.135,2.402-1.157  l2.735-0.001c0.915,0,0.915-0.14,0.915-0.351c0-0.115-0.032-0.145-0.051-0.162c-0.157-0.144-0.6-0.191-0.861-0.167l-2.99,0.003  c-2.272,0-2.611-1.22-2.611-1.947c0-0.503,0.179-0.941,0.519-1.27c0.652-0.63,1.669-0.62,1.784-0.61l4.159-0.001  c-0.007-0.129-0.014-0.273-0.01-0.432c0.002-0.099-0.001-0.222-0.005-0.364c-0.027-1.045-0.077-2.989,1.248-4.424  c1.935-2.106,3.234-5.371,1.076-8.213c-1.164-1.535-2.797-2.386-4.597-2.396c-0.011,0-0.021,0-0.032,0  c-1.822,0-3.629,0.871-4.721,2.279c-1.998,2.57-1.17,5.581-0.179,6.875c0.219,0.286,0.419,0.514,0.604,0.725  c0.85,0.969,1.395,1.697,1.869,4.343c0.072,0.4-0.195,0.783-0.596,0.855c-0.398,0.07-0.784-0.195-0.855-0.596  c-0.425-2.377-0.839-2.849-1.525-3.631c-0.204-0.232-0.425-0.484-0.666-0.8C0.053,9.815-0.977,6.096,1.546,2.849  C2.919,1.079,5.218,0.028,7.471,0c2.269,0.012,4.316,1.07,5.763,2.979c2.71,3.569,1.066,7.673-1.166,10.103  c-0.92,0.997-0.881,2.494-0.858,3.387c0.004,0.169,0.008,0.315,0.005,0.433c-0.003,0.138,0.005,0.26,0.011,0.368  c0.021,0.346,0.046,0.775-0.286,1.127c-0.318,0.337-0.779,0.381-1.146,0.381H5.567c-0.222-0.003-0.589,0.056-0.735,0.198  c-0.023,0.022-0.068,0.066-0.068,0.208c0,0.188,0,0.473,1.137,0.473h2.923c0.058-0.009,1.207-0.099,1.918,0.547  c0.35,0.318,0.534,0.752,0.534,1.254c0,1.211-0.803,1.825-2.388,1.825H6.171c-0.33,0.008-0.733,0.068-0.958,0.137  c0.064,0.293,0.311,0.772,0.676,0.924c0.49,0.201,1.229,0.14,1.473,0.1c0.4-0.064,0.781,0.203,0.849,0.604s-0.2,0.78-0.6,0.85  C7.544,25.906,7.218,25.958,6.788,25.958L6.788,25.958z M24.795,13.687h-7.689c-0.407,0-0.737-0.33-0.737-0.737s0.33-0.737,0.737-0.737h7.689c0.407,0,0.737,0.33,0.737,0.737  S25.202,13.687,24.795,13.687L24.795,13.687z" style="fill: #44739e"></path></svg>