<svg id="feller-1430" xmlns="http://www.w3.org/2000/svg" x="0px" y="0px" width="27px" height="28px" xml:space="preserve"><path d="M9.463,5.449c-0.013,0-0.025,0-0.038,0c-1.97,0-3.926,0.945-5.115,2.474c-2.18,2.807-1.253,6.116-0.157,7.542  c0.208,0.271,0.398,0.489,0.573,0.688c0.574,0.655,0.92,1.05,1.279,3.048c0.072,0.401,0.458,0.666,0.856,0.596  c0.4-0.072,0.667-0.455,0.595-0.855c-0.411-2.286-0.884-2.918-1.622-3.76c-0.156-0.178-0.326-0.371-0.512-0.614  c-0.828-1.077-1.519-3.588,0.152-5.739C6.389,7.651,7.9,6.923,9.424,6.923c0.01,0,0.02,0,0.029,0  c1.502,0.009,2.864,0.72,3.836,2.002c1.805,2.379,0.712,5.114-0.912,6.879c-1.156,1.253-1.116,2.94-1.095,3.847  c0.003,0.122,0.006,0.228,0.004,0.313c-0.002,0.094,0,0.182,0.003,0.263l-3.434,0.001c-0.169-0.01-1.024-0.007-1.602,0.55  c-0.312,0.302-0.477,0.703-0.477,1.163c0,0.661,0.304,1.77,2.339,1.77l2.559-0.003c0.274-0.023,0.602,0.048,0.663,0.176  c0,0.069-0.011,0.105-0.008,0.105c-0.045,0.04-0.197,0.086-0.665,0.086H8.33c-0.893,0.021-1.991,0.224-2.154,1.075  c-0.161,0.82,0.408,2.047,1.409,2.462c0.43,0.177,0.905,0.224,1.287,0.224c0.379,0,0.665-0.046,0.723-0.056  c0.4-0.07,0.667-0.45,0.6-0.85c-0.068-0.4-0.449-0.668-0.849-0.604c-0.2,0.034-0.805,0.083-1.197-0.077  c-0.238-0.099-0.415-0.396-0.488-0.615c0.188-0.044,0.462-0.079,0.687-0.085h2.32c1.774,0,2.147-0.906,2.147-1.666  c0-0.46-0.17-0.858-0.492-1.15c-0.628-0.571-1.593-0.509-1.711-0.497H8.118c-0.866,0-0.866-0.178-0.866-0.295  c0-0.076,0.017-0.093,0.026-0.102c0.096-0.094,0.368-0.139,0.553-0.138h3.61c0.334,0,0.757-0.041,1.057-0.359  c0.314-0.333,0.291-0.743,0.273-1.042c-0.005-0.09-0.012-0.191-0.01-0.303c0.002-0.104,0-0.232-0.004-0.382  c-0.018-0.747-0.047-1.997,0.705-2.813c1.935-2.104,3.359-5.663,1.001-8.769C13.209,6.38,11.433,5.461,9.463,5.449z M11.49,4.487c0.062,0.016,0.125,0.024,0.186,0.024c0.328,0,0.627-0.22,0.713-0.552l0.787-3.036  c0.102-0.394-0.134-0.796-0.528-0.898c-0.395-0.103-0.796,0.134-0.898,0.528l-0.787,3.036C10.859,3.982,11.096,4.385,11.49,4.487z M3.491,5.651l-2.237-2.2C0.963,3.165,0.497,3.168,0.212,3.459C-0.074,3.75-0.07,4.216,0.221,4.501l2.237,2.2  c0.144,0.141,0.33,0.211,0.517,0.211c0.19,0,0.381-0.073,0.525-0.22C3.786,6.403,3.782,5.936,3.491,5.651z M6.393,3.976c0.09,0.327,0.387,0.541,0.709,0.541c0.065,0,0.131-0.009,0.197-0.027c0.393-0.108,0.622-0.515,0.513-0.907  L6.975,0.562C6.866,0.168,6.46-0.061,6.068,0.048C5.675,0.157,5.446,0.563,5.555,0.955L6.393,3.976z M18.449,3.414c-0.29-0.286-0.757-0.282-1.042,0.009l-2.2,2.237c-0.285,0.29-0.281,0.757,0.009,1.042  c0.144,0.141,0.33,0.211,0.517,0.211c0.19,0,0.381-0.073,0.525-0.22l2.2-2.237C18.743,4.166,18.739,3.699,18.449,3.414z M26.288,15.897h-3.553v-3.554c0-0.407-0.33-0.737-0.737-0.737s-0.737,0.33-0.737,0.737v3.554h-3.552  c-0.407,0-0.737,0.33-0.737,0.737s0.33,0.737,0.737,0.737h3.552v3.55c0,0.407,0.33,0.737,0.737,0.737s0.737-0.33,0.737-0.737v-3.55  h3.553c0.407,0,0.737-0.33,0.737-0.737S26.695,15.897,26.288,15.897z" style="fill: #44739e"></path></svg>