<svg id="feller-1605" xmlns="http://www.w3.org/2000/svg" x="0px" y="0px" width="28px" height="28px" xml:space="preserve"><path d="M27.115,9.793H0.737C0.33,9.793,0,9.463,0,9.056s0.33-0.737,0.737-0.737h26.378c0.407,0,0.737,0.33,0.737,0.737  S27.522,9.793,27.115,9.793z M13.926,4.977c-0.407,0-0.737-0.33-0.737-0.737V0.737C13.189,0.33,13.519,0,13.926,0s0.737,0.33,0.737,0.737v3.502  C14.663,4.646,14.333,4.977,13.926,4.977z M8.979,5.704c-0.254,0-0.502-0.133-0.639-0.369L6.589,2.301c-0.204-0.353-0.083-0.803,0.27-1.007  C7.21,1.092,7.662,1.212,7.865,1.564l1.752,3.034C9.821,4.951,9.7,5.401,9.348,5.605C9.231,5.672,9.104,5.704,8.979,5.704z M18.937,5.715c-0.125,0-0.252-0.032-0.368-0.1c-0.353-0.204-0.473-0.654-0.269-1.007l1.754-3.031  c0.204-0.352,0.655-0.472,1.007-0.269c0.353,0.204,0.473,0.654,0.269,1.007l-1.754,3.031C19.438,5.583,19.191,5.715,18.937,5.715z" style="fill: #44739e"></path></svg>