<svg id="feller-1676" xmlns="http://www.w3.org/2000/svg" x="0px" y="0px" width="26px" height="28px" xml:space="preserve"><path d="M12.858,13.602c-0.407,0-0.737-0.33-0.737-0.737V9.031c0-0.407,0.33-0.737,0.737-0.737s0.737,0.33,0.737,0.737v3.834  C13.595,13.272,13.266,13.602,12.858,13.602z M5.505,12.293c-0.125,0-0.252-0.032-0.368-0.1c-0.353-0.203-0.473-0.654-0.27-1.007l1.919-3.319  c0.205-0.353,0.657-0.473,1.007-0.269c0.353,0.203,0.473,0.654,0.27,1.007l-1.919,3.319C6.007,12.162,5.76,12.293,5.505,12.293z M20.189,12.278c-0.255,0-0.503-0.132-0.639-0.368l-1.918-3.318c-0.204-0.353-0.084-0.804,0.269-1.007  c0.354-0.204,0.805-0.084,1.007,0.269l1.918,3.318c0.204,0.353,0.084,0.804-0.269,1.007C20.441,12.246,20.314,12.278,20.189,12.278z   M24.083,4.89H1.871C0.839,4.89,0,4.051,0,3.019V1.871C0,0.839,0.839,0,1.871,0h22.212c1.031,0,1.87,0.839,1.87,1.871v1.148  C25.953,4.051,25.114,4.89,24.083,4.89z M1.871,1.474c-0.215,0-0.397,0.182-0.397,0.397v1.148c0,0.215,0.182,0.397,0.397,0.397  h22.212c0.215,0,0.396-0.182,0.396-0.397V1.871c0-0.215-0.181-0.397-0.396-0.397H1.871z" style="fill: #44739e"></path></svg>