<svg id="feller-1791" xmlns="http://www.w3.org/2000/svg" x="0px" y="0px" width="27.1px" height="28.3px" viewBox="0 0 27.1 28.3" xml:space="preserve"><path d="M26.4,18.5h-7.7c-0.4,0-0.7,0.3-0.7,0.7s0.3,0.7,0.7,0.7h7.7c0.4,0,0.7-0.3,0.7-0.7S26.8,18.5,26.4,18.5z M18.3,15c0.2,0,0.5-0.1,0.6-0.3c0.1-0.2,0.2-0.4,0.1-0.7l-3.1-9.1c-0.1-0.3-0.4-0.5-0.7-0.5H6c-0.3,0-0.6,0.2-0.7,0.5   L2.2,14c-0.1,0.2,0,0.5,0.1,0.7C2.5,14.9,2.7,15,2.9,15h6.9v3.4H1.5v-2.2c0-0.4-0.3-0.7-0.7-0.7S0,15.8,0,16.2V22   c0,0.4,0.3,0.7,0.7,0.7s0.7-0.3,0.7-0.7v-2.2h9.1c0.4,0,0.7-0.3,0.7-0.7V15h1.8c0,0,0,0.1,0,0.1v3c0,0.4,0.3,0.7,0.7,0.7   s0.7-0.3,0.7-0.7v-3c0,0,0-0.1,0-0.1H18.3z M4,13.5l2.6-7.6h8.1l2.6,7.6H4z" style="fill: #44739e"></path></svg>