<svg id="feller-2109" xmlns="http://www.w3.org/2000/svg" x="0px" y="0px" width="26.6px" height="28px" viewBox="0 0 26.6 28" xml:space="preserve"><path d="M4.3,17.6c0,0,0.1,0,0.1,0c0.4-0.1,0.7-0.5,0.6-0.9c-0.5-2.6-1-3.4-1.9-4.3c-0.2-0.2-0.4-0.4-0.6-0.7   c-1-1.3-1.8-4.3,0.2-6.8c1-1.3,2.7-2.2,4.4-2.3c1.7-0.1,3.2,0.5,4.4,1.8c0.3,0.3,0.7,0.3,1,0c0.3-0.3,0.3-0.7,0-1   C11.1,1.7,9.1,1,7,1.1C4.9,1.2,2.8,2.2,1.5,3.9c-2.5,3.2-1.5,6.9-0.2,8.6c0.2,0.3,0.5,0.6,0.7,0.8c0.7,0.8,1.1,1.3,1.5,3.6   C3.6,17.3,3.9,17.6,4.3,17.6z M11.1,13l-0.1,0.2c-1.3,1.4-1.3,3.4-1.2,4.4c0,0.1,0,0.3,0,0.4c0,0.2,0,0.3,0,0.4l-4.1,0c-0.1,0-1.1,0-1.8,0.6   c-0.3,0.3-0.5,0.8-0.5,1.3c0,0.7,0.3,1.9,2.6,1.9l3,0c0.2,0,0.7,0,0.9,0.2c0,0,0.1,0,0.1,0.2c0,0.2,0,0.3-0.9,0.3H6.1   c-1,0-2.2,0.2-2.4,1.2c-0.1,0.4,0,0.9,0.2,1.4c0,0,0,0,0,0c0.2,0.4,0.6,1,1.3,1.4c0.5,0.2,1,0.3,1.5,0.3c0.4,0,0.8-0.1,0.8-0.1   C8,26.8,8.3,26.4,8.2,26c-0.1-0.4-0.5-0.7-0.9-0.6c-0.2,0-1,0.1-1.5-0.1c-0.2-0.1-0.4-0.3-0.6-0.6c0,0,0,0,0,0   c-0.1-0.1-0.1-0.2-0.1-0.3c0.2-0.1,0.6-0.1,1-0.1h2.7c1.6,0,2.4-0.6,2.4-1.8c0-0.5-0.2-0.9-0.5-1.3c-0.7-0.6-1.9-0.6-1.9-0.5H5.9   c-1.1,0-1.1-0.3-1.1-0.5c0-0.1,0-0.2,0.1-0.2c0.1-0.1,0.5-0.2,0.7-0.2h4.2c0.4,0,0.8,0,1.1-0.4c0.3-0.4,0.3-0.8,0.3-1.1   c0-0.1,0-0.2,0-0.4c0-0.1,0-0.3,0-0.4c0-0.9-0.1-2.4,0.9-3.4l0.2-0.2c0.3-0.3,0.2-0.8-0.1-1C11.8,12.6,11.4,12.6,11.1,13z M19.5,1.9c-3.9,0-7.1,3.2-7.1,7.1c0,3.9,3.2,7.1,7.1,7.1c3.9,0,7.1-3.2,7.1-7.1C26.6,5,23.4,1.9,19.5,1.9z M19.5,14.6   c-3.1,0-5.6-2.5-5.6-5.6s2.5-5.6,5.6-5.6s5.6,2.5,5.6,5.6S22.6,14.6,19.5,14.6z M21.5,6.8l-1.9,1.7l-2.8-3c-0.3-0.3-0.7-0.3-1,0c-0.3,0.3-0.3,0.7,0,1l3.8,4l3-2.7c0.3-0.3,0.3-0.7,0.1-1   C22.3,6.6,21.8,6.6,21.5,6.8z" style="fill: #44739e"></path></svg>