<svg id="feller-1456" xmlns="http://www.w3.org/2000/svg" x="0px" y="0px" width="24px" height="28px" xml:space="preserve"><path d="M16.262,0.21c-0.539-0.313-1.23-0.276-1.894,0.103L6.523,4.822L2.627,4.813C1.179,4.813,0,5.992,0,7.441v5.12  c0,1.448,1.179,2.626,2.627,2.626l3.896,0.005l7.845,4.496C14.735,19.896,15.108,20,15.459,20c0.287,0,0.561-0.069,0.803-0.211  c0.54-0.313,0.85-0.932,0.85-1.696V1.907C17.112,1.142,16.802,0.524,16.262,0.21z M2.627,13.712c-0.636,0-1.154-0.517-1.154-1.151  v-5.12c0-0.636,0.518-1.154,1.154-1.154l3.134-0.003v7.431L2.627,13.712z M15.637,18.093c0,0.259-0.07,0.396-0.115,0.422  c-0.045,0.027-0.201,0.02-0.423-0.107l-7.864-4.516V6.123l7.864-4.529c0.226-0.128,0.38-0.135,0.423-0.108  c0.045,0.026,0.115,0.163,0.115,0.421V18.093z M21.122,4.744c-0.263-0.313-0.729-0.351-1.038-0.09c-0.313,0.262-0.353,0.727-0.091,1.039  c1.022,1.216,1.585,2.76,1.585,4.347c0,1.542-0.506,2.992-1.463,4.195c-0.253,0.318-0.2,0.782,0.118,1.036  c0.136,0.107,0.298,0.16,0.459,0.16c0.217,0,0.432-0.096,0.577-0.278c1.166-1.467,1.783-3.235,1.783-5.113  C23.052,8.106,22.367,6.226,21.122,4.744z" style="fill: #44739e"></path></svg>