<svg id="feller-1457" xmlns="http://www.w3.org/2000/svg" x="0px" y="0px" width="28px" height="28px" viewBox="-0.339 -4.257 28 28" xml:space="preserve"><path d="M16.262,0.21c-0.539-0.312-1.229-0.276-1.896,0.103L6.523,4.808L2.626,4.814C1.178,4.814,0,5.992,0,7.44v5.12  c0,1.448,1.178,2.627,2.626,2.627l3.895-0.01l7.846,4.511c0.366,0.208,0.74,0.313,1.093,0.313c0.287,0,0.56-0.07,0.803-0.211  c0.539-0.313,0.849-0.932,0.849-1.696V1.907C17.111,1.143,16.801,0.524,16.262,0.21z M2.626,13.713  c-0.636,0-1.153-0.517-1.153-1.152V7.44c0-0.636,0.517-1.153,1.153-1.153l3.134-0.003v7.431L2.626,13.713z M15.636,18.095  c0,0.259-0.07,0.396-0.115,0.422c-0.044,0.027-0.198,0.02-0.424-0.108l-7.863-4.516V6.109l7.862-4.516  c0.226-0.128,0.38-0.135,0.425-0.109c0.045,0.026,0.115,0.164,0.115,0.422V18.095z M24.311,1.705c-0.263-0.312-0.729-0.352-1.038-0.09c-0.313,0.262-0.353,0.727-0.091,1.039  c1.719,2.046,2.665,4.646,2.665,7.322c0,2.598-0.851,5.043-2.46,7.071c-0.253,0.318-0.2,0.782,0.119,1.035  c0.136,0.107,0.297,0.16,0.458,0.16c0.217,0,0.432-0.096,0.577-0.279c1.818-2.291,2.78-5.054,2.78-7.987  C27.322,6.953,26.252,4.016,24.311,1.705z M20.083,4.654c-0.312,0.262-0.353,0.727-0.091,1.039c1.022,1.217,1.585,2.761,1.585,4.347c0,1.541-0.505,2.992-1.462,4.195  c-0.253,0.319-0.2,0.783,0.118,1.036c0.136,0.107,0.298,0.16,0.459,0.16c0.217,0,0.432-0.096,0.577-0.278  c1.166-1.468,1.782-3.235,1.782-5.113c0-1.932-0.686-3.813-1.931-5.295C20.858,4.433,20.392,4.394,20.083,4.654z" style="fill: #44739e"></path></svg>