<svg id="feller-1477" xmlns="http://www.w3.org/2000/svg" x="0px" y="0px" width="29px" height="28px" viewBox="-0.46 -8.705 29 28" xml:space="preserve"><path d="M22.579,10.792c-0.335,0-0.641-0.172-0.816-0.459c-0.112-0.181-2.871-4.471-9.745-4.471c-6.436,0-10.611,4.358-10.653,4.402  c-0.177,0.193-0.386,0.294-0.616,0.294H0.346l-0.227-0.344C0.015,10.051-0.075,9.779,0.095,9.41C0.137,9.318,4.5,0,14.575,0  c8.479,0,13.107,5.813,13.3,6.061c0.16,0.201,0.233,0.47,0.194,0.73c-0.038,0.263-0.187,0.5-0.405,0.651l-4.533,3.175  C22.965,10.733,22.775,10.792,22.579,10.792z M12.018,4.389c6.463,0,9.717,3.467,10.687,4.728l3.649-2.556  c-1.196-1.279-5.305-5.087-11.778-5.087c-5.228,0-8.77,2.787-10.846,5.178C5.742,5.493,8.567,4.389,12.018,4.389z" style="fill: #44739e"></path></svg>