<svg id="feller-1480" xmlns="http://www.w3.org/2000/svg" x="0px" y="0px" width="26px" height="28px" viewBox="0 -1.864 26 28" xml:space="preserve"><path d="M9.789,18.682c0.375,0.165,0.808-0.009,0.97-0.382l2.342-5.377l2.352,5.378c0.12,0.277,0.392,0.442,0.675,0.442  c0.099,0,0.199-0.02,0.295-0.062c0.373-0.163,0.543-0.598,0.381-0.971l-3.028-6.926c-0.117-0.268-0.382-0.441-0.675-0.441h0  c-0.293,0-0.558,0.174-0.675,0.442l-3.017,6.926C9.245,18.085,9.416,18.519,9.789,18.682z M25.024,0H1.21C0.542,0,0,0.542,0,1.21v3.124C0,5,0.542,5.543,1.21,5.543h1.036v18.089c0,0.667,0.542,1.21,1.209,1.21  h19.358c0.667,0,1.21-0.543,1.21-1.21V5.543h1.001c0.667,0,1.21-0.542,1.21-1.209V1.21C26.234,0.542,25.691,0,25.024,0z   M22.549,23.368H3.719V5.543h18.83V23.368z M24.76,4.069H1.474V1.474H24.76V4.069z" style="fill: #44739e"></path></svg>