<svg id="feller-1686" xmlns="http://www.w3.org/2000/svg" x="0px" y="0px" width="28px" height="28px" xml:space="preserve"><path d="M16.263,0.21c-0.539-0.312-1.229-0.275-1.895,0.103L7.987,3.955C7.279,4.357,6.82,4.619,6.523,4.808  C6.234,4.811,5.579,4.813,4.821,4.813H2.627C1.179,4.813,0,5.992,0,7.44v2.557v0.005v2.559c0,1.448,1.179,2.626,2.627,2.626h2.193  c0.758,0,1.413,0.002,1.703,0.005c0.298,0.188,0.756,0.45,1.463,0.853l6.382,3.644C14.735,19.896,15.108,20,15.459,20  c0.288,0,0.561-0.069,0.804-0.211c0.54-0.313,0.85-0.932,0.85-1.696v-8.077V9.983V1.906C17.113,1.142,16.803,0.523,16.263,0.21z   M2.627,13.712c-0.636,0-1.154-0.517-1.154-1.151v-2.559V9.997V7.44c0-0.636,0.518-1.154,1.154-1.154h2.193  c0.367,0,0.669,0,0.941-0.003v7.431c-0.271-0.002-0.574-0.003-0.941-0.003H2.627z M15.638,10.016v8.077  c0,0.26-0.069,0.395-0.115,0.422c-0.043,0.027-0.199,0.021-0.424-0.107l-6.382-3.644c-0.548-0.313-1.035-0.592-1.328-0.761  c-0.031-0.059-0.083-0.104-0.153-0.141V6.137c0.07-0.037,0.123-0.081,0.153-0.14c0.293-0.17,0.78-0.45,1.329-0.762l6.382-3.642  c0.226-0.128,0.381-0.132,0.424-0.108c0.045,0.026,0.115,0.164,0.115,0.421v8.077V10.016z M26.984,9.35h-2.806V6.541c0-0.407-0.33-0.737-0.737-0.737s-0.737,0.33-0.737,0.737V9.35h-2.806  c-0.407,0-0.737,0.33-0.737,0.737s0.33,0.737,0.737,0.737h2.806v2.805c0,0.407,0.33,0.737,0.737,0.737s0.737-0.33,0.737-0.737  v-2.805h2.806c0.407,0,0.737-0.33,0.737-0.737S27.391,9.35,26.984,9.35z" style="fill: #44739e"></path></svg>