<svg id="feller-1687" xmlns="http://www.w3.org/2000/svg" x="0px" y="0px" width="27px" height="28px" xml:space="preserve"><path d="M16.268,0.212c-0.54-0.314-1.23-0.278-1.9,0.101L7.985,3.954C7.277,4.357,6.818,4.618,6.521,4.807  C6.228,4.81,5.574,4.812,4.819,4.812H2.627C1.179,4.812,0,5.991,0,7.44v2.556v0.006v2.557c0,1.448,1.179,2.627,2.627,2.627h2.192  c0.761,0,1.418,0.002,1.706,0.005c0.297,0.189,0.755,0.452,1.459,0.855l6.386,3.642c0.366,0.207,0.739,0.311,1.091,0.311  c0.289,0,0.563-0.07,0.807-0.212c0.537-0.314,0.846-0.932,0.846-1.695v-8.077V9.982V1.906C17.114,1.143,16.805,0.526,16.268,0.212z   M2.627,13.71c-0.636,0-1.154-0.517-1.154-1.152v-2.557V9.996V7.44c0-0.637,0.518-1.155,1.154-1.155h2.192  c0.367,0,0.668,0,0.94-0.002v7.431c-0.271-0.002-0.574-0.003-0.94-0.003H2.627z M15.639,10.014v8.077  c0,0.259-0.07,0.396-0.114,0.422c-0.048,0.025-0.203,0.02-0.427-0.107l-6.382-3.64c-0.549-0.314-1.037-0.595-1.33-0.764  c-0.031-0.059-0.083-0.104-0.153-0.141V6.146c0.08-0.04,0.134-0.089,0.164-0.156C7.69,5.82,8.172,5.543,8.715,5.234l6.38-3.64  c0.229-0.128,0.385-0.137,0.43-0.109c0.044,0.026,0.114,0.163,0.114,0.421v8.076V10.014z M25.464,9.226H20c-0.407,0-0.737,0.33-0.737,0.737s0.33,0.737,0.737,0.737h5.465c0.407,0,0.737-0.33,0.737-0.737  S25.872,9.226,25.464,9.226z" style="fill: #44739e"></path></svg>