<svg id="feller-1688" xmlns="http://www.w3.org/2000/svg" x="0px" y="0px" width="26px" height="28px" viewBox="-0.005 -0.105 26 28" xml:space="preserve"><path d="M23.432,5.297h-2.463l-5.081-5.081c-0.289-0.288-0.754-0.288-1.043,0c-0.287,0.288-0.287,0.754,0,1.042l4.039,4.039H2.555  C1.146,5.297,0,6.443,0,7.853v13.005c0,1.409,1.146,2.556,2.555,2.556h20.877c1.409,0,2.557-1.146,2.557-2.556V7.853  C25.989,6.443,24.841,5.297,23.432,5.297z M24.514,20.857c0,0.597-0.485,1.081-1.082,1.081H2.555c-0.596,0-1.082-0.484-1.082-1.081  V7.853c0-0.596,0.485-1.082,1.082-1.082h20.877c0.597,0,1.082,0.485,1.082,1.082V20.857z M17.951,9.908c-2.467,0-4.474,2.007-4.474,4.474c0,2.468,2.007,4.477,4.474,4.477c2.468,0,4.476-2.009,4.476-4.477  C22.426,11.915,20.418,9.908,17.951,9.908z M17.951,17.384c-1.654,0-3-1.347-3-3.002c0-1.654,1.346-3,3-3  c1.655,0,3.001,1.346,3.001,3C20.952,16.037,19.606,17.384,17.951,17.384z M11.147,11.874H4.302c-0.407,0-0.737,0.33-0.737,0.737s0.33,0.737,0.737,0.737h6.845c0.407,0,0.737-0.33,0.737-0.737  S11.554,11.874,11.147,11.874z M11.147,15.502H4.302c-0.407,0-0.737,0.33-0.737,0.737s0.33,0.737,0.737,0.737h6.845c0.407,0,0.737-0.33,0.737-0.737  S11.554,15.502,11.147,15.502z" style="fill: #44739e"></path></svg>