<svg id="feller-1689" xmlns="http://www.w3.org/2000/svg" x="0px" y="0px" width="24px" height="28px" viewBox="-0.441 -2.597 24 28" xml:space="preserve"><path d="M11.559,23.117C5.185,23.117,0,17.932,0,11.56C0,5.186,5.185,0,11.559,0c6.373,0,11.559,5.186,11.559,11.56  C23.118,17.932,17.932,23.117,11.559,23.117z M11.559,1.474c-5.561,0-10.085,4.524-10.085,10.086c0,5.56,4.524,10.083,10.085,10.083  c5.561,0,10.084-4.522,10.084-10.083C21.643,5.998,17.12,1.474,11.559,1.474z M12.308,18.964c-0.371,0-0.69-0.279-0.731-0.657c-0.044-0.404,0.248-0.769,0.652-0.813c2.777-0.305,5.023-2.541,5.339-5.318  c0.046-0.405,0.415-0.686,0.815-0.649c0.404,0.046,0.695,0.411,0.649,0.816c-0.393,3.455-3.187,6.238-6.644,6.616  C12.362,18.962,12.335,18.964,12.308,18.964z M11.555,15.058c-1.93,0-3.5-1.57-3.5-3.5c0-1.932,1.57-3.503,3.5-3.503c1.931,0,3.502,1.571,3.502,3.503  C15.057,13.488,13.486,15.058,11.555,15.058z M11.555,9.528c-1.117,0-2.026,0.911-2.026,2.029c0,1.118,0.909,2.026,2.026,2.026  c1.118,0,2.027-0.908,2.027-2.026C13.583,10.439,12.673,9.528,11.555,9.528z" style="fill: #44739e"></path></svg>