<svg id="feller-1744" xmlns="http://www.w3.org/2000/svg" x="0px" y="0px" width="24px" height="28px" xml:space="preserve"><path d="M21.6,12.5c-0.2-0.3-0.7-0.5-1-0.2c-0.9,0.5-1.4,0.7-1.7,0.8c-1,0.2-2.3-0.3-2.7-0.4c-0.3-0.1-0.6-0.1-0.8,0.1   c-0.2,0.2-0.3,0.5-0.2,0.8c0.2,0.6,0.8,2.2,0.8,3.3c0,0.9-0.6,2.4-1.1,3.6L14.6,21c-0.2,0.5-0.4,0.8-0.8,0.7c-0.4,0-0.8-0.4-1-1.3   l0-0.2c-0.3-1.4-0.6-2.4-1-3c-0.6-0.9-1.5-1.1-2.2-1.3c-0.5-0.1-1-0.3-1.3-0.6c-0.3-0.3-0.5-1.2-0.2-1.9c0.2-0.6,0.6-0.8,1.1-0.9   l0.6,0c0.6,0,1.2-0.1,1.7,0c0,0,2.9,0.1,3.8-1.3c0.5-0.8,0.4-1.9-0.3-2.6c-0.7-0.7-1.8-0.8-2.7-0.2c-1,0.6-2.4,0.3-2.8,0   C9.1,8.2,8.9,7.7,9.1,7.4c0.2-0.5,0.7-0.7,1.2-0.7C11.1,6.5,11.7,6,12,5.3c0.1-0.4-0.1-0.8-0.5-0.9c-0.4-0.1-0.8,0.1-0.9,0.5   c0,0.1-0.1,0.3-0.5,0.3C8.4,5.4,7.9,6.4,7.7,6.9c-0.3,0.9,0,1.9,0.6,2.6c0.8,0.8,3,1.2,4.6,0.2c0.4-0.2,0.7-0.2,0.9,0   c0.2,0.2,0.3,0.5,0.1,0.8c-0.3,0.4-1.8,0.6-2.4,0.6c-0.6,0-1.3,0-1.9,0l-0.5,0c-1.1,0.1-2,0.7-2.4,1.8c-0.5,1.2-0.2,2.7,0.5,3.5   c0.6,0.6,1.3,0.8,2,1c0.7,0.2,1.1,0.3,1.4,0.7c0.3,0.4,0.6,1.6,0.8,2.5l0,0.2c0.3,1.4,1.3,2.3,2.4,2.4c0,0,0.1,0,0.1,0   c0.9,0,1.7-0.6,2.1-1.7l0.2-0.7c0.5-1.4,1.1-2.9,1.1-4c0-0.8-0.2-1.7-0.4-2.5c0.7,0.1,1.4,0.2,2.2,0.1c0.6-0.1,1.3-0.4,2.2-1   C21.7,13.3,21.8,12.8,21.6,12.5z M12,2.2C5.5,2.2,0.2,7.5,0.2,14c0,6.5,5.3,11.8,11.8,11.8c6.5,0,11.8-5.3,11.8-11.8C23.8,7.5,18.5,2.2,12,2.2z M12,24.3   C6.3,24.3,1.7,19.7,1.7,14C1.7,8.3,6.3,3.7,12,3.7c5.7,0,10.3,4.6,10.3,10.3C22.3,19.7,17.7,24.3,12,24.3z" style="fill: #44739e"></path></svg>