<svg id="feller-1745" xmlns="http://www.w3.org/2000/svg" x="0px" y="0px" width="27px" height="28px" xml:space="preserve"><path d="M1.2,6h24.6c0.4,0,0.7-0.3,0.7-0.7c0-0.4-0.3-0.7-0.7-0.7H1.2c-0.4,0-0.7,0.3-0.7,0.7C0.4,5.7,0.8,6,1.2,6z M25.8,22H1.2c-0.4,0-0.7,0.3-0.7,0.7s0.3,0.7,0.7,0.7h24.6c0.4,0,0.7-0.3,0.7-0.7S26.2,22,25.8,22z M4.1,7.3H2.5C2.1,7.3,1.7,7.6,1.7,8c0,0.4,0.3,0.7,0.7,0.7h1.6c0.4,0,0.7-0.3,0.7-0.7C4.9,7.6,4.5,7.3,4.1,7.3z M9.2,7.3H7.6C7.2,7.3,6.8,7.6,6.8,8c0,0.4,0.3,0.7,0.7,0.7h1.6C9.6,8.7,10,8.4,10,8C10,7.6,9.6,7.3,9.2,7.3z M14.3,8.7C14.7,8.7,15,8.4,15,8c0-0.4-0.3-0.7-0.7-0.7h-1.6c-0.4,0-0.7,0.3-0.7,0.7c0,0.4,0.3,0.7,0.7,0.7H14.3z M19.4,7.3h-1.6C17.3,7.3,17,7.6,17,8c0,0.4,0.3,0.7,0.7,0.7h1.6c0.4,0,0.7-0.3,0.7-0.7C20.1,7.6,19.8,7.3,19.4,7.3z M24.5,7.3h-1.6c-0.4,0-0.7,0.3-0.7,0.7c0,0.4,0.3,0.7,0.7,0.7h1.6c0.4,0,0.7-0.3,0.7-0.7C25.2,7.6,24.9,7.3,24.5,7.3z M4.1,19.3H2.5c-0.4,0-0.7,0.3-0.7,0.7s0.3,0.7,0.7,0.7h1.6c0.4,0,0.7-0.3,0.7-0.7S4.5,19.3,4.1,19.3z M9.2,19.3H7.6c-0.4,0-0.7,0.3-0.7,0.7s0.3,0.7,0.7,0.7h1.6c0.4,0,0.7-0.3,0.7-0.7S9.6,19.3,9.2,19.3z M12.7,19.3c-0.4,0-0.7,0.3-0.7,0.7s0.3,0.7,0.7,0.7h1.6c0.4,0,0.7-0.3,0.7-0.7s-0.3-0.7-0.7-0.7H12.7z M17.7,20.7h1.6c0.4,0,0.7-0.3,0.7-0.7s-0.3-0.7-0.7-0.7h-1.6c-0.4,0-0.7,0.3-0.7,0.7S17.3,20.7,17.7,20.7z M24.5,19.3h-1.6c-0.4,0-0.7,0.3-0.7,0.7s0.3,0.7,0.7,0.7h1.6c0.4,0,0.7-0.3,0.7-0.7S24.9,19.3,24.5,19.3z M18.2,14c0-0.3-0.2-0.5-0.4-0.6l-6.5-3.4c-0.2-0.1-0.5-0.1-0.7,0c-0.2,0.1-0.4,0.4-0.4,0.6v6.9c0,0.3,0.1,0.5,0.4,0.6   c0.1,0.1,0.2,0.1,0.4,0.1c0.1,0,0.2,0,0.3-0.1l6.5-3.5C18.1,14.6,18.2,14.3,18.2,14z M11.7,16.3v-4.4l4.2,2.2L11.7,16.3z" style="fill: #44739e"></path></svg>