<svg id="feller-1656" xmlns="http://www.w3.org/2000/svg" x="0px" y="0px" width="25px" height="28px" xml:space="preserve"><path d="M5.116,23.17c-0.152,0-0.304-0.048-0.432-0.141c-0.228-0.164-0.341-0.443-0.294-0.72l1.268-7.466L0.223,9.565  C0.022,9.37-0.051,9.077,0.036,8.81C0.122,8.543,0.352,8.348,0.63,8.308l7.492-1.101l3.338-6.795C11.584,0.16,11.84,0,12.12,0h0.001  c0.28,0,0.536,0.158,0.66,0.409l3.365,6.783l7.495,1.077c0.278,0.04,0.509,0.234,0.596,0.5c0.088,0.267,0.016,0.56-0.185,0.756  l-5.415,5.296l1.267,7.295c0.039,0.089,0.06,0.187,0.06,0.29c0,0.407-0.33,0.737-0.737,0.737c-0.005-0.001-0.014-0.001-0.02,0  c-0.117,0-0.234-0.028-0.342-0.084l-6.709-3.511L5.46,23.084C5.352,23.142,5.233,23.17,5.116,23.17z M2.322,9.549l4.641,4.508  c0.174,0.169,0.253,0.412,0.213,0.651l-1.083,6.375l5.718-3.019c0.215-0.115,0.471-0.114,0.686-0.002l5.729,2.998l-1.106-6.369  c-0.041-0.239,0.038-0.483,0.211-0.652l4.624-4.524l-6.4-0.919c-0.24-0.035-0.448-0.185-0.556-0.402l-2.874-5.792L9.274,8.205  C9.167,8.422,8.96,8.573,8.72,8.608L2.322,9.549z" style="fill: #44739e"></path></svg>