<svg id="feller-1657" xmlns="http://www.w3.org/2000/svg" x="0px" y="0px" width="24px" height="28px" xml:space="preserve"><path d="M23.516,10.578c-0.061-0.875-0.777-1.574-1.663-1.607l-2.006-0.318c-0.072-0.188-0.15-0.373-0.234-0.554l1.157-1.595  c0.298-0.32,0.461-0.735,0.461-1.176c0-0.462-0.18-0.896-0.506-1.224L19.362,2.74c-0.637-0.635-1.743-0.653-2.399-0.044  l-1.617,1.176c-0.217-0.099-0.436-0.189-0.656-0.269l-0.308-1.939C14.348,0.741,13.585,0,12.652,0h-1.926  C9.795,0,9.033,0.74,8.999,1.664L8.684,3.642C8.508,3.708,8.332,3.783,8.153,3.865L6.546,2.696C5.893,2.087,4.789,2.103,4.146,2.742  L2.784,4.105C2.458,4.432,2.279,4.866,2.279,5.328c0,0.441,0.163,0.856,0.46,1.176l1.143,1.575c-0.088,0.188-0.17,0.381-0.246,0.579  L1.664,8.971C0.74,9.005,0,9.767,0,10.699v1.927c0,0.933,0.74,1.695,1.664,1.729l1.892,0.299c0.095,0.271,0.202,0.536,0.321,0.793  l-1.138,1.566c-0.298,0.32-0.461,0.736-0.46,1.178c0,0.462,0.181,0.896,0.505,1.219l1.363,1.365  c0.638,0.635,1.745,0.653,2.399,0.044l1.584-1.154c0.186,0.085,0.371,0.163,0.557,0.233l0.311,1.956  c0.035,0.923,0.796,1.663,1.728,1.663h1.926c0.933,0,1.695-0.74,1.729-1.664l0.304-1.915c0.227-0.082,0.454-0.176,0.68-0.28  l1.598,1.161c0.654,0.61,1.759,0.599,2.405-0.051l0.025-0.025c0.029-0.023,0.057-0.049,0.083-0.076l1.246-1.255  c0.327-0.325,0.507-0.759,0.508-1.221c0-0.441-0.163-0.856-0.461-1.178l-1.151-1.587c0.114-0.248,0.218-0.504,0.31-0.768  l1.925-0.304c0.926-0.034,1.668-0.797,1.668-1.729v-0.084c0.004-0.03,0.006-0.062,0.006-0.093v-1.75  C23.526,10.658,23.522,10.617,23.516,10.578z M22.052,12.355c-0.004,0.03-0.006,0.062-0.006,0.093v0.178  c0,0.14-0.118,0.257-0.259,0.257c-0.038,0-0.077,0.003-0.114,0.009l-2.312,0.364c-0.325,0.003-0.611,0.219-0.702,0.532  c-0.142,0.488-0.328,0.95-0.555,1.372c-0.156,0.29-0.1,0.646,0.133,0.875l1.369,1.885c0.023,0.031,0.048,0.062,0.075,0.089  c0.065,0.064,0.074,0.141,0.074,0.181c0,0.039-0.01,0.115-0.074,0.18l-1.215,1.219c-0.02,0.017-0.039,0.035-0.058,0.054l-0.089,0.09  c-0.127,0.127-0.231,0.131-0.36,0.002c-0.027-0.028-0.058-0.054-0.089-0.077l-1.879-1.364c-0.227-0.243-0.588-0.305-0.884-0.15  c-0.429,0.227-0.864,0.405-1.293,0.531c-0.302,0.089-0.512,0.358-0.528,0.669l-0.368,2.331c-0.007,0.038-0.01,0.077-0.01,0.115  c0,0.139-0.117,0.255-0.257,0.255h-1.926c-0.138,0-0.255-0.116-0.255-0.255c0-0.039-0.003-0.077-0.009-0.115l-0.365-2.295  c0-0.009,0-0.018,0-0.025c0-0.322-0.209-0.607-0.517-0.703c-0.391-0.123-0.791-0.29-1.188-0.498  c-0.286-0.152-0.635-0.097-0.862,0.129l-1.893,1.377c-0.031,0.022-0.061,0.048-0.089,0.076c-0.127,0.129-0.233,0.124-0.361-0.001  l-1.363-1.365c-0.063-0.063-0.073-0.139-0.073-0.178c0-0.04,0.01-0.116,0.074-0.181c0.027-0.027,0.053-0.057,0.075-0.088l1.39-1.913  c0.197-0.226,0.242-0.556,0.095-0.832c-0.23-0.433-0.419-0.898-0.561-1.385c-0.08-0.274-0.311-0.478-0.593-0.521l-2.39-0.377  c-0.038-0.007-0.076-0.01-0.115-0.01c-0.139,0-0.256-0.117-0.256-0.257v-1.927c0-0.138,0.117-0.255,0.256-0.255  c0.039,0,0.077-0.003,0.115-0.009l2.282-0.362c0.33,0.02,0.648-0.185,0.753-0.508c0.14-0.432,0.313-0.839,0.515-1.21  C5.489,8.18,5.506,7.975,5.448,7.786C5.417,7.68,5.36,7.584,5.287,7.504L3.902,5.597C3.88,5.565,3.854,5.536,3.827,5.508  c-0.064-0.063-0.074-0.14-0.074-0.18s0.01-0.117,0.074-0.182l1.36-1.361c0.13-0.13,0.236-0.13,0.363-0.002  C5.578,3.81,5.607,3.835,5.639,3.858l1.874,1.363c0.223,0.25,0.589,0.319,0.89,0.163C8.81,5.171,9.196,5.01,9.584,4.89  c0.333-0.103,0.547-0.425,0.516-0.771l0.362-2.274c0.006-0.038,0.009-0.077,0.009-0.116c0-0.139,0.117-0.256,0.255-0.256h1.926  c0.14,0,0.257,0.118,0.257,0.256c0,0.039,0.003,0.077,0.01,0.115l0.363,2.299c0,0.004,0,0.009,0,0.013  c0,0.326,0.215,0.614,0.527,0.707c0.435,0.129,0.868,0.307,1.288,0.527c0.293,0.155,0.659,0.074,0.886-0.161l1.888-1.372  c0.031-0.023,0.061-0.048,0.088-0.076c0.128-0.129,0.235-0.125,0.361,0l1.361,1.363c0.064,0.065,0.074,0.142,0.074,0.182  s-0.009,0.116-0.073,0.18c-0.027,0.028-0.053,0.058-0.076,0.089l-1.36,1.875C18,7.699,17.938,8.065,18.097,8.361  c0.203,0.38,0.375,0.786,0.51,1.207c0.099,0.306,0.384,0.511,0.702,0.511c0.026,0,0.054-0.001,0.089-0.006l2.274,0.361  c0.038,0.006,0.076,0.009,0.115,0.009c0.141,0,0.259,0.117,0.259,0.255c0,0.031,0.002,0.063,0.006,0.093V12.355z M11.715,6.813c-2.747,0-4.98,2.233-4.98,4.979c0,2.747,2.234,4.981,4.98,4.981s4.981-2.234,4.981-4.981  C16.696,9.047,14.462,6.813,11.715,6.813z M11.715,15.299c-1.934,0-3.507-1.573-3.507-3.507c0-1.933,1.573-3.505,3.507-3.505  c1.933,0,3.506,1.572,3.506,3.505C15.222,13.726,13.648,15.299,11.715,15.299z" style="fill: #44739e"></path></svg>