<svg id="feller-1658" xmlns="http://www.w3.org/2000/svg" x="0px" y="0px" width="28px" height="28px" viewBox="0 -1.668 28 28" xml:space="preserve"><path d="M27.416,7.846c-0.097-0.224-0.299-0.385-0.538-0.431c-0.239-0.046-0.486,0.03-0.659,0.203l-2.987,2.988l-1.746-1.745  l3.001-3.001c0.172-0.172,0.247-0.417,0.203-0.656s-0.203-0.44-0.425-0.539c-2.321-1.031-5.082-0.521-6.875,1.27  c-1.474,1.474-2.103,3.574-1.682,5.614c0.042,0.209,0.098,0.418,0.162,0.624c0.121,0.388,0.53,0.604,0.923,0.484  c0.389-0.122,0.605-0.535,0.483-0.923c-0.049-0.157-0.091-0.315-0.124-0.479c-0.321-1.556,0.157-3.155,1.28-4.277  c1.092-1.093,2.66-1.558,4.147-1.297L19.921,8.34c-0.138,0.138-0.216,0.326-0.216,0.521c0,0.196,0.078,0.383,0.216,0.521  l2.788,2.787c0.289,0.288,0.754,0.288,1.043,0l2.639-2.639c0.252,1.477-0.215,2.999-1.313,4.095  c-0.888,0.888-2.067,1.377-3.323,1.377s-2.437-0.489-3.324-1.378c-0.289-0.287-0.754-0.287-1.043,0  c-0.031,0.031-0.045,0.07-0.069,0.105c-0.028,0.021-0.062,0.031-0.087,0.057L7.133,23.791c-0.289,0.286-0.292,0.753-0.005,1.042  c0.144,0.146,0.333,0.219,0.523,0.219c0.188,0,0.375-0.071,0.519-0.214l9.774-9.682c1.084,0.854,2.411,1.321,3.812,1.321  c1.649,0,3.2-0.643,4.365-1.81C27.925,12.866,28.433,10.188,27.416,7.846z M13.024,11.966c0-0.197-0.079-0.386-0.219-0.524l-1.651-1.63l8.651-8.55c0.289-0.287,0.292-0.753,0.006-1.042  c-0.287-0.29-0.752-0.292-1.043-0.006l-8.663,8.563L8.514,7.204C8.225,6.919,7.763,6.92,7.476,7.205l-6.365,6.323  c-1.468,1.448-1.483,3.822-0.036,5.291c0.708,0.719,1.655,1.114,2.664,1.114h0c0.99,0,1.923-0.384,2.628-1.079l6.437-6.364  C12.946,12.352,13.024,12.163,13.024,11.966z M5.333,17.805c-0.427,0.422-0.993,0.653-1.593,0.653c-0.612,0-1.186-0.239-1.615-0.675  c-0.878-0.891-0.868-2.329,0.023-3.209l5.849-5.81l3.242,3.202L5.333,17.805z" style="fill: #44739e"></path></svg>