<svg id="feller-1660" xmlns="http://www.w3.org/2000/svg" x="0px" y="0px" width="12px" height="28px" xml:space="preserve"><path d="M11.337,2.332C9.847,0.828,7.866,0,5.758,0C3.668,0,1.7,0.813,0.217,2.289c-0.289,0.287-0.29,0.754-0.002,1.042  c0.287,0.29,0.753,0.289,1.042,0.003c1.205-1.199,2.803-1.859,4.5-1.859c1.711,0,3.322,0.673,4.533,1.895  c0.145,0.146,0.334,0.219,0.523,0.219c0.188,0,0.375-0.071,0.519-0.214C11.622,3.087,11.624,2.621,11.337,2.332z M5.756,3.582c-1.106,0-2.153,0.428-2.948,1.204C2.518,5.07,2.512,5.537,2.796,5.828C3.081,6.12,3.547,6.124,3.839,5.84  c1.049-1.025,2.839-1.007,3.866,0.025C7.848,6.01,8.038,6.083,8.227,6.083c0.188,0,0.376-0.071,0.52-0.215  c0.289-0.287,0.29-0.753,0.003-1.042C7.952,4.024,6.889,3.582,5.756,3.582z" style="fill: #44739e"></path></svg>