<svg id="feller-1662" xmlns="http://www.w3.org/2000/svg" x="0px" y="0px" width="22px" height="28px" xml:space="preserve"><path d="M21.509,4.54C18.663,1.612,14.854,0,10.786,0C6.795,0,3.042,1.551,0.216,4.367C-0.072,4.655-0.072,5.121,0.215,5.41  c0.288,0.288,0.754,0.289,1.042,0.001c2.546-2.539,5.931-3.938,9.528-3.938c3.667,0,7.1,1.454,9.667,4.093  c0.145,0.149,0.336,0.223,0.528,0.223c0.186,0,0.37-0.069,0.514-0.208C21.786,5.298,21.793,4.832,21.509,4.54z M10.802,3.648c-3.041,0-5.904,1.182-8.063,3.327C2.451,7.263,2.45,7.729,2.736,8.018c0.288,0.29,0.754,0.29,1.042,0.003  c1.881-1.87,4.375-2.899,7.023-2.899c2.703,0,5.234,1.07,7.128,3.014c0.144,0.148,0.336,0.223,0.527,0.223  c0.186,0,0.371-0.069,0.515-0.209c0.291-0.284,0.297-0.75,0.013-1.042C16.813,4.876,13.906,3.648,10.802,3.648z M10.842,7.313c-2.09,0-4.058,0.813-5.541,2.288c-0.289,0.287-0.29,0.754-0.003,1.042c0.287,0.289,0.754,0.292,1.042,0.003  c1.205-1.198,2.804-1.859,4.502-1.859c1.71,0,3.32,0.673,4.531,1.894c0.145,0.146,0.334,0.219,0.523,0.219  c0.188,0,0.375-0.071,0.519-0.214c0.289-0.286,0.291-0.753,0.005-1.042C14.93,8.141,12.949,7.313,10.842,7.313z M10.839,10.894c-1.106,0-2.153,0.428-2.947,1.204c-0.291,0.285-0.296,0.752-0.012,1.043s0.751,0.295,1.042,0.012  c1.047-1.024,2.838-1.007,3.864,0.025c0.144,0.145,0.333,0.218,0.522,0.218c0.188,0,0.376-0.071,0.52-0.215  c0.289-0.287,0.29-0.753,0.003-1.042C13.034,11.336,11.972,10.894,10.839,10.894z" style="fill: #44739e"></path></svg>