<svg id="feller-1663" xmlns="http://www.w3.org/2000/svg" x="0px" y="0px" width="19px" height="28px" viewBox="0 -5.438 19 28" xml:space="preserve"><path d="M18.674,0.218c-0.213-0.214-0.535-0.279-0.813-0.158L0.446,7.523c-0.291,0.125-0.47,0.422-0.444,0.738  c0.026,0.316,0.251,0.58,0.56,0.655l7.576,1.852L9.89,18.23c0.072,0.31,0.334,0.537,0.651,0.566  c0.022,0.002,0.045,0.003,0.066,0.003c0.291,0,0.558-0.173,0.676-0.443l7.545-17.324C18.948,0.755,18.887,0.433,18.674,0.218z   M10.818,15.733L9.47,9.992C9.407,9.721,9.197,9.51,8.927,9.444L3.056,8.009l13.678-5.862L10.818,15.733z" style="fill: #44739e"></path></svg>