<svg id="feller-1664" xmlns="http://www.w3.org/2000/svg" x="0px" y="0px" width="28px" height="28px" viewBox="0 -0.988 28 28" xml:space="preserve"><path d="M10.435,13.232h-1.61c1.514-0.678,2.575-2.19,2.575-3.952c0-2.395-1.948-4.343-4.342-4.343  c-2.391,0-4.335,1.948-4.335,4.343c0,1.762,1.06,3.274,2.571,3.952H3.606c-1.987,0-3.604,1.616-3.604,3.602L0,26.359  c0,0.407,0.33,0.737,0.737,0.737c0.407,0,0.737-0.33,0.737-0.737l0.002-9.525c0-1.174,0.956-2.128,2.13-2.128h6.829  c1.186,0,2.227,0.994,2.227,2.128v9.525c0,0.407,0.33,0.737,0.737,0.737s0.737-0.33,0.737-0.737v-9.525  C14.136,14.882,12.441,13.232,10.435,13.232z M4.196,9.28c0-1.582,1.284-2.87,2.862-2.87c1.582,0,2.869,1.288,2.869,2.87  c0,1.578-1.287,2.862-2.869,2.862C5.48,12.142,4.196,10.858,4.196,9.28z M27.441,3.274l-5.49-3.175c-0.354-0.205-0.804-0.083-1.007,0.269c-0.204,0.353-0.084,0.803,0.269,1.007L25.6,3.912  l-4.387,2.536c-0.353,0.204-0.473,0.655-0.269,1.007c0.136,0.236,0.384,0.369,0.639,0.369c0.125,0,0.252-0.032,0.368-0.099  l5.49-3.174c0.228-0.132,0.368-0.375,0.368-0.638S27.669,3.406,27.441,3.274z M14.682,0.099c-0.352-0.202-0.803-0.083-1.007,0.27c-0.204,0.353-0.083,0.803,0.27,1.007l4.39,2.537l-4.39,2.536  c-0.353,0.204-0.473,0.654-0.27,1.007c0.137,0.236,0.384,0.369,0.639,0.369c0.125,0,0.252-0.032,0.368-0.099l5.494-3.174  c0.228-0.132,0.368-0.375,0.368-0.638s-0.141-0.506-0.368-0.638L14.682,0.099z" style="fill: #44739e"></path></svg>