<svg id="feller-1667" xmlns="http://www.w3.org/2000/svg" x="0px" y="0px" width="22px" height="28px" xml:space="preserve"><path d="M10.794,0C4.842,0,0,4.843,0,10.796c0,5.951,4.842,10.792,10.794,10.792s10.795-4.841,10.795-10.792  C21.589,4.843,16.747,0,10.794,0z M10.794,20.113c-5.139,0-9.321-4.18-9.321-9.317c0-5.14,4.182-9.322,9.321-9.322  c5.14,0,9.32,4.182,9.32,9.322C20.115,15.933,15.934,20.113,10.794,20.113z M10.885,15.475c-0.57,0-0.9,0.301-0.9,0.84c0,0.525,0.33,0.826,0.885,0.826c0.57,0,0.885-0.285,0.885-0.826  C11.754,15.776,11.44,15.475,10.885,15.475z M10.758,4.853c-1.957,0-3.549,1.592-3.549,3.549c0,0.407,0.33,0.737,0.737,0.737s0.737-0.33,0.737-0.737  c0-1.145,0.931-2.076,2.076-2.076s2.075,0.931,2.075,2.076c0,0.604-0.262,1.176-0.718,1.569c-0.107,0.093-0.493,0.316-0.861,0.511  c-0.739,0.499-1.18,1.327-1.18,2.233l0.01,0.414c0.009,0.4,0.337,0.72,0.736,0.72c0.006,0,0.012,0,0.018-0.001  c0.407-0.009,0.729-0.347,0.719-0.754l-0.01-0.396c0-0.398,0.199-0.77,0.455-0.949c0.179-0.091,0.782-0.409,1.075-0.66  c0.782-0.675,1.23-1.654,1.23-2.687C14.308,6.445,12.715,4.853,10.758,4.853z" style="fill: #44739e"></path></svg>