<svg id="feller-1668" xmlns="http://www.w3.org/2000/svg" x="0px" y="0px" width="25px" height="28px" viewBox="-0.33 -5.378 25 28" xml:space="preserve"><path d="M23.037,0h-22.3c-0.342,0-0.616,0.237-0.7,0.552c0,0.002,0,0.004-0.001,0.006C0.021,0.617,0,0.673,0,0.737  c0,0.015,0.008,0.027,0.008,0.042c-0.001,0.207,0.076,0.413,0.244,0.56l11.079,9.668c0.255,0.223,0.582,0.334,0.908,0.334  c0.331,0,0.661-0.114,0.917-0.343l9.71-8.633v13.808H1.474V4.827c0-0.407-0.33-0.737-0.737-0.737S0,4.419,0,4.827v11.518  c0,0.719,0.584,1.304,1.303,1.304h21.734c0.719,0,1.304-0.585,1.304-1.304V1.304C24.341,0.585,23.756,0,23.037,0z M12.238,9.842  l-9.59-8.369h19.003L12.238,9.842z" style="fill: #44739e"></path></svg>