<svg id="feller-1669" xmlns="http://www.w3.org/2000/svg" x="0px" y="0px" width="26px" height="28px" xml:space="preserve"><path d="M25.86,5.631c-0.059-0.11-0.146-0.191-0.243-0.256c-0.051-0.065-0.109-0.127-0.184-0.173l-8.175-5.09  C17-0.05,16.665-0.034,16.421,0.151c-0.016,0.012-1.6,1.198-3.626,1.313C10.714,1.35,9.131,0.163,9.117,0.152  C8.875-0.033,8.543-0.051,8.284,0.107L2.726,3.498C2.378,3.71,2.269,4.164,2.48,4.511c0.213,0.348,0.667,0.457,1.013,0.246  l5.154-3.145C9.35,2.05,10.85,2.833,12.714,2.936c0.027,0.002,0.08,0.002,0.107,0c1.862-0.102,3.359-0.883,4.063-1.321l6.789,4.227  c-2.507,0.929-6.41,1.49-10.646,1.49c-4.993,0-9.678-0.81-11.935-2.062C0.737,5.073,0.288,5.201,0.09,5.557  c-0.103,0.184-0.114,0.392-0.055,0.579C0.032,6.183,0.019,6.228,0.024,6.276c0.616,5.226,7.318,8.868,12.967,8.868  c5.63,0,12.332-3.642,12.948-8.868c0.008-0.064-0.007-0.123-0.016-0.184C25.95,5.939,25.938,5.779,25.86,5.631z M12.972,13.669  c-4.58,0-9.963-2.718-11.23-6.501C4.43,8.189,8.557,8.806,13.027,8.806c4.395,0,8.487-0.601,11.18-1.596  C22.914,10.972,17.552,13.669,12.972,13.669z" style="fill: #44739e"></path></svg>