<svg id="feller-1672" xmlns="http://www.w3.org/2000/svg" x="0px" y="0px" width="23px" height="28px" viewBox="-0.283 -4.297 23 28" xml:space="preserve"><path d="M20.821,19.793H1.612c-0.643,0-1.165-0.267-1.432-0.729c-0.268-0.464-0.236-1.049,0.086-1.604L9.87,0.833  c0.643-1.111,2.051-1.111,2.694,0l9.604,16.627c0.322,0.556,0.353,1.14,0.086,1.604C21.986,19.527,21.464,19.793,20.821,19.793z   M1.512,18.316c0.025,0,0.059,0.003,0.1,0.003h19.209c0.058,0,0.102-0.005,0.133-0.012c-0.016-0.02-0.033-0.06-0.062-0.109  L11.288,1.571c-0.029-0.05-0.056-0.085-0.077-0.109c-0.008,0.023-0.036,0.059-0.064,0.109L1.542,18.197  c-0.029,0.051-0.046,0.091-0.056,0.121C1.493,18.317,1.501,18.316,1.512,18.316z M11.217,13.291c-0.407,0-0.737-0.33-0.737-0.737v-5.78c0-0.407,0.33-0.737,0.737-0.737s0.737,0.33,0.737,0.737v5.78  C11.954,12.96,11.624,13.291,11.217,13.291z M11.217,16.618c-0.407,0-0.737-0.33-0.737-0.737v-0.333c0-0.407,0.33-0.737,0.737-0.737s0.737,0.33,0.737,0.737v0.333  C11.954,16.288,11.624,16.618,11.217,16.618z" style="fill: #44739e"></path></svg>