<svg id="feller-1673" xmlns="http://www.w3.org/2000/svg" x="0px" y="0px" width="22px" height="28px" viewBox="0 -3.305 22 28" xml:space="preserve"><path d="M10.793,21.597C4.842,21.597,0,16.751,0,10.795C0,4.842,4.842,0,10.793,0c5.953,0,10.796,4.842,10.796,10.795  C21.589,16.751,16.746,21.597,10.793,21.597z M10.793,1.474c-5.139,0-9.319,4.182-9.319,9.321c0,5.144,4.181,9.327,9.319,9.327  c5.14,0,9.321-4.184,9.321-9.327C20.114,5.655,15.933,1.474,10.793,1.474z M10.036,15.354c-0.189,0-0.373-0.073-0.511-0.206l-2.999-2.884c-0.293-0.282-0.303-0.749-0.021-1.042  c0.283-0.292,0.75-0.301,1.042-0.021l2.327,2.239l4.039-6.836c0.207-0.35,0.657-0.466,1.01-0.26c0.351,0.208,0.467,0.659,0.26,1.01  l-4.513,7.638c-0.115,0.194-0.312,0.325-0.535,0.355C10.102,15.352,10.069,15.354,10.036,15.354z" style="fill: #44739e"></path></svg>