<svg id="feller-1918" xmlns="http://www.w3.org/2000/svg" x="0px" y="0px" width="28.1px" height="28.3px" viewBox="0 0 28.1 28.3" xml:space="preserve"><path d="M15,16.8l4.2-4.1c0.2-0.2,0.3-0.5,0.2-0.8c-0.1-0.3-0.3-0.5-0.6-0.5l-5.8-0.8l-2.6-5.2C10.2,5.1,10,4.9,9.7,4.9   c0,0,0,0,0,0C9.4,4.9,9.1,5.1,9,5.3l-2.6,5.2l-5.8,0.9c-0.3,0-0.5,0.2-0.6,0.5c-0.1,0.3,0,0.6,0.2,0.8l4.2,4.1l-1,5.8   c0,0.3,0.1,0.6,0.3,0.7c0.1,0.1,0.3,0.1,0.4,0.1c0.1,0,0.2,0,0.3-0.1l5.2-2.7l5.2,2.7c0.3,0.1,0.6,0.1,0.8-0.1   c0.2-0.2,0.3-0.5,0.3-0.7L15,16.8z M14.2,21.3L10,19.1c-0.2-0.1-0.5-0.1-0.7,0l-4.2,2.2L6,16.7c0-0.2,0-0.5-0.2-0.7l-3.4-3.3L7,12   c0.2,0,0.5-0.2,0.6-0.4l2.1-4.2l2.1,4.2c0.1,0.2,0.3,0.4,0.6,0.4l4.7,0.7L13.6,16c-0.2,0.2-0.3,0.4-0.2,0.7L14.2,21.3z M27.4,16h-3.9V12c0-0.4-0.3-0.7-0.7-0.7S22,11.6,22,12V16h-3.9c-0.4,0-0.7,0.3-0.7,0.7s0.3,0.7,0.7,0.7H22v3.9   c0,0.4,0.3,0.7,0.7,0.7s0.7-0.3,0.7-0.7v-3.9h3.9c0.4,0,0.7-0.3,0.7-0.7S27.8,16,27.4,16z" style="fill: #44739e"></path></svg>