<svg id="feller-1921" xmlns="http://www.w3.org/2000/svg" x="0px" y="0px" width="24.4px" height="28.3px" xml:space="preserve"><path d="M23.1,10.7H2.7l9.5-7.9l8.6,6.9c0.3,0.3,0.8,0.2,1-0.1c0.3-0.3,0.2-0.8-0.1-1l-8.6-6.9c-0.5-0.4-1.3-0.4-1.8,0L0.3,10.8  c-0.1,0-0.1,0.1-0.1,0.2c0,0,0,0,0,0c0,0,0,0.1-0.1,0.1C0.1,11.2,0,11.3,0,11.5c0,0.4,0.3,0.7,0.7,0.7H23v13.3H1.5V15.2  c0-0.4-0.3-0.7-0.7-0.7S0,14.8,0,15.2v10.5c0,0.7,0.6,1.3,1.3,1.3h21.8c0.7,0,1.3-0.6,1.3-1.3V12C24.4,11.3,23.8,10.7,23.1,10.7z" style="fill: #44739e"></path></svg>