<svg id="feller-1926" xmlns="http://www.w3.org/2000/svg" x="0px" y="0px" width="18.7px" height="28.3px" viewBox="0 0 18.7 28.3" xml:space="preserve"><path d="M10.9,9.2h-3c-0.6,0-1.1,0.5-1.1,1.2v14c0,0.7,0.5,1.2,1.1,1.2h3c0.6,0,1.1-0.5,1.1-1.2v-14C12,9.8,11.5,9.2,10.9,9.2z    M10.5,24.2H8.3V10.7h2.2V24.2z M17.6,2.6h-3c-0.6,0-1.1,0.6-1.1,1.5v20.1c0,0.9,0.5,1.5,1.1,1.5h3c0.6,0,1.1-0.6,1.1-1.5V4.1C18.7,3.3,18.2,2.6,17.6,2.6z    M17.2,4.1v20.1H15V4.1c0,0,0,0,0,0L17.2,4.1C17.2,4.1,17.2,4.1,17.2,4.1z M4.1,15.8h-3c-0.6,0-1.1,0.5-1.1,1v7.9c0,0.6,0.5,1,1.1,1h3c0.6,0,1.1-0.5,1.1-1v-7.9C5.2,16.2,4.7,15.8,4.1,15.8z    M3.7,24.2H1.5v-7h2.2V24.2z" style="fill: #44739e"></path></svg>