<svg id="feller-1932" xmlns="http://www.w3.org/2000/svg" x="0px" y="0px" width="21.6px" height="28px" xml:space="preserve"><path d="M15.2,9.7c-0.3-0.3-0.8-0.3-1,0L10.8,13L7.4,9.7c-0.3-0.3-0.8-0.3-1,0c-0.3,0.3-0.3,0.8,0,1l3.3,3.3l-3.3,3.3   c-0.3,0.3-0.3,0.8,0,1c0.1,0.1,0.3,0.2,0.5,0.2s0.4-0.1,0.5-0.2l3.3-3.3l3.3,3.3c0.1,0.1,0.3,0.2,0.5,0.2s0.4-0.1,0.5-0.2   c0.3-0.3,0.3-0.8,0-1l-3.3-3.3l3.3-3.3C15.5,10.4,15.5,10,15.2,9.7z M10.8,3.2C4.8,3.2,0,8,0,14c0,6,4.8,10.8,10.8,10.8c6,0,10.8-4.8,10.8-10.8C21.6,8,16.7,3.2,10.8,3.2z M10.8,23.3   c-5.1,0-9.3-4.2-9.3-9.3c0-5.1,4.2-9.3,9.3-9.3c5.1,0,9.3,4.2,9.3,9.3C20.1,19.1,15.9,23.3,10.8,23.3z" style="fill: #44739e"></path></svg>