<svg id="feller-1961" xmlns="http://www.w3.org/2000/svg" x="0px" y="0px" width="22.4px" height="28px" xml:space="preserve"><path d="M11.4,10.7c-2.5,0-3.3,2.1-3.3,2.7c0,0.5,0.4,0.8,0.8,0.8c0.5,0,0.7-0.4,0.8-0.7c0.1-0.4,0.4-1.5,1.7-1.5   c1,0,1.6,0.8,1.6,1.5c0,0.7-0.4,1-1.2,1.8c-0.9,0.8-1.4,1.5-1.4,2.6c0,0.8,0.5,0.9,0.7,0.9c0.4,0,0.7-0.2,0.7-0.7   c0.1-0.9,0.1-1,1.2-2c0.9-0.9,1.4-1.6,1.4-2.6C14.5,12.2,13.4,10.7,11.4,10.7z M11.1,19.8c-0.4,0-0.7,0.3-0.7,0.7v0.3c0,0.4,0.3,0.7,0.7,0.7s0.7-0.3,0.7-0.7v-0.3C11.8,20.1,11.5,19.8,11.1,19.8z M22.2,21.6L12.6,4.9c-0.6-1.1-2.1-1.1-2.7,0L0.3,21.6c-0.3,0.6-0.4,1.1-0.1,1.6c0.3,0.5,0.8,0.7,1.4,0.7h19.2  c0.6,0,1.2-0.3,1.4-0.7C22.5,22.7,22.5,22.1,22.2,21.6z M20.8,22.4H1.6c0,0-0.1,0-0.1,0c0,0,0,0,0,0c0,0,0-0.1,0.1-0.1l9.6-16.6  c0-0.1,0.1-0.1,0.1-0.1c0,0,0,0.1,0.1,0.1l9.6,16.6c0,0,0,0.1,0.1,0.1C20.9,22.4,20.9,22.4,20.8,22.4z" style="fill: #44739e"></path></svg>