<svg id="feller-1964" xmlns="http://www.w3.org/2000/svg" x="0px" y="0px" width="19px" height="28px" xml:space="preserve"><path d="M7.6,20.1c0.4,0,0.7-0.3,0.7-0.7V11c0-0.4-0.3-0.7-0.7-0.7S6.8,10.6,6.8,11v8.4C6.8,19.8,7.2,20.1,7.6,20.1z M18.2,6.2l-4.1,0V4.5c0-0.4-0.3-0.7-0.7-0.7H5.7C5.3,3.8,5,4.1,5,4.5v1.7l-4.2,0c0,0,0,0,0,0C0.3,6.2,0,6.5,0,6.9  c0,0.4,0.3,0.7,0.7,0.7l0.9,0l1.5,15.9c0,0.4,0.4,0.7,0.7,0.7c0,0,0,0,0,0l11.3,0c0.4,0,0.7-0.3,0.7-0.7l1.6-15.8l0.8,0c0,0,0,0,0,0  C18.6,7.7,19,7.4,19,7C19,6.6,18.6,6.2,18.2,6.2z M6.4,5.2h6.2v1l-6.2,0V5.2z M14.5,22.7l-9.9,0L3.1,7.7l12.8,0L14.5,22.7z M11.3,20.1c0.4,0,0.7-0.3,0.7-0.7V11c0-0.4-0.3-0.7-0.7-0.7s-0.7,0.3-0.7,0.7v8.4C10.6,19.8,10.9,20.1,11.3,20.1z" style="fill: #44739e"></path></svg>