<svg id="feller-1408" xmlns="http://www.w3.org/2000/svg" x="0px" y="0px" width="28px" height="28px" xml:space="preserve"><path d="M26.931,14.193c-0.125,0-0.252-0.032-0.368-0.1L15.552,7.732c-0.228-0.132-0.368-0.375-0.368-0.638s0.141-0.507,0.369-0.638  l11.011-6.357c0.351-0.203,0.804-0.082,1.007,0.27c0.203,0.353,0.082,0.803-0.271,1.007l-9.905,5.719l9.906,5.724  c0.352,0.203,0.473,0.654,0.269,1.007C27.434,14.061,27.186,14.193,26.931,14.193L26.931,14.193z M0.738,14.193c-0.254,0-0.502-0.132-0.639-0.368c-0.204-0.353-0.083-0.804,0.27-1.007l9.907-5.724L0.369,1.375  C0.016,1.171-0.104,0.72,0.099,0.368s0.655-0.472,1.007-0.27l11.012,6.357c0.228,0.131,0.368,0.375,0.368,0.638  s-0.14,0.506-0.368,0.638L1.106,14.093C0.99,14.161,0.863,14.193,0.738,14.193L0.738,14.193z" style="fill: #44739e"></path></svg>