<svg id="feller-1436" xmlns="http://www.w3.org/2000/svg" x="0px" y="0px" width="14px" height="28px" viewBox="0 -0.287 14 28" xml:space="preserve"><path d="M13.457,12.458c-0.255,0-0.503-0.132-0.639-0.369L7.095,2.185l-5.719,9.905c-0.204,0.353-0.655,0.472-1.007,0.27  c-0.353-0.204-0.473-0.654-0.27-1.007l6.357-11.01c0.263-0.456,1.013-0.456,1.276,0l6.361,11.01  c0.204,0.353,0.083,0.803-0.269,1.007C13.709,12.426,13.582,12.458,13.457,12.458L13.457,12.458z M7.095,27.784L7.095,27.784c-0.263,0-0.507-0.141-0.638-0.369L0.099,16.403c-0.204-0.353-0.083-0.803,0.27-1.007  c0.353-0.202,0.803-0.082,1.007,0.271l5.719,9.906l5.724-9.907c0.201-0.353,0.652-0.474,1.007-0.269  c0.352,0.203,0.473,0.654,0.269,1.007L7.733,27.416C7.601,27.644,7.358,27.784,7.095,27.784L7.095,27.784z" style="fill: #44739e"></path></svg>