<svg id="feller-1439" xmlns="http://www.w3.org/2000/svg" x="0px" y="0px" width="16px" height="28px" xml:space="preserve"><path d="M15.133,14.437c-0.104,0-0.206-0.021-0.304-0.065l-14.396-6.5C0.169,7.751,0,7.488,0,7.198c0-0.29,0.17-0.553,0.435-0.671  l14.396-6.462c0.229-0.103,0.492-0.083,0.702,0.054c0.21,0.136,0.337,0.369,0.337,0.619v12.962c0,0.25-0.127,0.483-0.338,0.619  C15.412,14.396,15.273,14.437,15.133,14.437z M2.532,7.201l11.864,5.356V1.876L2.532,7.201z" style="fill: #44739e"></path></svg>