<svg id="feller-1443" xmlns="http://www.w3.org/2000/svg" x="0px" y="0px" width="14px" height="28px" viewBox="0 -0.261 14 28" xml:space="preserve"><path d="M7.141,27.826c-0.261,0-0.502-0.138-0.635-0.362l-6.404-10.85c-0.134-0.229-0.136-0.511-0.005-0.74  c0.131-0.229,0.375-0.372,0.64-0.372h12.76c0.264,0,0.508,0.142,0.64,0.371c0.131,0.229,0.13,0.511-0.004,0.738l-6.356,10.85  c-0.132,0.226-0.374,0.364-0.634,0.365H7.141L7.141,27.826z M2.028,16.977l5.111,8.658l5.072-8.658H2.028L2.028,16.977z M13.497,12.322H0.737c-0.265,0-0.509-0.142-0.64-0.372c-0.131-0.229-0.129-0.512,0.005-0.74L6.506,0.362  C6.639,0.138,6.88,0,7.141,0h0.001c0.261,0,0.502,0.139,0.634,0.364l6.356,10.848c0.134,0.228,0.135,0.51,0.004,0.739  C14.005,12.181,13.761,12.322,13.497,12.322L13.497,12.322z M2.028,10.848h10.183L7.139,2.19L2.028,10.848L2.028,10.848z" style="fill: #44739e"></path></svg>