<svg id="feller-1444" xmlns="http://www.w3.org/2000/svg" x="0px" y="0px" width="15px" height="28px" xml:space="preserve"><path d="M14.526,10.033l-6.601-9.71C7.788,0.121,7.56,0,7.316,0h0c-0.244,0-0.473,0.121-0.61,0.323l-6.579,9.71  c-0.228,0.337-0.14,0.795,0.197,1.024c0.127,0.085,0.271,0.127,0.413,0.127c0.236,0,0.468-0.114,0.611-0.324l5.241-7.737V20.09  c0,0.407,0.33,0.737,0.737,0.737s0.737-0.33,0.737-0.737V3.146l5.245,7.716c0.229,0.335,0.687,0.424,1.023,0.195  C14.668,10.828,14.755,10.37,14.526,10.033z" style="fill: #44739e"></path></svg>