<svg id="feller-1446" xmlns="http://www.w3.org/2000/svg" x="0px" y="0px" width="21px" height="28px" viewBox="0 -6.847 21 28" xml:space="preserve"><path d="M20.088,6.591H3.146l7.715-5.245c0.336-0.229,0.424-0.687,0.195-1.024c-0.229-0.336-0.687-0.424-1.024-0.195L0.322,6.729  C0.121,6.866,0,7.094,0,7.338c0,0.244,0.121,0.473,0.323,0.61l9.709,6.578c0.127,0.086,0.271,0.127,0.413,0.127  c0.236,0,0.468-0.113,0.611-0.324c0.228-0.337,0.14-0.795-0.197-1.023L3.124,8.065h16.964c0.407,0,0.737-0.33,0.737-0.737  S20.496,6.591,20.088,6.591z" style="fill: #44739e"></path></svg>