<svg id="feller-1447" xmlns="http://www.w3.org/2000/svg" x="0px" y="0px" width="21px" height="28px" viewBox="0 -6.847 21 28" xml:space="preserve"><path d="M0.737,8.062H17.68l-7.715,5.245c-0.336,0.229-0.424,0.687-0.195,1.023c0.229,0.337,0.687,0.424,1.024,0.195l9.71-6.601  c0.201-0.137,0.322-0.366,0.322-0.61s-0.121-0.473-0.323-0.61l-9.71-6.578C10.666,0.041,10.522,0,10.38,0  c-0.236,0-0.468,0.113-0.611,0.324c-0.228,0.337-0.14,0.795,0.197,1.023l7.736,5.241H0.737C0.33,6.588,0,6.918,0,7.325  S0.33,8.062,0.737,8.062z" style="fill: #44739e"></path></svg>