<svg id="feller-1453" xmlns="http://www.w3.org/2000/svg" x="0px" y="0px" width="24px" height="28px" xml:space="preserve"><path d="M11.488,13.896c-0.125,0-0.252-0.032-0.368-0.1L0.368,7.586C0.14,7.454,0,7.211,0,6.948S0.14,6.441,0.368,6.31L11.12,0.099  c0.352-0.203,0.802-0.083,1.007,0.27c0.204,0.353,0.083,0.803-0.27,1.007L2.21,6.948l9.647,5.574  c0.353,0.203,0.473,0.654,0.27,1.007C11.99,13.765,11.743,13.896,11.488,13.896L11.488,13.896z M23.446,13.896c-0.125,0-0.252-0.032-0.368-0.1L12.326,7.586c-0.228-0.132-0.368-0.375-0.368-0.638s0.14-0.506,0.368-0.638  l10.751-6.211c0.354-0.203,0.805-0.083,1.007,0.27c0.204,0.353,0.083,0.803-0.269,1.007l-9.647,5.573l9.647,5.574  c0.352,0.203,0.473,0.654,0.269,1.007C23.949,13.765,23.701,13.896,23.446,13.896L23.446,13.896z" style="fill: #44739e"></path></svg>