<svg id="feller-1454" xmlns="http://www.w3.org/2000/svg" x="0px" y="0px" width="25px" height="28px" viewBox="-0.408 -7.259 25 28" xml:space="preserve"><path d="M12.695,0c0.125,0,0.252,0.032,0.369,0.1l10.752,6.211c0.228,0.132,0.368,0.375,0.368,0.638s-0.141,0.506-0.368,0.638  l-10.752,6.211c-0.352,0.202-0.803,0.083-1.007-0.27c-0.204-0.353-0.083-0.804,0.27-1.007l9.647-5.573l-9.647-5.574  c-0.353-0.203-0.473-0.654-0.27-1.007C12.193,0.132,12.441,0,12.695,0L12.695,0z M0.738,0C0.863,0,0.99,0.032,1.106,0.1l10.751,6.211c0.228,0.132,0.368,0.375,0.368,0.638s-0.14,0.506-0.368,0.638  L1.106,13.798c-0.354,0.203-0.805,0.082-1.007-0.27c-0.204-0.353-0.083-0.804,0.269-1.007l9.647-5.573L0.368,1.375  C0.016,1.172-0.105,0.721,0.099,0.368C0.235,0.132,0.483,0,0.738,0L0.738,0z" style="fill: #44739e"></path></svg>