<svg id="feller-1618" xmlns="http://www.w3.org/2000/svg" x="0px" y="0px" width="15px" height="28px" viewBox="0 -8.709 15 28" xml:space="preserve"><path d="M0.57,0C0.288,0.098,0.098,0.288,0,0.57C0,0.38,0,0.19,0,0  C0.19,0,0.38,0,0.57,0z M0.57,0C0.68,0,0.79,0,0.9,0c0.821,0.178,0.57,1.58,0.57,2.73  c0,0.856,0,1.676,0,2.34C5.262,3.553,9.198,1.86,13.08,0.24c0.276-0.116,0.61-0.253,0.87-0.21c0.333,0.056,0.668,0.455,0.569,0.93  c-0.096,0.469-0.863,0.652-1.38,0.87C9.476,3.379,5.732,4.905,2.1,6.45c3.625,1.534,7.338,3.061,11.07,4.59  c0.46,0.189,1.262,0.449,1.35,0.87c0.098,0.461-0.223,0.87-0.539,0.931c-0.536,0.103-1.185-0.347-1.65-0.54  C8.733,10.804,5.008,9.284,1.5,7.83C1.446,8.466,1.47,9.322,1.47,10.2c0,0.763,0.152,1.78-0.09,2.28  C1.134,12.986,0.153,13.032,0,12.3C0,8.39,0,4.48,0,0.57C0.098,0.288,0.288,0.098,0.57,0z" style="fill: #44739e"></path></svg>