<svg id="feller-1620" xmlns="http://www.w3.org/2000/svg" x="0px" y="0px" width="15px" height="28px" xml:space="preserve"><path d="M14.314,14.697L8.603,1.474h5.097c0.407,0,0.737-0.33,0.737-0.737S14.106,0,13.699,0H7.485C7.483,0,7.482,0,7.481,0h0  L6.988,0H0.737C0.33,0,0,0.33,0,0.737s0.33,0.737,0.737,0.737h5.129L0.061,14.839c-0.099,0.229-0.077,0.49,0.06,0.698  s0.368,0.333,0.616,0.333h12.962c0.006-0.001,0.014-0.001,0.02,0c0.407,0,0.737-0.33,0.737-0.737  C14.456,14.97,14.403,14.819,14.314,14.697z M1.86,14.396L7.234,2.023l5.344,12.373H1.86z" style="fill: #44739e"></path></svg>