<svg id="feller-1621" xmlns="http://www.w3.org/2000/svg" x="0px" y="0px" width="15px" height="28px" xml:space="preserve"><path d="M13.7,14.395H8.571L14.375,1.03c0.1-0.228,0.077-0.49-0.06-0.698C14.18,0.125,13.948,0,13.7,0H0.737  C0.489,0,0.257,0.125,0.121,0.332C-0.015,0.539-0.038,0.801,0.06,1.029l5.773,13.366H0.737C0.33,14.395,0,14.725,0,15.132  s0.33,0.737,0.737,0.737h6.211c0.002,0,0.004,0.001,0.007,0.001h0.001l0.493-0.001H13.7c0.407,0,0.737-0.33,0.737-0.737  S14.107,14.395,13.7,14.395z M12.576,1.474L7.202,13.847L1.858,1.474H12.576z" style="fill: #44739e"></path></svg>