<svg id="feller-1623" xmlns="http://www.w3.org/2000/svg" x="0px" y="0px" width="16px" height="28px" viewBox="0 -7.542 16 28" xml:space="preserve"><path d="M15.871,7.481L15.87,6.988V0.737C15.87,0.33,15.54,0,15.132,0s-0.737,0.33-0.737,0.737v5.129L1.03,0.061  c-0.228-0.099-0.49-0.077-0.698,0.06C0.125,0.257,0,0.488,0,0.737V13.7c0,0.248,0.125,0.479,0.332,0.616  c0.122,0.08,0.263,0.121,0.405,0.121c0.099,0,0.199-0.021,0.292-0.061l13.366-5.772V13.7c0,0.407,0.33,0.737,0.737,0.737  s0.737-0.33,0.737-0.737V7.488C15.87,7.485,15.871,7.483,15.871,7.481z M1.474,12.579V1.86l12.374,5.374L1.474,12.579z" style="fill: #44739e"></path></svg>