<svg id="feller-1670" xmlns="http://www.w3.org/2000/svg" x="0px" y="0px" width="14px" height="28px" viewBox="0 -0.261 14 28" xml:space="preserve"><path d="M14.094,16.429c0.203-0.352,0.082-0.803-0.271-1.007c-0.35-0.2-0.803-0.082-1.007,0.271l-5.722,9.906l-5.719-9.906  c-0.204-0.353-0.655-0.474-1.007-0.271c-0.353,0.204-0.473,0.654-0.27,1.007l5.719,9.906h2.553L14.094,16.429z M8.372,1.474H5.818l-5.719,9.904c-0.204,0.353-0.083,0.803,0.27,1.007c0.352,0.202,0.804,0.083,1.007-0.27L7.095,2.21  l5.723,9.905c0.136,0.236,0.384,0.369,0.639,0.369c0.125,0,0.252-0.032,0.368-0.099c0.352-0.204,0.473-0.654,0.269-1.007  L8.372,1.474z M13.456,1.474c0.407,0,0.737-0.33,0.737-0.737S13.863,0,13.456,0H0.737C0.33,0,0,0.33,0,0.737s0.33,0.737,0.737,0.737h5.081  h2.553H13.456z M13.457,26.335H8.372H5.818H0.737C0.33,26.335,0,26.666,0,27.073s0.33,0.737,0.737,0.737h12.72  c0.407,0,0.737-0.33,0.737-0.737S13.864,26.335,13.457,26.335z" style="fill: #44739e"></path></svg>