<svg id="feller-1671" xmlns="http://www.w3.org/2000/svg" x="0px" y="0px" width="14px" height="28px" viewBox="0 -0.261 14 28" xml:space="preserve"><path d="M0.737,1.474h5.114L0.103,11.21c-0.134,0.228-0.136,0.51-0.005,0.74c0.131,0.23,0.375,0.372,0.64,0.372h12.761  c0.007,0,0.014,0,0.02,0c0.407,0,0.737-0.33,0.737-0.737c0-0.193-0.074-0.369-0.196-0.5L8.428,1.474h5.07  c0.407,0,0.737-0.33,0.737-0.737S13.905,0,13.498,0H7.143c0,0,0,0-0.001,0H0.737C0.33,0,0,0.33,0,0.737S0.33,1.474,0.737,1.474z   M2.028,10.848L7.139,2.19l5.073,8.658H2.028z M13.498,26.352h-5.07l5.706-9.739c0.134-0.229,0.135-0.511,0.004-0.739c-0.132-0.229-0.376-0.371-0.64-0.371H0.737  c-0.265,0-0.509,0.143-0.64,0.372c-0.131,0.229-0.129,0.512,0.005,0.74l5.748,9.737H0.737C0.33,26.352,0,26.682,0,27.089  s0.33,0.737,0.737,0.737h6.405c0,0,0.001,0,0.001,0h6.355c0.407,0,0.737-0.33,0.737-0.737S13.905,26.352,13.498,26.352z   M12.212,16.977l-5.073,8.658l-5.111-8.658H12.212z" style="fill: #44739e"></path></svg>