<svg id="feller-1468" xmlns="http://www.w3.org/2000/svg" x="0px" y="0px" width="17px" height="28px" viewBox="0 -5.057 17 28" xml:space="preserve"><path d="M17.043,1.208C17.043,0.542,16.5,0,15.834,0H1.208C0.542,0,0,0.542,0,1.208v17.037c0,0.666,0.542,1.209,1.208,1.209h14.626  c0.666,0,1.209-0.543,1.209-1.209V1.208z M15.569,10.107c-0.031,0.748-0.552,1.346-1.194,1.346c-0.661,0-1.198-0.635-1.198-1.414  V1.474h2.393V10.107z M5.393,1.474h2.393v8.553c0,0.781-0.537,1.416-1.197,1.416c-0.659,0-1.196-0.635-1.196-1.416V1.474z   M9.276,1.474h2.395v8.553c0,0.781-0.538,1.416-1.198,1.416c-0.659,0-1.196-0.635-1.196-1.416V1.474z M3.886,1.474v8.545  c0,0.779-0.538,1.414-1.199,1.414c-0.66,0-1.197-0.635-1.197-1.414L1.474,1.474H3.886z M1.474,17.98v-5.402  c0.366,0.205,0.774,0.33,1.213,0.33c0.771,0,1.46-0.359,1.948-0.924c0.488,0.57,1.18,0.934,1.953,0.934  c0.767,0,1.455-0.355,1.942-0.92c0.487,0.564,1.175,0.92,1.941,0.92c0.77,0,1.459-0.359,1.946-0.924  c0.489,0.57,1.182,0.934,1.956,0.934c0.432,0,0.833-0.121,1.194-0.318v5.371H1.474z" style="fill: #44739e"></path></svg>