<svg id="feller-1472" xmlns="http://www.w3.org/2000/svg" x="0px" y="0px" width="28px" height="28px" viewBox="0 -5.962 28 28" xml:space="preserve"><path d="M19.936,0.953c-0.272-0.745-1.104-1.133-1.849-0.871L0.577,6.289c-0.038,0.014-0.065,0.041-0.1,0.06  C0.319,6.41,0.178,6.516,0.091,6.676c-0.195,0.357-0.064,0.805,0.293,1l18.031,9.861c0.112,0.062,0.233,0.091,0.353,0.091  c0.261,0,0.514-0.139,0.647-0.384c0.195-0.357,0.064-0.805-0.293-1l-3.407-1.863V6.076l4.028-1.391  c0.366-0.126,0.66-0.389,0.827-0.739c0.166-0.35,0.185-0.744,0.052-1.107L19.936,0.953z M14.241,13.574L6.406,9.29l7.834-2.705  V13.574z M4.658,8.334L2.518,7.163l16.033-5.706l0.712,1.834L4.658,8.334z M27.914,12.985l-2.701-6.173c-0.117-0.268-0.382-0.441-0.675-0.441c0,0,0,0-0.001,0c-0.293,0-0.558,0.174-0.675,0.442  l-2.689,6.174c-0.162,0.373,0.008,0.807,0.382,0.97c0.096,0.042,0.195,0.062,0.294,0.062c0.284,0,0.555-0.166,0.676-0.443  l2.016-4.625l2.024,4.627c0.163,0.372,0.596,0.54,0.971,0.379C27.907,13.792,28.077,13.358,27.914,12.985z" style="fill: #44739e"></path></svg>