<svg id="feller-1473" xmlns="http://www.w3.org/2000/svg" x="0px" y="0px" width="28px" height="28px" xml:space="preserve"><path d="M19.935,0.954c-0.271-0.744-1.101-1.136-1.849-0.871L0.576,6.294c-0.04,0.014-0.068,0.042-0.104,0.062  C0.317,6.417,0.177,6.522,0.09,6.681c-0.195,0.357-0.064,0.805,0.293,1l18.031,9.854c0.112,0.062,0.233,0.091,0.353,0.091  c0.261,0,0.514-0.139,0.647-0.384c0.195-0.357,0.064-0.805-0.293-1l-3.407-1.862V6.079l4.028-1.392  c0.367-0.126,0.661-0.39,0.828-0.74c0.166-0.35,0.184-0.742,0.051-1.103L19.935,0.954z M14.24,13.575l-7.833-4.28l7.833-2.706  V13.575z M4.66,8.339L2.517,7.168l16.033-5.71l0.712,1.836L4.66,8.339z M27.535,6.978c-0.374-0.163-0.808,0.007-0.971,0.38l-2.024,4.625l-2.016-4.624c-0.163-0.374-0.596-0.542-0.971-0.381  c-0.373,0.163-0.543,0.597-0.381,0.97l2.689,6.17c0.117,0.269,0.382,0.441,0.675,0.442c0.001,0,0.001,0,0.001,0  c0.293,0,0.558-0.174,0.675-0.441l2.701-6.17C28.078,7.576,27.907,7.141,27.535,6.978z" style="fill: #44739e"></path></svg>