<svg id="feller-1475" xmlns="http://www.w3.org/2000/svg" x="0px" y="0px" width="28px" height="28px" xml:space="preserve"><path d="M20.741,13.93c-2.01,0-3.585-2.259-3.585-5.142c0-2.882,1.575-5.14,3.585-5.14s3.584,2.258,3.584,5.14  C24.325,11.671,22.75,13.93,20.741,13.93z M20.741,5.122c-1.145,0-2.11,1.679-2.11,3.667c0,1.988,0.966,3.667,2.11,3.667  c1.144,0,2.109-1.679,2.109-3.667C22.85,6.801,21.884,5.122,20.741,5.122z M20.706,17.615c-3.282,0-6.127-2.714-6.953-6.538l-8.005-0.002v2.515c0,0.64-0.521,1.16-1.163,1.16H1.16  c-0.64,0-1.16-0.521-1.16-1.16v-5.91c0-0.678,0.669-1.133,1.293-1.133l12.459-0.009C14.578,2.712,17.423,0,20.706,0  c3.968,0,7.196,3.949,7.196,8.804C27.902,13.666,24.673,17.615,20.706,17.615z M5.431,9.601l9.567,0.002l0.096,0.625  c0.526,3.427,2.886,5.913,5.611,5.913c3.155,0,5.722-3.288,5.722-7.329c0-4.049-2.566-7.337-5.722-7.337  c-2.726,0-5.086,2.486-5.611,5.911l-0.096,0.625L1.474,8.02v5.255h2.8v-2.518C4.273,10.12,4.792,9.601,5.431,9.601z" style="fill: #44739e"></path></svg>