<svg id="feller-1483" xmlns="http://www.w3.org/2000/svg" x="0px" y="0px" width="19px" height="28px" viewBox="0 -0.888 19 28" xml:space="preserve"><path d="M17.562,11.292v-2.47C17.562,3.958,13.959,0,9.531,0C5.149,0,1.584,3.958,1.584,8.823v2.449C0.674,11.524,0,12.351,0,13.34  v10.955c0,1.188,0.966,2.154,2.155,2.154h14.771c1.188,0,2.155-0.967,2.155-2.154V13.34C19.081,12.375,18.438,11.566,17.562,11.292z   M9.531,1.474c3.615,0,6.557,3.297,6.557,7.349v2.363H3.058V8.823C3.058,4.771,5.961,1.474,9.531,1.474z M17.606,24.295  c0,0.375-0.306,0.68-0.681,0.68H2.155c-0.375,0-0.681-0.305-0.681-0.68V13.34c0-0.375,0.306-0.681,0.681-0.681h14.771  c0.375,0,0.681,0.306,0.681,0.681V24.295z M9.506,14.804c-1.526,0-2.768,1.243-2.768,2.771c0,1.27,0.864,2.331,2.031,2.656v2.256c0,0.407,0.33,0.737,0.737,0.737  s0.737-0.33,0.737-0.737v-2.256c1.167-0.325,2.032-1.387,2.032-2.656C12.275,16.047,11.033,14.804,9.506,14.804z M9.506,18.869  c-0.714,0-1.294-0.58-1.294-1.294c0-0.715,0.581-1.296,1.294-1.296S10.8,16.86,10.8,17.575C10.8,18.289,10.22,18.869,9.506,18.869z" style="fill: #44739e"></path></svg>