<svg id="feller-1650" xmlns="http://www.w3.org/2000/svg" x="0px" y="0px" width="18px" height="28px" viewBox="0 -2.776 18 28" xml:space="preserve"><path d="M18.091,0.865c0.008-0.043,0.025-0.083,0.025-0.128C18.117,0.33,17.787,0,17.379,0H9.115C9.096,0,9.08,0.009,9.061,0.011  C9.042,0.009,9.026,0,9.007,0H0.752C0.345,0,0.016,0.33,0.016,0.737c0,0.035,0.015,0.064,0.02,0.098C0.013,0.923,0,1.017,0,1.115  v17.521c0,0.577,0.364,1.203,0.867,1.489l5.139,2.913c0.188,0.105,0.381,0.158,0.577,0.158c0.578,0,1.014-0.469,1.014-1.09v-1.682  c0.065,0.019,0.129,0.04,0.2,0.04h2.729v1.642c0,0.621,0.437,1.09,1.015,1.09c0.195,0,0.39-0.053,0.579-0.159l5.138-2.913  c0.502-0.285,0.866-0.911,0.866-1.488V1.115C18.123,1.027,18.109,0.945,18.091,0.865z M6.123,21.41l-4.526-2.566  c-0.049-0.032-0.119-0.152-0.123-0.208V1.756l4.541,2.335C6.057,4.118,6.118,4.22,6.123,4.265V21.41z M7.796,18.99  c-0.071,0-0.135,0.021-0.2,0.04V4.265c0-0.59-0.38-1.213-0.904-1.482L4.147,1.474h4.86c0.019,0,0.035-0.009,0.054-0.011  C9.08,1.464,9.096,1.474,9.115,1.474h4.859l-2.545,1.309c-0.523,0.269-0.904,0.893-0.904,1.482V18.99H7.796z M16.648,18.633  c-0.004,0.059-0.074,0.179-0.119,0.209L12,21.41V4.27c0.004-0.049,0.066-0.151,0.104-0.176l4.545-2.337V18.633z" style="fill: #44739e"></path></svg>