<svg id="feller-1967" xmlns="http://www.w3.org/2000/svg" x="0px" y="0px" width="26.2px" height="28px" viewBox="0 0 26.2 28" xml:space="preserve"><path d="M25.5,2.1H0.7C0.3,2.1,0,2.5,0,2.9v4c0,0.4,0.3,0.7,0.7,0.7h0.6v17.5c0,0.4,0.3,0.7,0.7,0.7c0.4,0,0.7-0.3,0.7-0.7V13.8  h20.4v11.4c0,0.4,0.3,0.7,0.7,0.7s0.7-0.3,0.7-0.7V7.6h0.9c0.4,0,0.7-0.3,0.7-0.7v-4C26.2,2.5,25.9,2.1,25.5,2.1z M23.1,12.3H2.8  V7.6h20.4V12.3z M24.7,6.1H1.5V3.6h23.3V6.1z M10.9,10.7h4.3c0.4,0,0.7-0.3,0.7-0.7s-0.3-0.7-0.7-0.7h-4.3c-0.4,0-0.7,0.3-0.7,0.7S10.5,10.7,10.9,10.7z M16.4,15.7c-0.4-0.2-0.8,0-1,0.4l-2.3,5.4l-2.4-5.4c-0.2-0.4-0.6-0.5-1-0.4c-0.4,0.2-0.5,0.6-0.4,1l3,6.9  c0.1,0.3,0.4,0.4,0.7,0.4h0c0.3,0,0.6-0.2,0.7-0.4l3-6.9C16.9,16.3,16.8,15.8,16.4,15.7z" style="fill: #44739e"></path></svg>