<svg id="feller-1968" xmlns="http://www.w3.org/2000/svg" x="0px" y="0px" width="26.2px" height="28px" xml:space="preserve"><path d="M25.5,2.1H0.7C0.3,2.1,0,2.5,0,2.9v4c0,0.4,0.3,0.7,0.7,0.7h0.6v17.5c0,0.4,0.3,0.7,0.7,0.7   c0.4,0,0.7-0.3,0.7-0.7V13.8h20.4v11.4c0,0.4,0.3,0.7,0.7,0.7s0.7-0.3,0.7-0.7V7.6h0.9c0.4,0,0.7-0.3,0.7-0.7v-4   C26.2,2.5,25.9,2.1,25.5,2.1z M23.1,12.3H2.8V7.6h20.4V12.3z M24.7,6.1H1.5V3.6h23.3V6.1z M10.9,10.7h4.3c0.4,0,0.7-0.3,0.7-0.7s-0.3-0.7-0.7-0.7h-4.3c-0.4,0-0.7,0.3-0.7,0.7S10.5,10.7,10.9,10.7z M13.7,16.1c-0.1-0.3-0.4-0.4-0.7-0.4h0c-0.3,0-0.6,0.2-0.7,0.4l-3,6.9c-0.2,0.4,0,0.8,0.4,1   c0.4,0.2,0.8,0,1-0.4l2.3-5.4l2.4,5.4c0.1,0.3,0.4,0.4,0.7,0.4c0.1,0,0.2,0,0.3-0.1c0.4-0.2,0.5-0.6,0.4-1L13.7,16.1z" style="fill: #44739e"></path></svg>