<svg id="feller-1414" xmlns="http://www.w3.org/2000/svg" x="0px" y="0px" width="25px" height="28px" xml:space="preserve"><path d="M7.36,24.533c-0.042,0-0.084,0-0.127-0.002c-3.309-0.105-5.607-2.897-6.306-7.66c-0.055-0.375,0.183-0.73,0.55-0.822  l6.991-1.77c-0.262-0.553-0.401-1.155-0.401-1.765c0-0.023,0-0.046,0-0.069c-4.902-0.422-7.968-2.388-8.063-5.221  c-0.111-3.309,2.582-5.787,7.388-6.798c0.369-0.079,0.735,0.134,0.852,0.492l2.541,7.673c0.274-0.104,0.559-0.178,0.849-0.222  C12.118,3.188,14.213,0,17.178,0c3.312,0,5.697,2.746,6.546,7.534c0.066,0.372-0.159,0.733-0.522,0.837l-7.272,2.113  c0.271,0.487,0.44,1.024,0.5,1.585c4.963,0.478,8.04,2.511,8.083,5.387c0.049,3.312-2.662,5.738-7.437,6.658  c-0.363,0.07-0.734-0.147-0.845-0.51l-2.52-8.194c-0.12-0.389,0.097-0.802,0.485-0.923c0.392-0.121,0.802,0.098,0.923,0.485  l2.324,7.555c2.095-0.501,5.642-1.825,5.594-5.05c-0.031-2.135-2.934-3.702-7.394-3.993c-0.405-0.026-0.713-0.376-0.688-0.781  c0.003-0.053,0.01-0.105,0.017-0.157c0.005-0.756-0.277-1.438-0.789-1.951c-0.184-0.184-0.257-0.451-0.192-0.703  s0.257-0.451,0.506-0.524l7.646-2.227c-0.47-2.102-1.741-5.668-4.965-5.668c-2.503,0-3.875,3.837-4.125,7.639  c-0.028,0.421-0.455,0.735-0.869,0.679c-0.456,0.004-0.974,0.161-1.422,0.457c-0.191,0.126-0.431,0.156-0.646,0.082  c-0.217-0.075-0.386-0.246-0.459-0.463L7.053,2.019C4.945,2.558,1.369,3.95,1.477,7.175c0.071,2.114,2.996,3.626,7.451,3.852  c0.217,0.011,0.418,0.117,0.549,0.29c0.131,0.172,0.18,0.395,0.133,0.606c-0.047,0.213-0.07,0.407-0.07,0.592  c0,0.805,0.358,1.396,0.658,1.749c0.165,0.194,0.218,0.459,0.141,0.701c-0.077,0.242-0.273,0.427-0.519,0.49l-7.323,1.859  c0.405,2.092,1.565,5.642,4.782,5.745c2.644,0.106,3.971-3.817,4.34-7.181c0.044-0.404,0.411-0.692,0.813-0.651  c0.405,0.044,0.696,0.408,0.652,0.813C12.506,21.296,10.318,24.533,7.36,24.533L7.36,24.533z" style="fill: #44739e"></path></svg>