<svg id="feller-1459" xmlns="http://www.w3.org/2000/svg" x="0px" y="0px" width="16px" height="28px" viewBox="0 -2.152 16 28" xml:space="preserve"><path d="M12.005,24.014C5.385,24.014,0,18.626,0,12.004C0,5.385,5.385,0,12.005,0c1.104,0,2.211,0.157,3.289,0.466  c0.269,0.077,0.471,0.299,0.521,0.574s-0.058,0.554-0.28,0.723c-3.297,2.491-5.188,6.276-5.188,10.385  c0,3.983,1.793,7.696,4.919,10.188c0.219,0.174,0.32,0.457,0.262,0.731c-0.059,0.273-0.268,0.49-0.539,0.559  C13.979,23.883,12.976,24.014,12.005,24.014z M12.005,1.474c-5.807,0-10.531,4.724-10.531,10.531c0,5.81,4.725,10.535,10.531,10.535  c0.391,0,0.788-0.024,1.19-0.072c-2.764-2.718-4.322-6.401-4.322-10.32c0-4.059,1.656-7.833,4.592-10.569  C12.979,1.509,12.492,1.474,12.005,1.474z" style="fill: #44739e"></path></svg>