<svg id="feller-1462" xmlns="http://www.w3.org/2000/svg" x="0px" y="0px" width="28px" height="28px" xml:space="preserve"><path d="M27.082,19.533c-0.8-1.326-4.95-5.701-11.631-5.185c3.683-5.573,1.885-11.313,1.116-12.653  C15.974,0.655,15.02,0.038,13.904,0l-0.25,0.007c-1.09,0.027-2.05,0.631-2.633,1.655c-0.771,1.343-2.577,7.093,1.124,12.673  c-6.658-0.533-10.816,3.821-11.62,5.145c-0.62,1.022-0.698,2.155-0.195,3.145l0.128,0.222c0.55,0.938,1.543,1.486,2.725,1.504  c0.016,0,0.032,0,0.048,0c1.629,0,7.514-1.252,10.561-7.225c3.031,5.977,8.922,7.24,10.527,7.24c0.012,0,0.023,0,0.034,0  c1.194-0.012,2.198-0.544,2.776-1.5l0.119-0.226C27.752,21.676,27.692,20.544,27.082,19.533z M12.3,2.394  c0.441-0.775,1.06-0.905,1.393-0.913l0.207-0.008c0.322,0.012,0.93,0.15,1.388,0.954c0.696,1.213,2.354,6.591-1.484,11.726  C9.932,9.008,11.601,3.612,12.3,2.394z M3.246,22.876c-0.014,0-0.028,0-0.041-0.001c-0.896-0.013-1.309-0.491-1.474-0.772  l-0.107-0.182c-0.146-0.287-0.318-0.887,0.161-1.677c0.657-1.081,3.911-4.496,9.216-4.496c0.566,0,1.156,0.039,1.768,0.124  C10.163,21.691,4.712,22.876,3.246,22.876z M25.943,21.956l-0.096,0.186c-0.168,0.276-0.587,0.742-1.51,0.75  c-0.009,0-0.019,0.001-0.028,0.001c-1.445,0-6.897-1.196-9.49-7.009c6.376-0.873,10.277,3.21,11.001,4.411  C26.282,21.061,26.095,21.665,25.943,21.956z" style="fill: #44739e"></path></svg>