<svg id="feller-1463" xmlns="http://www.w3.org/2000/svg" x="0px" y="0px" width="23px" height="28px" xml:space="preserve"><path d="M22.52,14.592l-4.354,1.23l-4.988-2.88l4.992-2.883l4.353,1.228c0.067,0.019,0.135,0.028,0.2,0.028  c0.322,0,0.617-0.212,0.709-0.537c0.111-0.392-0.117-0.799-0.509-0.91l-2.971-0.838l2.713-1.566  c0.353-0.204,0.474-0.654,0.271-1.007c-0.203-0.352-0.656-0.472-1.007-0.27L19.25,7.734L20,4.781  c0.101-0.395-0.138-0.796-0.532-0.896c-0.389-0.1-0.796,0.138-0.896,0.533l-1.104,4.345l-5.012,2.894V5.932l3.241-3.158  c0.291-0.284,0.297-0.75,0.013-1.042c-0.282-0.292-0.751-0.297-1.042-0.014l-2.212,2.156V0.737C12.457,0.33,12.127,0,11.72,0  s-0.737,0.33-0.737,0.737v3.092l-2.18-2.125C8.512,1.421,8.045,1.426,7.761,1.718C7.477,2.009,7.483,2.476,7.774,2.76l3.209,3.127  v5.788L6.025,8.813L4.911,4.427C4.811,4.033,4.413,3.794,4.015,3.895c-0.395,0.1-0.633,0.501-0.533,0.896l0.76,2.994L1.529,6.217  c-0.352-0.202-0.803-0.082-1.007,0.27C0.319,6.839,0.439,7.29,0.792,7.494l2.675,1.544l-2.93,0.828  c-0.392,0.111-0.62,0.518-0.509,0.91c0.092,0.325,0.388,0.537,0.709,0.537c0.066,0,0.134-0.009,0.201-0.028l4.312-1.217l4.979,2.875  l-4.976,2.873l-4.313-1.214c-0.39-0.113-0.799,0.117-0.909,0.51c-0.11,0.392,0.118,0.799,0.51,0.908l2.931,0.824l-2.675,1.545  c-0.353,0.204-0.473,0.654-0.27,1.007c0.136,0.236,0.384,0.369,0.639,0.369c0.125,0,0.252-0.032,0.368-0.099l2.716-1.568  l-0.763,3.021c-0.1,0.395,0.139,0.796,0.534,0.896c0.061,0.015,0.122,0.022,0.181,0.022c0.33,0,0.63-0.223,0.714-0.557l1.114-4.409  l4.954-2.861v5.813l-3.207,3.122c-0.292,0.284-0.298,0.751-0.014,1.042c0.145,0.148,0.336,0.224,0.528,0.224  c0.186,0,0.371-0.069,0.514-0.209l2.178-2.12v3.084c0,0.407,0.33,0.737,0.737,0.737s0.737-0.33,0.737-0.737v-3.135l2.214,2.157  c0.144,0.14,0.329,0.209,0.515,0.209c0.191,0,0.384-0.075,0.528-0.223c0.283-0.292,0.277-0.759-0.014-1.043l-3.243-3.159v-5.742  l5.013,2.894l1.103,4.361c0.085,0.334,0.385,0.557,0.714,0.557c0.061,0,0.121-0.008,0.182-0.022  c0.395-0.101,0.634-0.501,0.534-0.896L19.25,18.15l2.673,1.543c0.116,0.066,0.242,0.099,0.367,0.099c0.255,0,0.503-0.133,0.64-0.369  c0.203-0.353,0.082-0.803-0.271-1.007l-2.713-1.566l2.975-0.84c0.392-0.11,0.62-0.518,0.509-0.909  C23.319,14.708,22.909,14.478,22.52,14.592z" style="fill: #44739e"></path></svg>