<svg id="feller-1488" xmlns="http://www.w3.org/2000/svg" x="0px" y="0px" width="28px" height="28px" xml:space="preserve"><path d="M22.178,26.804H6.059c-0.927,0-1.681-0.754-1.681-1.681V13.909c0-0.113-0.095-0.209-0.207-0.209H1.225  c-0.795,0-1.07-0.455-1.151-0.65c-0.082-0.196-0.21-0.712,0.352-1.277l4.014-4.041c0.228-0.229,0.452-0.772,0.452-1.096V2.018  c0-0.926,0.752-1.685,1.677-1.692l0.678-0.007c0.938,0,1.688,0.75,1.688,1.672v2.134l4.015-3.684  c0.649-0.593,1.748-0.586,2.387,0.01L27.395,11.78c0.585,0.546,0.468,1.065,0.39,1.262c-0.077,0.198-0.346,0.657-1.15,0.657H24.07  c-0.115,0-0.209,0.094-0.209,0.209v11.214C23.861,26.05,23.105,26.804,22.178,26.804L22.178,26.804z M2.054,12.224l2.117,0.002  c0.927,0,1.68,0.755,1.68,1.683v11.214c0,0.112,0.095,0.206,0.208,0.206h16.119c0.113,0,0.209-0.094,0.209-0.206V13.909  c0-0.928,0.756-1.683,1.684-1.683h1.642L14.328,1.527c-0.09-0.084-0.288-0.086-0.384,0.001L9.392,5.71  C9.041,6.032,8.715,6.099,8.504,6.099c-0.347,0-0.655-0.171-0.845-0.47C7.527,5.421,7.46,5.164,7.46,4.862V1.991  c0-0.109-0.089-0.199-0.199-0.199L6.581,1.799C6.463,1.8,6.365,1.9,6.365,2.018v4.618c0,0.711-0.378,1.629-0.879,2.134L2.054,12.224  L2.054,12.224z" style="fill: #44739e"></path></svg>