<svg id="feller-1490" xmlns="http://www.w3.org/2000/svg" x="0px" y="0px" width="23px" height="28px" viewBox="0 -1.258 23 28" xml:space="preserve"><path d="M22.83,6.9c0-0.06,0-0.12,0-0.18c-0.076-0.398-0.435-0.719-0.93-0.63  c-0.164,0.03-0.423,0.21-0.63,0.33c-0.593,0.343-1.376,0.81-1.89,1.05c-0.08-0.739,0.104-1.739,0-2.49  c-0.099-0.702-1.234-0.694-1.44-0.06c-0.231,0.713,0.11,1.888-0.03,2.76c-1.689-1-3.365-2.015-5.04-3.03  c0.365-0.275,0.847-0.528,1.32-0.81c0.343-0.204,1.116-0.55,1.29-0.87c0.32-0.59-0.171-1.229-0.84-1.11  c-0.198,0.035-0.415,0.232-0.63,0.36c-0.654,0.389-1.285,0.776-1.86,1.08c-0.148-1.142,0.413-2.993-0.57-3.3c-0.11,0-0.22,0-0.33,0  c-1.027,0.272-0.448,2.152-0.6,3.3c-0.385-0.213-0.817-0.449-1.26-0.72C8.994,2.338,8.564,1.927,8.16,1.86  C7.565,1.762,7.123,2.227,7.29,2.82c0.134,0.478,0.803,0.662,1.29,0.96c0.472,0.289,0.942,0.63,1.38,0.84  C8.32,5.65,6.557,6.717,4.92,7.65C4.767,6.842,5.147,5.638,4.86,4.89C4.644,4.327,3.721,4.271,3.48,4.86  C3.19,5.568,3.573,6.6,3.42,7.47C3.09,7.343,2.658,7.029,2.16,6.75C1.715,6.501,1.238,6.133,0.84,6.09  C0.381,6.04,0.105,6.322,0,6.66c0,0.11,0,0.22,0,0.33c0.111,0.394,0.428,0.494,0.78,0.69c0.718,0.399,1.476,0.85,2.1,1.23  C2.45,9.146,2.01,9.443,1.5,9.75c-0.484,0.292-1.324,0.617-1.5,1.17c0,0.09,0,0.18,0,0.27c0.121,0.413,0.448,0.668,0.9,0.6  c0.205-0.031,0.413-0.228,0.63-0.36c0.624-0.38,1.379-0.822,1.89-1.08c0,1.75,0,3.5,0,5.25c-0.357-0.207-0.769-0.476-1.23-0.75  c-0.341-0.203-0.93-0.665-1.29-0.72c-0.464-0.071-0.778,0.181-0.9,0.6c0,0.08,0,0.16,0,0.24c0.076,0.423,0.412,0.545,0.75,0.75  c0.736,0.445,1.525,0.894,2.13,1.319c-0.442,0.242-0.931,0.505-1.47,0.811c-0.477,0.27-1.253,0.6-1.41,1.08c0,0.109,0,0.22,0,0.33  c0.361,1.06,1.4,0.32,2.07-0.061c0.52-0.295,0.981-0.596,1.35-0.75c0.186,0.842-0.283,2.258,0.09,2.971  c0.262,0.499,1.13,0.47,1.35-0.061c0.162-0.39,0.06-1.015,0.06-1.53c0-0.556,0-1.079,0-1.59c1.681,1.019,3.404,1.997,5.04,3.061  c-0.475,0.245-0.879,0.507-1.38,0.81c-0.378,0.229-1.154,0.524-1.29,0.93c-0.185,0.55,0.185,1.092,0.81,1.021  c0.431-0.049,0.87-0.47,1.29-0.72c0.463-0.276,0.897-0.543,1.26-0.721c0.153,1.157-0.438,3.058,0.63,3.301c0.08,0,0.16,0,0.24,0  c1.075-0.245,0.473-2.168,0.63-3.33c0.385,0.216,0.819,0.479,1.26,0.75c0.346,0.213,0.914,0.683,1.32,0.72  c0.603,0.055,0.976-0.456,0.81-0.99c-0.122-0.394-0.9-0.74-1.26-0.96c-0.518-0.316-0.977-0.524-1.41-0.84  c1.661-0.999,3.378-2.103,5.04-3c0.187,1.081-0.488,3.383,0.63,3.51c0.977,0.111,0.841-0.966,0.841-1.89c0-0.498,0-0.995,0-1.47  c0.342,0.191,0.805,0.44,1.29,0.72c0.449,0.259,0.899,0.652,1.35,0.689c0.496,0.042,0.68-0.259,0.81-0.63c0-0.069,0-0.14,0-0.21  c-0.145-0.605-0.974-0.854-1.529-1.17c-0.523-0.297-0.982-0.596-1.38-0.81c0.498-0.271,0.938-0.583,1.47-0.9  c0.433-0.259,1.242-0.53,1.38-1.02c0.147-0.521-0.188-1.073-0.87-0.96c-0.205,0.033-0.412,0.227-0.63,0.359  c-0.631,0.388-1.349,0.803-1.89,1.08c0-1.75,0-3.5,0-5.25c0.396,0.219,0.821,0.471,1.29,0.75c0.414,0.247,0.863,0.673,1.319,0.72  c0.581,0.06,0.964-0.463,0.78-1.02c-0.073-0.223-0.39-0.395-0.63-0.54c-0.726-0.439-1.579-0.921-2.22-1.35  c0.45-0.218,0.894-0.5,1.439-0.81C21.852,7.791,22.717,7.502,22.83,6.9z M17.91,16.44c-2.091,1.389-4.341,2.619-6.479,3.96  c-2.186-1.294-4.377-2.583-6.51-3.93c0-2.34,0-4.68,0-7.02c2.11-1.36,4.315-2.625,6.48-3.93c2.188,1.292,4.377,2.583,6.51,3.93  C17.91,11.78,17.91,14.11,17.91,16.44z" style="fill: #44739e"></path></svg>