<svg id="feller-1491" xmlns="http://www.w3.org/2000/svg" x="0px" y="0px" width="27px" height="28px" viewBox="0 -2.758 27 28" xml:space="preserve"><path d="M13.445,23.282c-1.749,0-3.228-0.771-4.057-2.116c-0.799-1.295-0.865-2.955-0.173-4.334c0,0,2.573-5.365,2.856-5.953  c0.262-0.542,0.625-1.155,1.164-1.277l0.086-0.015c0.036-0.004,0.072-0.007,0.109-0.007l0.268,0.03  c0.483,0.125,0.817,0.675,1.107,1.263c0.29,0.588,2.865,5.97,2.865,5.97c0.692,1.377,0.639,3.038-0.147,4.324  c-0.813,1.33-2.284,2.101-4.037,2.114H13.445z M13.439,11.438c-0.013,0.026-0.026,0.053-0.041,0.083  c-0.283,0.587-2.86,5.96-2.86,5.96c-0.47,0.938-0.428,2.049,0.104,2.911c0.563,0.913,1.559,1.416,2.803,1.416v0.737l0.03-0.737  c1.25-0.009,2.24-0.51,2.79-1.408c0.522-0.854,0.554-1.968,0.082-2.906c-0.007-0.013-2.574-5.381-2.864-5.968  C13.468,11.495,13.453,11.465,13.439,11.438z M4.706,13.7c-1.749,0-3.228-0.771-4.057-2.117C-0.15,10.289-0.216,8.628,0.477,7.25v0c0,0,2.573-5.364,2.856-5.951  C3.611,0.722,3.965,0.135,4.5,0.021l0.083-0.014C4.618,0.002,4.654,0,4.691,0l0.265,0.029c0.486,0.124,0.822,0.674,1.112,1.264  c0.288,0.591,2.865,5.969,2.865,5.969c0.692,1.378,0.637,3.042-0.151,4.328c-0.813,1.328-2.284,2.098-4.034,2.11H4.706z   M4.702,1.855C4.688,1.882,4.674,1.91,4.66,1.939C4.377,2.526,1.8,7.899,1.8,7.899c-0.471,0.937-0.429,2.047,0.103,2.91  c0.563,0.913,1.559,1.417,2.803,1.417v0.737l0.032-0.737c1.248-0.009,2.238-0.508,2.787-1.406C8.049,9.965,8.082,8.85,7.61,7.911  c-0.006-0.012-2.58-5.382-2.865-5.97C4.73,1.911,4.716,1.882,4.702,1.855z M22.14,13.7c-1.749,0-3.228-0.771-4.057-2.116c-0.798-1.295-0.864-2.956-0.171-4.334v0c-0.001,0,2.572-5.365,2.856-5.952  c0.277-0.575,0.631-1.161,1.163-1.277l0.086-0.015C22.053,0.002,22.09,0,22.127,0l0.266,0.029c0.484,0.124,0.819,0.674,1.109,1.264  c0.29,0.588,2.865,5.97,2.865,5.97c0.692,1.375,0.639,3.038-0.147,4.324c-0.813,1.33-2.284,2.101-4.037,2.113H22.14z M22.136,1.857  c-0.013,0.026-0.026,0.054-0.041,0.083c-0.283,0.587-2.859,5.96-2.859,5.96c-0.472,0.938-0.43,2.048,0.103,2.911  c0.563,0.913,1.558,1.416,2.802,1.416v0.737l0.033-0.737c1.249-0.009,2.24-0.509,2.789-1.408c0.522-0.855,0.554-1.969,0.082-2.906  c-0.007-0.014-2.574-5.38-2.864-5.967C22.166,1.914,22.151,1.885,22.136,1.857z" style="fill: #44739e"></path></svg>