<svg id="feller-1499" xmlns="http://www.w3.org/2000/svg" x="0px" y="0px" width="28px" height="28px" xml:space="preserve"><path d="M8.376,0.161c-0.882,0-0.936,0.081-1.243,0.964L5.154,6.913L5.006,7.352C4.899,7.664,4.838,7.844,4.779,8.027  C4.671,7.695,4.559,7.361,4.447,7.034L2.454,1.085c-0.303-0.896-0.477-0.924-1.35-0.924c-0.33,0-1.104,0-1.104,1.211v7.726  c0,0.322,0,1.077,0.757,1.077S1.514,9.41,1.514,9.084V2.596l2.184,6.468c0.305,0.887,0.446,1.111,1.043,1.111  c0.58,0,0.7-0.348,0.963-1.11l2.21-6.358v6.565c0,0.815,0.529,0.903,0.757,0.903c0.481,0,0.757-0.349,0.757-0.957V1.372  C9.427,0.532,9.385,0.161,8.376,0.161z M16.016,1.211c-0.153-0.375-0.313-0.743-0.45-0.893C15.406,0.128,15.105,0,14.815,0c-0.706,0-0.885,0.455-1.188,1.226  l-3.055,7.577c-0.11,0.283-0.177,0.453-0.177,0.669c0,0.332,0.323,0.703,0.757,0.703c0.521,0,0.656-0.344,0.844-0.819l0.816-2.107  h4.072l0.844,2.084c0.202,0.508,0.336,0.843,0.855,0.843c0.448,0,0.783-0.385,0.783-0.729c0-0.223-0.071-0.401-0.211-0.75  L16.016,1.211z M16.385,5.936h-3.101l1.521-3.949L16.385,5.936z M27.544,8.617L24.99,4.796l2.364-3.369c0.333-0.473,0.359-0.632,0.359-0.79C27.714,0.199,27.363,0,27.038,0  c-0.374,0-0.506,0.19-0.825,0.651l-2.138,3.034l-1.956-3.012C21.825,0.226,21.678,0,21.29,0c-0.482,0-0.743,0.355-0.743,0.69  c0,0.194,0.119,0.472,0.358,0.828l2.284,3.354l-2.684,3.784c-0.286,0.407-0.373,0.598-0.373,0.815c0,0.414,0.289,0.703,0.703,0.703  c0.394,0,0.528-0.197,0.823-0.629l2.407-3.456l2.147,3.291c0.385,0.578,0.528,0.794,0.917,0.794c0.482,0,0.771-0.364,0.771-0.716  C27.901,9.208,27.73,8.907,27.544,8.617z" style="fill: #44739e"></path></svg>