<svg id="feller-1613" xmlns="http://www.w3.org/2000/svg" x="0px" y="0px" width="27px" height="28px" xml:space="preserve"><path d="M21.942,5.767c-0.408,0-0.813,0.049-1.211,0.146C20.08,2.53,17.099,0,13.569,0c-3.523,0-6.505,2.527-7.161,5.905  C6.021,5.813,5.625,5.767,5.225,5.767C2.344,5.767,0,8.11,0,10.991s2.344,5.226,5.225,5.226h16.718c2.881,0,5.226-2.345,5.226-5.226  S24.823,5.767,21.942,5.767z M21.942,14.742H5.225c-2.068,0-3.751-1.683-3.751-3.751c0-2.068,1.683-3.75,3.751-3.75  c0.515,0,1.021,0.108,1.503,0.32c0.221,0.096,0.474,0.08,0.68-0.045S7.745,7.172,7.76,6.932c0.192-3.061,2.744-5.458,5.809-5.458  c3.073,0,5.625,2.403,5.81,5.472c0.015,0.241,0.146,0.46,0.353,0.585c0.207,0.126,0.462,0.141,0.683,0.043  c0.496-0.221,1.01-0.333,1.528-0.333c2.068,0,3.751,1.683,3.751,3.75C25.693,13.06,24.011,14.742,21.942,14.742z M6.387,17.814C6.016,17.646,5.58,17.81,5.411,18.18l-2.563,5.623c-0.169,0.37-0.006,0.808,0.365,0.977  c0.099,0.045,0.203,0.066,0.305,0.066c0.28,0,0.547-0.16,0.671-0.432l2.563-5.623C6.921,18.421,6.758,17.983,6.387,17.814z M11.55,17.814c-0.371-0.169-0.808-0.005-0.976,0.365l-2.563,5.623c-0.169,0.37-0.006,0.808,0.365,0.977  c0.099,0.045,0.203,0.066,0.305,0.066c0.28,0,0.547-0.16,0.671-0.432l2.563-5.623C12.084,18.421,11.921,17.983,11.55,17.814z M16.729,17.814c-0.367-0.168-0.807-0.006-0.977,0.365l-2.563,5.623c-0.169,0.37-0.006,0.808,0.365,0.977  c0.099,0.045,0.203,0.066,0.305,0.066c0.28,0,0.547-0.16,0.671-0.432l2.563-5.623C17.264,18.421,17.1,17.983,16.729,17.814z M21.892,17.814c-0.367-0.168-0.807-0.006-0.977,0.365l-2.563,5.623c-0.169,0.37-0.005,0.808,0.365,0.977  c0.099,0.045,0.203,0.066,0.306,0.066c0.279,0,0.547-0.16,0.671-0.432l2.563-5.623C22.426,18.421,22.262,17.983,21.892,17.814z" style="fill: #44739e"></path></svg>