<svg id="feller-1615" xmlns="http://www.w3.org/2000/svg" x="0px" y="0px" width="24px" height="28px" xml:space="preserve"><path d="M18.303,20.67c-1.288,0-2.337-1.049-2.337-2.337l0.001-15.999c0-0.475-0.386-0.861-0.861-0.861s-0.861,0.386-0.861,0.861  l0.02,15.998c0,1.289-1.048,2.338-2.336,2.338s-2.335-1.049-2.335-2.337L9.594,2.334c0-0.475-0.387-0.861-0.862-0.861  S7.87,1.86,7.87,2.334L7.867,18.333c0,1.288-1.047,2.337-2.335,2.337s-2.335-1.049-2.335-2.337L3.197,2.334  c0-0.475-0.387-0.861-0.862-0.861S1.474,1.86,1.474,2.334v17.491c0,0.407-0.33,0.737-0.737,0.737S0,20.233,0,19.826V2.334  C0,1.047,1.047,0,2.335,0s2.335,1.047,2.335,2.334L4.67,18.333c0,0.476,0.387,0.862,0.862,0.862s0.862-0.387,0.862-0.862  L6.396,2.334C6.396,1.047,7.444,0,8.732,0s2.335,1.047,2.335,2.334l-0.001,15.999c0,0.476,0.387,0.862,0.862,0.862  s0.861-0.387,0.861-0.862L12.77,2.335C12.77,1.047,13.818,0,15.106,0s2.336,1.047,2.336,2.334l-0.001,15.999  c0,0.476,0.387,0.862,0.862,0.862c0.475,0,0.86-0.387,0.86-0.862l0.003-15.999C19.167,1.047,20.214,0,21.502,0  s2.336,1.047,2.336,2.334l-0.001,17.563c0,0.407-0.33,0.737-0.737,0.737l0,0c-0.407,0-0.737-0.33-0.737-0.737l0.001-17.563  c0-0.475-0.386-0.861-0.861-0.861c-0.475,0-0.861,0.386-0.861,0.861l-0.003,15.999C20.638,19.622,19.59,20.67,18.303,20.67z" style="fill: #44739e"></path></svg>