<svg id="feller-1792" xmlns="http://www.w3.org/2000/svg" x="0px" y="0px" width="28px" height="28.3px" xml:space="preserve"><path d="M12.5,14.2c0-0.3-0.1-0.6-0.3-0.9l5.1-1.5c0.4-0.1,0.6-0.5,0.5-0.8c-0.6-3.6-2.5-5.7-5-5.7c-2.3,0-3.9,2.4-4.3,6.2   c-0.1,0-0.2,0-0.3,0.1L6.5,6.1C6.3,5.7,6,5.5,5.6,5.6C2,6.3-0.1,8.2,0,10.8c0.1,2.2,2.3,3.7,6,4c0,0.4,0.1,0.7,0.2,1l-4.9,1.3   c-0.4,0.1-0.6,0.4-0.5,0.8c0.5,3.6,2.3,5.7,4.8,5.8c0,0,0.1,0,0.1,0c2.3,0,4-2.5,4.4-6.4c0-0.4-0.2-0.8-0.7-0.8   c-0.4,0-0.8,0.2-0.8,0.7c-0.3,2.6-1.3,5.1-3,5.1c0,0,0,0-0.1,0c-2.1-0.1-3-2.4-3.3-3.9L7.5,17C7.7,17,7.9,16.8,8,16.5   c0.1-0.2,0-0.5-0.1-0.7c-0.2-0.2-0.4-0.6-0.4-1.2c0-0.1,0-0.2,0-0.4c0-0.2,0-0.4-0.1-0.6c-0.1-0.2-0.3-0.3-0.5-0.3   c-2.6-0.1-5.3-1-5.3-2.7C1.4,8.6,3.8,7.6,5.3,7.2l1.9,5.6c0.1,0.2,0.2,0.4,0.5,0.5c0.2,0.1,0.5,0,0.6-0.1c0.3-0.2,0.6-0.3,0.9-0.3   c0.4,0.1,0.8-0.3,0.9-0.7c0.2-2.7,1.1-5.5,2.9-5.5c2.2,0,3.1,2.3,3.4,3.9l-5.5,1.6c-0.2,0.1-0.4,0.3-0.5,0.5   c-0.1,0.3,0,0.5,0.2,0.7c0.3,0.3,0.5,0.8,0.5,1.3l0.7,0.1l-0.7,0c0,0.2,0,0.4,0.2,0.6c0.1,0.2,0.3,0.2,0.5,0.3   c2.6,0.2,5.3,1.1,5.3,2.8c0,2.2-2.3,3.1-3.8,3.5l-1.7-5.4c-0.1-0.4-0.5-0.6-0.9-0.5c-0.4,0.1-0.6,0.5-0.5,0.9l1.9,6   c0.1,0.4,0.5,0.6,0.8,0.5c3.6-0.7,5.7-2.6,5.6-5.1C18.4,16.1,16.2,14.6,12.5,14.2z M27.5,16.5l-4.6-2l4.6-2c0.4-0.2,0.5-0.6,0.4-1c-0.2-0.4-0.6-0.5-1-0.4l-6.2,2.7c-0.3,0.1-0.4,0.4-0.4,0.7   c0,0.3,0.2,0.6,0.4,0.7l6.2,2.7c0.1,0,0.2,0.1,0.3,0.1c0.3,0,0.6-0.2,0.7-0.4C28.1,17.1,27.9,16.6,27.5,16.5z" style="fill: #44739e"></path></svg>