<svg id="feller-1860" xmlns="http://www.w3.org/2000/svg" x="0px" y="0px" width="17.6px" height="28.3px" viewBox="0 0 17.6 28.3" xml:space="preserve"><path d="M17.6,7.1c0-0.3-0.2-0.6-0.6-0.7L1.5,3.2V2.1c0-0.4-0.3-0.7-0.7-0.7C0.3,1.4,0,1.7,0,2.1v24.5c0,0.4,0.3,0.7,0.7,0.7  c0.4,0,0.7-0.3,0.7-0.7V4.7l2.9,0.6v7.4l-1.3,0.2c-0.4,0.1-0.7,0.5-0.6,0.9c0.1,0.4,0.4,0.6,0.7,0.6c0,0,0.1,0,0.1,0L17,12  c0.4-0.1,0.6-0.4,0.6-0.7L17.6,7.1z M12.3,7v4.4l-2.5,0.4V6.4L12.3,7z M5.8,5.6l2.5,0.5V12l-2.5,0.4V5.6z M13.8,11.1V7.3l2.4,0.5  l0,2.9L13.8,11.1z" style="fill: #44739e"></path></svg>