<svg id="feller-1861" xmlns="http://www.w3.org/2000/svg" x="0px" y="0px" width="27.9px" height="28.3px" xml:space="preserve"><path d="M27.4,12.4L15.3,1.1l0,0c-0.7-0.6-1.7-0.6-2.4,0l-4,3.7V2.6c0-0.4-0.2-0.9-0.5-1.2C8.1,1.1,7.7,0.9,7.2,0.9l-0.7,0   C5.6,1,4.9,1.7,4.9,2.6v4.6c0,0.3-0.2,0.9-0.5,1.1l-4,4C-0.1,13,0,13.5,0.1,13.7c0.1,0.2,0.4,0.7,1.2,0.7h2.9   c0.1,0,0.2,0.1,0.2,0.2v11.2c0,0.9,0.8,1.7,1.7,1.7h16.1c0.9,0,1.7-0.8,1.7-1.7V14.5c0-0.1,0.1-0.2,0.2-0.2h2.6   c0.8,0,1.1-0.5,1.2-0.7C27.9,13.5,28,12.9,27.4,12.4z M24.1,12.8c-0.9,0-1.7,0.8-1.7,1.7v11.2c0,0.1-0.1,0.2-0.2,0.2H6.1   c-0.1,0-0.2-0.1-0.2-0.2V14.5c0-0.9-0.8-1.7-1.7-1.7l-2.1,0l3.4-3.5C6,8.9,6.4,8,6.4,7.3V2.6c0-0.1,0.1-0.2,0.2-0.2l0.7,0   c0,0,0,0,0,0c0.1,0,0.1,0,0.1,0.1c0,0,0.1,0.1,0.1,0.1v2.9c0,0.8,0.4,1.1,0.6,1.2c0.2,0.1,0.7,0.2,1.3-0.3l4.6-4.2   c0.1-0.1,0.3-0.1,0.4,0l11.4,10.7H24.1z M11.5,16.2c0,1.5,0.5,2.9,1.4,3.8c0.9,0.9,2.2,1.1,3.2,1.1c2.7,0,3.8-2.3,3.8-3.2c0-0.5-0.4-0.8-0.8-0.8   c-0.5,0-0.7,0.5-0.8,0.7c-0.4,1.2-1.2,1.8-2.3,1.8c-0.8,0-2.6-0.3-2.6-3.3c0-3.2,2.1-3.4,2.7-3.4c0.6,0,0.9,0.2,1.1,0.3   c0.4,0.2,0.7,0.5,0.9,1c0.2,0.4,0.5,0.9,1,0.9c0.5,0,0.8-0.4,0.8-0.8c0-0.6-1-2.8-3.8-2.8C13.4,11.3,11.5,13.4,11.5,16.2z M9.4,11.2c-1.1,0-2,0.9-2,2c0,1.1,0.9,2,2,2c1.1,0,2-0.9,2-2C11.3,12.1,10.4,11.2,9.4,11.2z M9.4,13.9   c-0.4,0-0.7-0.3-0.7-0.8c0-0.4,0.3-0.7,0.7-0.7s0.7,0.3,0.7,0.7C10.1,13.6,9.8,13.9,9.4,13.9z" style="fill: #44739e"></path></svg>