<svg id="feller-1870" xmlns="http://www.w3.org/2000/svg" x="0px" y="0px" width="28" height="28" viewBox="0 0 28.35 28.35" xml:space="preserve"><path d="M14.162,16.419c0.407,0,0.737-0.33,0.737-0.737v-3.307c0-0.407-0.33-0.737-0.737-0.737s-0.737,0.33-0.737,0.737v3.307   C13.425,16.089,13.755,16.419,14.162,16.419z M19.887,18.285c0.229,0,0.453-0.105,0.597-0.304l1.944-2.675c0.24-0.33,0.167-0.791-0.162-1.03   c-0.33-0.241-0.792-0.167-1.029,0.163l-1.944,2.674c-0.24,0.329-0.167,0.79,0.162,1.029C19.585,18.239,19.736,18.285,19.887,18.285   z M26.342,20.697l-3.146,1.022c-0.388,0.126-0.6,0.542-0.474,0.929c0.102,0.312,0.391,0.51,0.701,0.51   c0.075,0,0.152-0.012,0.228-0.036l3.146-1.022c0.388-0.126,0.6-0.542,0.474-0.929S26.727,20.572,26.342,20.697z M1.515,22.087l3.146,1.024c0.076,0.024,0.152,0.036,0.228,0.036c0.311,0,0.6-0.198,0.701-0.509   c0.126-0.388-0.085-0.804-0.473-0.93l-3.146-1.024c-0.386-0.124-0.803,0.086-0.929,0.473C0.917,21.545,1.128,21.961,1.515,22.087z M7.838,17.972c0.145,0.198,0.369,0.304,0.597,0.304c0.15,0,0.302-0.046,0.433-0.142c0.329-0.239,0.402-0.7,0.163-1.029   L7.085,14.43c-0.24-0.329-0.701-0.401-1.03-0.163c-0.329,0.24-0.402,0.701-0.163,1.03L7.838,17.972z M27.302,25.29h-6.217c-0.009-3.85-3.142-6.979-6.994-6.979c-3.852,0-6.987,3.13-6.996,6.979H1.048   c-0.407,0-0.737,0.33-0.737,0.737s0.33,0.737,0.737,0.737h26.253c0.407,0,0.737-0.33,0.737-0.737S27.709,25.29,27.302,25.29z    M8.569,25.29c0.009-3.037,2.482-5.505,5.522-5.505c3.038,0,5.51,2.468,5.52,5.505H8.569z M22.754,8.575c0.118,0.268,0.383,0.441,0.676,0.441c0,0,0,0,0.001,0c0.293,0,0.558-0.174,0.675-0.443l2.689-6.179   c0.162-0.373-0.009-0.807-0.382-0.97c-0.372-0.161-0.807,0.007-0.97,0.382l-2.016,4.629l-2.023-4.631   c-0.163-0.374-0.603-0.543-0.971-0.38c-0.373,0.163-0.543,0.598-0.381,0.971L22.754,8.575z" style="fill: #44739e"></path></svg>