<svg id="feller-1904" xmlns="http://www.w3.org/2000/svg" x="0px" y="0px" width="27.2px" height="28.3px" xml:space="preserve"><path d="M21.9,11.8c-0.4,0-0.8,0-1.2,0.1c-0.7-3.4-3.6-5.9-7.2-5.9C10,6.1,7.1,8.6,6.4,12c-0.4-0.1-0.8-0.1-1.2-0.1   c-2.9,0-5.2,2.3-5.2,5.2s2.3,5.2,5.2,5.2h16.7c2.9,0,5.2-2.3,5.2-5.2S24.8,11.8,21.9,11.8z M21.9,20.8H5.2c-2.1,0-3.8-1.7-3.8-3.8   c0-2.1,1.7-3.8,3.8-3.8c0.5,0,1,0.1,1.5,0.3c0.2,0.1,0.5,0.1,0.7,0c0.2-0.1,0.3-0.3,0.4-0.6c0.2-3.1,2.7-5.5,5.8-5.5   c3.1,0,5.6,2.4,5.8,5.5c0,0.2,0.1,0.5,0.4,0.6c0.2,0.1,0.5,0.1,0.7,0c0.5-0.2,1-0.3,1.5-0.3c2.1,0,3.8,1.7,3.8,3.8   C25.7,19.1,24,20.8,21.9,20.8z M12.5,17c-0.3,0-0.4,0.3-0.5,0.4c-0.3,0.8-0.8,1.2-1.6,1.2c-0.4,0-1.8-0.2-1.8-2.3c0-2.2,1.5-2.4,1.9-2.4   c0.4,0,0.6,0.1,0.8,0.2c0.3,0.2,0.5,0.4,0.6,0.7c0.1,0.2,0.3,0.6,0.6,0.6c0.3,0,0.5-0.3,0.5-0.5c0-0.4-0.7-1.9-2.5-1.9   c-1.8,0-3,1.4-3,3.3c0,1,0.3,1.9,0.9,2.5c0.6,0.6,1.5,0.8,2.1,0.8c1.8,0,2.5-1.5,2.5-2.1C13,17.1,12.8,17,12.5,17z M16.7,13c-2.2,0-3,1.7-3,3.3s0.8,3.3,3.1,3.3c2.2,0,3-1.8,3-3.3C19.7,14.8,18.9,13,16.7,13z M16.6,18.6   c-1.1,0-1.9-0.9-1.9-2.2c0-0.3,0-1.4,0.6-1.9c0.3-0.3,0.7-0.6,1.3-0.6c0.2,0,1.9,0.1,1.9,2.3C18.6,18.6,16.8,18.6,16.6,18.6z M22.8,19.2h-1.5c0.1-0.1,0.3-0.3,0.8-0.7c0.7-0.6,1.3-1,1.3-1.8c0-0.1,0-1.3-1.5-1.3c-1,0-1.5,0.8-1.5,1.3   c0,0.2,0.2,0.4,0.4,0.4c0.3,0,0.4-0.3,0.4-0.5c0.1-0.4,0.4-0.5,0.7-0.5c0.3,0,0.7,0.2,0.7,0.7c0,0.3-0.1,0.5-0.8,1.1   c-0.2,0.2-0.4,0.3-0.6,0.5c-0.4,0.3-0.8,0.8-0.8,1.2c0,0.2,0.1,0.4,0.5,0.4h2.1c0.2,0,0.6,0,0.6-0.4C23.4,19.2,23,19.2,22.8,19.2z" style="fill: #44739e"></path></svg>