<svg id="feller-1906" xmlns="http://www.w3.org/2000/svg" x="0px" y="0px" width="25.2px" height="28.3px" viewBox="0 0 25.2 28.3" xml:space="preserve"><path d="M13.2,5.1c0.4,0,0.7-0.3,0.7-0.7V1c0-0.4-0.3-0.7-0.7-0.7S12.5,0.6,12.5,1v3.3C12.5,4.8,12.8,5.1,13.2,5.1z M13.2,23.2c-0.4,0-0.7,0.3-0.7,0.7v3.3c0,0.4,0.3,0.7,0.7,0.7s0.7-0.3,0.7-0.7V24C14,23.6,13.6,23.2,13.2,23.2z M6.9,21.7l-2,2.7c-0.2,0.3-0.2,0.8,0.2,1c0.1,0.1,0.3,0.1,0.4,0.1c0.2,0,0.5-0.1,0.6-0.3l2-2.7c0.2-0.3,0.2-0.8-0.2-1   C7.6,21.3,7.1,21.3,6.9,21.7z M3.7,16.5l-3.2,1c-0.4,0.1-0.6,0.5-0.5,0.9C0.1,18.8,0.4,19,0.7,19c0.1,0,0.2,0,0.2,0l3.2-1c0.4-0.1,0.6-0.5,0.5-0.9   C4.5,16.6,4.1,16.4,3.7,16.5z M4.1,10.4L1,9.4C0.6,9.3,0.2,9.5,0,9.9c-0.1,0.4,0.1,0.8,0.5,0.9l3.2,1c0.1,0,0.2,0,0.2,0c0.3,0,0.6-0.2,0.7-0.5   C4.7,11,4.5,10.6,4.1,10.4z M6.9,6.7C7,6.9,7.2,7,7.5,7c0.2,0,0.3,0,0.4-0.1c0.3-0.2,0.4-0.7,0.2-1l-2-2.7c-0.2-0.3-0.7-0.4-1-0.2   C4.8,3.2,4.7,3.6,4.9,4L6.9,6.7z M16,18.8c-0.3,0.2-0.7,0.3-1,0.5c-0.6,0.2-1.2,0.3-1.8,0.3c-3.1,0-5.6-2.5-5.6-5.6c0-3.1,2.5-5.6,5.6-5.6   c0.6,0,1.3,0.1,1.9,0.3c0.3,0.1,0.6,0.3,0.9,0.4c0.4,0.2,0.8,0.1,1-0.3c0.2-0.4,0.1-0.8-0.3-1c-0.4-0.2-0.8-0.4-1.2-0.5   C14.8,7.2,14,7,13.2,7c-3.9,0-7,3.2-7,7s3.2,7,7,7c0.8,0,1.6-0.1,2.3-0.4c0.4-0.2,0.9-0.4,1.3-0.6c0.4-0.2,0.5-0.7,0.3-1   C16.8,18.7,16.3,18.6,16,18.8z M22.1,14.1c0-2.2,1-4.2,2.8-5.5c0.2-0.2,0.3-0.4,0.3-0.7s-0.3-0.5-0.5-0.6C24,7.1,23.4,7,22.7,7c-3.9,0-7,3.2-7,7   c0,3.9,3.2,7,7,7c0.6,0,1.2-0.1,1.7-0.2c0.3-0.1,0.5-0.3,0.5-0.6c0.1-0.3,0-0.6-0.3-0.7C23.1,18.2,22.1,16.2,22.1,14.1z M17.2,14   c0-3.1,2.5-5.6,5.6-5.6c0,0,0.1,0,0.1,0c-1.4,1.5-2.2,3.5-2.2,5.6c0,2,0.7,4,2,5.5C19.6,19.5,17.2,17.1,17.2,14z" style="fill: #44739e"></path></svg>