<svg id="feller-1931" xmlns="http://www.w3.org/2000/svg" x="0px" y="0px" width="27.2px" height="28px" viewBox="0 0 27.2 28" xml:space="preserve"><path d="M21.9,6.2c-0.4,0-0.8,0-1.2,0.1c-0.7-3.4-3.6-5.9-7.2-5.9c-3.5,0-6.5,2.5-7.2,5.9C6,6.2,5.6,6.2,5.2,6.2   C2.3,6.2,0,8.5,0,11.4c0,2.9,2.3,5.2,5.2,5.2h16.7c2.9,0,5.2-2.3,5.2-5.2C27.2,8.5,24.8,6.2,21.9,6.2z M21.9,15.1H5.2   c-2.1,0-3.8-1.7-3.8-3.8c0-2.1,1.7-3.8,3.8-3.8c0.5,0,1,0.1,1.5,0.3c0.2,0.1,0.5,0.1,0.7,0c0.2-0.1,0.3-0.3,0.4-0.6   c0.2-3.1,2.7-5.5,5.8-5.5c3.1,0,5.6,2.4,5.8,5.5c0,0.2,0.1,0.5,0.4,0.6c0.2,0.1,0.5,0.1,0.7,0c0.5-0.2,1-0.3,1.5-0.3   c2.1,0,3.8,1.7,3.8,3.8C25.7,13.5,24,15.1,21.9,15.1z M7.8,19.9c-0.2-0.4-0.7-0.5-1-0.3l-1.2,0.7v-1.4c0-0.4-0.3-0.7-0.7-0.7s-0.7,0.3-0.7,0.7v1.4l-1.2-0.7   c-0.4-0.2-0.8-0.1-1,0.3c-0.2,0.4-0.1,0.8,0.3,1l1.2,0.7l-1.2,0.7c-0.4,0.2-0.5,0.7-0.3,1c0.1,0.2,0.4,0.4,0.6,0.4   c0.1,0,0.3,0,0.4-0.1l1.2-0.7v1.4c0,0.4,0.3,0.7,0.7,0.7s0.7-0.3,0.7-0.7v-1.4l1.2,0.7c0.1,0.1,0.2,0.1,0.4,0.1   c0.3,0,0.5-0.1,0.6-0.4c0.2-0.4,0.1-0.8-0.3-1l-1.2-0.7l1.2-0.7C7.9,20.7,8,20.2,7.8,19.9z M16.7,22.4c-0.2-0.4-0.7-0.5-1-0.3l-1.2,0.7v-1.4c0-0.4-0.3-0.7-0.7-0.7s-0.7,0.3-0.7,0.7v1.4l-1.2-0.7   c-0.4-0.2-0.8-0.1-1,0.3c-0.2,0.4-0.1,0.8,0.3,1l1.2,0.7l-1.2,0.7c-0.4,0.2-0.5,0.7-0.3,1c0.1,0.2,0.4,0.4,0.6,0.4   c0.1,0,0.3,0,0.4-0.1l1.2-0.7v1.4c0,0.4,0.3,0.7,0.7,0.7s0.7-0.3,0.7-0.7v-1.4l1.2,0.7c0.1,0.1,0.2,0.1,0.4,0.1   c0.3,0,0.5-0.1,0.6-0.4c0.2-0.4,0.1-0.8-0.3-1l-1.2-0.7l1.2-0.7C16.7,23.2,16.9,22.8,16.7,22.4z M25.3,19.9c-0.2-0.4-0.7-0.5-1-0.3L23,20.3v-1.4c0-0.4-0.3-0.7-0.7-0.7s-0.7,0.3-0.7,0.7v1.4l-1.2-0.7   c-0.4-0.2-0.8-0.1-1,0.3c-0.2,0.4-0.1,0.8,0.3,1l1.2,0.7l-1.2,0.7c-0.4,0.2-0.5,0.7-0.3,1c0.1,0.2,0.4,0.4,0.6,0.4   c0.1,0,0.3,0,0.4-0.1l1.2-0.7v1.4c0,0.4,0.3,0.7,0.7,0.7s0.7-0.3,0.7-0.7v-1.4l1.2,0.7c0.1,0.1,0.2,0.1,0.4,0.1   c0.3,0,0.5-0.1,0.6-0.4c0.2-0.4,0.1-0.8-0.3-1l-1.2-0.7l1.2-0.7C25.4,20.7,25.5,20.2,25.3,19.9z" style="fill: #44739e"></path></svg>