<svg id="feller-2150" xmlns="http://www.w3.org/2000/svg" x="0px" y="0px" width="24.1px" height="28px" xml:space="preserve"><path d="M6.5,19.4v-13c0-0.4-0.3-0.7-0.7-0.7C5.4,5.7,5.1,6,5.1,6.4v13c-1.3,0.3-2.2,1.5-2.2,2.8   c0,0.8,0.3,1.5,0.9,2.1c0.6,0.6,1.3,0.9,2.1,0.9c0.4,0,0.7-0.3,0.7-0.7s-0.3-0.7-0.7-0.7c-0.4,0-0.8-0.2-1-0.4   c-0.3-0.3-0.4-0.7-0.4-1c0-0.8,0.7-1.5,1.5-1.5s1.4,0.7,1.4,1.5C7.2,22.7,7.5,23,8,23c0.4,0,0.7-0.3,0.7-0.7   C8.7,20.9,7.8,19.7,6.5,19.4z M23.3,13.4h-3.9V9.5c0-0.4-0.3-0.7-0.7-0.7C18.3,8.7,18,9,18,9.4v3.9h-3.9c-0.4,0-0.7,0.3-0.7,0.7   s0.3,0.7,0.7,0.7H18v3.9c0,0.4,0.3,0.7,0.7,0.7c0.4,0,0.7-0.3,0.7-0.7v-3.9h3.9c0.4,0,0.7-0.3,0.7-0.7   C24.1,13.7,23.8,13.4,23.3,13.4z M9,17.5V3.3C9,1.5,7.5,0,5.7,0C4.9,0,4.1,0.4,3.5,1s-1,1.4-1,2.3v14.2C0.9,18.6,0,20.3,0,22.2   C0,25.4,2.6,28,5.7,28c1.5,0,3-0.6,4.1-1.7c1.1-1.1,1.7-2.5,1.7-4.1C11.5,20.3,10.6,18.6,9,17.5z M8.8,25.2c-0.8,0.8-1.9,1.2-3,1.2   c-2.4,0-4.3-1.9-4.3-4.3c0-1.5,0.8-2.9,2.1-3.6C3.8,18.4,4,18.1,4,17.9V3.3C4,2.8,4.2,2.4,4.5,2c0.3-0.3,0.8-0.5,1.3-0.5   c1,0,1.8,0.8,1.8,1.8v14.6c0,0.3,0.1,0.5,0.4,0.6c1.3,0.8,2.1,2.2,2.1,3.7C10,23.4,9.6,24.4,8.8,25.2z" style="fill: #44739e"></path></svg>