<svg id="feller-1476" xmlns="http://www.w3.org/2000/svg" x="0px" y="0px" width="23px" height="28px" xml:space="preserve"><path d="M14.975,20.146c-0.394-0.05-0.771,0.24-0.819,0.644c-0.385,3.189-3.102,5.595-6.319,5.595c-3.508,0-6.362-2.853-6.362-6.359  c0-2.06,1.002-4.002,2.68-5.195c0.332-0.236,0.409-0.696,0.173-1.028c-0.235-0.332-0.695-0.409-1.028-0.173  C1.233,15.098,0,17.489,0,20.025c0,4.319,3.515,7.834,7.836,7.834c3.963,0,7.309-2.964,7.782-6.894  C15.667,20.561,15.379,20.195,14.975,20.146z M22.454,22.554l-3.522-7.714l-6.036,0.004l-1.903-6.029c-0.44-1.461-1.732-2.451-3.242-2.521  c0.839-0.643,1.39-1.645,1.39-2.782C9.141,1.576,7.565,0,5.627,0C3.691,0,2.116,1.576,2.116,3.512c0,1.877,1.48,3.401,3.332,3.497  C4.299,7.88,3.741,9.395,4.176,10.853l2.552,8.643l9.113,0.002l2.347,5c0.271,0.598,1.05,1.609,2.252,1.609  c0.283,0,0.572-0.056,0.858-0.168c0.803-0.313,1.153-0.845,1.306-1.236C22.994,23.7,22.502,22.65,22.454,22.554z M3.589,3.512  c0-1.124,0.915-2.039,2.038-2.039c1.125,0,2.04,0.915,2.04,2.039c0,1.125-0.915,2.042-2.04,2.042  C4.504,5.554,3.589,4.638,3.589,3.512z M21.229,24.172c-0.042,0.107-0.137,0.266-0.465,0.394c-0.115,0.045-0.224,0.067-0.323,0.067  c-0.544,0-0.907-0.74-0.913-0.753l-2.748-5.857L7.83,18.021l-2.241-7.588C5.261,9.334,5.889,8.171,6.986,7.842  c1.083-0.32,2.273,0.33,2.598,1.408l2.231,7.069l6.169-0.004l3.136,6.866C21.191,23.331,21.363,23.833,21.229,24.172z" style="fill: #44739e"></path></svg>