<svg id="feller-1625" xmlns="http://www.w3.org/2000/svg" x="0px" y="0px" width="28px" height="28px" xml:space="preserve"><path d="M26.857,15.584h-0.191l-0.002-0.585c0.01-0.118,0.228-2.896-1.72-5.021c-1.398-1.526-3.516-2.3-6.292-2.3  s-4.891,0.773-6.285,2.3c-1.941,2.126-1.713,4.906-1.706,4.957v0.641l-0.21-0.001c-0.309,0.024-0.662,0.13-0.903,0.37  c-0.242,0.242-0.375,0.563-0.374,0.901l0.001,8.326H7.292V8.389h5.107c0.237,0,0.46-0.114,0.599-0.307  c0.139-0.193,0.176-0.44,0.1-0.666l-2.335-6.916C10.66,0.202,10.379,0,10.063,0H3.075C2.759,0,2.478,0.201,2.376,0.501L0.039,7.417  C-0.037,7.641,0,7.889,0.139,8.082C0.277,8.275,0.5,8.389,0.737,8.389h5.081v16.783H3.204c-0.407,0-0.737,0.33-0.737,0.737  s0.33,0.737,0.737,0.737h6.567c0.024,0,0.045-0.012,0.068-0.014c0.025,0.003,0.047,0.015,0.073,0.015  c0.407,0,0.737-0.33,0.737-0.737l-0.001-8.861l3.257,0.009l-0.001,3.263c0,0.406,0.33,0.736,0.736,0.737h0  c0.001,0,0.003-0.001,0.005-0.001s0.003,0.001,0.005,0.001h7.96c0.103,0,0.199-0.021,0.288-0.059c0.289-0.1,0.5-0.366,0.5-0.689  v-3.261l3.258,0.009l-0.002,8.099L12.83,25.16c-0.407,0-0.737,0.33-0.737,0.737c0,0.407,0.33,0.737,0.737,0.737l14.081-0.006  c0.684-0.04,1.219-0.606,1.219-1.288l0.002-8.482C28.131,16.156,27.559,15.584,26.857,15.584z M3.604,1.474h5.931l1.837,5.442H1.764  L3.604,1.474z M23.202,15.574c-0.35,0-0.659,0.129-0.901,0.369c-0.242,0.241-0.376,0.562-0.376,0.902v2.737h-6.547l0.002-2.725  c0-0.702-0.572-1.274-1.272-1.274l-1.973-0.005l-0.002-0.711c-0.002-0.022-0.185-2.245,1.323-3.896  c1.103-1.208,2.852-1.82,5.196-1.82c2.338,0,4.086,0.609,5.194,1.81c1.512,1.638,1.351,3.889,1.346,3.973v0.645L23.202,15.574z" style="fill: #44739e"></path></svg>