<svg id="feller-1628" xmlns="http://www.w3.org/2000/svg" x="0px" y="0px" width="28px" height="28px" xml:space="preserve"><path d="M27.25,14.718c-0.407,0-0.737,0.33-0.737,0.737v0.777c-0.514-0.313-1.24-0.705-2.155-1.104V9.767  c0-1.607-1.309-2.914-2.916-2.914h-1.181c1.258-0.556,2.141-1.811,2.141-3.271c0-1.975-1.606-3.581-3.58-3.581  c-1.977,0-3.585,1.606-3.585,3.581c0,1.461,0.884,2.716,2.144,3.271h-1.13c-0.894,0-1.7,0.413-2.254,1.04  c-0.553-0.627-1.36-1.04-2.253-1.04h-1.13c1.26-0.556,2.143-1.811,2.143-3.271C12.757,1.606,11.149,0,9.172,0  C7.199,0,5.594,1.606,5.594,3.581c0,1.461,0.882,2.716,2.139,3.271H6.552c-1.608,0-2.916,1.307-2.916,2.914v5.435  c-0.36,0.19-0.562,0.325-0.592,0.347c-0.333,0.231-0.415,0.688-0.185,1.022c0.231,0.334,0.689,0.417,1.024,0.188  c0.03-0.021,3.103-2.071,9.591-2.15c0.125-0.001,0.248-0.002,0.371-0.002c7.862,0,12.17,3.03,12.668,3.401v2.851H1.474v-5.411  c0-0.407-0.33-0.737-0.737-0.737S0,15.04,0,15.447v10.045c0,0.407,0.33,0.737,0.737,0.737s0.737-0.33,0.737-0.737v-3.159h25.04  v3.159c0,0.407,0.33,0.737,0.737,0.737s0.737-0.33,0.737-0.737V15.455C27.988,15.048,27.658,14.718,27.25,14.718z M16.711,3.581  c0-1.162,0.946-2.107,2.11-2.107c1.161,0,2.105,0.945,2.105,2.107c0,1.161-0.944,2.105-2.105,2.105  C17.658,5.687,16.711,4.742,16.711,3.581z M7.067,3.581c0-1.162,0.944-2.107,2.104-2.107c1.164,0,2.111,0.945,2.111,2.107  c0,1.161-0.947,2.105-2.111,2.105C8.012,5.687,7.067,4.742,7.067,3.581z M16.25,8.326h5.191c0.795,0,1.441,0.646,1.441,1.44v4.783  c-2.04-0.712-4.764-1.321-8.147-1.403l-0.001-3.38c0-0.004-0.001-0.009-0.001-0.013C14.742,8.992,15.447,8.326,16.25,8.326z   M5.11,9.767c0-0.794,0.647-1.44,1.442-1.44h5.192c0.803,0,1.508,0.666,1.516,1.427c0,0.004-0.001,0.009-0.001,0.013  c0,0.005,0.003,0.009,0.003,0.015l0.001,3.36c-3.803,0.069-6.492,0.771-8.152,1.402V9.767z" style="fill: #44739e"></path></svg>