<svg id="feller-1631" xmlns="http://www.w3.org/2000/svg" x="0px" y="0px" width="23px" height="28px" viewBox="0 -1.189 23 28" xml:space="preserve"><path d="M22.036,0c-0.407,0-0.737,0.33-0.737,0.737V3.64c-1.61-0.91-4.943-2.332-9.993-2.259c-5.53,0.066-8.148,1.845-8.257,1.921  C2.716,3.534,2.635,3.99,2.865,4.324s0.687,0.419,1.023,0.19c0.023-0.016,2.405-1.599,7.436-1.659  c5.782-0.053,9.163,1.972,9.975,2.524v3.743H1.474V0.737C1.474,0.33,1.144,0,0.737,0S0,0.33,0,0.737v25.042  c0,0.407,0.33,0.737,0.737,0.737s0.737-0.33,0.737-0.737v-1.935h19.825v1.935c0,0.407,0.33,0.737,0.737,0.737  s0.737-0.33,0.737-0.737V0.737C22.773,0.33,22.443,0,22.036,0z M1.474,22.37V10.595h19.825v6.284  c-1.611-0.9-4.946-2.311-9.993-2.271c-5.53,0.066-8.148,1.846-8.257,1.922c-0.333,0.231-0.415,0.688-0.185,1.021  s0.687,0.418,1.023,0.19c0.023-0.017,2.405-1.599,7.436-1.659c0.099-0.002,0.195-0.002,0.292-0.002c5.607,0,8.886,1.979,9.683,2.525  v3.764H1.474z" style="fill: #44739e"></path></svg>