<svg id="feller-1634" xmlns="http://www.w3.org/2000/svg" x="0px" y="0px" width="23px" height="28px" viewBox="-0.036 -0.096 23 28" xml:space="preserve"><path d="M19.004,24.43c2.65-1.847,3.729-5.247,3.921-7.344c0.024-0.28-0.069-0.559-0.257-0.763  c-0.188-0.205-0.455-0.322-0.735-0.322H10.071c-0.004,0-0.007,0.002-0.01,0.002s-0.006-0.002-0.01-0.002H0.996  c-0.28,0-0.548,0.117-0.735,0.322c-0.188,0.204-0.281,0.482-0.256,0.765c0.178,1.956,1.134,5.047,3.416,6.952l-0.993,3.145  c-0.123,0.388,0.093,0.802,0.481,0.925c0.074,0.023,0.148,0.034,0.222,0.034c0.313,0,0.604-0.201,0.703-0.516l0.863-2.733  c0.983,0.513,2.143,0.831,3.518,0.831h6.322c0.032,0,0.06-0.015,0.091-0.019c0.031,0.004,0.059,0.019,0.091,0.019  c1.127,0,2.11-0.211,2.971-0.568l0.78,2.471c0.1,0.314,0.39,0.516,0.703,0.516c0.073,0,0.148-0.011,0.222-0.034  c0.389-0.123,0.604-0.537,0.481-0.925L19.004,24.43z M1.543,17.476h8.507c0.004,0,0.007-0.002,0.01-0.002s0.006,0.002,0.01,0.002  h11.315c-0.277,1.68-1.544,6.775-6.67,6.775c-0.032,0-0.06,0.015-0.091,0.019c-0.031-0.004-0.059-0.019-0.091-0.019H8.212  C3.102,24.251,1.825,19.152,1.543,17.476z M2.208,14.95c0.407,0,0.737-0.33,0.737-0.737V2.969c0-0.825,0.671-1.496,1.496-1.496c0.528,0,1.006,0.27,1.28,0.72  c0.03,0.05,0.074,0.083,0.113,0.123c0.009,0.019,0.009,0.039,0.02,0.057l1.078,1.858L5.021,5.296  C4.665,5.494,4.538,5.943,4.735,6.298C4.87,6.541,5.121,6.677,5.38,6.677c0.122,0,0.245-0.03,0.358-0.093l4.732-2.635  c0.356-0.198,0.483-0.647,0.286-1.002c-0.198-0.356-0.647-0.483-1.002-0.286L8.22,3.515l-1.091-1.88  C7.097,1.578,7.049,1.538,7.005,1.494c-0.01-0.021-0.011-0.045-0.024-0.066C6.438,0.534,5.488,0,4.441,0  C2.804,0,1.472,1.332,1.472,2.969v11.244C1.472,14.62,1.801,14.95,2.208,14.95z M8.085,8.323L7.908,7.831C7.769,7.446,7.347,7.247,6.964,7.385C6.583,7.524,6.383,7.946,6.521,8.329L6.7,8.823  c0.138,0.383,0.56,0.58,0.942,0.443C8.025,9.127,8.224,8.706,8.085,8.323z M8.834,14.744c0.138,0.383,0.56,0.582,0.943,0.443s0.581-0.561,0.443-0.945l-0.179-0.492  c-0.138-0.383-0.56-0.582-0.941-0.443c-0.385,0.139-0.582,0.561-0.444,0.943L8.834,14.744z M7.767,11.784c0.137,0.383,0.56,0.582,0.943,0.443s0.58-0.561,0.443-0.943L8.976,10.79  c-0.139-0.383-0.561-0.582-0.943-0.443c-0.384,0.139-0.582,0.561-0.444,0.943L7.767,11.784z M12.628,9.395c0.246,0.324,0.707,0.389,1.032,0.143c0.325-0.248,0.387-0.711,0.14-1.033l-0.315-0.418  c-0.246-0.324-0.71-0.387-1.034-0.143c-0.324,0.248-0.387,0.709-0.141,1.035L12.628,9.395z M14.531,11.901c0.246,0.326,0.709,0.389,1.033,0.143s0.387-0.709,0.141-1.033l-0.316-0.418  c-0.247-0.324-0.709-0.389-1.033-0.141c-0.324,0.246-0.387,0.707-0.141,1.031L14.531,11.901z M10.408,6.471l0.316,0.418c0.246,0.324,0.709,0.387,1.033,0.141s0.387-0.709,0.141-1.033l-0.316-0.418  c-0.247-0.324-0.709-0.387-1.033-0.141C10.223,5.684,10.16,6.147,10.408,6.471z M11.27,10.969c0.358-0.195,0.489-0.643,0.294-1l-0.252-0.461c-0.194-0.357-0.641-0.488-1-0.293  c-0.357,0.195-0.488,0.643-0.293,0.998l0.252,0.461C10.464,11.032,10.913,11.165,11.27,10.969z M9.763,8.206c0.357-0.193,0.489-0.641,0.293-1l-0.25-0.461c-0.195-0.355-0.643-0.488-1-0.293s-0.489,0.643-0.294,1  l0.251,0.461C8.958,8.27,9.406,8.401,9.763,8.206z M11.527,12.977l0.25,0.46c0.195,0.357,0.643,0.49,1,0.295c0.357-0.193,0.49-0.642,0.294-1l-0.251-0.461  c-0.195-0.357-0.643-0.49-1-0.295C11.462,12.174,11.332,12.62,11.527,12.977z" style="fill: #44739e"></path></svg>