<svg id="feller-1635" xmlns="http://www.w3.org/2000/svg" x="0px" y="0px" width="23px" height="28px" xml:space="preserve"><path d="M13.547,22.273c-0.135-0.377-0.493-0.629-0.893-0.629c-0.109,0-0.218,0.018-0.322,0.057  c-0.495,0.178-0.754,0.725-0.576,1.221l0.28,0.777c0.171,0.48,0.73,0.752,1.22,0.572c0.493-0.176,0.751-0.727,0.574-1.223  L13.547,22.273z M12.147,18.388l-0.278-0.779c-0.137-0.377-0.496-0.631-0.896-0.631c-0.109,0-0.218,0.02-0.323,0.057  c-0.241,0.088-0.434,0.264-0.542,0.494c-0.108,0.229-0.119,0.488-0.032,0.727l0.279,0.779c0.171,0.479,0.731,0.75,1.221,0.572  C12.067,19.429,12.324,18.882,12.147,18.388z M10.431,14.451c0.109-0.23,0.121-0.488,0.034-0.728l-0.28-0.775c-0.137-0.379-0.496-0.634-0.896-0.634  c-0.109,0-0.218,0.02-0.322,0.058c-0.494,0.18-0.752,0.727-0.575,1.22l0.282,0.777c0.173,0.48,0.73,0.746,1.219,0.574  C10.13,14.857,10.323,14.681,10.431,14.451z M14.667,9.274c-0.206,0.154-0.336,0.379-0.371,0.633c-0.034,0.252,0.033,0.501,0.188,0.703l0.499,0.659  c0.309,0.407,0.93,0.49,1.335,0.182c0.204-0.153,0.334-0.378,0.369-0.631c0.034-0.253-0.032-0.503-0.186-0.706l-0.499-0.658  c-0.183-0.239-0.459-0.377-0.76-0.377C15.034,9.079,14.834,9.147,14.667,9.274z M22.5,18.011L22,17.353c-0.182-0.24-0.46-0.377-0.761-0.377c-0.209,0-0.408,0.066-0.575,0.195  c-0.417,0.316-0.499,0.916-0.181,1.334l0.498,0.658c0.309,0.408,0.929,0.494,1.336,0.186C22.736,19.031,22.817,18.431,22.5,18.011z M19.001,13.406c-0.182-0.24-0.459-0.376-0.763-0.376c-0.209,0-0.408,0.066-0.576,0.191c-0.416,0.32-0.498,0.921-0.18,1.339  l0.501,0.654c0.308,0.408,0.924,0.494,1.335,0.186c0.203-0.154,0.334-0.379,0.367-0.633c0.035-0.252-0.032-0.5-0.187-0.703  L19.001,13.406z M17.937,19.974c-0.168-0.309-0.489-0.498-0.839-0.498c-0.157,0-0.314,0.039-0.454,0.115  c-0.458,0.254-0.629,0.834-0.38,1.295l0.395,0.725c0.246,0.447,0.847,0.629,1.292,0.383c0.225-0.121,0.388-0.322,0.461-0.566  c0.072-0.246,0.045-0.504-0.078-0.727L17.937,19.974z M15.56,15.619c-0.166-0.305-0.484-0.494-0.834-0.494c-0.158,0-0.316,0.039-0.458,0.115  c-0.224,0.123-0.386,0.324-0.457,0.568s-0.044,0.5,0.078,0.723l0.397,0.727c0.241,0.447,0.846,0.631,1.29,0.383  c0.226-0.123,0.389-0.324,0.461-0.568c0.071-0.244,0.043-0.502-0.079-0.727L15.56,15.619z M12.351,10.771c-0.158,0-0.315,0.04-0.454,0.116c-0.224,0.122-0.387,0.324-0.46,0.568c-0.071,0.244-0.044,0.502,0.078,0.726  l0.396,0.726c0.244,0.447,0.846,0.625,1.293,0.379c0.224-0.121,0.387-0.321,0.459-0.564c0.072-0.244,0.044-0.504-0.079-0.729  l-0.395-0.726C13.021,10.961,12.699,10.771,12.351,10.771z M15.53,4.33c-0.263-0.474-0.725-0.834-1.267-0.989c-0.544-0.156-1.126-0.093-1.598,0.169L9.889,5.036L8.232,2.347  L8.039,2.084C7.245,0.779,5.859,0,4.333,0C1.944,0,0,1.943,0,4.333v22.384c0,0.407,0.33,0.737,0.737,0.737s0.737-0.33,0.737-0.737  V4.333c0-1.576,1.283-2.859,2.86-2.859c1.007,0,1.921,0.515,2.479,1.426l2.167,3.467c0.077,0.125,0.19,0.207,0.314,0.266  C9.508,6.757,9.777,6.78,10.01,6.652L13.378,4.8c0.138-0.075,0.313-0.09,0.48-0.042c0.168,0.048,0.308,0.152,0.383,0.289  c0.17,0.304,0.06,0.69-0.242,0.859L6.794,9.867c-0.308,0.168-0.701,0.051-0.867-0.245C5.845,9.476,5.826,9.306,5.872,9.143  C5.918,8.979,6.025,8.844,6.17,8.764l1.404-0.771c0.356-0.196,0.487-0.644,0.291-1.001C7.669,6.635,7.222,6.503,6.864,6.7  L5.457,7.474C4.964,7.748,4.608,8.198,4.454,8.741C4.3,9.282,4.366,9.851,4.641,10.342c0.373,0.667,1.079,1.081,1.841,1.081  c0.354,0,0.708-0.091,1.022-0.264l7.21-3.965C15.73,6.627,16.094,5.341,15.53,4.33z" style="fill: #44739e"></path></svg>