<svg id="feller-1638" xmlns="http://www.w3.org/2000/svg" x="0px" y="0px" width="25px" height="28px" xml:space="preserve"><path d="M11.345,15.455H0.861c-0.25,0-0.486,0.107-0.649,0.293c-0.163,0.187-0.238,0.435-0.205,0.681l1.199,9.128  c0.059,0.445,0.442,0.781,0.891,0.781h8.015c0.449,0,0.832-0.336,0.891-0.782l1.196-9.126c0.033-0.247-0.042-0.495-0.205-0.682  C11.831,15.563,11.594,15.455,11.345,15.455z M9.606,24.863H2.602L1.56,16.93h9.086L9.606,24.863z M24.579,25.011c-0.012-0.013-1.153-1.268-1.123-4.684c-0.005-2.087-0.596-3.814-1.663-4.866  c-0.59-0.58-1.303-0.934-2.124-1.08V0.851c0-0.47-0.381-0.851-0.851-0.851s-0.851,0.381-0.851,0.851v13.552  c-0.786,0.154-1.481,0.498-2.052,1.059c-1.067,1.052-1.658,2.779-1.663,4.875c0.031,3.37-1.086,4.635-1.122,4.674  c-0.281,0.287-0.28,0.748,0.004,1.034c0.144,0.145,0.333,0.218,0.523,0.218c0.188,0,0.376-0.071,0.52-0.214  c0.162-0.162,1.586-1.693,1.55-5.717c0.003-1.666,0.449-3.059,1.223-3.82c0.492-0.484,1.11-0.724,1.883-0.731  c0.753-0.029,1.425,0.238,1.926,0.731c0.773,0.762,1.22,2.154,1.223,3.812c-0.034,4.032,1.388,5.563,1.55,5.725  c0.143,0.142,0.327,0.212,0.513,0.212s0.372-0.07,0.516-0.211C24.848,25.768,24.854,25.304,24.579,25.011z M17.521,19.512c-0.407,0-0.737,0.33-0.737,0.737v5.322c0,0.407,0.33,0.737,0.737,0.737s0.737-0.33,0.737-0.737v-5.322  C18.258,19.842,17.928,19.512,17.521,19.512z M20.216,19.512c-0.407,0-0.737,0.33-0.737,0.737v5.322c0,0.407,0.33,0.737,0.737,0.737s0.737-0.33,0.737-0.737v-5.322  C20.954,19.842,20.624,19.512,20.216,19.512z M2.09,14.756c0.407,0,0.737-0.33,0.737-0.737v-0.795c0-1.797,1.463-3.26,3.26-3.26c1.798,0,3.261,1.462,3.261,3.26v0.795  c0,0.407,0.33,0.737,0.737,0.737s0.737-0.33,0.737-0.737v-0.795c0-2.61-2.124-4.733-4.735-4.733c-2.61,0-4.734,2.123-4.734,4.733  v0.795C1.353,14.426,1.683,14.756,2.09,14.756z" style="fill: #44739e"></path></svg>