<svg id="feller-1639" xmlns="http://www.w3.org/2000/svg" x="0px" y="0px" width="28px" height="28px" viewBox="0 -0.667 28 28" xml:space="preserve"><path d="M27.535,11.889L15.418,0.433c-0.599-0.567-1.636-0.579-2.249-0.025l-4.185,3.78V1.954c0-0.874-0.711-1.585-1.589-1.585  l-0.87,0.002c-0.874,0.002-1.585,0.716-1.585,1.59v4.814c0,0.271-0.195,0.742-0.385,0.934l-4.152,4.177  c-0.536,0.539-0.411,1.039-0.332,1.229c0.079,0.189,0.345,0.631,1.105,0.631h3.135c0.061,0,0.114,0.053,0.114,0.114v11.416  c0,0.875,0.712,1.588,1.587,1.588h16.32c0.875,0,1.588-0.713,1.588-1.588V13.86c0-0.061,0.053-0.114,0.113-0.114h2.762  c0.768,0,1.027-0.444,1.104-0.636C27.975,12.919,28.092,12.417,27.535,11.889z M24.034,12.272c-0.875,0-1.588,0.712-1.588,1.587  v11.416c0,0.061-0.053,0.113-0.113,0.113H6.013c-0.061,0-0.114-0.053-0.114-0.113V13.86c0-0.875-0.712-1.587-1.587-1.587L2.1,12.271  l3.501-3.522c0.464-0.467,0.814-1.315,0.814-1.973V1.961c0-0.062,0.054-0.116,0.115-0.116L7.4,1.843  c0.059,0,0.111,0.052,0.111,0.111v3.044c0,0.287,0.065,0.535,0.194,0.735c0.186,0.289,0.486,0.455,0.824,0.455  c0.202,0,0.512-0.063,0.844-0.363l4.785-4.324c0.058-0.053,0.191-0.052,0.249,0.003l11.385,10.769H24.034z M11.495,13.977v-2.471c0-0.407-0.33-0.737-0.737-0.737H7.55c-0.407,0-0.737,0.33-0.737,0.737s0.33,0.737,0.737,0.737h2.471  v2.471c0,0.407,0.33,0.737,0.737,0.737h2.469v2.442c0,0.407,0.33,0.737,0.737,0.737h2.471v2.471c0,0.407,0.33,0.737,0.737,0.737  h3.208c0.407,0,0.737-0.33,0.737-0.737s-0.33-0.737-0.737-0.737H17.91v-2.471c0-0.407-0.33-0.737-0.737-0.737h-2.471v-2.442  c0-0.407-0.33-0.737-0.737-0.737H11.495z" style="fill: #44739e"></path></svg>