<svg id="feller-1641" xmlns="http://www.w3.org/2000/svg" x="0px" y="0px" width="28px" height="28px" xml:space="preserve"><path d="M22.793,7.684c-0.413,0-0.811,0.059-1.196,0.148L18.53,0.007L14.831,0c0,0-0.001,0-0.001,0  c-0.406,0-0.736,0.329-0.737,0.735c-0.001,0.407,0.328,0.738,0.735,0.738l2.696,0.005l0.887,2.261h-8.375L9.482,2.506h0.982  c0.407,0,0.737-0.33,0.737-0.737s-0.33-0.737-0.737-0.737H6.381c-0.407,0-0.737,0.33-0.737,0.737s0.33,0.737,0.737,0.737h1.485  L8.75,4.474L6.604,7.865C6.185,7.758,5.753,7.684,5.301,7.684C2.378,7.684,0,10.062,0,12.985c0,2.932,2.378,5.316,5.301,5.316  c2.256,0,4.27-1.433,5.01-3.564c0.113-0.327,0.183-0.674,0.23-1.025h3.925c0.316,0,0.58-0.2,0.686-0.479  c0.011-0.017,0.031-0.023,0.041-0.042l4.056-7.31l0.978,2.495c-1.621,0.908-2.733,2.622-2.733,4.609c0,2.932,2.378,5.316,5.3,5.316  c2.924,0,5.304-2.385,5.304-5.316C28.097,10.062,25.717,7.684,22.793,7.684z M10.025,5.214h7.908l-3.896,7.023h-3.51  c-0.232-1.621-1.189-2.996-2.542-3.798L10.025,5.214z M8.918,14.253c-0.534,1.539-1.988,2.573-3.617,2.573  c-2.11,0-3.828-1.724-3.828-3.842c0-2.11,1.717-3.828,3.828-3.828c1.854,0,3.403,1.327,3.752,3.08H5.295  c-0.407,0-0.737,0.33-0.737,0.737s0.33,0.737,0.737,0.737h3.76C9.021,13.897,8.979,14.081,8.918,14.253z M22.793,16.827  c-2.109,0-3.825-1.724-3.825-3.842c0-1.364,0.722-2.555,1.799-3.233l1.372,3.501c0.114,0.291,0.393,0.469,0.687,0.469  c0.09,0,0.181-0.017,0.269-0.051c0.379-0.148,0.566-0.576,0.418-0.955l-1.369-3.493c0.212-0.037,0.428-0.066,0.65-0.066  c2.111,0,3.829,1.717,3.829,3.828C26.623,15.103,24.905,16.827,22.793,16.827z" style="fill: #44739e"></path></svg>