<svg id="feller-1643" xmlns="http://www.w3.org/2000/svg" x="0px" y="0px" width="28px" height="28px" xml:space="preserve"><path d="M28.035,12.578c0.087-1.739-1.191-2.645-1.48-2.827l-2.506-1.91l-5.423-6.259l-0.173-0.066  C10.417-1.568,3.445,0.959,2.694,1.25C2.083,1.407,1.626,1.979,1.62,2.62L1.618,7.776h-0.32C0.582,7.776,0,8.358,0,9.074v6.279  c0,0.716,0.582,1.298,1.297,1.298h1.27c0.439,1.624,1.911,2.83,3.672,2.83s3.233-1.206,3.672-2.83h8.179  c0.439,1.624,1.912,2.83,3.674,2.83s3.233-1.206,3.673-2.83h1.434c0.428,0,0.692-0.18,0.84-0.331  c0.227-0.233,0.337-0.558,0.326-0.944L28.035,12.578z M6.24,18.007c-1.293,0-2.345-1.052-2.345-2.345s1.052-2.345,2.345-2.345  s2.345,1.052,2.345,2.345S7.533,18.007,6.24,18.007z M21.765,18.007c-1.294,0-2.346-1.052-2.346-2.345s1.052-2.345,2.346-2.345  c1.293,0,2.345,1.052,2.345,2.345S23.058,18.007,21.765,18.007z M25.536,15.177c-0.242-1.875-1.831-3.334-3.771-3.334  c-1.94,0-3.529,1.459-3.771,3.334h-7.984c-0.241-1.875-1.83-3.334-3.77-3.334s-3.528,1.459-3.77,3.334H1.474V9.25h0.615  c0.047,0,0.088-0.018,0.133-0.027C2.266,9.231,2.307,9.25,2.354,9.25h0c0.407,0,0.737-0.33,0.737-0.736L3.054,2.68l0.135-0.04  c0.067-0.028,6.866-2.69,14.564,0.188l4.317,4.981H5.389c-0.407,0-0.737,0.33-0.737,0.737s0.33,0.737,0.737,0.737H23.53l2.16,1.664  l0.085,0.056c0.009,0.005,0.838,0.501,0.786,1.54l0.001,2.635H25.536z" style="fill: #44739e"></path></svg>