<svg id="feller-1644" xmlns="http://www.w3.org/2000/svg" x="0px" y="0px" width="28px" height="28px" xml:space="preserve"><path d="M27.418,20.642H22.95c0.017-0.061,0.038-0.12,0.038-0.187v-4.516c0.021-0.001,0.039-0.01,0.061-0.013  c0.04,0.007,0.079,0.016,0.119,0.016c0.328,0,0.628-0.222,0.713-0.556l1.375-5.4c0.101-0.394-0.138-0.795-0.532-0.896  c-0.388-0.102-0.795,0.137-0.896,0.533l-1.233,4.844h-6.497c-0.407,0-0.737,0.33-0.737,0.737s0.33,0.737,0.737,0.737h0.291v4.699  H9.831V12.93c0-0.005-0.002-0.008-0.002-0.013h5.032c0.407,0,0.737-0.33,0.737-0.737s-0.33-0.737-0.737-0.737H3.406  c-0.407,0-0.737,0.33-0.737,0.737s0.33,0.737,0.737,0.737H8.36c0,0.005-0.002,0.008-0.002,0.013v7.712H0.737  C0.33,20.642,0,20.972,0,21.379s0.33,0.737,0.737,0.737h26.682c0.407,0,0.737-0.33,0.737-0.737S27.826,20.642,27.418,20.642z   M17.863,15.942h3.65v4.513c0,0.066,0.021,0.126,0.038,0.187h-3.688V15.942z M3.479,5.311c1.084,0,2.04-0.522,2.659-1.318c0.62,0.796,1.577,1.318,2.661,1.318c1.074,0,2.022-0.513,2.643-1.296  c0.621,0.783,1.568,1.296,2.643,1.296c1.085,0,2.041-0.522,2.661-1.318c0.62,0.796,1.576,1.318,2.661,1.318s2.042-0.522,2.662-1.319  c0.62,0.796,1.577,1.319,2.662,1.319c1.865,0,3.384-1.519,3.384-3.386V0.737C28.115,0.33,27.785,0,27.377,0S26.64,0.33,26.64,0.737  v1.188c0,1.055-0.856,1.913-1.909,1.913c-1.054,0-1.911-0.858-1.911-1.913c0-0.048-0.019-0.09-0.027-0.135V0.786  c0-0.407-0.33-0.737-0.737-0.737s-0.737,0.33-0.737,0.737v1.139c0,1.055-0.857,1.913-1.911,1.913s-1.911-0.858-1.911-1.913  c0-0.044-0.018-0.083-0.025-0.126V0.751c0-0.407-0.33-0.737-0.737-0.737s-0.737,0.33-0.737,0.737v1.173  c0,1.055-0.857,1.913-1.911,1.913c-1.034,0-1.875-0.827-1.906-1.854c0-0.02,0.006-0.038,0.006-0.058V0.766  c0-0.407-0.33-0.737-0.737-0.737s-0.737,0.33-0.737,0.737v1.1c-0.001,0.02-0.012,0.038-0.012,0.058c0,0.02,0.005,0.038,0.006,0.058  C10.674,3.01,9.833,3.837,8.799,3.837c-1.054,0-1.912-0.858-1.912-1.913c0-0.044-0.018-0.083-0.025-0.126V0.751  c0-0.407-0.33-0.737-0.737-0.737s-0.737,0.33-0.737,0.737v1.173c0,1.055-0.857,1.913-1.91,1.913c-1.054,0-1.912-0.858-1.912-1.913  V0.737C1.567,0.33,1.238,0,0.831,0S0.094,0.33,0.094,0.737v1.188C0.094,3.792,1.612,5.311,3.479,5.311z" style="fill: #44739e"></path></svg>