<svg id="feller-1645" xmlns="http://www.w3.org/2000/svg" x="0px" y="0px" width="28px" height="28px" viewBox="0 -0.29 28 28" xml:space="preserve"><path d="M27.162,26.086h-3.171v-4.643c0.018-0.001,0.033-0.009,0.051-0.011c0.04,0.007,0.08,0.016,0.119,0.016  c0.328,0,0.628-0.222,0.713-0.555l1.361-5.321c0.101-0.395-0.137-0.796-0.531-0.896c-0.396-0.102-0.796,0.137-0.896,0.531  l-1.22,4.767h-6.426c-0.407,0-0.737,0.33-0.737,0.737s0.33,0.737,0.737,0.737h0.28v4.638h-2.514V14.797  c0-0.407-0.33-0.737-0.737-0.737s-0.737,0.33-0.737,0.737v11.289H7.058V18.48c0-0.001,0-0.001,0-0.002h4.643  c0.407,0,0.737-0.33,0.737-0.737s-0.33-0.737-0.737-0.737H0.737C0.33,17.003,0,17.333,0,17.741s0.33,0.737,0.737,0.737h4.848  c0,0.001,0,0.001,0,0.002v7.606H0.747c-0.407,0-0.737,0.33-0.737,0.737s0.33,0.737,0.737,0.737h26.416  c0.407,0,0.737-0.33,0.737-0.737S27.569,26.086,27.162,26.086z M18.917,21.449h3.6v4.638h-3.6V21.449z M2.15,10.381c0,1.659,1.401,3.06,3.059,3.06c0.927,0,1.747-0.427,2.303-1.084c0.556,0.657,1.377,1.084,2.304,1.084  c0.918,0,1.732-0.419,2.288-1.066c0.556,0.647,1.37,1.066,2.289,1.066c0.926,0,1.747-0.427,2.302-1.085  c0.557,0.658,1.378,1.085,2.305,1.085c0.928,0,1.748-0.428,2.305-1.086c0.557,0.658,1.377,1.086,2.305,1.086  c0.407,0,0.737-0.33,0.737-0.737s-0.33-0.737-0.737-0.737c-0.858,0-1.556-0.698-1.556-1.556c0-0.041-0.017-0.077-0.023-0.116V9.822  c0-0.407-0.33-0.737-0.737-0.737s-0.737,0.33-0.737,0.737v0.589c0,0.858-0.697,1.556-1.556,1.556s-1.556-0.698-1.556-1.556  c0-0.041-0.017-0.077-0.023-0.116V9.792c0-0.407-0.33-0.737-0.737-0.737s-0.737,0.33-0.737,0.737v0.619  c0,0.858-0.696,1.556-1.553,1.556c-0.842,0-1.525-0.673-1.552-1.508c0-0.017,0.005-0.032,0.005-0.048V9.805  c0-0.407-0.33-0.737-0.737-0.737s-0.737,0.33-0.737,0.737v0.558c-0.001,0.017-0.01,0.031-0.01,0.048  c0,0.017,0.004,0.032,0.005,0.048c-0.026,0.835-0.71,1.508-1.551,1.508c-0.858,0-1.557-0.698-1.557-1.556  c0-0.037-0.016-0.069-0.021-0.104V9.792c0-0.407-0.33-0.737-0.737-0.737s-0.737,0.33-0.737,0.737v0.619  c0,0.858-0.698,1.556-1.556,1.556c-0.859,0-1.585-0.727-1.585-1.586c0-0.035-0.015-0.065-0.02-0.098  c0.002-0.023,0.014-0.044,0.014-0.068l0.013-0.338c0.107-4.633,4.84-8.403,10.551-8.403c5.82,0,10.555,3.844,10.555,8.568v0.991  c0,0.407,0.33,0.737,0.737,0.737s0.737-0.33,0.737-0.737v-0.991C26.212,4.505,20.815,0,14.182,0C7.677,0,2.283,4.415,2.154,9.927  c-0.004,0.104-0.009,0.24-0.009,0.287c0,0.033,0.016,0.063,0.021,0.095C2.162,10.334,2.15,10.355,2.15,10.381z" style="fill: #44739e"></path></svg>