<svg id="feller-1960" xmlns="http://www.w3.org/2000/svg" x="0px" y="0px" width="21.6px" height="28px" viewBox="0 0 21.6 28" xml:space="preserve"><path d="M21.3,15.1c-0.2-0.2-0.4-0.3-0.7-0.3H9.5c0,0,0,0,0,0c0,0,0,0,0,0H7.1v-1.5c0-0.4-0.3-0.7-0.7-0.7s-0.7,0.3-0.7,0.7v1.5H1  c-0.3,0-0.5,0.1-0.7,0.3C0.1,15.3,0,15.6,0,15.9C0.2,18.6,2,23.5,7,24c0.2,1.4,1,3.2,2.9,3.2h1.8c0,0,0,0,0,0c0,0,0,0,0,0  c0.7,0,1.3-0.3,1.8-0.8c0.3-0.3,0.2-0.8-0.1-1c-0.3-0.3-0.8-0.2-1,0.1c-0.2,0.2-0.4,0.3-0.7,0.3c0,0,0,0,0,0c0,0,0,0,0,0H9.8  c-0.8,0-1.2-1-1.3-1.7h5.2c0,0,0.1,0,0.1,0c0,0,0.1,0,0.1,0c5.5,0,7.5-5.3,7.7-8.1C21.6,15.6,21.5,15.3,21.3,15.1z M13.8,22.6  C13.8,22.6,13.8,22.6,13.8,22.6c-0.1,0-0.1,0-0.2,0H7.7c-4.7,0-5.9-4.6-6.2-6.3h7.9c0,0,0,0,0,0c0,0,0,0,0,0H20  C19.8,17.9,18.5,22.6,13.8,22.6z M10.8,13.8c0.4,0,0.7-0.3,0.7-0.7V3.7c0-0.8,0.7-1.5,1.5-1.5c0.5,0,1,0.1,1.4,1.1l0.7,2.1c0.1,0.4,0.5,0.6,0.9,0.5  c0.4-0.1,0.6-0.5,0.5-0.9l-0.7-2.1c-0.5-1.4-1.5-2.1-2.8-2.1c-1.7,0-3,1.3-3,3v9.3C10.1,13.5,10.4,13.8,10.8,13.8z M16.1,8.2l0.1,0.4c0.1,0.3,0.4,0.5,0.7,0.5c0.1,0,0.2,0,0.2,0c0.4-0.1,0.6-0.5,0.5-0.9l-0.1-0.4c-0.1-0.4-0.5-0.6-0.9-0.5  C16.1,7.4,15.9,7.9,16.1,8.2z M17,11.2l0.1,0.4c0.1,0.3,0.4,0.5,0.7,0.5c0.1,0,0.2,0,0.2,0c0.4-0.1,0.6-0.5,0.5-0.9l-0.1-0.4c-0.1-0.4-0.5-0.6-0.9-0.5  C17.1,10.4,16.9,10.8,17,11.2z" style="fill: #44739e"></path></svg>