<svg id="feller-1999" xmlns="http://www.w3.org/2000/svg" x="0px" y="0px" width="28.3px" height="28.3px" xml:space="preserve"><path d="M9.9,11.4c0-0.4-0.3-0.7-0.7-0.7H7.3c1.6-0.5,2.8-2,2.8-3.7c0.1-2.2-1.7-4-3.9-4C4.1,3,2.3,4.8,2.3,6.9   c0,1.8,1.2,3.3,2.8,3.7H3.3c-1.8,0-3.2,1.4-3.2,3.2v7.7c0,0.4,0.3,0.7,0.7,0.7c0.4,0,0.7-0.3,0.7-0.7v-7.7c0-0.9,0.8-1.7,1.7-1.7H9   C9.5,12.2,9.9,11.8,9.9,11.4z M3.8,6.9c0-1.3,1.1-2.4,2.4-2.4s2.4,1.1,2.4,2.4c0,1.3-1.1,2.4-2.4,2.4C4.9,9.4,3.8,8.3,3.8,6.9z M25,10.7h-1.8c1.6-0.5,2.8-2,2.8-3.7c0-2.2-1.8-3.9-3.9-3.9c-2.2,0-3.9,1.8-3.9,3.9c0,1.8,1.2,3.3,2.8,3.7h-1.8   c-0.4,0-0.7,0.3-0.7,0.7c0,0.4,0.3,0.7,0.7,0.7H25c0.9,0,1.8,0.8,1.8,1.7v7.7c0,0.4,0.3,0.7,0.7,0.7s0.7-0.3,0.7-0.7v-7.7   C28.3,12.1,26.8,10.7,25,10.7z M19.7,6.9c0-1.3,1.1-2.4,2.4-2.4c1.3,0,2.4,1.1,2.4,2.4c0,1.3-1.1,2.4-2.4,2.4   C20.8,9.4,19.7,8.3,19.7,6.9z M17.1,13.8h-1.8c1.6-0.5,2.8-2,2.8-3.7c0-2.2-1.8-3.9-3.9-3.9c-2.2,0-3.9,1.8-3.9,3.9c0,1.8,1.2,3.3,2.8,3.7h-1.8   c-1.8,0-3.2,1.4-3.2,3.2v7.7c0,0.4,0.3,0.7,0.7,0.7c0.4,0,0.7-0.3,0.7-0.7V17c0-0.9,0.8-1.7,1.7-1.7H17c0.9,0,1.8,0.8,1.8,1.7v7.7   c0,0.4,0.3,0.7,0.7,0.7s0.7-0.3,0.7-0.7V17C20.3,15.3,18.8,13.8,17.1,13.8z M11.8,10.1c0-1.3,1.1-2.4,2.4-2.4s2.4,1.1,2.4,2.4   s-1.1,2.4-2.4,2.4S11.8,11.4,11.8,10.1z" style="fill: #44739e"></path></svg>