<svg id="feller-1416" xmlns="http://www.w3.org/2000/svg" x="0px" y="0px" width="20px" height="28px" xml:space="preserve"><path d="M4.986,0C2.576,0,0,1.418,0,5.397c0,2.609,1.317,5.398,5.015,5.398c3.628,0,4.915-2.908,4.915-5.398S8.635,0,4.986,0z   M4.958,1.377c0.337,0,3.296,0.113,3.296,4.021c0,3.908-2.959,4.021-3.296,4.021c-1.933,0-3.282-1.584-3.282-3.851  c0-0.524,0.073-2.304,1.01-3.21C3.134,1.91,3.892,1.377,4.958,1.377z M19.78,0.239C19.624,0.085,19.416,0,19.196,0c-0.326,0-0.561,0.206-0.648,0.401c-0.122,0.225-0.115,0.417-0.103,0.835  l0.001,6.76l-4.78-7.137C13.277,0.27,13.101,0,12.61,0c-0.346,0-0.55,0.149-0.636,0.234c-0.316,0.284-0.316,0.522-0.316,1.229v8.098  c0,0.491,0,0.787,0.227,0.994c0.149,0.151,0.368,0.241,0.583,0.241c0.331,0,0.558-0.211,0.648-0.409  c0.098-0.213,0.098-0.355,0.098-0.827L13.21,2.9l4.7,7.017c0.419,0.622,0.593,0.879,1.106,0.879c0.24,0,0.457-0.078,0.646-0.233  c0.333-0.284,0.333-0.578,0.333-1.287v-8.04C19.996,0.745,20.006,0.449,19.78,0.239z" style="fill: #44739e"></path></svg>