<svg id="feller-1417" xmlns="http://www.w3.org/2000/svg" x="0px" y="0px" width="26px" height="28px" viewBox="0 -8.885 26 28" xml:space="preserve"><path d="M4.985,0C2.575,0,0,1.418,0,5.397c0,2.609,1.317,5.398,5.014,5.398c3.628,0,4.915-2.908,4.915-5.398S8.634,0,4.985,0z   M4.957,1.377c0.337,0,3.296,0.113,3.296,4.021S5.294,9.418,4.957,9.418c-1.933,0-3.282-1.583-3.282-3.85  c0-0.524,0.073-2.304,1.011-3.21C3.133,1.91,3.89,1.377,4.957,1.377z M17.342,0.17h-4.506c-1.099,0-1.277,0.179-1.277,1.278v8.083c0,0.513,0,0.795,0.217,1.029  c0.169,0.152,0.385,0.235,0.606,0.235c0.3,0,0.503-0.16,0.597-0.255c0.216-0.214,0.227-0.523,0.227-1.01V5.966h3.367  c0.393,0,1.051,0,1.051-0.696c0-0.681-0.658-0.681-1.051-0.681h-3.367V1.548h4.137c0.377,0,1.006,0,1.006-0.696  C18.348,0.17,17.693,0.17,17.342,0.17z M17.342,1.405L17.342,1.405L17.342,1.405L17.342,1.405z M25.479,1.548c0.377,0,1.006,0,1.006-0.696c0-0.682-0.654-0.682-1.006-0.682h-4.506c-1.099,0-1.277,0.179-1.277,1.278v8.083  c0,0.513,0,0.795,0.217,1.029c0.169,0.152,0.385,0.235,0.606,0.235c0.3,0,0.503-0.16,0.597-0.255  c0.216-0.214,0.227-0.523,0.227-1.01V5.966h3.367c0.393,0,1.051,0,1.051-0.696c0-0.681-0.658-0.681-1.051-0.681h-3.367V1.548H25.479  z M25.479,1.405L25.479,1.405L25.479,1.405L25.479,1.405z" style="fill: #44739e"></path></svg>