<svg id="feller-1486" xmlns="http://www.w3.org/2000/svg" x="0px" y="0px" width="26px" height="28px" xml:space="preserve"><path d="M21.289,1.544c-0.316-0.252-0.779-0.204-1.035,0.115L5.252,20.41c-0.254,0.317-0.203,0.781,0.115,1.035  c0.136,0.109,0.298,0.162,0.46,0.162c0.216,0,0.431-0.095,0.576-0.277l15-18.75C21.659,2.262,21.607,1.798,21.289,1.544z M5.789,11.574c0.407,0,0.737-0.33,0.737-0.737V6.524h4.312c0.407,0,0.737-0.33,0.737-0.737s-0.33-0.737-0.737-0.737H6.525  V0.737C6.525,0.33,6.196,0,5.789,0S5.052,0.33,5.052,0.737v4.314H0.737C0.33,5.051,0,5.38,0,5.788s0.33,0.737,0.737,0.737h4.315  v4.313C5.052,11.245,5.381,11.574,5.789,11.574z M25.113,14.987h-8.498c-0.407,0-0.737,0.33-0.737,0.737s0.33,0.737,0.737,0.737h8.498c0.407,0,0.737-0.33,0.737-0.737  S25.52,14.987,25.113,14.987z" style="fill: #44739e"></path></svg>