<svg id="feller-1675" xmlns="http://www.w3.org/2000/svg" x="0px" y="0px" width="22px" height="28px" xml:space="preserve"><path d="M16.195,22.76c-3.103,0-5.626-2.524-5.626-5.626s2.524-5.625,5.626-5.625c3.102,0,5.626,2.524,5.626,5.625  S19.296,22.76,16.195,22.76z M16.195,12.983c-2.29,0-4.152,1.862-4.152,4.151s1.862,4.151,4.152,4.151  c2.289,0,4.151-1.862,4.151-4.151S18.484,12.983,16.195,12.983z M0.736,21.484c-0.162,0-0.324-0.053-0.46-0.162c-0.318-0.254-0.369-0.718-0.115-1.035l15.001-18.75  c0.255-0.318,0.72-0.367,1.035-0.115c0.318,0.254,0.37,0.718,0.115,1.036l-15,18.75C1.167,21.389,0.953,21.484,0.736,21.484z M2.308,10.546c-0.407,0-0.737-0.33-0.737-0.737V0.737C1.571,0.33,1.901,0,2.308,0s0.737,0.33,0.737,0.737v9.072  C3.045,10.216,2.715,10.546,2.308,10.546z" style="fill: #44739e"></path></svg>