<svg id="feller-1678" xmlns="http://www.w3.org/2000/svg" x="0px" y="0px" width="26px" height="28px" viewBox="0 -5.954 26 28" xml:space="preserve"><path d="M12.798,14.302c-1.253,0-2.273-1.02-2.273-2.272s1.02-2.272,2.273-2.272c1.253,0,2.273,1.02,2.273,2.272  S14.051,14.302,12.798,14.302z M12.798,11.232c-0.44,0-0.799,0.357-0.799,0.798s0.359,0.798,0.799,0.798s0.799-0.357,0.799-0.798  S13.238,11.232,12.798,11.232z M18.334,10.556c-1.253,0-2.272-1.02-2.272-2.272c0-1.253,1.02-2.273,2.272-2.273s2.272,1.02,2.272,2.273  C20.606,9.537,19.587,10.556,18.334,10.556z M18.334,7.484c-0.44,0-0.798,0.359-0.798,0.799c0,0.44,0.357,0.798,0.798,0.798  s0.798-0.358,0.798-0.798C19.132,7.843,18.774,7.484,18.334,7.484z M16.678,17.033L16.678,17.033l-7.72-0.003c-0.373,0.02-1.191-0.091-1.952-0.947l-5.874-5.538  C0.615,10.063,0.014,9.395,0,8.526c-0.014-0.889,0.59-1.602,1.119-2.124l6.206-5.775C7.333,0.611,7.894,0,8.742,0h8.082  c0.849,0,1.409,0.611,1.47,0.681l6.14,5.706c0.545,0.538,1.149,1.251,1.135,2.14c-0.015,0.869-0.616,1.537-1.14,2.022l-5.913,5.58  C17.8,16.94,16.991,17.033,16.678,17.033z M16.609,15.555l0.068,0.004l0,0c0.063,0,0.396-0.022,0.781-0.455l5.963-5.632  c0.444-0.411,0.669-0.736,0.673-0.969c0.004-0.248-0.226-0.602-0.682-1.053l-6.175-5.744c-0.09-0.093-0.256-0.232-0.414-0.232H8.742  c-0.158,0-0.324,0.139-0.37,0.188L2.139,7.466C1.699,7.901,1.47,8.255,1.474,8.503C1.478,8.736,1.702,9.061,2.14,9.468l5.923,5.589  c0.429,0.479,0.763,0.502,0.826,0.502L16.609,15.555z M7.232,10.556c-1.253,0-2.272-1.02-2.272-2.272c0-1.253,1.019-2.273,2.272-2.273s2.272,1.02,2.272,2.273  C9.504,9.537,8.485,10.556,7.232,10.556z M7.232,7.484c-0.44,0-0.798,0.359-0.798,0.799c0,0.44,0.358,0.798,0.798,0.798  s0.798-0.358,0.798-0.798C8.031,7.843,7.672,7.484,7.232,7.484z" style="fill: #44739e"></path></svg>