<svg id="feller-1966" xmlns="http://www.w3.org/2000/svg" x="0px" y="0px" width="28px" height="28px" viewBox="0 0 28 28" xml:space="preserve"><path d="M27.7,5.1c-0.3-0.2-0.8-0.1-1,0.3l-4.1,6.8c-0.1,0.2-0.1,0.5,0,0.7c0.1,0.2,0.4,0.4,0.6,0.4l2.3,0l-4.2,7.3   c-0.2,0.4-0.1,0.8,0.3,1c0.1,0.1,0.2,0.1,0.4,0.1c0.3,0,0.5-0.1,0.6-0.4l4.9-8.4c0.1-0.2,0.1-0.5,0-0.7c-0.1-0.2-0.4-0.4-0.6-0.4   c0,0,0,0,0,0l-2.3,0l3.4-5.7C28.1,5.8,28,5.3,27.7,5.1z M21.1,13.7l-5.2-4.9c-0.1-0.1-0.6-0.6-1.3-0.6H7.6c-0.8,0-1.3,0.6-1.3,0.6L1,13.7c-0.5,0.5-1,1.1-1,1.9   c0,0.8,0.5,1.4,1,1.8l5,4.7C6.7,22.9,7.4,23,7.7,23c0.1,0,0.1,0,0.1,0l6.4,0c0.1,0,1,0.1,1.8-0.8l5.1-4.8c0.5-0.4,1-1,1-1.8   C22.1,14.8,21.5,14.2,21.1,13.7z M20.1,16.4l-5.1,4.8c-0.3,0.4-0.6,0.4-0.6,0.3l-6.6,0c0,0-0.3,0-0.6-0.4L2,16.4   c-0.4-0.4-0.5-0.6-0.5-0.7c0-0.1,0.1-0.3,0.5-0.8l5.3-5c0,0,0.1-0.1,0.2-0.1h6.9c0.1,0,0.2,0.1,0.3,0.2l5.3,4.9   c0.5,0.5,0.6,0.7,0.6,0.8C20.6,15.7,20.5,16,20.1,16.4z M15.8,14.1c-0.8,0-1.5,0.7-1.5,1.5s0.7,1.5,1.5,1.5c0.8,0,1.5-0.7,1.5-1.5S16.6,14.1,15.8,14.1z M6.2,14.1c-0.8,0-1.5,0.7-1.5,1.5c0,0.8,0.7,1.5,1.5,1.5s1.5-0.7,1.5-1.5C7.7,14.8,7,14.1,6.2,14.1z" style="fill: #44739e"></path></svg>