<svg id="feller-1418" xmlns="http://www.w3.org/2000/svg" x="0px" y="0px" width="19px" height="28px" viewBox="0 -1.326 19 28" xml:space="preserve"><path d="M18.961,0.737c0-0.225-0.103-0.437-0.278-0.577c-0.175-0.14-0.403-0.192-0.624-0.142L0.572,4.042  C0.237,4.119,0,4.417,0,4.76v11.192c0,0.407,0.33,0.737,0.737,0.737s0.737-0.33,0.737-0.737V5.347l16.013-3.684v22.353L0.903,20.198  C0.505,20.1,0.11,20.354,0.019,20.751c-0.091,0.396,0.156,0.792,0.553,0.883l17.487,4.025c0.055,0.013,0.11,0.02,0.165,0.02  c0.165,0,0.327-0.056,0.459-0.161c0.176-0.14,0.278-0.352,0.278-0.576V0.737z M12.512,19.856h0.222c0.512,0,0.767-0.272,0.767-0.8V9.469c0-0.527-0.255-0.8-0.767-0.8h-1.091l-2.846,1.976  c-0.392,0.271-0.443,0.596-0.205,0.97l0.119,0.188c0.239,0.375,0.597,0.409,0.972,0.137l2.079-1.499v8.617  C11.762,19.584,12.018,19.856,12.512,19.856z" style="fill: #44739e"></path></svg>