<svg id="feller-1419" xmlns="http://www.w3.org/2000/svg" x="0px" y="0px" width="19px" height="28px" viewBox="0 -1.326 19 28" xml:space="preserve"><path d="M18.96,0.737c0-0.225-0.103-0.437-0.278-0.577c-0.175-0.14-0.403-0.192-0.624-0.142L0.572,4.042C0.237,4.12,0,4.417,0,4.761  V15.95c0,0.407,0.33,0.737,0.737,0.737s0.737-0.33,0.737-0.737V5.348l16.012-3.685v22.353L0.903,20.196  c-0.398-0.099-0.792,0.155-0.884,0.553c-0.091,0.396,0.156,0.792,0.553,0.883l17.486,4.027c0.055,0.013,0.11,0.02,0.165,0.02  c0.165,0,0.327-0.056,0.459-0.16c0.176-0.141,0.278-0.353,0.278-0.577V0.737z M11.235,14.816L7.52,18c-0.341,0.307-0.511,0.443-0.511,0.938v0.067c0,0.494,0.29,0.767,0.818,0.767h6.443  c0.579,0,0.835-0.256,0.835-0.715v-0.103c0-0.442-0.256-0.681-0.835-0.681H9.411l3.102-2.572c1.347-1.123,2.42-2.043,2.42-3.814  c0-2.043-1.414-3.354-3.801-3.354c-2.607,0-3.971,1.618-3.971,2.759c0,0.92,1.159,0.902,1.159,0.852  c0.307-1.124,1.074-2.111,2.693-2.111c1.398,0,2.199,0.749,2.199,1.89C13.212,12.977,12.632,13.59,11.235,14.816z" style="fill: #44739e"></path></svg>