<svg id="feller-1421" xmlns="http://www.w3.org/2000/svg" x="0px" y="0px" width="19px" height="28px" viewBox="0 -1.323 19 28" xml:space="preserve"><path d="M18.96,0.737c0-0.225-0.103-0.437-0.278-0.577c-0.175-0.14-0.403-0.192-0.624-0.142L0.572,4.042C0.237,4.12,0,4.417,0,4.761  V15.95c0,0.407,0.33,0.737,0.737,0.737s0.737-0.33,0.737-0.737V5.348l16.012-3.685v22.353L0.903,20.196  c-0.398-0.099-0.792,0.155-0.884,0.553c-0.091,0.396,0.156,0.792,0.553,0.883l17.486,4.027c0.055,0.013,0.11,0.02,0.165,0.02  c0.165,0,0.327-0.056,0.459-0.16c0.176-0.141,0.278-0.353,0.278-0.577V0.737z M12.888,8.67c-0.835,0-1.057,0.17-1.5,0.783l-3.937,5.092c-0.324,0.442-0.494,0.715-0.494,1.09v0.374  c0,0.478,0.409,0.817,1.074,0.817h4.517v2.231c0,0.459,0.272,0.8,0.716,0.8h0.188c0.512,0,0.75-0.272,0.75-0.8v-2.231h1.21  c0.528,0,0.767-0.204,0.767-0.664v-0.085c0-0.46-0.238-0.681-0.767-0.681h-1.21V9.811C14.201,8.993,13.843,8.67,12.888,8.67z   M12.616,15.43H8.559l4.057-5.329V15.43z" style="fill: #44739e"></path></svg>