<svg id="feller-1489" xmlns="http://www.w3.org/2000/svg" x="0px" y="0px" width="24px" height="28px" xml:space="preserve"><path d="M24.249,25.672c-0.108-0.393-0.512-0.621-0.906-0.516l-1.874,0.514c-0.001-0.003,0-0.007-0.001-0.011l-1.237-4.572  c-0.616-2.23-1.903-3.354-3.149-4.439c-1.192-1.041-2.319-2.024-2.974-4.035c-0.825-2.544-1.937-6.063-2.208-6.923l6.629-1.755  c0.79,2.547,2.365,9.234,0.793,11.669c-0.221,0.342-0.123,0.798,0.22,1.019c0.341,0.224,0.799,0.123,1.019-0.22  c2.264-3.504-0.36-12.077-0.667-13.044c-0.212-0.665-0.927-1.061-1.61-0.883l-6.891,1.824c0.135-0.895,0.207-1.559,0.229-1.791  c0.068-0.695-0.439-1.345-1.131-1.448L3.369,0.014c-0.342-0.051-0.7,0.042-0.973,0.254C2.122,0.481,1.945,0.802,1.91,1.151  c0,0-0.439,4.385-0.719,7.452c-0.229,2.511,0.574,4.179,1.282,5.651c0.679,1.41,1.265,2.629,1.014,4.479l-0.664,4.686  c-0.001,0.005,0.001,0.01,0.001,0.015l-1.986-0.274c-0.4-0.044-0.775,0.227-0.831,0.63c-0.056,0.402,0.226,0.774,0.629,0.831  l5.365,0.742c0.034,0.004,0.068,0.007,0.102,0.007c0.362,0,0.678-0.268,0.729-0.637c0.056-0.402-0.226-0.774-0.629-0.831  l-1.924-0.267c0-0.003,0.002-0.006,0.003-0.009l0.665-4.689c0.312-2.293-0.43-3.832-1.146-5.321  c-0.686-1.426-1.334-2.773-1.143-4.877c0.244-2.669,0.608-6.338,0.698-7.235l6.784,0.998C9.862,5.15,8.676,11.918,6.273,13.538  c-0.337,0.228-0.427,0.686-0.199,1.023c0.228,0.337,0.686,0.427,1.023,0.199c1.929-1.301,3.082-4.648,3.742-7.531  c0.467,1.475,1.246,3.928,1.865,5.839c0.78,2.399,2.176,3.617,3.407,4.69c1.181,1.029,2.199,1.918,2.697,3.718l1.236,4.568  c0.001,0.006,0.005,0.01,0.007,0.015l-1.934,0.53c-0.393,0.107-0.623,0.514-0.516,0.906c0.09,0.327,0.387,0.542,0.711,0.542  c0.064,0,0.13-0.009,0.195-0.026l5.224-1.433C24.125,26.471,24.356,26.065,24.249,25.672z" style="fill: #44739e"></path></svg>