<svg id="feller-1600" xmlns="http://www.w3.org/2000/svg" x="0px" y="0px" width="6px" height="28px" viewBox="0 -7.448 6 28" xml:space="preserve"><path d="M5.739,0.189C5.635,0.054,5.521,0,5.345,0C5.199,0,5.127,0.018,5.1,0.027C5.043,0.093,4.877,0.298,4.455,0.883  c-0.383,0.536-0.833,1.031-1.34,1.471c-0.51,0.441-1.188,0.863-2.017,1.253C0.617,3.832,0.27,4.021,0.093,4.154  C0.066,4.173,0,4.224,0,4.444c0,0.14,0.051,0.258,0.161,0.372c0.108,0.111,0.208,0.159,0.33,0.159c0.158,0,0.841-0.129,3.005-1.788  l0.889-0.684v10.002c0,0.375,0.073,0.648,0.218,0.811c0.136,0.148,0.31,0.219,0.547,0.219c0.255,0,0.786,0,0.786-1.41V0.951  C5.936,0.609,5.87,0.353,5.739,0.189z" style="fill: #44739e"></path></svg>