<svg id="feller-1601" xmlns="http://www.w3.org/2000/svg" x="0px" y="0px" width="9px" height="28px" xml:space="preserve"><path d="M8.843,12.318c-0.18-0.141-0.471-0.211-0.866-0.211H1.982l0.495-0.748c0.169-0.258,0.344-0.49,0.521-0.689  c0.38-0.459,1.057-1.086,2.07-1.916c0.945-0.77,1.663-1.374,2.076-1.746c0.382-0.341,0.764-0.832,1.135-1.458  C8.633,4.97,8.813,4.313,8.813,3.598c0-0.45-0.086-0.891-0.254-1.31C8.39,1.868,8.151,1.494,7.852,1.176  C7.549,0.858,7.195,0.605,6.799,0.425C6.164,0.143,5.374,0,4.451,0C3.687,0,3.019,0.112,2.465,0.332  C1.913,0.551,1.454,0.839,1.103,1.188C0.75,1.537,0.481,1.931,0.307,2.356C0.129,2.782,0.039,3.193,0.039,3.579  c0,0.24,0.06,0.417,0.182,0.538C0.34,4.233,0.517,4.3,0.706,4.3c0.191,0,0.366-0.068,0.456-0.178  c0.155-0.189,0.303-0.479,0.437-0.86c0.219-0.618,0.314-0.805,0.38-0.906C2.558,1.468,3.37,1.019,4.393,1.019  c0.481,0,0.934,0.111,1.345,0.33C6.154,1.57,6.489,1.887,6.733,2.29C6.977,2.693,7.1,3.152,7.1,3.657  c0,0.454-0.107,0.917-0.321,1.378C6.574,5.476,6.273,5.917,5.885,6.345C5.498,6.76,5.023,7.165,4.475,7.547  C4.196,7.736,3.696,8.162,3.028,8.773c-0.685,0.631-1.465,1.4-2.322,2.287c-0.17,0.184-0.333,0.445-0.483,0.777  C0.029,12.26,0,12.479,0,12.572C0,12.807,0.086,13,0.27,13.182c0.18,0.178,0.442,0.266,0.803,0.266H8.26  c0.293,0,0.499-0.063,0.612-0.184c0.124-0.129,0.185-0.285,0.185-0.477C9.057,12.574,8.992,12.434,8.843,12.318z" style="fill: #44739e"></path></svg>