<svg id="feller-1602" xmlns="http://www.w3.org/2000/svg" x="0px" y="0px" width="9px" height="28px" xml:space="preserve"><path d="M8.945,8.398C8.793,8.027,8.559,7.681,8.247,7.367C7.931,7.044,7.531,6.753,7.061,6.5L6.526,6.214l0.465-0.391  c0.486-0.406,0.867-0.829,1.131-1.258c0.24-0.398,0.362-0.891,0.362-1.461c0-0.437-0.086-0.846-0.255-1.218  C8.057,1.511,7.801,1.179,7.467,0.898C7.121,0.607,6.711,0.382,6.248,0.229C5.792,0.08,5.234,0,4.635,0  C3.978,0,3.333,0.099,2.821,0.277c-0.53,0.185-0.98,0.433-1.337,0.737C1.127,1.319,0.856,1.641,0.678,1.969  C0.507,2.286,0.42,2.58,0.42,2.841c0,0.239,0.066,0.418,0.2,0.546c0.139,0.136,0.308,0.207,0.49,0.207  c0.159,0,0.293-0.052,0.355-0.082c0.072-0.032,0.121-0.069,0.159-0.133C1.728,3.144,1.849,2.87,1.986,2.578  C2.13,2.267,2.291,2.001,2.466,1.789c0.19-0.233,0.448-0.42,0.766-0.555C3.535,1.101,3.92,1.033,4.375,1.033  c0.699,0,1.269,0.226,1.692,0.67c0.419,0.436,0.632,0.966,0.632,1.576c0,0.783-0.27,1.399-0.8,1.832  C5.393,5.521,4.784,5.73,4.092,5.73h-0.4c-0.248,0-0.586,0.033-0.788,0.195C2.767,6.042,2.705,6.177,2.705,6.363  c0,0.201,0.052,0.346,0.158,0.441C2.98,6.914,3.162,6.968,3.418,6.968c0.063,0,0.222-0.012,0.487-0.037  C4.184,6.904,4.4,6.89,4.551,6.89c0.855,0,1.54,0.26,2.034,0.775c0.49,0.508,0.739,1.207,0.739,2.074  c0,0.59-0.145,1.119-0.428,1.574c-0.28,0.451-0.646,0.797-1.086,1.029c-0.428,0.229-0.885,0.344-1.357,0.344  c-0.823,0-1.479-0.268-1.945-0.795c-0.425-0.484-0.807-1.186-1.165-2.141C1.319,9.683,1.267,9.623,1.175,9.564  C1.073,9.5,0.973,9.468,0.869,9.468c-0.259,0-0.466,0.076-0.631,0.232C0.075,9.857,0,10.052,0,10.316  c0,0.232,0.091,0.551,0.271,0.943c0.187,0.406,0.467,0.807,0.833,1.191c0.365,0.379,0.837,0.701,1.4,0.955  c0.553,0.248,1.23,0.381,1.961,0.381c0.677,0,1.36-0.119,1.926-0.336c0.586-0.227,1.094-0.539,1.509-0.932  c0.421-0.395,0.742-0.846,0.955-1.34c0.215-0.498,0.323-1.021,0.323-1.557C9.178,9.183,9.1,8.771,8.945,8.398z" style="fill: #44739e"></path></svg>