<svg id="feller-1609" xmlns="http://www.w3.org/2000/svg" x="0px" y="0px" width="25px" height="28px" viewBox="0 -5.114 25 28" xml:space="preserve"><path d="M24.411,1.725c-0.063-0.09-0.141-0.17-0.243-0.226c-3.598-1.973-8.192-1.993-11.82-0.086  C8.711-0.488,4.118-0.46,0.527,1.519C0.508,1.529,0.497,1.547,0.479,1.56C0.2,1.665,0,1.929,0,2.244v16.2  c0,0.407,0.33,0.737,0.737,0.737c0.151,0,0.283-0.057,0.399-0.134c0.034-0.013,0.069-0.009,0.102-0.026  c3.224-1.777,7.379-1.78,10.606-0.009c0.042,0.023,0.088,0.027,0.132,0.041c0.112,0.069,0.237,0.12,0.379,0.12  c0.407,0,0.737-0.33,0.737-0.737V2.688c3.116-1.613,7.022-1.614,10.14-0.002v14.638c-2.521-1.108-5.434-1.366-8.075-0.714  c-0.395,0.099-0.636,0.498-0.538,0.894c0.1,0.396,0.505,0.633,0.894,0.538c2.615-0.648,5.554-0.283,7.946,1.03  c0.112,0.062,0.234,0.091,0.354,0.091c0.026,0,0.05-0.018,0.075-0.021c0.028,0.003,0.053,0.017,0.082,0.017  c0.407,0,0.737-0.33,0.737-0.737V2.3C24.707,2.062,24.585,1.859,24.411,1.725z M1.474,17.289V2.7  c3.115-1.612,7.023-1.617,10.145-0.004v14.589C8.433,15.888,4.659,15.89,1.474,17.289z" style="fill: #44739e"></path></svg>