<svg id="feller-1640" xmlns="http://www.w3.org/2000/svg" x="0px" y="0px" width="19px" height="28px" xml:space="preserve"><path d="M18.96,0.737c0-0.225-0.103-0.437-0.278-0.577s-0.403-0.192-0.624-0.142L0.572,4.042C0.237,4.12,0,4.417,0,4.761V15.95  c0,0.407,0.33,0.737,0.737,0.737s0.737-0.33,0.737-0.737V5.348l16.011-3.685V12.81c0,0.01,0.006,0.019,0.006,0.029  s-0.006,0.019-0.006,0.029v11.148L0.903,20.197c-0.398-0.1-0.792,0.155-0.884,0.553c-0.091,0.396,0.156,0.792,0.553,0.883  l17.486,4.027c0.055,0.013,0.11,0.02,0.165,0.02c0.165,0,0.327-0.056,0.459-0.16c0.176-0.141,0.278-0.353,0.278-0.577V12.868  c0-0.01-0.006-0.019-0.006-0.029s0.006-0.019,0.006-0.029V0.737z M8.58,17.076c0.033,0,0.066-0.003,0.1-0.007c0.223-0.03,0.42-0.161,0.535-0.355l4.513-7.637  c0.207-0.351,0.091-0.802-0.26-1.009c-0.354-0.209-0.804-0.091-1.01,0.259l-4.039,6.835l-2.329-2.24  c-0.292-0.28-0.759-0.273-1.042,0.021c-0.282,0.293-0.273,0.76,0.021,1.042l3,2.886C8.208,17.003,8.391,17.076,8.58,17.076z" style="fill: #44739e"></path></svg>