<svg id="feller-1677" xmlns="http://www.w3.org/2000/svg" x="0px" y="0px" width="27px" height="28px" viewBox="0 -2.346 27 28" xml:space="preserve"><path d="M26.407,0.87c-0.026-0.052-0.06-0.101-0.1-0.147C25.89,0.243,25.217,0,24.309,0c-1.746,0-3.974,0.879-4.911,1.696  l-3.203,3.115L3.889,1.726c-0.232-0.059-0.481,0.001-0.664,0.16l-2.04,1.78c-0.172,0.149-0.265,0.37-0.251,0.598  s0.131,0.436,0.319,0.565l7.326,5.031c0.127,0.088,0.272,0.13,0.417,0.13c0.234,0,0.465-0.112,0.608-0.32  c0.23-0.335,0.146-0.794-0.19-1.024L2.871,4.151l1.034-0.902L14.952,6.02l-8.4,8.169l-4.029-0.165  c-0.192-0.009-0.362,0.053-0.502,0.17l-1.756,1.464c-0.182,0.152-0.28,0.383-0.263,0.619c0.017,0.236,0.147,0.451,0.349,0.575  l4.471,2.75l1.895,4.554c0.091,0.218,0.281,0.38,0.511,0.434c0.056,0.014,0.113,0.021,0.17,0.021c0.175,0,0.346-0.063,0.481-0.179  l1.771-1.527c0.14-0.121,0.229-0.291,0.251-0.475l0.477-4.149l8.995-7.059l1.21,11.18l-1.024,0.892l-3.454-7.158  c-0.177-0.366-0.615-0.521-0.984-0.344c-0.366,0.177-0.521,0.618-0.344,0.984l3.874,8.027c0.101,0.207,0.291,0.355,0.516,0.401  c0.05,0.011,0.099,0.016,0.148,0.016c0.176,0,0.349-0.063,0.483-0.182l2.043-1.777c0.183-0.158,0.275-0.396,0.249-0.635  l-1.352-12.477l3.608-2.832c0.671-0.584,1.447-1.797,1.93-3.018C26.697,3.236,27.043,1.809,26.407,0.87z M24.906,3.757  c-0.443,1.12-1.104,2.08-1.499,2.425L9.226,17.31c-0.155,0.122-0.255,0.301-0.277,0.496L8.47,21.975L7.687,22.65l-1.595-3.834  c-0.06-0.143-0.163-0.264-0.294-0.345l-3.801-2.338l0.75-0.625l4.062,0.166c0.211-0.005,0.399-0.067,0.544-0.208L20.395,2.781  c0.677-0.588,2.615-1.307,3.914-1.307c0.445,0,0.717,0.084,0.841,0.175c0.005,0.006,0.01,0.013,0.016,0.019  C25.353,1.884,25.353,2.629,24.906,3.757z" style="fill: #44739e"></path></svg>