<svg id="feller-1691" xmlns="http://www.w3.org/2000/svg" x="0px" y="0px" width="25px" height="28px" xml:space="preserve"><path d="M10.394,12.014H9.054c1.396-0.728,2.36-2.17,2.36-3.848c0-2.406-1.957-4.363-4.362-4.363c-2.402,0-4.357,1.958-4.357,4.363  c0,1.678,0.964,3.121,2.358,3.848H3.634C1.63,12.014,0,13.643,0,15.644v9.43c0,0.438,0.355,0.794,0.793,0.794  s0.793-0.355,0.794-0.794l0-9.43c0-1.126,0.918-2.042,2.046-2.042h6.759c1.142,0,2.144,0.954,2.144,2.042v9.43  c0,0.438,0.355,0.794,0.794,0.794s0.794-0.355,0.794-0.794v-9.43C14.125,13.676,12.417,12.014,10.394,12.014z M7.052,5.39  c1.53,0,2.775,1.246,2.775,2.776c0,1.527-1.245,2.77-2.775,2.77c-1.527,0-2.77-1.243-2.77-2.77C4.282,6.636,5.525,5.39,7.052,5.39z M17.879,11.525c-0.238,0-0.576-0.016-0.848-0.144c-0.287-0.16-0.545-0.56-0.545-0.913c0-1.249,1.873-2.801,3.25-3.954  c1.664-1.393,2.434-2.097,2.434-3.185c0-1.185-0.961-1.697-1.793-1.697c-1.121,0-1.648,0.816-1.762,1.137  c-0.318,0.928-0.479,1.44-1.184,1.44c-0.447,0-0.928-0.288-0.928-0.944C16.504,2.225,17.368,0,20.409,0  c0.289,0,1.473,0.016,2.289,0.48c0.992,0.56,1.602,1.633,1.602,2.785c0,1.28-0.656,2.417-2.625,4.018  c-1.648,1.329-1.842,1.504-2.498,2.401h3.826c0.48,0,1.504-0.016,1.504,0.913c0,0.368-0.223,0.704-0.447,0.816  c-0.225,0.112-0.512,0.112-0.752,0.112H17.879z" style="fill: #44739e"></path></svg>