<svg id="feller-1692" xmlns="http://www.w3.org/2000/svg" x="0px" y="0px" width="25px" height="28px" viewBox="-0.297 -1.771 25 28" xml:space="preserve"><path d="M10.391,12.099H9.056c1.393-0.728,2.356-2.169,2.356-3.845c0-2.405-1.956-4.362-4.36-4.362  c-2.403,0-4.357,1.957-4.357,4.362c0,1.676,0.962,3.117,2.354,3.845H3.633c-2.003,0-3.632,1.627-3.632,3.628L0,25.155  c0,0.438,0.355,0.794,0.793,0.794s0.793-0.355,0.793-0.794l0.001-9.428c0-1.125,0.917-2.041,2.045-2.041h6.757  c1.142,0,2.144,0.954,2.144,2.041v9.428c0,0.438,0.355,0.794,0.793,0.794s0.794-0.355,0.794-0.794v-9.428  C14.122,13.76,12.413,12.099,10.391,12.099z M7.051,5.479c1.529,0,2.773,1.245,2.773,2.774c0,1.526-1.244,2.768-2.773,2.768  c-1.527,0-2.771-1.241-2.771-2.768C4.281,6.724,5.524,5.479,7.051,5.479z M24.405,8.06c0,1.695-1.375,3.646-4.094,3.646c-2.975,0-3.87-2.526-3.87-3.166c0-0.48,0.384-0.928,0.992-0.928  c0.607,0,0.768,0.448,0.911,0.863c0.256,0.752,0.815,1.695,1.967,1.695c0.72,0,1.967-0.528,1.967-2.047  c0-1.151-0.688-1.935-1.823-1.935c-0.159,0-0.847,0.064-0.991,0.064c-0.527,0-0.863-0.304-0.863-0.799s0.319-0.848,1.056-0.848  c0.655,0,0.911,0,1.391-0.256c0.704-0.368,0.752-1.087,0.752-1.327c0-0.784-0.544-1.487-1.551-1.487  c-1.264,0-1.567,0.864-1.711,1.263c-0.112,0.304-0.256,0.752-0.88,0.752c-0.576,0-0.88-0.448-0.88-0.896  C16.777,1.727,17.913,0,20.423,0c2.286,0,3.454,1.359,3.454,2.831c0,1.343-0.864,2.063-1.312,2.431  C23.062,5.533,24.405,6.252,24.405,8.06z" style="fill: #44739e"></path></svg>