<svg id="feller-1693" xmlns="http://www.w3.org/2000/svg" x="0px" y="0px" width="25px" height="28px" xml:space="preserve"><path d="M10.334,12.235H8.775c1.484-0.679,2.523-2.168,2.523-3.902c0-2.374-1.931-4.305-4.305-4.305c-2.371,0-4.3,1.931-4.3,4.305  c0,1.734,1.038,3.224,2.521,3.902H3.576C1.604,12.235,0,13.837,0,15.807l0,9.43c0,0.407,0.33,0.737,0.737,0.737  s0.737-0.33,0.737-0.737l0-9.43c0-1.156,0.943-2.098,2.102-2.098h6.758c1.172,0,2.2,0.98,2.2,2.098v9.43  c0,0.407,0.33,0.737,0.737,0.737s0.737-0.33,0.737-0.737v-9.43C14.009,13.871,12.326,12.235,10.334,12.235z M4.168,8.333  c0-1.561,1.268-2.831,2.826-2.831c1.561,0,2.831,1.27,2.831,2.831c0,1.558-1.27,2.825-2.831,2.825  C5.436,11.158,4.168,9.891,4.168,8.333z M17.809,9.163c-0.943,0-1.279,0-1.615-0.32c-0.304-0.304-0.4-0.656-0.4-0.912c0-0.384,0.16-0.576,0.736-1.359l4.142-5.533  C21.183,0.368,21.454,0,22.03,0c0.384,0,0.703,0.192,0.896,0.432c0.224,0.288,0.224,0.688,0.224,1.423V7.42h0.336  c0.432,0,0.848,0,1.071,0.24c0.176,0.191,0.256,0.399,0.256,0.64c0,0.224-0.08,0.432-0.271,0.624c-0.208,0.208-0.64,0.24-0.912,0.24  h-0.479v1.007c0,0.656,0,1.087-0.271,1.328c-0.192,0.176-0.433,0.288-0.704,0.288c-0.256,0-0.512-0.112-0.703-0.272  c-0.272-0.256-0.272-0.671-0.272-1.343V9.163H17.809z M21.198,7.42V2.862L17.84,7.42H21.198z" style="fill: #44739e"></path></svg>