<svg id="feller-1741" xmlns="http://www.w3.org/2000/svg" x="0px" y="0px" width="25px" height="28px" xml:space="preserve"><path d="M20.985,4.098c2.145,0,3.441,1.809,3.441,3.713c0,2.017-1.409,3.905-3.97,3.905c-2.642,0-4.21-2.017-4.21-5.522  c0-0.736,0.048-3.186,1.185-4.658C18.2,0.528,19.384,0,20.617,0c2.656,0,3.345,1.856,3.345,2.481c0,0.368-0.32,0.832-0.848,0.832  c-0.656,0-0.881-0.464-1.041-0.784C21.88,2.145,21.529,1.536,20.6,1.536c-0.48,0-1.328,0.176-1.793,1.377  c-0.304,0.8-0.368,1.889-0.399,2.417C19.096,4.514,19.896,4.098,20.985,4.098z M22.297,7.843c0-1.504-0.833-2.273-1.793-2.273  c-0.656,0-1.921,0.497-1.921,2.161c0,1.136,0.672,2.449,1.937,2.449C21.769,10.18,22.297,8.979,22.297,7.843z M10.337,12.169H8.774c1.486-0.678,2.527-2.168,2.527-3.905c0-2.375-1.931-4.306-4.305-4.306  c-2.372,0-4.301,1.932-4.301,4.306c0,1.736,1.04,3.227,2.524,3.905H3.578c-1.972,0-3.577,1.603-3.577,3.573L0,25.172  c0,0.407,0.33,0.737,0.737,0.737c0.407,0,0.737-0.33,0.737-0.737l0.001-9.43c0-1.157,0.943-2.099,2.103-2.099h6.759  c1.172,0,2.201,0.98,2.201,2.099v9.43c0,0.407,0.33,0.737,0.737,0.737s0.737-0.33,0.737-0.737v-9.43  C14.012,13.806,12.329,12.169,10.337,12.169z M4.169,8.265c0-1.562,1.269-2.833,2.827-2.833c1.561,0,2.832,1.271,2.832,2.833  c0,1.558-1.271,2.826-2.832,2.826C5.438,11.091,4.169,9.823,4.169,8.265z" style="fill: #44739e"></path></svg>