<svg id="feller-1742" xmlns="http://www.w3.org/2000/svg" x="0px" y="0px" width="25px" height="28px" viewBox="-0.353 -1.934 25 28" xml:space="preserve"><path d="M17.652,1.841c-0.272,0-1.297,0.016-1.297-0.96C16.355,0,17.091,0,17.652,0h4.722c1.088,0,1.921,0,1.921,0.977  c0,0.432-0.08,0.528-1.104,1.825c-1.585,2.017-2.289,4.049-3.01,7.635c-0.063,0.353-0.208,1.104-1.072,1.104  c-0.24,0-1.057-0.096-1.057-1.264c0-0.672,0.16-1.521,0.929-3.521c0.929-2.401,2.209-4.066,2.865-4.914H17.652z M10.337,11.994H8.774c1.486-0.678,2.527-2.168,2.527-3.905c0-2.375-1.931-4.306-4.305-4.306  c-2.372,0-4.301,1.932-4.301,4.306c0,1.736,1.04,3.227,2.524,3.905H3.578c-1.972,0-3.577,1.603-3.577,3.573L0,24.996  c0,0.407,0.33,0.737,0.737,0.737c0.407,0,0.737-0.33,0.737-0.737l0.001-9.43c0-1.157,0.943-2.099,2.103-2.099h6.759  c1.172,0,2.201,0.98,2.201,2.099v9.43c0,0.407,0.33,0.737,0.737,0.737s0.737-0.33,0.737-0.737v-9.43  C14.012,13.63,12.329,11.994,10.337,11.994z M4.169,8.089c0-1.562,1.269-2.833,2.827-2.833c1.561,0,2.832,1.271,2.832,2.833  c0,1.558-1.271,2.826-2.832,2.826C5.438,10.915,4.169,9.647,4.169,8.089z" style="fill: #44739e"></path></svg>