<svg id="feller-1743" xmlns="http://www.w3.org/2000/svg" x="0px" y="0px" width="25px" height="28px" viewBox="-0.314 -1.758 25 28" xml:space="preserve"><path d="M24.373,8.211c0,1.665-1.137,3.505-4.034,3.505c-3.217,0-4.065-2.097-4.065-3.489c0-2.097,1.473-2.673,1.969-2.881  c-0.384-0.176-1.601-0.736-1.601-2.353C16.641,1.601,17.762,0,20.243,0c3.329,0,3.729,2.305,3.729,3.009  c0,0.625-0.224,1.185-0.608,1.633c-0.352,0.416-0.688,0.576-0.96,0.704C23.508,5.794,24.373,6.658,24.373,8.211z M18.402,8.163  c0,1.376,0.992,2.081,1.921,2.081c1.009,0,1.921-0.769,1.921-2.081c0-1.296-0.881-2.033-1.937-2.033  C19.443,6.13,18.402,6.707,18.402,8.163z M18.658,3.089c0,0.993,0.736,1.569,1.649,1.569c0.928,0,1.648-0.608,1.648-1.569  c0-0.832-0.593-1.617-1.648-1.617C19.234,1.472,18.658,2.257,18.658,3.089z M10.337,12.169H8.774c1.486-0.678,2.527-2.168,2.527-3.905c0-2.375-1.931-4.306-4.305-4.306  c-2.372,0-4.301,1.932-4.301,4.306c0,1.736,1.04,3.227,2.524,3.905H3.578c-1.972,0-3.577,1.603-3.577,3.573L0,25.172  c0,0.407,0.33,0.737,0.737,0.737c0.407,0,0.737-0.33,0.737-0.737l0.001-9.43c0-1.157,0.943-2.099,2.103-2.099h6.759  c1.172,0,2.201,0.98,2.201,2.099v9.43c0,0.407,0.33,0.737,0.737,0.737s0.737-0.33,0.737-0.737v-9.43  C14.012,13.806,12.329,12.169,10.337,12.169z M4.169,8.265c0-1.562,1.269-2.833,2.827-2.833c1.561,0,2.832,1.271,2.832,2.833  c0,1.558-1.271,2.826-2.832,2.826C5.438,11.091,4.169,9.823,4.169,8.265z" style="fill: #44739e"></path></svg>