<svg id="feller-1940" xmlns="http://www.w3.org/2000/svg" x="0px" y="0px" width="21.3px" height="28.3px" xml:space="preserve"><path d="M20.9,19.2c-0.4-0.2-0.8-0.1-1,0.2c-1.8,3-5,4.8-8.5,4.8c-5.5,0-9.9-4.5-9.9-9.9c0-5.5,4.5-9.9,9.9-9.9   c0.4,0,0.7-0.3,0.7-0.7c0-0.4-0.3-0.7-0.7-0.7C5.1,2.9,0,8,0,14.3c0,6.3,5.1,11.4,11.4,11.4c4,0,7.7-2,9.7-5.5   C21.4,19.9,21.2,19.4,20.9,19.2z M19.5,4.9c-0.1,0.2-0.2,0.4-0.4,0.6c-0.5,0.5-1.2,1.1-2,1.5L17,7c-0.4,0.2-0.7,0.4-0.7,0.8c0,0.5,0.4,0.7,0.7,0.7   c0.6,0,1.7-0.8,2.4-1.4v7.7c0,0.9,0.5,1.1,0.8,1.1c0.8,0,0.8-0.9,0.8-1.1V5.4c0-0.3,0-1.1-0.8-1.1C19.9,4.3,19.7,4.6,19.5,4.9z" style="fill: #44739e"></path></svg>