<svg id="feller-1941" xmlns="http://www.w3.org/2000/svg" x="0px" y="0px" width="23.5px" height="28.3px" viewBox="0 0 23.5 28.3" xml:space="preserve"><path d="M20.9,19.2c-0.4-0.2-0.8-0.1-1,0.2c-1.8,3-5,4.8-8.5,4.8c-5.5,0-9.9-4.5-9.9-9.9c0-5.5,4.5-9.9,9.9-9.9   c0.4,0,0.7-0.3,0.7-0.7c0-0.4-0.3-0.7-0.7-0.7C5.1,2.9,0,8,0,14.3c0,6.3,5.1,11.4,11.4,11.4c4,0,7.7-2,9.7-5.5   C21.4,19.9,21.2,19.4,20.9,19.2z M23.5,14.9c0-0.7-0.6-0.8-1.2-0.8h-4.4c0.2-0.4,0.6-0.8,1.2-1.3c0.4-0.3,0.7-0.6,1-0.8c1.9-1.6,3.2-2.6,3.2-4.4   c0-2-1.5-3.3-3.7-3.3c-2.3,0-3.6,1.6-3.6,3.1c0,0.4,0.3,0.8,0.7,0.8c0.6,0,0.7-0.3,0.9-1.1c0.2-0.9,1-1.4,2-1.4c1.1,0,2,0.8,2,1.9   c0,1.1-0.6,1.8-2.8,3.5c-2.1,1.7-3.1,2.8-3.1,3.8c0,0.5,0.4,0.8,1,0.8h5.5C23,15.7,23.5,15.6,23.5,14.9z" style="fill: #44739e"></path></svg>