<svg id="feller-1942" xmlns="http://www.w3.org/2000/svg" x="0px" y="0px" width="23.4px" height="28.3px" viewBox="0 0 23.4 28.3" xml:space="preserve"><path d="M20.9,19.2c-0.4-0.2-0.8-0.1-1,0.2c-1.8,3-5,4.8-8.5,4.8c-5.5,0-9.9-4.5-9.9-9.9c0-5.5,4.5-9.9,9.9-9.9   c0.4,0,0.7-0.3,0.7-0.7c0-0.4-0.3-0.7-0.7-0.7C5.1,2.9,0,8,0,14.3c0,6.3,5.1,11.4,11.4,11.4c4,0,7.7-2,9.7-5.5   C21.4,19.9,21.2,19.4,20.9,19.2z M17.3,5c-0.8,0.6-1.2,1.5-1.2,2.1c0,0.4,0.3,0.7,0.7,0.7c0.4,0,0.6-0.1,0.9-0.9c0.3-0.8,1-1.3,1.8-1.3   c1.1,0,1.7,0.8,1.7,1.6c0,1.1-0.8,1.7-2.1,1.7c-0.6,0-1,0.3-1,0.7c0,0.3,0.2,0.7,0.8,0.7c0.2,0,0.3,0,0.5,0c0.1,0,0.3,0,0.4,0   c1.2,0,1.9,1,1.9,2c0,1.2-1,2.2-2.2,2.2c-0.9,0-1.7-0.5-2-1.5c-0.3-0.8-0.5-1-0.9-1c-0.5,0-0.8,0.4-0.8,0.7c0,0.6,0.3,1.2,0.9,2   c0.6,0.8,1.6,1.1,3,1.1c2.2,0,3.7-1.5,3.7-3.6c0-1.4-0.6-2.3-1.8-2.7c0.9-0.6,1.3-1.3,1.3-2.2c0-1.7-1.4-3-3.3-3   C18.7,4.3,17.9,4.5,17.3,5z" style="fill: #44739e"></path></svg>