<svg id="feller-1943" xmlns="http://www.w3.org/2000/svg" x="0px" y="0px" width="23.5px" height="28.3px" xml:space="preserve"><path d="M20.9,19.2c-0.4-0.2-0.8-0.1-1,0.2c-1.8,3-5,4.8-8.5,4.8c-5.5,0-9.9-4.5-9.9-9.9c0-5.5,4.5-9.9,9.9-9.9   c0.4,0,0.7-0.3,0.7-0.7c0-0.4-0.3-0.7-0.7-0.7C5.1,2.9,0,8,0,14.3c0,6.3,5.1,11.4,11.4,11.4c4,0,7.7-2,9.7-5.5   C21.4,19.9,21.2,19.4,20.9,19.2z M21.9,14.9v-1.8h0.8c0.8,0,0.9-0.5,0.9-0.7c0-0.2-0.1-0.7-0.9-0.7h-0.7V5.5c0-0.8-0.2-1.2-0.8-1.2c-0.3,0-0.5,0.2-0.9,0.7   l-4.7,6.3c-0.2,0.3-0.4,0.5-0.4,0.8c0,0.3,0.2,0.6,0.3,0.7c0.2,0.2,0.5,0.2,1,0.2h3.9v1.6c0,0.8,0.2,1.1,0.8,1.1   C21.3,15.8,21.9,15.7,21.9,14.9z M20.3,11.6h-3.3l3.3-4.5V11.6z" style="fill: #44739e"></path></svg>