<svg id="feller-1944" xmlns="http://www.w3.org/2000/svg" x="0px" y="0px" width="19.8px" height="28.3px" viewBox="0 0 19.8 28.3" xml:space="preserve"><path d="M18.1,3.8H1.7C0.8,3.8,0,4.6,0,5.5v16.3c0,1,0.8,1.7,1.7,1.7h6.4c0.4,0,0.7-0.3,0.7-0.7c0-0.4-0.3-0.7-0.7-0.7H1.7   c-0.1,0-0.3-0.1-0.3-0.3V5.5c0-0.1,0.1-0.3,0.3-0.3h16.4c0.1,0,0.3,0.1,0.3,0.3v3.2c0,0.4,0.3,0.7,0.7,0.7c0.4,0,0.7-0.3,0.7-0.7   V5.5C19.8,4.6,19.1,3.8,18.1,3.8z M16.3,12.2c-0.4,0-0.5,0.3-0.8,0.6c-0.1,0.2-0.2,0.4-0.4,0.6c-0.5,0.5-1.2,1.1-2,1.5l-0.1,0c-0.4,0.2-0.7,0.4-0.7,0.8   c0,0.5,0.4,0.7,0.6,0.7c0.6,0,1.8-0.8,2.5-1.4v7.7c0,0.9,0.4,1,0.8,1c0.6,0,0.8-0.4,0.8-1.1v-9.3C17,13.1,17,12.2,16.3,12.2z" style="fill: #44739e"></path></svg>