<svg id="feller-1946" xmlns="http://www.w3.org/2000/svg" x="0px" y="0px" width="19.8px" height="28.3px" viewBox="0 0 19.8 28.3" xml:space="preserve"><path d="M18.1,3.8H1.7C0.8,3.8,0,4.6,0,5.5v16.3c0,1,0.8,1.7,1.7,1.7h6.4c0.4,0,0.7-0.3,0.7-0.7s-0.3-0.7-0.7-0.7H1.7   c-0.1,0-0.3-0.1-0.3-0.3V5.5c0-0.1,0.1-0.3,0.3-0.3h16.4c0.1,0,0.3,0.1,0.3,0.3v3.2c0,0.4,0.3,0.7,0.7,0.7c0.4,0,0.7-0.3,0.7-0.7   V5.5C19.8,4.6,19.1,3.8,18.1,3.8z M17.2,17.2c0.9-0.6,1.4-1.3,1.4-2.2c0-1.7-1.4-2.9-3.3-2.9c-0.9,0-1.6,0.2-2.2,0.7c-0.8,0.6-1.2,1.5-1.2,2.1   c0,0.4,0.3,0.7,0.7,0.7c0.4,0,0.5-0.1,0.8-0.8c0.3-0.8,1-1.3,1.8-1.3c1.1,0,1.7,0.9,1.7,1.7c0,0.8-0.6,1.7-2.1,1.7   c-0.6,0-0.9,0.3-0.9,0.7c0,0.3,0.2,0.7,0.7,0.7c0.2,0,0.3,0,0.5,0c0.2,0,0.3,0,0.4,0c1.3,0,1.9,1,1.9,2c0,1.2-1,2.2-2.2,2.2   c-1,0-1.7-0.6-2-1.5c-0.3-0.9-0.5-1-0.8-1c-0.4,0-0.8,0.4-0.8,0.7c0,0.6,0.3,1.2,0.9,2c0.6,0.8,1.6,1.1,2.9,1.1   c2.2,0,3.7-1.5,3.7-3.6C19.1,18.5,18.5,17.6,17.2,17.2z" style="fill: #44739e"></path></svg>