<svg id="feller-1460" xmlns="http://www.w3.org/2000/svg" x="0px" y="0px" width="23px" height="28px" xml:space="preserve"><path d="M1.385,18.983c-0.583,0-1.043-0.245-1.261-0.671c-0.218-0.427-0.147-0.942,0.195-1.416c0.026-0.036,2.548-3.537,2.953-5.748  C3.4,10.441,3.45,9.793,3.499,9.166c0.112-1.442,0.228-2.933,1.303-4.958C6.191,1.574,8.64,0,11.35,0  c2.833,0.015,5.074,1.467,6.521,4.202c1.071,2.022,1.188,3.512,1.301,4.953c0.049,0.628,0.1,1.277,0.229,1.986  c0.404,2.213,2.924,5.713,2.949,5.749c0.343,0.474,0.414,0.989,0.196,1.416c-0.219,0.427-0.678,0.672-1.262,0.672L1.385,18.983z   M20.973,17.502c-0.68-0.989-2.629-3.941-3.022-6.097c-0.144-0.784-0.197-1.471-0.249-2.136c-0.11-1.409-0.205-2.625-1.134-4.378  c-1.193-2.256-2.938-3.406-5.187-3.417c-2.185,0-4.146,1.279-5.277,3.422C5.173,6.653,5.078,7.871,4.969,9.281  c-0.052,0.664-0.105,1.35-0.247,2.132c-0.4,2.184-2.4,5.188-3.025,6.088L20.973,17.502z M11.2,25.206c-2.159,0-3.916-1.756-3.916-3.914c0-0.407,0.33-0.737,0.737-0.737s0.737,0.33,0.737,0.737  c0,1.346,1.096,2.439,2.442,2.439c1.346,0,2.439-1.094,2.439-2.439c0-0.407,0.33-0.737,0.737-0.737s0.737,0.33,0.737,0.737  C15.114,23.45,13.358,25.206,11.2,25.206L11.2,25.206z" style="fill: #44739e"></path></svg>