<svg id="feller-1651" xmlns="http://www.w3.org/2000/svg" x="0px" y="0px" width="22px" height="28px" viewBox="-0.331 -3.554 22 28" xml:space="preserve"><path d="M10.67,21.34C4.787,21.34,0,16.553,0,10.669C0,4.786,4.787,0,10.67,0c5.883,0,10.669,4.786,10.669,10.669  C21.339,16.553,16.553,21.34,10.67,21.34z M10.67,1.474c-5.071,0-9.197,4.125-9.197,9.195c0,5.071,4.126,9.196,9.197,9.196  c5.07,0,9.194-4.125,9.194-9.196C19.865,5.599,15.741,1.474,10.67,1.474z M10.687,12.825L4.935,6.808C4.61,6.468,4.622,5.93,4.962,5.605C5.301,5.281,5.84,5.292,6.164,5.633l4.613,4.826l3.239-2.907  c0.351-0.314,0.888-0.286,1.201,0.065c0.313,0.35,0.285,0.887-0.064,1.201L10.687,12.825z" style="fill: #44739e"></path></svg>