<svg id="feller-1654" xmlns="http://www.w3.org/2000/svg" x="0px" y="0px" width="28px" height="28px" xml:space="preserve"><path d="M10.435,13.867h-1.61c1.514-0.678,2.575-2.19,2.575-3.951c0-2.395-1.948-4.343-4.342-4.343  c-2.391,0-4.336,1.948-4.336,4.343c0,1.761,1.06,3.273,2.571,3.951H3.606c-1.988,0-3.605,1.616-3.605,3.602L0,26.994  c0,0.407,0.33,0.737,0.737,0.737s0.737-0.33,0.737-0.737l0.001-9.525c0-1.174,0.956-2.128,2.131-2.128h6.829  c1.187,0,2.228,0.994,2.228,2.128v9.525c0,0.407,0.33,0.737,0.737,0.737s0.737-0.33,0.737-0.737v-9.525  C14.136,15.517,12.441,13.867,10.435,13.867z M4.195,9.916c0-1.582,1.284-2.87,2.862-2.87c1.582,0,2.869,1.288,2.869,2.87  c0,1.578-1.287,2.861-2.869,2.861C5.479,12.777,4.195,11.493,4.195,9.916z M26.96,3.518h-2.781V0.737C24.179,0.33,23.849,0,23.441,0h-3.912c-0.407,0-0.737,0.33-0.737,0.737v2.781H16.01  c-0.407,0-0.737,0.33-0.737,0.737v3.913c0,0.407,0.33,0.737,0.737,0.737h2.782v2.784c0,0.407,0.33,0.737,0.737,0.737h3.912  c0.407,0,0.737-0.33,0.737-0.737V8.904h2.781c0.407,0,0.737-0.33,0.737-0.737V4.254C27.697,3.847,27.367,3.518,26.96,3.518z   M26.223,7.431h-2.781c-0.407,0-0.737,0.33-0.737,0.737v2.784h-2.438V8.167c0-0.407-0.33-0.737-0.737-0.737h-2.782V4.991h2.782  c0.407,0,0.737-0.33,0.737-0.737V1.474h2.438v2.781c0,0.407,0.33,0.737,0.737,0.737h2.781V7.431z" style="fill: #44739e"></path></svg>