<svg id="feller-1655" xmlns="http://www.w3.org/2000/svg" x="0px" y="0px" width="28px" height="28px" viewBox="0 -10.099 28 28" xml:space="preserve"><path d="M4.472,0.97C4.353,0.679,4.227,0.384,4.114,0.261C3.984,0.104,3.738,0,3.501,0C2.925,0,2.773,0.386,2.54,0.981L0.144,6.927  C0.054,7.155,0,7.292,0,7.47c0,0.275,0.257,0.582,0.625,0.582c0.43,0,0.546-0.295,0.692-0.667l0.632-1.632h3.157l0.656,1.619  c0.157,0.395,0.271,0.68,0.699,0.68c0.369,0,0.646-0.318,0.646-0.604c0-0.18-0.056-0.319-0.169-0.601L4.472,0.97z M4.688,4.661  H2.343l1.15-2.987L4.688,4.661z M13.076,0c-0.233,0-0.394,0.124-0.468,0.198c-0.178,0.179-0.178,0.394-0.178,0.783v4c0,0.921-0.206,1.979-1.811,1.979  c-1.843,0-1.843-1.344-1.843-1.989V0.981c0-0.377,0-0.604-0.173-0.777C8.488,0.074,8.315,0,8.132,0C7.898,0,7.738,0.124,7.664,0.198  C7.486,0.377,7.486,0.592,7.486,0.981v3.916c0,2.182,0.989,3.154,3.207,3.154c2.01,0,3.028-1.064,3.028-3.165V0.981  c0-0.377,0-0.604-0.172-0.777C13.432,0.074,13.26,0,13.076,0z M20.568,0.677c0-0.186-0.125-0.33-0.17-0.374c-0.147-0.177-0.366-0.177-0.696-0.177h-4.42c-0.328,0-0.545,0-0.706,0.176  c-0.078,0.091-0.16,0.236-0.16,0.375c0,0.131,0.064,0.271,0.174,0.379c0.147,0.162,0.364,0.162,0.692,0.162h1.56v5.863  c0,0.375,0,0.622,0.188,0.782c0.119,0.118,0.29,0.188,0.458,0.188c0.179,0,0.35-0.069,0.463-0.185  c0.183-0.167,0.183-0.427,0.183-0.786V1.218h1.569c0.32,0,0.531,0,0.688-0.157C20.473,0.978,20.568,0.828,20.568,0.677z M24.038,0c-2.743,0-3.721,2.08-3.721,4.026s0.983,4.025,3.742,4.025c2.708,0,3.669-2.168,3.669-4.025S26.762,0,24.038,0z   M24.018,1.092c0.245,0,2.398,0.082,2.398,2.935c0,2.852-2.153,2.934-2.398,2.934c-1.406,0-2.389-1.155-2.389-2.809  c0-0.384,0.053-1.686,0.736-2.345C22.69,1.48,23.24,1.092,24.018,1.092z" style="fill: #44739e"></path></svg>