<svg id="feller-1748" xmlns="http://www.w3.org/2000/svg" x="0px" y="0px" width="25px" height="28px" xml:space="preserve"><path d="M15.2,15.5h5.3c0.4,0,0.7-0.3,0.7-0.7c0-0.4-0.3-0.7-0.7-0.7h-5.3c-0.4,0-0.7,0.3-0.7,0.7C14.4,15.2,14.8,15.5,15.2,15.5z M20.5,17.3h-5.3c-0.4,0-0.7,0.3-0.7,0.7c0,0.4,0.3,0.7,0.7,0.7h5.3c0.4,0,0.7-0.3,0.7-0.7C21.2,17.7,20.9,17.3,20.5,17.3z M7.9,16.4c-0.1-0.1-0.2-0.2-0.3-0.3c0.1-0.1,0.3-0.3,0.3-0.4c0.1-0.2,0.2-0.5,0.2-0.8c0-0.2,0-0.5-0.1-0.7   c-0.1-0.2-0.2-0.4-0.4-0.6c-0.2-0.2-0.4-0.3-0.7-0.4c-0.5-0.2-1.2-0.2-1.7,0c-0.3,0.1-0.5,0.2-0.7,0.4c-0.2,0.2-0.3,0.3-0.4,0.5   c-0.1,0.2-0.2,0.4-0.2,0.6c0,0.2,0.1,0.4,0.2,0.5c0.2,0.2,0.6,0.2,0.8,0.1c0.1-0.1,0.2-0.1,0.3-0.2c0-0.1,0.1-0.2,0.2-0.3   c0.1-0.1,0.1-0.2,0.2-0.3c0-0.1,0.1-0.1,0.2-0.1c0.1,0,0.2-0.1,0.3-0.1c0.2,0,0.3,0.1,0.4,0.2c0.1,0.1,0.2,0.2,0.2,0.4   c0,0.2-0.1,0.4-0.2,0.5c-0.1,0.1-0.3,0.2-0.5,0.2H5.7c-0.2,0-0.4,0.1-0.6,0.2c-0.1,0.1-0.2,0.3-0.2,0.5c0,0.2,0.1,0.4,0.2,0.5   c0.1,0.1,0.3,0.2,0.5,0.2c0,0,0.1,0,0.2,0c0.1,0,0.2,0,0.2,0c0.3,0,0.5,0.1,0.6,0.2c0.1,0.1,0.2,0.3,0.2,0.6c0,0.2,0,0.3-0.1,0.5   c-0.1,0.1-0.2,0.2-0.3,0.3c-0.1,0.1-0.3,0.1-0.4,0.1c-0.2,0-0.4-0.1-0.5-0.2c-0.1-0.2-0.3-0.4-0.4-0.8c0-0.1-0.1-0.2-0.2-0.3   c-0.3-0.2-0.6-0.1-0.9,0.1c-0.1,0.1-0.2,0.3-0.2,0.5c0,0.2,0,0.3,0.1,0.6c0.1,0.2,0.2,0.4,0.4,0.6c0.2,0.2,0.4,0.4,0.7,0.5   c0.3,0.1,0.6,0.2,1,0.2c0.4,0,0.7-0.1,1-0.2c0.3-0.1,0.6-0.3,0.8-0.5C8,19,8.2,18.7,8.3,18.5c0.1-0.3,0.2-0.5,0.2-0.8   c0-0.2,0-0.5-0.1-0.7C8.2,16.8,8.1,16.6,7.9,16.4z M11.5,13.3c0,0-0.1,0.1-0.3,0.4c-0.1,0.2-0.3,0.4-0.5,0.6c-0.2,0.2-0.4,0.3-0.8,0.5c-0.2,0.1-0.4,0.2-0.5,0.3   c-0.1,0.1-0.2,0.2-0.2,0.5c0,0.2,0.1,0.3,0.2,0.5c0.1,0.1,0.3,0.2,0.5,0.2c0.2,0,0.5-0.1,1.2-0.6v3.4c0,0.3,0.1,0.5,0.2,0.6   c0.1,0.2,0.3,0.2,0.6,0.2c0.3,0,0.8-0.1,0.8-1.1V14c0-0.2-0.1-0.4-0.2-0.6C12.2,13.1,11.7,13.1,11.5,13.3z M22.9,6.4h-1.9v-2c0-0.4-0.3-0.7-0.7-0.7c-0.4,0-0.7,0.3-0.7,0.7v2H5.5v-2c0-0.4-0.3-0.7-0.7-0.7S4.1,4,4.1,4.4v2H2.1   C1,6.4,0.1,7.3,0.1,8.5v13.8c0,1.1,0.9,2.1,2.1,2.1h20.7c1.1,0,2.1-0.9,2.1-2.1V8.5C24.9,7.3,24,6.4,22.9,6.4z M23.5,22.3   c0,0.3-0.3,0.6-0.6,0.6H2.1c-0.3,0-0.6-0.3-0.6-0.6V8.5c0-0.3,0.3-0.6,0.6-0.6h1.9v1.6c0,0.4,0.3,0.7,0.7,0.7s0.7-0.3,0.7-0.7V7.8   h13.9v1.6c0,0.4,0.3,0.7,0.7,0.7c0.4,0,0.7-0.3,0.7-0.7V7.8h1.9c0.3,0,0.6,0.3,0.6,0.6V22.3z" style="fill: #44739e"></path></svg>