<svg id="feller-1750" xmlns="http://www.w3.org/2000/svg" x="0px" y="0px" width="28px" height="28px" viewBox="0 0 28 28" xml:space="preserve"><path d="M18.4,19.2c-1.9,0-3.4,1.5-3.4,3.4c0,1.9,1.5,3.4,3.4,3.4c1.9,0,3.4-1.5,3.4-3.4C21.9,20.7,20.3,19.2,18.4,19.2z    M18.4,24.6c-1.1,0-2-0.9-2-2c0-1.1,0.9-2,2-2c1.1,0,2,0.9,2,2C20.4,23.7,19.5,24.6,18.4,24.6z M10.7,19.2c-1.9,0-3.4,1.5-3.4,3.4c0,1.9,1.5,3.4,3.4,3.4c1.9,0,3.4-1.5,3.4-3.4C14.2,20.7,12.6,19.2,10.7,19.2z    M10.7,24.6c-1.1,0-2-0.9-2-2c0-1.1,0.9-2,2-2c1.1,0,2,0.9,2,2C12.7,23.7,11.8,24.6,10.7,24.6z M27.4,18.8L21.1,7.6c-0.7-1.3-2.5-2.4-4-2.4H1C0.6,5.2,0.3,5.5,0.3,6S0.6,6.7,1,6.7h16.1c1,0,2.3,0.7,2.7,1.6l0.3,0.6h-7.5   c-0.3,0-0.5,0.1-0.6,0.3c-0.1,0.2-0.1,0.5,0,0.7l2.9,6c0.1,0.3,0.4,0.4,0.7,0.4h8.7l1.8,3.2c0.2,0.3,0.2,0.5,0.1,0.7   c-0.1,0.1-0.3,0.2-0.6,0.2l-2.4,0c-0.4,0-0.7,0.3-0.7,0.7c0,0.4,0.3,0.7,0.7,0.7c0,0,0,0,0,0l2.4,0c0.9,0,1.6-0.3,1.9-0.9   C27.8,20.3,27.8,19.6,27.4,18.8z M16.1,14.9l-2.2-4.5H21l2.5,4.5H16.1z M6,20.4H1c-0.4,0-0.7,0.3-0.7,0.7s0.3,0.7,0.7,0.7h5c0.4,0,0.7-0.3,0.7-0.7S6.4,20.4,6,20.4z M9.2,3.4h6.5c0.4,0,0.7-0.3,0.7-0.7c0-0.4-0.3-0.7-0.7-0.7H9.2c-0.4,0-0.7,0.3-0.7,0.7C8.5,3.1,8.8,3.4,9.2,3.4z M1,10.7h7.5c0.4,0,0.7-0.3,0.7-0.7c0-0.4-0.3-0.7-0.7-0.7H1c-0.4,0-0.7,0.3-0.7,0.7C0.3,10.3,0.6,10.7,1,10.7z M1,14.3h7.5c0.4,0,0.7-0.3,0.7-0.7s-0.3-0.7-0.7-0.7H1c-0.4,0-0.7,0.3-0.7,0.7S0.6,14.3,1,14.3z" style="fill: #44739e"></path></svg>