<svg id="feller-1753" xmlns="http://www.w3.org/2000/svg" x="0px" y="0px" width="22px" height="28px" viewBox="-0.102 -3.507 22 28" xml:space="preserve"><path d="M10.67,0C4.787,0,0,4.787,0,10.671C0,16.554,4.787,21.34,10.67,21.34c5.883,0,10.669-4.786,10.669-10.669  C21.339,4.787,16.553,0,10.67,0z M18.205,5.415l-1.728,0.998c-0.353,0.204-0.474,0.654-0.271,1.007  c0.137,0.236,0.385,0.369,0.64,0.369c0.125,0,0.252-0.032,0.367-0.099l1.732-1c0.492,1.02,0.802,2.141,0.886,3.326H11.39V1.51  c1.132,0.088,2.206,0.383,3.186,0.847l-1,1.732c-0.203,0.353-0.082,0.803,0.271,1.007c0.115,0.067,0.242,0.099,0.367,0.099  c0.255,0,0.503-0.132,0.64-0.369l1.006-1.741C16.774,3.713,17.568,4.504,18.205,5.415z M10.67,19.865  c-5.071,0-9.197-4.124-9.197-9.194c0-4.816,3.724-8.773,8.442-9.159v9.239c0,0.407,0.33,0.737,0.737,0.737h9.171  C19.408,16.176,15.465,19.865,10.67,19.865z" style="fill: #44739e"></path></svg>