<svg id="feller-1794" xmlns="http://www.w3.org/2000/svg" x="0px" y="0px" width="23.5px" height="28.3px" viewBox="0 0 23.5 28.3" xml:space="preserve"><path d="M16.6,10.7c0.1,0.2,0.4,0.3,0.6,0.3c0.1,0,0.3,0,0.4-0.1l5.5-3.7c0.2-0.1,0.3-0.4,0.3-0.6c0-0.2-0.1-0.5-0.3-0.6l-5.5-3.7  c-0.3-0.2-0.8-0.1-1,0.2c-0.2,0.3-0.1,0.8,0.2,1l3.6,2.4l-8.8,0C6.7,5.6,2.4,8.2,0.8,12.3C-1.3,17.3,0.9,23,5.7,25  c1.2,0.5,2.4,0.7,3.5,0.7c3.5,0,6.4-2.1,7.7-4.7c0,0,0,0,0,0c0,0,0,0,0-0.1c0.1-0.1,0.1-0.3,0.2-0.4c0-0.1,0-0.1,0-0.2  c0.7-1.9,0.7-3.8,0.1-5.5c-0.7-1.9-2.3-3.3-4.3-4.2c-3.3-1.4-7.1,0.2-8.5,3.5c-1.1,2.7,0.1,5.9,2.9,7c0.6,0.2,1.2,0.4,1.8,0.4  c0.6,0,1.2-0.1,1.8-0.4c1.1-0.5,1.8-1.3,2.2-2.4c0.6-1.8-0.3-3.3-1.5-3.9c-1.3-0.6-2.7-0.1-3.5,1.2c-0.2,0.4-0.1,0.8,0.3,1  c0.4,0.2,0.8,0.1,1-0.3c0.4-0.7,1.1-0.8,1.6-0.6c0.6,0.3,1.1,1,0.8,2.1c-0.2,0.7-0.7,1.2-1.4,1.5c-0.8,0.3-1.6,0.3-2.4,0  c-2-0.8-2.9-3.1-2.1-5.1c1.1-2.5,4-3.8,6.6-2.7c1.7,0.7,2.9,1.9,3.5,3.4c0.6,1.5,0.5,3.2-0.3,4.9c0,0,0,0,0,0  c-1.5,2.9-5.5,4.8-9.4,3.2c-4-1.6-5.9-6.5-4.1-10.8c1.4-3.5,5.1-5.7,9.4-5.5l8.8,0l-3.4,2.3C16.5,9.9,16.4,10.4,16.6,10.7z" style="fill: #44739e"></path></svg>