<svg id="feller-1795" xmlns="http://www.w3.org/2000/svg" x="0px" y="0px" width="23.5px" height="28.3px" xml:space="preserve"><path d="M22.7,12.3C21,8.2,16.8,5.6,11.9,5.9l-8.9,0l3.6-2.4c0.3-0.2,0.4-0.7,0.2-1C6.6,2.1,6.1,2,5.8,2.2L0.3,5.9  C0.1,6.1,0,6.3,0,6.6C0,6.8,0.1,7,0.3,7.2l5.5,3.7C5.9,11,6.1,11,6.2,11c0.2,0,0.5-0.1,0.6-0.3c0.2-0.3,0.1-0.8-0.2-1L3.2,7.3l8.8,0  c4.2-0.2,7.9,2,9.3,5.5c1.8,4.3-0.1,9.1-4.1,10.8c-3.9,1.6-7.9-0.3-9.4-3.2c0,0,0,0,0,0c-0.8-1.7-0.9-3.5-0.3-4.9  c0.6-1.5,1.8-2.7,3.5-3.4c2.6-1.1,5.5,0.1,6.6,2.7c0.8,2-0.1,4.2-2.1,5.1c-0.8,0.3-1.7,0.3-2.4,0c-0.7-0.3-1.2-0.8-1.4-1.5  c-0.4-1,0.1-1.8,0.8-2.1c0.5-0.2,1.2-0.2,1.6,0.6c0.2,0.4,0.6,0.5,1,0.3c0.4-0.2,0.5-0.6,0.3-1c-0.7-1.3-2.1-1.8-3.5-1.2  c-1.3,0.6-2.2,2.1-1.5,3.9c0.4,1.1,1.2,1.9,2.2,2.4c0.6,0.3,1.2,0.4,1.8,0.4c0.6,0,1.2-0.1,1.8-0.4c2.7-1.1,4-4.3,2.9-7  c-1.4-3.3-5.2-4.9-8.5-3.5c-2,0.9-3.6,2.4-4.3,4.2c-0.7,1.7-0.6,3.6,0.1,5.5c0,0.1,0,0.1,0,0.2c0.1,0.1,0.1,0.3,0.2,0.4  c0,0,0,0,0,0.1c0,0,0,0,0,0c1.3,2.7,4.3,4.7,7.7,4.7c1.1,0,2.3-0.2,3.5-0.7C22.5,23,24.7,17.3,22.7,12.3z" style="fill: #44739e"></path></svg>