<svg id="feller-1818" xmlns="http://www.w3.org/2000/svg" x="0px" y="0px" width="14px" height="28.4px" viewBox="0 0 14 28.4" xml:space="preserve"><path d="M2.4,26.4c-0.1,0-0.3,0-0.4-0.1c-0.3-0.2-0.4-0.6-0.3-0.9l4.2-9.5H0.7c-0.2,0-0.5-0.1-0.6-0.3c-0.1-0.2-0.2-0.5-0.1-0.7   l3.7-8.4c0.2-0.4,0.6-0.5,1-0.4C5,6.3,5.2,6.7,5,7.1l-3.2,7.3h5.3c0.2,0,0.5,0.1,0.6,0.3c0.1,0.2,0.2,0.5,0.1,0.7l-2.3,5.2l6.5-8.2   H6.1c-0.3,0-0.5-0.2-0.7-0.4c-0.1-0.3-0.1-0.6,0.1-0.8l5.2-6.4l-5.3,0h0c-0.4,0-0.7-0.3-0.7-0.7c0-0.4,0.3-0.7,0.7-0.7l6.8,0h0   c0.3,0,0.5,0.2,0.7,0.4c0.1,0.3,0.1,0.6-0.1,0.8L7.7,11h5.8c0.3,0,0.5,0.2,0.7,0.4c0.1,0.3,0.1,0.6-0.1,0.8l-11,14   C2.8,26.3,2.6,26.4,2.4,26.4" style="fill: #44739e"></path></svg>