<svg id="feller-1911" xmlns="http://www.w3.org/2000/svg" x="0px" y="0px" width="23.6px" height="28.3px" viewBox="0 0 23.6 28.3" xml:space="preserve"><path d="M10.6,13.1c-0.6,0-1.1,0.5-1.1,1.1c0,0.3,0.1,0.6,0.3,0.8c0,0,0,0,0,0c0,0,0,0,0,0c0.2,0.2,0.5,0.3,0.8,0.3   c0.6,0,1.1-0.5,1.1-1.1C11.7,13.6,11.2,13.1,10.6,13.1z M4.8,6.9c0.2,0,0.3,0,0.4-0.1c1.7-1.2,3-1.7,4.8-1.7c0.4,0,0.7-0.3,0.7-0.7c0-0.4-0.3-0.7-0.7-0.7c0,0,0,0,0,0    c-2.1,0-3.8,0.6-5.7,2C4,5.8,4,6.3,4.2,6.6C4.4,6.8,4.6,6.9,4.8,6.9z M12.5,5.3c1.9,0.3,3.1,1,4.5,2.5C17.2,7.9,17.4,8,17.6,8c0.2,0,0.4-0.1,0.5-0.2c0.3-0.3,0.3-0.7,0-1    c-1.6-1.7-3.1-2.5-5.3-2.9c0,0,0,0,0,0l0,0c0,0,0,0,0,0h0c0,0,0,0,0,0c0,0,0,0,0,0c0,0,0,0,0,0s0,0,0,0C12.4,3.8,12,4,11.9,4.4    C11.9,4.8,12.1,5.2,12.5,5.3z M19.5,18.5c-0.4-0.2-0.8-0.1-1,0.3c-1.6,2.8-4.7,4.6-7.9,4.6c-5,0-9.1-4.1-9.1-9.1c0-2.4,0.6-4.1,2-5.7    c0.3-0.3,0.2-0.8-0.1-1s-0.8-0.2-1,0.1C0.7,9.4,0,11.5,0,14.2C0,20,4.8,24.8,10.6,24.8c3.8,0,7.3-2,9.2-5.3    C20,19.1,19.9,18.7,19.5,18.5z M8,14.2c0,0.4,0.1,0.8,0.3,1.2l-1.1,1.1c-0.3,0.3-0.3,0.8,0,1c0.1,0.1,0.3,0.2,0.5,0.2s0.4-0.1,0.5-0.2l1.1-1.1    c0.4,0.2,0.8,0.3,1.2,0.3c1.4,0,2.6-1.1,2.6-2.6c0-0.5-0.1-0.9-0.3-1.2l2.7-2.8c0.3-0.3,0.3-0.8,0-1c-0.3-0.3-0.8-0.3-1,0    l-2.7,2.8c-0.4-0.2-0.7-0.3-1.2-0.3C9.2,11.6,8,12.8,8,14.2z M11.7,14.2c0,0.6-0.5,1.1-1.1,1.1c-0.3,0-0.6-0.1-0.8-0.3    c0,0,0,0,0,0c0,0,0,0,0,0c-0.2-0.2-0.3-0.5-0.3-0.8c0-0.6,0.5-1.1,1.1-1.1S11.7,13.6,11.7,14.2z M23.3,10.8c-0.3-0.2-0.8-0.1-1,0.2l-1.1,1.8c-0.2-1.5-0.6-2.7-1.4-3.9c0,0,0,0,0,0c-0.2-0.3-0.7-0.5-1-0.2    c-0.2,0.1-0.3,0.3-0.3,0.5c0,0.2,0,0.3,0,0.5c0,0,0,0.1,0.1,0.1c0.7,1.1,1,2.1,1.2,3.5l-1.9-1.7c-0.3-0.3-0.8-0.2-1,0.1    c-0.3,0.3-0.2,0.8,0.1,1l3.4,3c0.1,0.1,0.3,0.2,0.5,0.2c0,0,0.1,0,0.1,0c0.2,0,0.4-0.2,0.5-0.3l2.2-3.5    C23.7,11.5,23.6,11,23.3,10.8z" style="fill: #44739e"></path></svg>