<svg id="feller-1917" xmlns="http://www.w3.org/2000/svg" x="0px" y="0px" width="21.8px" height="28.3px" xml:space="preserve"><path d="M10.1,14.5v-0.1v-0.1v-0.1c0,0,0-0.1-0.1-0.1V14L4.9,6.3L4.8,6.2l0,0C4.5,5.8,4,5.8,3.7,6C1.2,8.2-0.2,11.4,0,15l0,0l0,0   c0.4,3.5,2.2,6.5,5,8.2c0.1,0.1,0.3,0.1,0.4,0.1c0.2,0,0.4-0.1,0.6-0.3c0,0,0,0,0,0l0,0l0,0c0,0,0.1-0.1,0.1-0.2L10.1,14.5   C10.1,14.6,10.1,14.5,10.1,14.5z M5.1,21.5c-2-1.5-3.3-3.9-3.6-6.6c-0.2-2.8,0.8-5.3,2.6-7.1l4.5,6.6L5.1,21.5z M21.1,14.1L21.1,14.1c-0.1,0-0.1,0-0.2,0l-9.1,0.7h-0.1h-0.1c0,0-0.1,0-0.1,0.1c0,0-0.1,0-0.1,0.1l-0.1,0.1   c0,0,0,0-0.1,0.1l-4,8.2c0,0.1,0,0.1,0,0.2l0,0c-0.1,0.4,0.1,0.8,0.4,0.9c1.1,0.4,2.3,0.6,3.4,0.6c2.1,0,4.2-0.6,6.1-1.9l0,0l0,0   c2.8-2.1,4.5-5.1,4.6-8.4C21.9,14.4,21.5,14.1,21.1,14.1z M16.4,22c-2.3,1.5-5,2-7.5,1.4l3.5-7.2l7.9-0.6   C20,18.1,18.6,20.4,16.4,22z M5.9,5.4C5.9,5.4,5.9,5.5,5.9,5.4l5.2,7.6l0,0c0.1,0.1,0.1,0.1,0.2,0.2c0,0,0,0,0.1,0s0.2,0.1,0.3,0.1l0,0l0,0l0,0l9.1-0.7   h0.1H21c0.4-0.1,0.7-0.5,0.6-0.9c-0.6-3.3-2.7-6.1-5.9-7.6l0,0l0,0l0,0l0,0C12.5,2.8,9,2.9,6.1,4.4C5.8,4.6,5.6,5.1,5.9,5.4   C5.8,5.4,5.9,5.4,5.9,5.4z M15.1,5.6c2.5,1.3,4.2,3.3,4.9,5.8L12,12L7.6,5.4C9.9,4.4,12.6,4.4,15.1,5.6z" style="fill: #44739e"></path></svg>