<svg id="feller-1920" xmlns="http://www.w3.org/2000/svg" x="0px" y="0px" width="21.4px" height="28.3px" viewBox="0 0 21.4 28.3" xml:space="preserve"><path d="M8.7,24.4c-0.4,0-0.7-0.3-0.7-0.7L7.9,13.1L0.2,5.2C0,5-0.1,4.7,0.1,4.4C0.2,4.1,0.4,4,0.7,4l20,0h0c0.3,0,0.6,0.2,0.7,0.4  c0.1,0.3,0.1,0.6-0.1,0.8l-7,7.6l-0.1,7.4c0,0.4-0.3,0.7-0.7,0.7c0,0,0,0,0,0c-0.4,0-0.7-0.3-0.7-0.7l0.1-7.7c0-0.2,0.1-0.4,0.2-0.5  L19,5.4l-16.5,0l6.7,6.8c0.1,0.1,0.2,0.3,0.2,0.5l0.1,10.9C9.5,24.1,9.1,24.4,8.7,24.4C8.7,24.4,8.7,24.4,8.7,24.4z" style="fill: #44739e"></path></svg>