<svg id="feller-1958" xmlns="http://www.w3.org/2000/svg" x="0px" y="0px" width="27.2px" height="28px" viewBox="0 0 27.2 28" xml:space="preserve"><path d="M21.9,11.7c-0.4,0-0.8,0-1.2,0.1c-0.7-3.4-3.6-5.9-7.2-5.9c-3.5,0-6.5,2.5-7.2,5.9c-0.4-0.1-0.8-0.1-1.2-0.1   C2.3,11.7,0,14,0,16.9c0,2.9,2.3,5.2,5.2,5.2h16.7c2.9,0,5.2-2.3,5.2-5.2C27.2,14,24.8,11.7,21.9,11.7z M21.9,20.6H5.2   c-2.1,0-3.8-1.7-3.8-3.8c0-2.1,1.7-3.7,3.8-3.7c0.5,0,1,0.1,1.5,0.3c0.2,0.1,0.5,0.1,0.7,0s0.3-0.3,0.4-0.6   c0.2-3.1,2.7-5.5,5.8-5.5c3.1,0,5.6,2.4,5.8,5.5c0,0.2,0.1,0.5,0.4,0.6c0.2,0.1,0.5,0.1,0.7,0c0.5-0.2,1-0.3,1.5-0.3   c2.1,0,3.8,1.7,3.8,3.7C25.7,19,24,20.6,21.9,20.6z M21.8,16.2l-4.2-2.4c-0.4-0.2-0.8-0.1-1,0.3c-0.2,0.4-0.1,0.8,0.3,1l1.7,1l-9.3,0l1.7-1c0.4-0.2,0.5-0.6,0.3-1   c-0.2-0.4-0.6-0.5-1-0.3l-4.2,2.4c-0.2,0.1-0.4,0.4-0.4,0.6c0,0.3,0.1,0.5,0.4,0.6l4.2,2.3c0.1,0.1,0.2,0.1,0.4,0.1   c0.3,0,0.5-0.1,0.6-0.4c0.2-0.4,0.1-0.8-0.3-1l-1.7-1l9.3,0l-1.7,1c-0.4,0.2-0.5,0.6-0.3,1c0.1,0.2,0.4,0.4,0.6,0.4   c0.1,0,0.2,0,0.4-0.1l4.2-2.3c0.2-0.1,0.4-0.4,0.4-0.6C22.1,16.6,22,16.4,21.8,16.2z" style="fill: #44739e"></path></svg>